<?xml version="1.0" standalone="no"?>
<!DOCTYPE svg PUBLIC "-//W3C//DTD SVG 20010904//EN"
 "http://www.w3.org/TR/2001/REC-SVG-20010904/DTD/svg10.dtd">
<svg version="1.0" xmlns="http://www.w3.org/2000/svg"
 width="3200.000000pt" height="1792.000000pt" viewBox="0 0 3200.000000 1792.000000"
 preserveAspectRatio="xMidYMid meet">

<g transform="translate(0.000000,1792.000000) scale(0.100000,-0.100000)"
fill="#000000" stroke="none">
<path d="M16603 14533 c15 -2 39 -2 55 0 15 2 2 4 -28 4 -30 0 -43 -2 -27 -4z"/>
<path d="M17133 14473 c9 -2 23 -2 30 0 6 3 -1 5 -18 5 -16 0 -22 -2 -12 -5z"/>
<path d="M17148 14423 c6 -2 18 -2 25 0 6 3 1 5 -13 5 -14 0 -19 -2 -12 -5z"/>
<path d="M17588 14343 c7 -3 16 -2 19 1 4 3 -2 6 -13 5 -11 0 -14 -3 -6 -6z"/>
<path d="M17628 14333 c6 -2 18 -2 25 0 6 3 1 5 -13 5 -14 0 -19 -2 -12 -5z"/>
<path d="M17553 14313 c9 -2 23 -2 30 0 6 3 -1 5 -18 5 -16 0 -22 -2 -12 -5z"/>
<path d="M17583 14293 c9 -2 23 -2 30 0 6 3 -1 5 -18 5 -16 0 -22 -2 -12 -5z"/>
<path d="M12980 14170 c0 -5 5 -10 11 -10 5 0 7 5 4 10 -3 6 -8 10 -11 10 -2
0 -4 -4 -4 -10z"/>
<path d="M16253 14053 c9 -2 23 -2 30 0 6 3 -1 5 -18 5 -16 0 -22 -2 -12 -5z"/>
<path d="M16598 14012 c9 -11 21 -17 25 -14 5 2 0 10 -10 18 -26 20 -36 17
-15 -4z"/>
<path d="M13583 13735 c-84 -23 -150 -60 -157 -90 -4 -14 -10 -23 -15 -21 -9
6 -33 -50 -68 -154 -24 -74 -24 -299 1 -420 31 -152 82 -297 138 -400 17 -30
53 -95 80 -145 27 -49 56 -97 65 -105 10 -9 8 -1 -6 22 -15 25 -20 45 -16 59
5 15 4 19 -4 15 -6 -4 -11 -2 -11 3 0 6 9 10 19 8 11 -1 20 2 19 6 0 5 12 21
27 37 l26 28 -29 48 c-17 27 -44 87 -62 134 -18 47 -36 93 -41 102 -16 32 -67
202 -80 266 -19 99 -7 246 25 313 35 72 52 90 111 118 68 32 112 36 178 17 31
-9 67 -14 79 -11 15 4 30 -1 43 -12 11 -10 36 -29 55 -43 19 -13 38 -28 41
-33 4 -5 10 -4 13 2 10 16 -55 129 -101 174 -21 21 -65 52 -98 68 -68 33 -143
38 -232 14z m224 -131 c-3 -3 -12 -4 -19 -1 -8 3 -5 6 6 6 11 1 17 -2 13 -5z"/>
<path d="M18312 13734 c-70 -18 -100 -35 -149 -81 -42 -40 -113 -166 -113
-200 0 -14 6 -11 25 14 37 46 119 103 149 103 15 0 29 6 32 13 3 9 25 11 89 6
132 -10 207 -55 256 -150 26 -53 29 -67 28 -156 0 -166 -24 -270 -90 -409 -16
-34 -29 -67 -29 -74 0 -7 -6 -24 -14 -38 -25 -49 -76 -168 -76 -180 0 -6 16
-19 35 -28 22 -10 35 -23 35 -35 0 -39 39 4 80 88 22 45 40 85 40 88 0 4 6 21
14 38 32 69 86 251 106 352 48 249 3 464 -120 579 -89 84 -174 104 -298 70z
m55 -111 c-20 -2 -52 -2 -70 0 -17 2 0 4 38 4 39 0 53 -2 32 -4z m300 -460
c-3 -10 -5 -4 -5 12 0 17 2 24 5 18 2 -7 2 -21 0 -30z"/>
<path d="M15390 13682 l0 -29 80 -7 c44 -3 114 -14 156 -22 41 -9 76 -14 77
-12 1 1 12 22 25 45 12 23 22 44 22 46 0 2 -81 5 -180 6 l-180 2 0 -29z m323
-12 c-5 -19 -23 -39 -23 -25 0 9 20 45 24 45 2 0 2 -9 -1 -20z"/>
<path d="M17083 13695 c-15 -16 -16 -25 -5 -25 4 0 13 9 20 20 14 23 3 26 -15
5z"/>
<path d="M16985 13690 c-3 -5 -1 -10 4 -10 6 0 11 5 11 10 0 6 -2 10 -4 10 -3
0 -8 -4 -11 -10z"/>
<path d="M17028 13642 c9 -10 19 -17 21 -16 6 5 -20 34 -30 34 -5 0 -1 -8 9
-18z"/>
<path d="M17060 13609 c0 -5 5 -7 10 -4 6 3 10 8 10 11 0 2 -4 4 -10 4 -5 0
-10 -5 -10 -11z"/>
<path d="M17080 13592 c0 -10 22 -32 32 -32 15 0 8 15 -12 28 -11 7 -20 9 -20
4z"/>
<path d="M19880 13510 c8 -5 20 -10 25 -10 6 0 3 5 -5 10 -8 5 -19 10 -25 10
-5 0 -3 -5 5 -10z"/>
<path d="M18930 13264 c0 -32 -7 -86 -16 -119 -9 -33 -17 -72 -18 -87 0 -14
-3 -24 -5 -22 -3 2 -21 -40 -42 -93 -20 -54 -53 -133 -73 -176 -20 -43 -36
-85 -36 -92 0 -7 -4 -15 -9 -17 -10 -4 -71 -122 -71 -138 0 -19 19 0 39 37 27
54 34 17 6 -40 -12 -26 -24 -45 -27 -42 -2 2 -10 -12 -18 -33 -7 -20 -21 -48
-31 -61 -31 -38 -22 -47 10 -10 27 30 91 140 131 224 8 17 17 32 20 35 25 25
117 286 124 355 2 17 9 50 16 73 11 43 16 250 5 260 -3 3 -5 -21 -5 -54z m-76
-439 c-6 -16 -24 -21 -24 -7 0 11 11 22 21 22 5 0 6 -7 3 -15z m-29 -67 c-9
-42 -22 -57 -31 -34 -8 20 11 66 27 66 7 0 8 -11 4 -32z m-46 -122 c1 -4 -6
-6 -13 -3 -11 4 -13 1 -9 -11 4 -13 3 -14 -6 -6 -9 8 -9 18 0 40 10 27 12 27
19 9 5 -11 9 -24 9 -29z m-39 -44 c0 -15 -2 -15 -10 -2 -13 20 -13 33 0 25 6
-3 10 -14 10 -23z"/>
<path d="M18802 12740 c0 -14 2 -19 5 -12 2 6 2 18 0 25 -3 6 -5 1 -5 -13z"/>
<path d="M19640 13031 c0 -6 4 -20 9 -33 5 -13 14 -41 21 -63 7 -22 27 -62 45
-90 19 -27 43 -74 54 -102 12 -29 30 -77 42 -105 11 -29 24 -62 29 -73 14 -30
60 -218 65 -267 2 -24 9 -77 14 -118 15 -112 13 -440 -3 -540 -22 -135 -52
-259 -80 -336 -14 -39 -26 -81 -26 -92 0 -12 -4 -23 -9 -26 -9 -6 -38 -94 -46
-143 -8 -49 -24 -85 -35 -78 -6 4 -10 -5 -10 -19 0 -14 -4 -26 -10 -26 -5 0
-10 -11 -10 -25 0 -14 -4 -25 -10 -25 -5 0 -10 -9 -10 -20 0 -12 -11 -43 -25
-70 -14 -27 -25 -56 -25 -64 0 -8 -3 -16 -7 -18 -5 -1 -24 -34 -43 -71 -19
-37 -42 -76 -50 -85 -8 -10 -24 -35 -35 -57 -37 -74 -87 -155 -96 -155 -5 0
-8 -3 -8 -7 3 -19 -3 -32 -23 -55 -35 -38 -68 -86 -68 -98 0 -5 -3 -10 -8 -10
-4 0 -13 -12 -19 -27 -7 -16 -28 -46 -48 -68 -19 -22 -35 -45 -35 -51 0 -7 -6
-14 -14 -17 -22 -9 -98 -125 -94 -145 7 -37 137 -52 280 -32 40 6 129 12 197
13 85 2 126 7 129 15 2 7 8 12 13 12 25 0 97 103 152 218 14 28 31 52 36 52 6
0 11 5 11 12 0 7 11 23 23 37 40 43 113 174 152 273 21 51 43 107 50 123 37
85 79 225 79 267 1 36 4 44 14 36 7 -6 14 -9 16 -7 7 8 36 109 36 123 0 9 4
16 9 16 10 0 85 220 96 283 4 20 11 39 15 42 5 3 12 30 15 60 4 30 11 55 15
55 12 0 30 79 51 235 19 138 21 312 3 453 -6 52 -18 67 -28 35 -3 -10 -3 0 0
22 4 31 0 47 -14 65 -11 14 -34 54 -51 91 -18 36 -45 79 -62 96 -16 18 -29 35
-29 38 0 13 -56 75 -67 75 -6 0 -14 8 -17 18 -7 22 -130 142 -146 142 -6 0 -9
4 -6 9 3 5 -18 29 -47 55 -55 50 -204 166 -211 166 -3 0 -31 17 -63 38 -80 53
-83 55 -83 43z m227 -187 c-3 -3 -12 -4 -19 -1 -8 3 -5 6 6 6 11 1 17 -2 13
-5z m-40 -136 c-3 -8 -6 -5 -6 6 -1 11 2 17 5 13 3 -3 4 -12 1 -19z m273 -72
c0 -3 -4 -8 -10 -11 -5 -3 -10 -1 -10 4 0 6 5 11 10 11 6 0 10 -2 10 -4z m75
-75 c3 -5 1 -12 -5 -16 -5 -3 -10 1 -10 9 0 18 6 21 15 7z m32 -79 c2 -28 0
-32 -22 -32 -28 0 -35 27 -9 37 8 3 13 12 10 20 -4 9 -1 13 6 11 7 -3 14 -19
15 -36z m130 -154 c-3 -8 -6 -5 -6 6 -1 11 2 17 5 13 3 -3 4 -12 1 -19z m-384
-51 c-3 -20 -10 -37 -15 -37 -6 0 -7 7 -4 16 3 9 9 27 12 40 9 37 14 24 7 -19z
m416 -7 c1 -13 0 -13 -9 0 -5 8 -9 24 -9 35 l0 20 9 -20 c5 -11 9 -27 9 -35z
m-32 -62 c-3 -7 -5 -2 -5 12 0 14 2 19 5 13 2 -7 2 -19 0 -25z m-390 -25 c-3
-10 -5 -2 -5 17 0 19 2 27 5 18 2 -10 2 -26 0 -35z m433 10 c0 -20 -3 -24 -11
-16 -7 7 -9 19 -6 27 10 24 17 19 17 -11z m34 -45 c-4 -6 -10 -5 -15 3 -14 22
-10 33 6 19 8 -7 12 -17 9 -22z m-444 -53 c0 -25 -4 -45 -8 -45 -5 0 -9 20
-10 45 0 25 4 45 9 45 5 0 9 -20 9 -45z m30 -110 c0 -5 -5 -3 -10 5 -8 12 -10
12 -10 1 0 -8 -2 -12 -5 -9 -3 3 -2 13 1 22 5 14 9 15 15 4 5 -7 9 -17 9 -23z
m-13 -202 c-3 -10 -5 -4 -5 12 0 17 2 24 5 18 2 -7 2 -21 0 -30z m432 -156 c0
-21 -1 -21 -9 -2 -12 28 -12 37 0 30 6 -3 10 -16 9 -28z m-492 -174 c-3 -10
-5 -4 -5 12 0 17 2 24 5 18 2 -7 2 -21 0 -30z m410 -100 c-3 -10 -5 -2 -5 17
0 19 2 27 5 18 2 -10 2 -26 0 -35z m-430 15 c-3 -8 -6 -5 -6 6 -1 11 2 17 5
13 3 -3 4 -12 1 -19z m430 -100 c-3 -7 -5 -2 -5 12 0 14 2 19 5 13 2 -7 2 -19
0 -25z m-237 -659 c0 -17 -4 -28 -10 -24 -5 3 -10 17 -10 31 0 13 5 24 10 24
6 0 10 -14 10 -31z m-44 -66 c-10 -10 -19 5 -10 18 6 11 8 11 12 0 2 -7 1 -15
-2 -18z m-176 -313 c0 -5 -4 -10 -10 -10 -5 0 -10 5 -10 10 0 6 5 10 10 10 6
0 10 -4 10 -10z m-535 -60 c3 -5 1 -10 -4 -10 -6 0 -11 5 -11 10 0 6 2 10 4
10 3 0 8 -4 11 -10z"/>
<path d="M12395 13018 c-25 -13 -158 -101 -165 -108 -3 -3 -31 -23 -64 -45
-32 -22 -61 -46 -63 -52 -3 -7 -11 -13 -17 -13 -16 0 -310 -289 -357 -350 -44
-58 -80 -125 -72 -134 3 -3 1 -6 -5 -6 -25 0 -43 -105 -48 -295 -10 -339 32
-605 131 -830 7 -16 19 -50 25 -75 7 -25 18 -52 25 -60 7 -8 20 -42 30 -75 10
-33 26 -78 35 -100 10 -22 23 -56 30 -75 7 -19 19 -49 26 -67 8 -17 14 -36 14
-43 0 -6 5 -8 10 -5 6 3 10 -4 10 -17 0 -29 23 -90 76 -204 8 -17 35 -53 60
-80 42 -45 72 -97 88 -151 4 -13 12 -23 17 -23 5 0 9 -8 9 -17 0 -10 8 -31 18
-48 10 -16 22 -42 25 -56 6 -22 15 -37 57 -86 5 -7 10 -19 10 -28 0 -8 3 -15
8 -15 4 0 12 -10 17 -22 6 -13 16 -22 23 -20 7 1 12 -4 10 -11 -2 -7 10 -26
25 -41 23 -23 41 -30 100 -37 154 -18 373 -27 417 -18 25 5 60 12 78 15 20 4
32 12 32 23 -1 27 -65 121 -131 192 -15 15 -29 35 -33 44 -3 9 -10 13 -16 10
-5 -3 -10 3 -10 14 0 12 -4 21 -9 21 -5 0 -14 13 -20 28 -7 16 -24 42 -39 58
-15 17 -33 41 -40 54 -6 14 -23 43 -37 65 -31 49 -105 203 -105 218 0 6 -3 7
-7 4 -3 -4 -11 2 -17 13 -6 11 -30 52 -53 91 -24 39 -43 76 -43 80 0 5 -4 9
-10 9 -5 0 -13 12 -17 28 -7 26 -8 26 -14 -13 -6 -36 -6 -34 -8 20 0 33 -7 69
-14 80 -8 11 -19 34 -25 50 -6 17 -24 66 -41 110 -17 44 -31 89 -31 101 0 11
-3 24 -7 28 -5 4 -12 25 -18 47 -5 22 -14 39 -19 39 -13 -2 -26 23 -21 41 3 9
-2 43 -11 75 -9 33 -19 74 -21 92 -3 18 -9 35 -14 38 -5 3 -9 18 -9 34 0 16
-7 59 -16 96 -22 97 -26 331 -7 494 8 74 16 154 16 177 1 23 4 40 8 37 4 -2 9
9 12 24 11 64 79 308 92 331 27 49 75 159 75 170 0 6 4 11 9 11 5 0 11 12 13
27 2 14 10 28 18 31 12 4 13 2 3 -9 -15 -16 -17 -43 -3 -34 13 8 50 80 50 97
0 6 -7 3 -15 -8 -14 -18 -14 -17 -5 9 19 54 13 66 -25 45z m-189 -475 c-4 -27
-9 -61 -11 -77 -3 -16 -7 -31 -11 -35 -4 -3 -4 7 0 22 4 18 3 26 -3 22 -6 -3
-4 13 4 35 8 23 14 44 14 48 -3 16 1 32 7 32 4 0 4 -21 0 -47z m-100 -480 c-2
-10 -8 -37 -11 -61 -4 -24 -9 -41 -12 -39 -8 9 9 117 19 117 5 0 7 -8 4 -17z
m-66 -153 c0 -5 -2 -10 -4 -10 -3 0 -8 5 -11 10 -3 6 -1 10 4 10 6 0 11 -4 11
-10z m37 -32 c-3 -7 -5 -2 -5 12 0 14 2 19 5 13 2 -7 2 -19 0 -25z m-60 -140
c-3 -7 -5 -2 -5 12 0 14 2 19 5 13 2 -7 2 -19 0 -25z m53 -5 c0 -22 -2 -25
-10 -13 -13 20 -13 40 0 40 6 0 10 -12 10 -27z m126 -530 c-10 -10 -17 2 -22
43 l-5 39 17 -38 c9 -21 14 -41 10 -44z m51 -5 c-3 -7 -5 -2 -5 12 0 14 2 19
5 13 2 -7 2 -19 0 -25z m-440 -45 c-3 -10 -5 -2 -5 17 0 19 2 27 5 18 2 -10 2
-26 0 -35z m430 -45 c-3 -7 -5 -2 -5 12 0 14 2 19 5 13 2 -7 2 -19 0 -25z m10
-55 c-3 -10 -5 -4 -5 12 0 17 2 24 5 18 2 -7 2 -21 0 -30z m100 -275 c-3 -8
-6 -5 -6 6 -1 11 2 17 5 13 3 -3 4 -12 1 -19z m173 -325 c0 -21 -3 -24 -9 -14
-5 8 -7 20 -4 28 8 21 13 15 13 -14z m-403 -15 c-3 -8 -6 -5 -6 6 -1 11 2 17
5 13 3 -3 4 -12 1 -19z m580 -350 c-3 -8 -6 -5 -6 6 -1 11 2 17 5 13 3 -3 4
-12 1 -19z"/>
<path d="M17825 12853 c-4 -32 -14 -70 -21 -85 -16 -31 -19 -145 -4 -168 26
-42 51 65 46 205 -2 53 -6 98 -9 101 -3 3 -9 -21 -12 -53z"/>
<path d="M18039 12862 c-48 -2 -71 -8 -82 -20 -8 -9 -22 -60 -32 -112 -9 -52
-22 -126 -29 -165 -8 -38 -26 -137 -40 -220 -47 -261 -64 -338 -92 -420 -40
-115 -90 -245 -128 -328 -49 -107 -58 -133 -53 -154 3 -15 6 -13 15 10 6 15
30 55 52 90 23 34 60 103 84 152 163 335 209 434 225 484 10 31 28 80 40 109
22 56 38 111 107 374 24 92 41 174 38 182 -7 18 -25 22 -105 18z"/>
<path d="M13986 12844 c-9 -8 -16 -31 -16 -50 0 -43 39 -201 81 -325 44 -131
67 -169 104 -169 11 0 26 -5 32 -11 8 -8 13 -7 18 2 12 19 7 74 -14 157 -22
85 -41 238 -41 329 0 33 -5 64 -12 71 -18 18 -133 15 -152 -4z"/>
<path d="M21152 12604 c10 -10 20 -15 24 -12 3 4 -5 12 -18 18 -22 12 -22 12
-6 -6z"/>
<path d="M18626 12494 c-9 -8 -16 -20 -16 -26 0 -5 -9 -23 -21 -40 -12 -16
-18 -32 -15 -35 3 -4 7 -4 9 -2 1 2 12 18 25 36 12 18 22 40 23 50 1 12 3 10
8 -7 l7 -25 6 28 c6 33 -5 43 -26 21z"/>
<path d="M19130 12318 c-54 -66 -108 -128 -225 -263 -38 -44 -126 -138 -195
-209 -126 -129 -180 -183 -740 -735 -168 -166 -300 -301 -295 -301 6 0 2 -5
-8 -11 -31 -18 -45 -69 -53 -185 -6 -100 -5 -110 13 -127 46 -40 171 58 571
448 161 157 276 273 312 315 12 14 95 102 184 195 90 94 179 188 199 210 19
22 99 105 177 185 78 80 148 158 157 174 31 59 4 351 -34 363 -6 2 -35 -24
-63 -59z"/>
<path d="M18535 12330 c-3 -5 -1 -10 4 -10 6 0 11 5 11 10 0 6 -2 10 -4 10 -3
0 -8 -4 -11 -10z"/>
<path d="M18580 12311 c-5 -11 -17 -27 -26 -36 -13 -12 -14 -19 -5 -28 8 -8
11 -7 11 6 0 9 4 17 8 17 4 0 13 14 19 30 13 34 9 40 -7 11z"/>
<path d="M12887 12303 c-8 -15 -26 -109 -31 -168 -6 -67 6 -134 27 -150 8 -5
46 -48 86 -95 93 -109 543 -573 731 -755 80 -77 213 -207 295 -290 83 -83 187
-177 232 -208 50 -35 107 -87 147 -136 68 -80 109 -110 122 -89 11 18 17 190
9 264 -7 68 -8 70 -69 129 -33 33 -122 115 -196 181 -247 223 -799 781 -1072
1084 -83 93 -249 240 -269 240 -4 0 -10 -3 -12 -7z"/>
<path d="M17181 12294 c0 -11 3 -14 6 -6 3 7 2 16 -1 19 -3 4 -6 -2 -5 -13z"/>
<path d="M18520 12294 c0 -8 5 -12 10 -9 6 3 10 10 10 16 0 5 -4 9 -10 9 -5 0
-10 -7 -10 -16z"/>
<path d="M17265 12280 c-3 -5 -1 -10 4 -10 6 0 11 5 11 10 0 6 -2 10 -4 10 -3
0 -8 -4 -11 -10z"/>
<path d="M18513 12212 c-3 -12 -9 -22 -13 -22 -4 0 -10 -7 -13 -14 -4 -10 -1
-13 7 -10 17 7 41 52 32 61 -4 4 -9 -3 -13 -15z"/>
<path d="M18467 12131 c-4 -17 -3 -21 5 -13 5 5 8 16 6 23 -3 8 -7 3 -11 -10z"/>
<path d="M18298 11866 c-15 -17 -45 -51 -68 -74 -22 -24 -40 -46 -40 -48 0 -3
-25 -31 -55 -62 -30 -31 -55 -60 -55 -64 0 -30 76 39 142 130 17 23 35 42 39
42 8 0 73 99 68 104 -2 2 -16 -10 -31 -28z"/>
<path d="M18090 11849 c0 -5 5 -7 10 -4 6 3 10 8 10 11 0 2 -4 4 -10 4 -5 0
-10 -5 -10 -11z"/>
<path d="M12826 11809 c-42 -96 -76 -286 -76 -421 0 -138 56 -356 146 -575 20
-47 39 -93 44 -102 5 -9 29 -59 53 -111 78 -164 331 -562 415 -652 80 -86 125
-107 259 -123 142 -17 738 -21 748 -5 7 12 -9 27 -125 111 -47 35 -143 121
-214 191 -70 71 -163 156 -205 188 -127 98 -149 120 -181 175 -28 49 -75 109
-204 260 -29 33 -72 87 -96 120 -24 33 -48 65 -53 70 -31 36 -198 290 -256
390 -89 153 -170 327 -207 445 -23 73 -30 79 -48 39z"/>
<path d="M19226 11784 c-15 -27 -30 -61 -33 -76 -3 -16 -9 -28 -13 -28 -4 0
-18 -26 -30 -57 -13 -32 -38 -85 -55 -118 -18 -33 -49 -91 -70 -130 -91 -169
-118 -212 -236 -375 -163 -224 -219 -295 -297 -376 -87 -90 -162 -177 -162
-188 0 -8 -83 -83 -170 -156 -41 -34 -104 -94 -140 -133 -117 -128 -174 -182
-253 -240 -43 -32 -77 -63 -74 -70 6 -18 237 -28 542 -25 257 3 261 4 316 29
100 47 141 94 274 315 22 36 52 80 66 97 30 38 108 165 142 233 13 27 49 100
81 161 95 190 163 388 188 543 20 128 15 352 -11 493 -28 156 -31 161 -65 101z"/>
<path d="M18170 11780 c0 -5 5 -10 10 -10 6 0 10 5 10 10 0 6 -4 10 -10 10 -5
0 -10 -4 -10 -10z"/>
<path d="M18010 11770 c0 -5 5 -10 10 -10 6 0 10 5 10 10 0 6 -4 10 -10 10 -5
0 -10 -4 -10 -10z"/>
<path d="M18035 11750 c-3 -5 1 -10 10 -10 9 0 13 5 10 10 -3 6 -8 10 -10 10
-2 0 -7 -4 -10 -10z"/>
<path d="M17987 11589 c12 -12 25 -20 28 -17 3 3 -7 13 -22 23 l-28 17 22 -23z"/>
<path d="M18050 11591 c0 -5 -7 -17 -16 -25 -8 -9 -11 -16 -6 -16 4 0 19 11
32 25 19 21 21 25 7 25 -9 0 -17 -4 -17 -9z"/>
<path d="M17945 11475 c-33 -36 -66 -62 -73 -60 -7 3 -10 0 -7 -5 4 -6 -35
-52 -87 -104 -84 -83 -166 -172 -144 -154 25 20 234 219 265 252 20 21 53 57
74 79 31 33 46 58 35 57 -2 -1 -30 -30 -63 -65z"/>
<path d="M17800 11420 c0 -5 5 -10 11 -10 5 0 7 5 4 10 -3 6 -8 10 -11 10 -2
0 -4 -4 -4 -10z"/>
<path d="M16675 11400 c4 -14 14 -32 22 -40 12 -12 11 -7 -2 20 -22 45 -29 52
-20 20z"/>
<path d="M17775 11400 c3 -5 8 -10 11 -10 2 0 4 5 4 10 0 6 -5 10 -11 10 -5 0
-7 -4 -4 -10z"/>
<path d="M14560 11372 c0 -9 112 -157 153 -201 12 -13 34 -32 49 -41 65 -39
303 -286 324 -335 29 -70 82 -68 119 6 33 64 31 79 -3 46 -15 -15 -31 -27 -35
-27 -8 0 -142 108 -222 179 -27 25 -125 121 -217 213 -93 93 -168 165 -168
160z"/>
<path d="M17735 11370 c3 -5 8 -10 11 -10 2 0 4 5 4 10 0 6 -5 10 -11 10 -5 0
-7 -4 -4 -10z"/>
<path d="M17564 11312 c-27 -27 -69 -78 -93 -113 -24 -35 -35 -55 -24 -44 23
22 116 127 151 169 39 47 18 39 -34 -12z"/>
<path d="M11486 11333 c-12 -29 -28 -413 -22 -503 8 -123 3 -114 251 -439 80
-105 224 -261 241 -261 5 -1 18 -13 29 -27 36 -47 133 -143 144 -143 21 0 10
36 -37 120 -66 118 -240 472 -268 545 -22 60 -69 165 -124 280 -16 33 -42 96
-59 140 -24 65 -132 289 -145 302 -2 2 -7 -4 -10 -14z"/>
<path d="M20567 11333 c-3 -4 -31 -73 -62 -153 -31 -80 -61 -150 -65 -155 -5
-6 -43 -91 -85 -190 -66 -155 -251 -537 -304 -630 -14 -24 -44 -96 -99 -234
-3 -7 -1 -12 5 -10 17 6 340 358 357 388 5 9 28 39 51 66 54 64 186 250 211
295 18 32 19 57 17 324 -1 260 -7 330 -26 299z"/>
<path d="M17630 11321 c0 -6 4 -13 10 -16 6 -3 7 1 4 9 -7 18 -14 21 -14 7z"/>
<path d="M15859 11303 c-13 -16 -12 -17 4 -4 16 13 21 21 13 21 -2 0 -10 -8
-17 -17z"/>
<path d="M16721 11304 c0 -11 3 -14 6 -6 3 7 2 16 -1 19 -3 4 -6 -2 -5 -13z"/>
<path d="M17670 11316 c0 -2 7 -9 15 -16 9 -7 15 -8 15 -2 0 5 -7 12 -15 16
-8 3 -15 4 -15 2z"/>
<path d="M17660 11279 c0 -5 5 -7 10 -4 6 3 10 8 10 11 0 2 -4 4 -10 4 -5 0
-10 -5 -10 -11z"/>
<path d="M17615 11230 c-3 -5 -1 -10 4 -10 6 0 11 5 11 10 0 6 -2 10 -4 10 -3
0 -8 -4 -11 -10z"/>
<path d="M14620 11165 c40 -48 43 -51 32 -30 -6 11 -21 29 -34 40 -22 19 -22
19 2 -10z"/>
<path d="M14596 11055 c4 -8 11 -15 16 -15 6 0 5 6 -2 15 -7 8 -14 15 -16 15
-2 0 -1 -7 2 -15z"/>
<path d="M17412 10990 c-12 -12 -22 -26 -22 -32 0 -6 1 -9 3 -7 1 2 13 16 26
32 29 32 24 36 -7 7z"/>
<path d="M15127 10869 c7 -7 15 -10 18 -7 3 3 -2 9 -12 12 -14 6 -15 5 -6 -5z"/>
<path d="M17205 10705 c-35 -58 -65 -155 -65 -206 0 -52 17 -50 23 4 2 23 10
58 17 77 44 117 59 164 56 168 -2 2 -16 -17 -31 -43z"/>
<path d="M17860 10494 c-6 -15 -8 -34 -6 -41 14 -35 102 -162 114 -163 17 0
15 13 -27 125 -39 108 -62 130 -81 79z"/>
<path d="M11485 10307 c-13 -43 -16 -86 -13 -234 3 -180 3 -181 29 -207 39
-38 105 -47 356 -45 251 2 265 6 185 61 -26 17 -51 38 -55 45 -4 7 -12 13 -16
13 -4 0 -49 41 -100 90 -51 50 -97 88 -102 85 -5 -4 -9 -1 -9 4 0 10 -205 216
-232 233 -22 13 -26 9 -43 -45z"/>
<path d="M20546 10345 c-9 -9 -16 -21 -16 -26 0 -5 -4 -9 -9 -9 -5 0 -67 -58
-138 -128 -145 -144 -182 -178 -235 -211 -21 -12 -41 -28 -45 -34 -10 -15 -62
-51 -85 -60 -30 -11 -21 -36 15 -42 40 -7 515 0 523 8 3 3 10 23 15 44 11 48
12 444 0 461 -6 11 -11 10 -25 -3z"/>
<path d="M13216 8743 c-4 -9 -2 -21 4 -27 7 -7 10 -2 10 17 0 31 -5 34 -14 10z"/>
<path d="M20941 8684 c0 -11 3 -14 6 -6 3 7 2 16 -1 19 -3 4 -6 -2 -5 -13z"/>
<path d="M18473 6253 c-18 -2 -37 -12 -42 -21 -15 -30 -21 -246 -10 -380 9
-121 9 -135 -9 -175 -19 -42 -20 -43 -123 -75 -57 -18 -144 -39 -193 -47 -50
-9 -108 -20 -130 -25 -23 -5 -75 -12 -116 -15 -94 -9 -217 -38 -267 -64 -21
-11 -87 -69 -147 -130 -61 -61 -112 -111 -115 -111 -4 0 -19 -12 -36 -26 -16
-15 -58 -39 -92 -55 -77 -35 -97 -63 -88 -121 4 -24 12 -52 17 -62 6 -10 14
-51 19 -89 5 -39 13 -75 19 -81 10 -10 209 83 288 136 24 15 46 28 51 28 4 0
18 11 31 25 13 14 27 25 32 25 5 0 36 18 68 40 32 22 64 40 69 40 6 0 11 7 11
15 0 8 8 15 18 15 10 0 33 11 52 25 19 14 40 25 47 25 7 0 13 5 13 10 0 6 8
10 18 10 10 0 28 9 40 20 12 12 22 18 22 15 0 -7 65 30 87 50 30 25 39 31 56
38 9 3 17 11 17 17 0 5 7 10 15 10 9 0 18 7 21 15 4 8 14 15 24 15 9 0 25 9
35 20 10 11 23 20 29 20 7 0 18 9 26 20 8 11 20 20 27 20 12 0 17 13 14 33 -1
5 8 6 19 2 11 -4 20 -2 20 4 0 6 6 11 14 11 8 0 23 11 34 25 11 13 31 30 46
36 15 7 25 18 22 24 -2 6 5 17 15 23 12 8 19 8 19 2 0 -6 24 2 52 16 52 26
173 143 255 244 21 26 57 62 81 80 23 18 53 43 65 56 12 13 26 24 30 24 17 0
87 64 87 78 0 9 3 13 6 9 6 -6 43 23 103 81 19 19 30 37 25 41 -5 5 -135 16
-289 25 -272 16 -335 17 -402 9z"/>
<path d="M13223 6239 c-226 -10 -287 -18 -291 -40 -3 -19 102 -129 123 -129 8
0 15 -6 15 -13 0 -8 19 -27 43 -44 23 -17 58 -47 77 -67 19 -20 38 -36 41 -36
3 0 50 -44 105 -98 54 -54 135 -125 179 -157 44 -32 105 -79 135 -104 30 -25
59 -49 65 -53 5 -5 42 -32 80 -61 105 -79 217 -157 227 -157 4 0 8 7 8 15 0 8
4 15 9 15 6 0 9 -12 8 -27 -2 -20 5 -30 28 -42 17 -9 33 -20 37 -25 3 -5 17
-10 30 -11 12 -1 22 -7 21 -14 -2 -6 9 -14 25 -17 15 -4 29 -10 32 -13 5 -6
25 -17 113 -63 20 -11 37 -24 37 -29 0 -5 5 -9 10 -9 6 0 36 -17 68 -39 31
-21 89 -55 129 -75 39 -21 73 -41 75 -45 2 -4 53 -34 113 -66 61 -32 114 -61
119 -66 18 -17 46 11 46 46 0 18 7 67 15 107 22 102 14 140 -39 183 -24 19
-46 35 -51 35 -4 0 -21 11 -39 25 -17 14 -67 52 -111 84 -44 31 -111 91 -150
133 -38 41 -79 80 -91 86 -29 15 -145 39 -224 47 -73 7 -336 47 -450 69 -41 8
-78 12 -83 9 -12 -7 -76 64 -83 94 -4 15 3 83 15 152 31 182 24 369 -14 397
-21 16 -89 16 -402 3z m987 -1009 c0 -5 -4 -10 -10 -10 -5 0 -10 5 -10 10 0 6
5 10 10 10 6 0 10 -4 10 -10z"/>
<path d="M12380 6183 c-74 -8 -160 -16 -190 -19 -30 -2 -129 -11 -220 -19 -91
-8 -208 -15 -260 -16 -52 0 -120 -4 -150 -9 -30 -5 -113 -12 -185 -15 -71 -4
-132 -11 -136 -16 -3 -5 -19 -9 -35 -7 -16 1 -47 0 -69 -2 l-40 -3 50 -7 50
-7 -55 -2 -55 -3 31 -13 c46 -20 255 -57 290 -52 17 3 37 1 45 -4 8 -5 10 -9
4 -10 -5 -1 13 -5 40 -9 62 -9 231 -37 306 -50 30 -6 71 -10 91 -10 28 0 41
-6 57 -27 12 -16 26 -34 32 -41 6 -8 9 -29 6 -48 -3 -18 -1 -36 4 -40 5 -3 7
-9 4 -14 -2 -4 0 -22 6 -39 8 -23 18 -32 42 -35 18 -3 183 -7 367 -10 188 -3
397 -12 475 -21 152 -16 265 -19 265 -7 0 4 -76 81 -168 172 -93 91 -206 210
-250 265 -119 147 -109 144 -352 118z"/>
<path d="M19414 6145 c-48 -71 -136 -166 -316 -344 -85 -83 -138 -142 -138
-154 0 -19 5 -20 133 -13 72 4 287 11 477 16 190 5 361 13 381 18 73 18 110
66 124 158 5 36 12 44 48 62 23 11 65 23 92 27 28 3 66 10 85 14 19 5 68 12
109 15 41 4 80 11 88 17 7 6 40 11 74 10 75 -1 292 40 351 67 37 17 40 21 23
27 -11 3 -33 14 -49 22 -22 12 -86 17 -295 24 -300 10 -401 18 -836 69 -44 5
-132 12 -196 16 l-116 7 -39 -58z m1186 -91 c0 -2 -9 -4 -20 -4 -11 0 -20 4
-20 9 0 5 9 7 20 4 11 -3 20 -7 20 -9z m-157 -61 c-7 -2 -19 -2 -25 0 -7 3 -2
5 12 5 14 0 19 -2 13 -5z"/>
<path d="M19390 4930 c0 -5 5 -10 10 -10 6 0 10 5 10 10 0 6 -4 10 -10 10 -5
0 -10 -4 -10 -10z"/>
<path d="M15915 3970 c11 -5 29 -8 40 -8 16 0 15 2 -5 8 -34 11 -60 11 -35 0z"/>
<path d="M15995 3947 c23 -19 45 -22 45 -7 0 6 -6 10 -14 10 -8 0 -23 3 -33 6
-16 6 -16 5 2 -9z"/>
<path d="M14157 3919 c7 -7 15 -10 18 -7 3 3 -2 9 -12 12 -14 6 -15 5 -6 -5z"/>
<path d="M14210 3887 c0 -2 15 -14 33 -27 20 -15 27 -17 18 -6 -13 16 -51 41
-51 33z"/>
<path d="M14574 3631 c7 -11 46 -35 46 -28 0 3 -12 12 -26 22 -15 9 -23 12
-20 6z"/>
</g>
</svg>
