<?xml version="1.0" encoding="UTF-8" standalone="no"?>
<svg
   xmlns:dc="http://purl.org/dc/elements/1.1/"
   xmlns:cc="http://creativecommons.org/ns#"
   xmlns:rdf="http://www.w3.org/1999/02/22-rdf-syntax-ns#"
   xmlns:svg="http://www.w3.org/2000/svg"
   xmlns="http://www.w3.org/2000/svg"
   viewBox="0 0 1440 1440"
   height="1440"
   width="1440"
   xml:space="preserve"
   id="svg2"
   version="1.1"><metadata
     id="metadata8"><rdf:RDF><cc:Work
         rdf:about=""><dc:format>image/svg+xml</dc:format><dc:type
           rdf:resource="http://purl.org/dc/dcmitype/StillImage" /></cc:Work></rdf:RDF></metadata><defs
     id="defs6"><clipPath
       id="clipPath18"
       clipPathUnits="userSpaceOnUse"><path
         id="path16"
         d="M 0,1080 H 1080 V 0 H 0 Z" /></clipPath></defs><g
     transform="matrix(1.3333333,0,0,-1.3333333,0,1440)"
     id="g10"><g
       id="g12"><g
         clip-path="url(#clipPath18)"
         id="g14"><g
           transform="translate(720.4127,362.7052)"
           id="g20"><path
             id="path22"
             style="fill:#00964c;fill-opacity:1;fill-rule:nonzero;stroke:none"
             d="M 0,0 C 0,0 -1.174,0.962 -1.09,0.652 47.574,-179.18 227.988,-285.749 227.988,-285.749 h -815.86 c 0,0 174.76,98.081 230.343,283.862 0,0 1.27,0.208 0,0 -112.581,-18.389 -285.927,-208.415 -285.927,-208.415 v 778.968 c 0,0 102.688,-115.054 191.246,-152.776 l 28.263,71.673 C -494.605,600.731 -591.64,640.338 -591.64,640.338 h 823.396 c 0,0 -86.673,-39.606 -165.811,-149.003 C 64.84,489.806 95.151,415.89 95.151,415.89 183.709,460.214 282.63,566.777 282.63,566.777 V -206.53 C 282.63,-206.53 95.151,-12.258 0,0" /></g><g
           transform="translate(140.5739,79.1842)"
           id="g24"><path
             id="path26"
             style="fill:#383332;fill-opacity:1;fill-rule:nonzero;stroke:none"
             d="m 0,0 h 800.078 c -14.442,9.317 -50.658,34.094 -90.083,71.929 -29.834,28.629 -55.663,59.039 -76.77,90.383 -26.41,39.22 -45.462,80.024 -56.626,121.28 -0.262,0.961 0.118,1.97 0.947,2.506 1.214,0.788 2.362,0.172 3.194,-0.449 21.952,-2.995 50.414,-15.675 84.608,-37.697 27.472,-17.693 58.739,-41.445 92.933,-70.598 48.647,-41.475 89.583,-82.344 101.961,-94.902 v 762.257 c -8.324,-8.693 -29.44,-30.283 -56.814,-54.889 -20.836,-18.73 -41.174,-35.525 -60.451,-49.919 -24.134,-18.02 -46.673,-32.313 -66.99,-42.482 l -2.147,-1.075 -0.911,2.222 c -0.076,0.185 -7.667,18.703 -15.026,37.17 -4.325,10.853 -7.725,19.568 -10.107,25.903 -1.421,3.779 -2.494,6.751 -3.188,8.831 -1.196,3.588 -1.395,4.632 -0.63,5.691 18.123,25.052 38.152,48.506 59.531,69.71 17.109,16.969 35.117,32.545 53.524,46.295 19.982,14.927 36.17,24.472 45.353,29.465 H -1.778 c 10.095,-5.039 27.69,-14.698 48.636,-29.92 19.316,-14.037 37.694,-30.006 54.622,-47.463 21.159,-21.819 40.102,-46.038 56.301,-71.985 l 0.595,-0.952 -29.515,-74.846 -2.105,0.896 c -20.355,8.671 -43.126,22.14 -67.682,40.035 -19.6,14.284 -40.386,31.409 -61.778,50.902 -28.224,25.717 -50.14,48.893 -58.686,58.145 V 78.89 c 11.895,12.687 49.942,52.447 97.059,93.323 33.415,28.989 64.797,52.869 93.274,70.978 35.107,22.323 65.926,35.913 91.63,40.408 l 0.002,0.007 1.939,0.318 0.406,-2.473 1.525,-0.456 C 211.7,238.398 191.601,196.897 164.707,157.645 143.207,126.264 117.339,96.243 87.823,68.414 49.281,32.077 14.376,8.928 0,0 M 815.978,-4.455 H -16.55 l 7.426,4.17 c 0.435,0.244 44.114,24.99 93.985,72.03 29.266,27.605 54.909,57.376 76.216,88.484 25.88,37.784 45.397,77.657 58.044,118.572 -24.675,-4.773 -54.178,-18 -87.768,-39.358 C 103.065,221.458 71.867,197.716 38.622,168.878 -18.039,119.726 -61.539,72.193 -61.972,71.718 l -3.873,-4.246 v 790.555 l 3.889,-4.357 c 0.257,-0.287 26.043,-29.089 62.288,-62.111 21.268,-19.378 41.922,-36.394 61.387,-50.578 23.43,-17.073 45.177,-30.054 64.681,-38.612 l 27.007,68.485 c -15.882,25.29 -34.4,48.909 -55.05,70.215 -16.733,17.264 -34.897,33.058 -53.988,46.943 -32.52,23.653 -56.772,33.686 -57.013,33.785 l 0.842,4.289 h 823.397 l 0.926,-4.253 c -0.215,-0.098 -21.912,-10.13 -52.95,-33.332 -18.225,-13.625 -36.058,-29.058 -53.003,-45.871 -20.98,-20.817 -40.651,-43.822 -58.476,-68.384 1.55,-6.161 17.416,-45.789 28.045,-71.759 19.516,9.972 41.087,23.746 64.154,40.969 19.165,14.309 39.395,31.013 60.126,49.647 35.324,31.75 60.173,58.445 60.42,58.711 l 3.86,4.158 V 71.476 l -3.831,3.969 c -0.468,0.485 -47.488,49.084 -105.502,98.542 -34.039,29.019 -65.141,52.647 -92.442,70.229 -32.696,21.055 -59.92,33.408 -80.975,36.751 11.164,-39.494 29.647,-78.556 54.973,-116.166 20.931,-31.082 46.554,-61.248 76.159,-89.658 C 763.496,26.76 808.511,-0.045 808.96,-0.31 Z" /></g><g
           transform="translate(918.8512,604.3005)"
           id="g28"><path
             id="path30"
             style="fill:#ffffff;fill-opacity:1;fill-rule:nonzero;stroke:none"
             d="m 0,0 -170.521,-74.075 -47.84,111.111 v -332.558 c 0,-67.128 12.345,-70.214 52.469,-77.931 v -93.362 h -422.063 v 93.362 c 37.808,2.317 54.784,15.433 55.555,77.931 V 37.036 L -579.468,-74.075 -753.076,0 -621.905,328.698 h 489.963 z" /></g><g
           transform="translate(334.6089,141.1978)"
           id="g32"><path
             id="path34"
             style="fill:#383332;fill-opacity:1;fill-rule:nonzero;stroke:none"
             d="m 0,0 h 414.638 v 86.585 c -18.391,3.561 -31.809,6.608 -40.468,17.432 -8.636,10.796 -12.001,28.617 -12.001,63.564 v 332.558 l 7.122,1.468 46.367,-107.69 163.795,71.152 -129.663,323.02 H -35.147 L -164.042,465.094 2.808,393.903 48.424,501.587 55.555,500.139 V 167.558 167.535 C 55.162,135.677 50.628,116 40.857,103.734 36.063,97.715 29.922,93.396 22.085,90.529 16.081,88.332 8.999,86.937 0,86.194 Z M 422.063,-7.425 H -7.425 V 93.142 l 3.486,0.214 c 20.188,1.236 31.484,5.584 38.989,15.004 8.555,10.739 12.711,29.565 13.08,59.241 V 481.857 L 6.741,384.153 -173.626,461.111 -40.178,795.514 h 494.989 l 0.934,-2.33 133.287,-332.049 -177.248,-76.996 -42.19,97.989 V 167.581 c 0,-32.643 3.005,-49.715 10.374,-58.926 7.071,-8.839 18.859,-11.469 39.084,-15.359 l 3.011,-0.579 z" /></g><g
           transform="translate(887.8416,619.8704)"
           id="g36"><path
             id="path38"
             style="fill:#383332;fill-opacity:1;fill-rule:nonzero;stroke:none"
             d="m 0,0 -127.167,-55.694 -57.87,132.715 h -29.026 v -408.669 c 1.249,-48.116 20.664,-67.94 57.723,-75.07 v -49.222 h -377.551 v 49.222 c 34.927,2.131 56.419,25.412 57.49,68.9 V 77.021 h -29.619 l -57.098,-133.486 -125.77,57.098 114.377,284.499 h 458.803 z" /></g><g
           transform="translate(354.8894,164.8697)"
           id="g40"><path
             id="path42"
             style="fill:#383332;fill-opacity:1;fill-rule:nonzero;stroke:none"
             d="m 0,0 h 375.673 v 47.51 c -19.446,3.856 -32.83,10.967 -42.08,22.345 -9.908,12.19 -15.025,29.681 -15.642,53.473 L 317.95,532.96 h 30.58 l 0.245,-0.563 57.495,-131.853 125.468,54.95 -115.126,283.7 H -40.925 L -154.73,456.118 -30.651,399.787 26.313,532.96 H 57.49 V 117.183 C 56.959,95.603 51.484,78.597 41.215,66.613 31.362,55.114 17.498,48.654 0,47.404 Z M 377.551,-1.878 H -1.878 v 51.044 l 0.882,0.054 c 35.478,2.165 55.583,26.309 56.609,67.986 L 55.612,531.083 H 27.552 L -29.68,397.284 -157.143,455.151 -42.194,741.072 h 460.07 l 0.237,-0.586 116.053,-285.979 -0.837,-0.367 -128.029,-56.07 -58,133.013 h -27.472 v -407.73 c 0.606,-23.338 5.585,-40.458 15.222,-52.313 9.076,-11.164 22.339,-18.103 41.74,-21.835 l 0.761,-0.147 z" /></g><g
           transform="translate(824.621,767.8784)"
           id="g44"><path
             id="path46"
             style="fill:#ffffff;fill-opacity:1;fill-rule:nonzero;stroke:none"
             d="m 0,0 c -172.067,11.574 -270.831,81.017 -270.831,81.017 0,0 -112.654,-72.53 -290.892,-81.017 l 54.964,134.039 h 451.203 z" /></g><g
           transform="translate(641.8504,778.6807)"
           id="g48"><path
             id="path50"
             style="fill:#ffffff;fill-opacity:1;fill-rule:nonzero;stroke:none"
             d="m 0,0 v 0 l 11.572,-21.604 -56.325,20.832 5.4,-20.06 -36.265,12.344 -27.777,-27.777 -14.661,27.777 -36.264,-28.549 -15.433,29.321 -39.352,-17.748 3.859,16.976 -45.524,2.315 c 74.073,16.976 160.493,61.728 160.493,61.728 0,0 59.412,-36.265 145.059,-59.414 z" /></g><g
           transform="translate(535.884,614.072)"
           id="g52"><path
             id="path54"
             style="fill:#00964c;fill-opacity:1;fill-rule:nonzero;stroke:none"
             d="m 0,0 c -0.392,-2.313 3.756,-9.774 3.756,-9.774 0,0 -20.11,1.34 -28.963,-3.086 -13.372,-6.688 -29.831,-41.411 -29.831,-41.411 0,0 18.001,-6.428 31.375,-1.284 13.105,5.039 32.048,27.264 32.048,27.264 0,0 -1.286,-15.045 -5.145,-26.619 -1.894,-5.677 -6.182,-12.481 -8.587,-25.082 -1.546,-8.097 -2.017,-15.036 -2.211,-20.062 -0.39,-10.025 3.365,-21.11 3.365,-21.11 l 7.433,1.542 c 0,0 -3.024,16.047 -3.368,21.502 -0.279,4.365 0.652,11.859 1.828,16.071 1.66,5.937 5.73,17.247 8.202,22.896 5.4,12.345 5.4,35.827 5.4,35.827 l 12.99,-2.06 c 0,0 5.142,-22.965 23.149,-28.112 12.139,-3.471 48.738,18.648 48.738,18.648 0,0 -24.399,29.702 -42.564,32.277 -14.534,2.06 -26.237,-12.346 -26.237,-12.346 H 13.889 c 0,0 -4.964,8.901 -2.905,16.617 2.492,9.337 14.224,18.105 14.224,18.105 l -8.079,5.401 C 17.129,25.204 1.139,6.724 0,0" /></g><g
           transform="translate(545.4545,588.618)"
           id="g56"><path
             id="path58"
             style="fill:#00964c;fill-opacity:1;fill-rule:nonzero;stroke:none"
             d="m 0,0 -0.25,-2.917 c -0.012,-0.152 -1.341,-15.289 -5.189,-26.836 -0.585,-1.753 -1.372,-3.561 -2.282,-5.654 -2.056,-4.728 -4.615,-10.611 -6.274,-19.307 -1.602,-8.392 -2.02,-15.389 -2.196,-19.923 -0.319,-8.217 2.241,-17.293 3.066,-19.981 l 5.703,1.183 c -0.649,3.5 -2.913,15.946 -3.214,20.71 -0.302,4.728 0.719,12.288 1.861,16.382 1.63,5.832 5.715,17.234 8.246,23.02 5.259,12.021 5.322,35.219 5.322,35.451 v 1.1 l 14.705,-2.333 0.14,-0.621 c 0.05,-0.225 5.24,-22.485 22.49,-27.416 4.738,-1.353 14.506,1.398 28.246,7.962 8.547,4.082 16.199,8.494 18.803,10.027 C 87.341,-7.001 82.099,-1.017 75.484,5.104 64.68,15.1 55.146,20.926 47.913,21.952 34.086,23.913 22.65,10.083 22.536,9.943 L 22.255,9.596 H 3.767 l -0.269,0.482 c -0.21,0.377 -5.125,9.325 -2.992,17.316 1.075,4.028 3.861,8.39 8.279,12.964 2.127,2.203 4.106,3.899 5.257,4.836 L 7.73,49.414 C 4.949,46.138 -7.678,31.009 -8.645,25.297 v 0 c -0.232,-1.37 1.995,-6.182 3.651,-9.16 l 0.838,-1.508 -1.721,0.115 c -0.199,0.012 -19.958,1.27 -28.481,-2.989 -11.701,-5.854 -26.172,-34.391 -28.936,-40.014 3.925,-1.222 18.602,-5.244 29.724,-0.966 5.238,2.014 12.365,7.308 20.61,15.308 6.271,6.085 11.014,11.633 11.061,11.689 z m -14.386,-96.798 -0.266,0.787 c -0.156,0.459 -3.807,11.365 -3.415,21.447 0.177,4.594 0.601,11.687 2.227,20.203 1.699,8.9 4.304,14.89 6.397,19.702 0.893,2.053 1.663,3.826 2.222,5.5 2.771,8.312 4.214,18.555 4.792,23.483 -5.211,-5.816 -19.63,-21.134 -30.468,-25.301 -7.101,-2.732 -15.44,-2.236 -21.185,-1.339 -6.188,0.967 -10.656,2.548 -10.843,2.615 l -0.977,0.348 0.445,0.938 c 0.677,1.43 16.753,35.093 30.26,41.849 3.793,1.896 9.912,3.006 18.187,3.301 4.012,0.143 7.586,0.049 9.582,-0.034 -1.278,2.462 -3.402,6.939 -3.068,8.909 1.169,6.905 16.684,24.9 17.344,25.663 L 7.391,51.9 17.262,45.3 16.2,44.505 C 16.085,44.419 4.699,35.819 2.32,26.91 0.646,20.634 3.932,13.386 4.888,11.474 h 16.483 c 1.957,2.274 13.022,14.29 26.805,12.337 18.316,-2.597 42.152,-31.386 43.158,-32.61 l 0.689,-0.839 -0.929,-0.561 c -1.393,-0.842 -31.854,-19.143 -46.262,-19.144 -1.192,0 -2.273,0.125 -3.22,0.396 -7.607,2.175 -14.139,7.857 -18.89,16.434 -2.925,5.281 -4.325,10.075 -4.762,11.751 L 6.659,1.031 C 6.624,-1.021 6.493,-5.731 5.992,-11.241 c -0.905,-9.94 -2.52,-17.622 -4.8,-22.835 -2.505,-5.725 -6.546,-17.004 -8.158,-22.772 -1.215,-4.352 -2.054,-11.716 -1.796,-15.758 0.337,-5.337 3.324,-21.228 3.354,-21.388 l 0.171,-0.906 z" /></g><g
           transform="translate(618.1605,297.6018)"
           id="g60"><path
             id="path62"
             style="fill:#e12f31;fill-opacity:1;fill-rule:nonzero;stroke:none"
             d="m 0,0 c -78.187,2.571 -55.038,121.91 -72.529,120.883 -16.505,-0.97 9.774,-112.652 -76.644,-125.513 0,0 25.205,-1.542 32.919,144.162 0.597,11.279 -2.082,57.485 42.699,57.485 43.207,0 45.296,-53.992 45.266,-60.702 C -28.804,18.52 0,0 0,0" /></g><g
           transform="translate(571.3535,301.5887)"
           id="g64"><path
             id="path66"
             style="fill:#e12f31;fill-opacity:1;fill-rule:nonzero;stroke:none"
             d="M 0,0 -25.721,-19.817 -50.413,0 c 13.376,13.663 23.665,55.286 23.665,55.286 0,0 11.829,-42.696 26.748,-55.286" /></g></g></g></g></svg>