<?xml version="1.0" standalone="no"?>
<!DOCTYPE svg PUBLIC "-//W3C//DTD SVG 20010904//EN"
 "http://www.w3.org/TR/2001/REC-SVG-20010904/DTD/svg10.dtd">
<svg version="1.0" xmlns="http://www.w3.org/2000/svg"
 width="1080.000000pt" height="1080.000000pt" viewBox="0 0 1080.000000 1080.000000"
 preserveAspectRatio="xMidYMid meet">

<g transform="translate(0.000000,1080.000000) scale(0.100000,-0.100000)"
fill="#000000" stroke="none">
<path d="M5060 10239 c-827 -57 -1630 -329 -2325 -786 -1040 -684 -1782 -1748
-2059 -2953 -433 -1885 277 -3829 1819 -4985 335 -251 736 -475 1125 -628
1202 -474 2557 -447 3740 75 1390 612 2425 1863 2764 3338 430 1874 -269 3810
-1795 4967 -932 707 -2094 1052 -3269 972z m686 -149 c901 -71 1754 -390 2459
-918 275 -207 608 -523 813 -772 707 -861 1082 -1900 1082 -3000 0 -218 -10
-383 -36 -590 -96 -768 -398 -1533 -851 -2157 -275 -379 -634 -744 -1008
-1025 -558 -418 -1228 -713 -1925 -847 -573 -110 -1187 -110 -1760 0 -701 135
-1364 427 -1925 847 -275 207 -608 523 -813 772 -894 1088 -1256 2475 -1006
3850 122 671 411 1347 811 1897 151 209 287 367 488 569 471 473 975 807 1590
1054 424 170 904 281 1370 319 148 12 563 12 711 1z"/>
<path d="M5230 9591 l0 -290 24 -28 c23 -27 27 -28 121 -28 94 0 98 1 121 28
l24 28 0 290 0 289 -50 0 -50 0 0 -275 0 -275 -45 0 -45 0 0 275 0 275 -50 0
-50 0 0 -289z"/>
<path d="M5759 9839 c0 -13 -15 -154 -33 -314 l-32 -290 90 -12 c151 -19 154
-19 162 22 3 20 4 38 2 40 -2 3 -36 8 -74 12 -38 5 -69 13 -69 18 2 56 18 204
23 212 5 8 28 9 70 4 34 -4 64 -5 67 -3 3 3 5 20 5 37 0 32 0 32 -62 39 -34 3
-63 8 -66 11 -2 2 -1 39 3 81 l7 76 79 -6 79 -7 0 24 c0 14 2 32 6 40 6 16
-22 21 -173 33 -83 7 -83 7 -84 -17z"/>
<path d="M4762 9838 l-73 -10 5 -37 c3 -20 19 -146 36 -281 42 -348 33 -313
86 -307 25 2 46 6 48 8 2 2 -3 55 -11 117 -8 62 -12 119 -10 126 3 7 30 16 62
19 67 7 102 27 112 65 3 15 0 83 -9 151 -13 106 -19 127 -38 143 -25 20 -85
22 -208 6z m142 -76 c3 -5 8 -49 12 -98 6 -81 5 -91 -14 -107 -12 -11 -31 -17
-49 -15 -27 3 -28 5 -40 93 -16 125 -16 123 10 128 40 8 76 7 81 -1z"/>
<path d="M6230 9797 c0 -2 -122 -542 -135 -593 -4 -19 2 -23 41 -33 26 -7 48
-11 50 -9 1 2 17 68 35 148 18 80 34 147 36 149 1 2 21 -1 43 -8 55 -16 58
-39 26 -180 -14 -64 -26 -121 -26 -127 0 -6 20 -15 45 -21 52 -12 43 -28 84
151 29 132 30 147 3 179 -13 15 -13 17 0 17 28 0 50 39 70 122 20 88 14 129
-22 148 -29 15 -250 66 -250 57z m166 -118 c21 -7 21 -10 9 -61 -23 -94 -35
-106 -95 -93 -33 7 -37 23 -21 85 5 19 12 48 15 63 6 26 9 28 39 21 18 -3 42
-10 53 -15z"/>
<path d="M3985 9654 c-77 -27 -95 -43 -95 -87 0 -38 47 -192 63 -205 7 -5 56
-20 109 -32 l98 -22 25 -81 c14 -44 24 -81 23 -82 -7 -5 -72 -25 -83 -25 -6 0
-20 27 -30 60 -10 33 -21 60 -25 60 -8 0 -73 -21 -79 -26 -1 -1 7 -33 19 -71
23 -73 57 -113 94 -113 27 0 163 45 182 61 29 24 26 71 -14 188 l-38 115 -105
25 -104 26 -20 57 c-22 64 -18 74 31 84 29 5 31 3 43 -36 13 -44 13 -44 78
-19 22 8 22 9 7 56 -18 54 -55 93 -87 92 -12 0 -53 -11 -92 -25z"/>
<path d="M6711 9648 c-16 -44 -16 -45 34 -64 25 -9 45 -18 45 -19 0 -1 -40
-118 -90 -259 -49 -142 -90 -259 -90 -261 0 -2 20 -10 45 -19 l46 -15 10 25
c5 14 46 130 90 257 45 128 83 234 85 237 3 2 25 -3 50 -13 l45 -16 10 27 c17
48 18 52 15 52 -1 0 -66 22 -144 50 l-140 49 -11 -31z"/>
<path d="M3545 9484 c-55 -25 -104 -49 -108 -53 -7 -7 233 -555 251 -573 7 -6
199 76 216 93 6 5 4 22 -7 43 l-16 35 -67 -30 c-36 -17 -68 -29 -69 -27 -4 4
-74 155 -86 186 -8 21 -4 25 49 49 31 14 59 27 61 29 6 6 -21 64 -30 64 -5 0
-33 -12 -63 -27 -31 -15 -57 -25 -59 -22 -2 2 -17 36 -35 74 l-32 70 64 30
c36 17 68 33 71 37 7 7 -22 68 -33 68 -4 0 -52 -21 -107 -46z"/>
<path d="M7195 9470 c-12 -4 -25 -14 -31 -21 -21 -27 -224 -465 -224 -482 0
-36 22 -58 90 -92 81 -41 118 -44 147 -12 23 25 233 466 233 489 0 31 -42 67
-114 97 -41 17 -76 31 -78 30 -2 0 -12 -4 -23 -9z m115 -124 c0 -20 -194 -416
-204 -416 -6 1 -25 9 -43 18 l-31 17 100 211 100 212 39 -17 c21 -9 39 -20 39
-25z"/>
<path d="M3125 9269 c-66 -39 -124 -74 -128 -79 -7 -6 3 -31 29 -69 2 -2 23 8
47 21 l44 25 138 -236 c76 -130 139 -238 141 -240 1 -1 21 7 44 20 28 16 39
28 35 39 -3 8 -64 115 -136 236 -122 209 -139 244 -121 244 4 0 22 9 40 20 34
21 34 29 0 72 -12 15 -23 11 -133 -53z"/>
<path d="M7933 9062 c-6 -4 -90 -106 -187 -227 l-177 -220 38 -33 c29 -26 39
-30 49 -20 6 7 84 104 173 216 l162 203 28 -20 c42 -30 55 -49 44 -63 -6 -7
-80 -101 -166 -209 -87 -108 -157 -201 -157 -207 0 -6 16 -23 35 -38 32 -24
37 -25 48 -11 7 9 84 106 172 216 171 215 160 206 219 157 l28 -24 -139 -173
c-76 -96 -154 -194 -173 -218 l-34 -44 35 -28 c19 -16 37 -29 41 -29 12 0 358
440 364 464 10 42 -18 74 -172 197 -127 101 -154 119 -184 119 -19 0 -40 -4
-47 -8z"/>
<path d="M2676 8969 c-53 -39 -96 -73 -96 -76 0 -9 371 -503 378 -503 3 0 23
12 43 26 l38 26 -90 120 c-54 70 -88 125 -85 134 8 21 51 37 79 30 17 -4 52
-42 103 -110 44 -59 82 -102 88 -99 28 17 66 47 66 53 0 10 -169 233 -183 242
-6 4 -22 8 -35 8 -21 0 -23 4 -17 28 6 30 -13 64 -82 150 -30 36 -40 42 -73
42 -31 0 -54 -12 -134 -71z m163 -80 c45 -67 44 -79 -5 -118 l-26 -21 -51 67
-50 66 39 34 c21 18 42 33 46 33 3 0 25 -27 47 -61z"/>
<path d="M5195 9014 c-530 -40 -979 -160 -1415 -379 -544 -273 -1035 -704
-1376 -1210 -338 -500 -536 -1045 -605 -1665 -17 -148 -17 -572 0 -720 95
-858 448 -1598 1045 -2196 600 -599 1334 -948 2196 -1045 148 -17 572 -17 720
0 862 97 1596 446 2196 1045 597 598 950 1338 1045 2196 17 148 17 572 0 720
-95 858 -448 1598 -1045 2196 -589 588 -1305 935 -2146 1039 -120 15 -510 27
-615 19z m451 -154 c722 -56 1368 -310 1929 -756 142 -113 416 -388 529 -529
459 -577 712 -1240 758 -1983 52 -843 -219 -1689 -758 -2367 -113 -141 -387
-416 -529 -529 -495 -395 -1072 -644 -1690 -730 -952 -134 -1903 127 -2660
730 -142 113 -416 388 -529 529 -459 577 -712 1240 -758 1983 -52 843 219
1689 758 2367 113 141 387 416 529 529 620 493 1360 757 2151 765 78 0 199 -4
270 -9z"/>
<path d="M5204 8699 c-1531 -88 -2810 -1238 -3063 -2754 -32 -194 -42 -324
-42 -545 0 -511 101 -964 316 -1416 475 -998 1418 -1695 2510 -1855 297 -43
653 -43 950 0 1420 207 2548 1312 2784 2726 32 194 42 324 42 545 0 511 -101
964 -316 1416 -475 998 -1418 1695 -2510 1855 -116 17 -440 41 -505 37 -14 0
-89 -5 -166 -9z m-89 -478 c22 -10 66 -41 98 -69 67 -60 65 -59 292 -66 260
-8 485 -47 735 -128 403 -130 730 -329 1060 -642 112 -107 120 -112 211 -146
318 -116 586 -308 729 -522 86 -128 99 -187 53 -238 -24 -27 -39 -32 -103 -41
-98 -14 -154 -39 -180 -81 -27 -44 -26 -62 15 -219 68 -265 79 -360 80 -684 0
-303 -6 -371 -50 -580 -85 -394 -253 -760 -502 -1088 -107 -141 -371 -403
-514 -510 -377 -281 -779 -449 -1249 -522 -145 -23 -476 -31 -636 -16 -906 85
-1698 602 -2137 1396 -446 808 -444 1827 6 2629 358 639 968 1118 1660 1302
96 26 108 32 114 54 17 69 73 148 128 178 33 18 145 14 190 -7z"/>
<path d="M4970 8100 c-31 -31 -40 -64 -40 -146 0 -234 152 -646 345 -934 212
-318 433 -538 857 -856 340 -256 436 -334 534 -437 389 -407 574 -900 525
-1402 -42 -426 -187 -756 -456 -1034 -116 -120 -216 -205 -328 -279 -37 -25
-65 -47 -63 -49 3 -3 64 24 138 59 650 314 1158 876 1371 1518 86 256 117 446
124 755 7 313 -23 579 -98 877 -10 42 -19 94 -19 115 0 80 64 135 199 171 40
11 78 26 82 34 30 47 -27 144 -156 267 -139 130 -300 228 -510 306 -133 49
-124 44 -242 156 -435 413 -854 634 -1388 730 -95 17 -167 22 -346 25 -252 3
-252 3 -334 74 -26 22 -59 47 -75 55 -42 22 -96 19 -120 -5z"/>
<path d="M4663 7855 c-327 -101 -617 -255 -883 -468 -125 -101 -319 -298 -415
-421 l-68 -88 23 -72 c127 -396 382 -757 691 -978 135 -97 126 -95 195 -39
286 229 646 395 969 445 240 38 445 26 695 -40 14 -4 -9 17 -50 46 -449 313
-776 762 -949 1304 -22 69 -50 176 -62 236 -13 61 -25 110 -28 110 -3 -1 -56
-16 -118 -35z"/>
<path d="M3073 6074 c-3 -9 6 -27 23 -45 15 -16 25 -29 22 -29 -3 0 -45 18
-93 40 -48 23 -89 39 -91 37 -2 -2 39 -109 90 -238 51 -128 128 -325 171 -437
l78 -203 162 161 c144 143 163 159 175 145 12 -14 -2 -32 -119 -149 -130 -130
-132 -133 -120 -160 10 -20 10 -35 2 -56 -10 -26 -7 -31 23 -61 l35 -33 205
205 c194 194 205 208 194 229 -20 37 -8 129 26 196 16 32 31 63 33 69 2 5 -49
-42 -113 -105 l-116 -115 -283 283 c-155 155 -286 282 -290 282 -4 0 -10 -7
-14 -16z"/>
<path d="M5260 6070 c-280 -25 -548 -120 -790 -281 -128 -85 -344 -301 -429
-429 -414 -621 -376 -1416 95 -1981 245 -294 576 -488 969 -566 140 -28 474
-25 615 6 622 134 1103 583 1264 1182 62 232 73 532 26 754 -113 537 -475 980
-972 1190 -238 101 -525 147 -778 125z m373 -75 c106 -16 257 -54 257 -65 0
-3 -31 -14 -68 -24 -65 -17 -72 -17 -157 0 -113 22 -381 25 -513 5 -85 -13
-97 -13 -152 4 -33 10 -60 21 -60 26 0 8 108 36 216 54 109 18 357 18 477 0z
m-46 -134 c165 -24 166 -25 231 -109 71 -92 175 -249 208 -315 l24 -47 -152
-198 -152 -197 -345 2 -346 2 -142 203 c-79 112 -143 205 -143 208 0 3 22 42
49 85 51 83 149 209 230 297 45 49 51 52 122 64 88 14 329 17 416 5z m-1476
-663 c-88 -146 -156 -327 -186 -494 -19 -106 -22 -114 -70 -179 l-37 -50 5 85
c16 252 113 527 265 755 l67 100 3 -67 c3 -65 1 -70 -47 -150z m2602 110 c106
-160 183 -339 225 -523 22 -94 48 -293 40 -301 -3 -2 -24 20 -47 51 -37 48
-44 67 -56 143 -28 172 -91 349 -179 501 -42 73 -46 86 -46 146 0 36 2 65 4
65 3 0 29 -37 59 -82z m-1844 -146 c140 -202 143 -208 131 -237 -61 -147 -118
-312 -151 -443 -22 -86 -43 -160 -47 -163 -4 -4 -125 -43 -270 -89 -223 -69
-265 -80 -278 -69 -32 26 -145 178 -218 293 -64 100 -74 122 -70 149 18 110
38 200 60 271 26 83 120 283 151 323 11 13 62 39 126 63 115 43 355 109 397
109 21 0 47 -32 169 -207z m1407 147 c107 -34 310 -117 349 -143 62 -41 176
-344 200 -534 7 -50 5 -55 -40 -128 -57 -91 -150 -218 -216 -295 l-49 -57
-267 85 c-147 46 -268 85 -269 86 0 1 -11 45 -24 97 -26 105 -91 304 -145 436
l-34 86 157 205 157 205 41 -6 c23 -3 86 -20 140 -37z m-1383 -1100 c98 -86
269 -211 376 -274 l100 -60 1 -307 0 -308 -50 -25 c-63 -32 -197 -77 -343
-115 l-112 -30 -92 44 c-141 68 -267 158 -385 275 l-106 106 -8 69 c-10 105 0
484 14 499 12 11 501 174 531 176 8 1 41 -22 74 -50z m1346 -29 c140 -44 258
-85 262 -92 15 -24 22 -187 16 -372 -8 -218 -7 -215 -115 -318 -124 -117 -258
-209 -399 -275 l-71 -33 -94 25 c-95 24 -274 86 -360 124 l-48 20 0 308 0 308
88 52 c101 59 254 172 362 266 41 36 82 66 90 66 8 1 129 -35 269 -79z m435
-682 c-124 -173 -328 -350 -531 -460 -94 -51 -242 -112 -250 -104 -3 3 12 28
33 57 29 40 52 58 100 80 195 89 391 240 529 409 48 59 64 71 113 88 31 11 59
18 61 16 2 -2 -23 -40 -55 -86z m-2539 55 c40 -13 73 -41 189 -158 154 -156
281 -249 438 -319 66 -31 90 -48 118 -84 54 -71 54 -72 23 -62 -227 69 -475
228 -656 420 -92 97 -183 220 -164 220 2 0 25 -7 52 -17z"/>
<path d="M3396 5833 c65 -61 148 -145 183 -187 l64 -76 76 73 c42 41 87 78
100 82 23 7 21 9 -30 42 -154 98 -310 159 -438 170 l-74 6 119 -110z"/>
<path d="M2824 5414 c4 -126 12 -272 17 -324 49 -455 223 -892 510 -1278 93
-125 366 -398 491 -491 136 -101 269 -183 420 -258 131 -66 171 -78 99 -30
-137 91 -306 263 -419 425 -72 103 -172 312 -215 447 -56 174 -97 420 -97 583
0 39 -4 72 -9 72 -20 0 -179 127 -269 214 -207 200 -360 429 -461 691 -21 55
-42 115 -46 132 -3 18 -11 36 -17 39 -8 5 -9 -61 -4 -222z"/>
<path d="M2295 8643 c-75 -64 -99 -102 -90 -141 3 -17 76 -99 188 -215 222
-228 213 -225 326 -119 70 66 72 70 69 111 -3 40 -13 53 -173 220 -93 98 -180
183 -193 190 -40 19 -59 13 -127 -46z m190 -155 c61 -62 134 -138 163 -168
l52 -56 -38 -37 -39 -38 -163 171 -163 171 33 34 c19 19 36 35 40 35 3 0 55
-51 115 -112z"/>
<path d="M8509 8567 c-48 -22 -388 -348 -394 -378 -9 -38 12 -74 83 -141 96
-92 94 -93 314 113 101 94 189 182 196 196 22 40 6 75 -66 145 -74 73 -94 83
-133 65z m80 -122 c17 -20 31 -39 30 -43 0 -4 -77 -78 -170 -164 l-169 -158
-36 40 -36 40 98 92 c55 51 131 123 169 160 39 37 73 68 76 68 4 0 21 -16 38
-35z"/>
<path d="M1972 8294 c-24 -16 -152 -172 -151 -182 0 -4 110 -95 244 -204 l243
-196 19 21 c49 56 52 49 -49 132 -51 43 -94 80 -96 84 -1 3 16 30 38 60 67 88
57 115 -78 225 -99 80 -127 90 -170 60z m100 -125 c99 -81 106 -97 65 -144
l-22 -26 -83 67 c-54 44 -81 72 -77 82 4 12 47 70 52 71 1 1 30 -22 65 -50z"/>
<path d="M8640 8004 c-118 -86 -221 -162 -229 -170 -12 -11 -11 -18 10 -48 13
-20 28 -36 32 -36 5 0 105 70 222 155 118 85 218 155 224 155 11 0 67 -78 60
-84 -2 -2 -96 -70 -209 -151 -113 -81 -211 -154 -219 -161 -12 -11 -10 -18 13
-49 16 -20 34 -34 40 -32 7 3 113 78 235 167 144 105 226 171 232 188 14 36
-3 77 -64 152 -47 58 -57 65 -92 68 -37 2 -54 -8 -255 -154z"/>
<path d="M1653 7883 c-16 -27 -46 -74 -66 -105 l-37 -56 267 -171 c212 -136
269 -169 279 -159 26 29 123 192 118 200 -3 4 -18 15 -34 23 l-29 15 -41 -60
c-26 -39 -45 -58 -53 -53 -76 46 -177 115 -177 121 0 4 14 27 30 52 35 53 37
66 11 80 -32 17 -40 12 -72 -40 -17 -27 -35 -50 -39 -50 -13 0 -129 74 -130
82 0 4 16 32 35 62 19 30 35 59 35 64 0 11 -44 42 -58 42 -5 0 -22 -21 -39
-47z"/>
<path d="M9162 7760 l-33 -21 24 -44 25 -44 -221 -125 c-122 -69 -230 -131
-241 -139 -18 -13 -18 -15 3 -55 20 -39 23 -41 44 -31 12 7 120 68 239 136
119 67 219 123 222 123 3 0 12 -12 20 -27 31 -56 31 -56 65 -39 17 9 31 21 31
28 0 9 -138 258 -143 258 -1 0 -17 -9 -35 -20z"/>
<path d="M1445 7458 c-42 -23 -68 -55 -106 -130 l-39 -77 287 -140 c157 -78
287 -140 289 -139 1 2 21 41 43 87 47 98 52 144 19 186 -26 33 -410 225 -449
225 -13 0 -33 -6 -44 -12z m235 -183 c115 -58 190 -101 190 -110 0 -20 -22
-65 -32 -65 -13 0 -418 204 -418 211 0 14 42 59 56 59 8 0 100 -43 204 -95z"/>
<path d="M9373 7363 l-31 -16 19 -45 c11 -25 18 -46 16 -48 -2 -2 -111 -51
-243 -109 -131 -59 -243 -110 -248 -115 -12 -12 24 -92 38 -87 6 3 121 53 255
113 135 59 246 103 248 98 2 -5 11 -26 21 -46 l17 -37 36 17 37 17 -60 138
c-34 75 -64 137 -67 136 -3 0 -20 -7 -38 -16z"/>
<path d="M4406 1648 c-21 -20 -34 -59 -80 -257 -31 -129 -56 -248 -56 -266 0
-44 32 -69 112 -89 86 -21 100 -20 130 4 19 14 31 41 47 104 11 47 21 90 21
95 0 16 -81 35 -90 22 -3 -6 -12 -41 -19 -76 -7 -36 -18 -68 -23 -71 -15 -10
-78 6 -78 19 0 7 23 110 52 230 l52 219 40 -7 c22 -3 42 -7 44 -9 2 -2 -4 -31
-12 -64 -9 -33 -16 -62 -16 -65 0 -6 76 -20 87 -16 5 1 15 34 24 72 18 76 12
120 -20 137 -21 11 -145 40 -171 40 -10 0 -30 -10 -44 -22z"/>
<path d="M6128 1618 c-60 -13 -95 -25 -93 -32 2 -6 29 -143 60 -305 31 -162
58 -298 60 -302 4 -5 233 36 241 44 1 1 -1 18 -5 37 -8 39 -12 40 -106 25
l-51 -7 -18 98 c-11 55 -21 105 -23 111 -6 15 2 18 78 33 l56 11 -6 32 c-7 30
-9 32 -47 28 -100 -11 -97 -12 -111 54 -20 96 -22 92 57 106 39 7 72 15 74 18
2 3 1 21 -1 39 -5 29 -9 32 -37 31 -17 -1 -75 -10 -128 -21z"/>
<path d="M4801 1289 c-19 -167 -36 -309 -38 -315 -5 -14 90 -26 98 -13 3 6 12
69 19 141 l13 130 50 -5 c27 -4 51 -8 52 -9 2 -2 -4 -63 -13 -136 -8 -73 -12
-135 -9 -138 3 -4 25 -9 49 -11 l43 -5 33 298 c19 165 36 306 38 315 4 13 -6
17 -43 22 -27 3 -50 3 -52 1 -2 -2 -11 -62 -19 -133 l-15 -130 -46 6 c-25 3
-48 7 -50 9 -3 2 1 61 8 130 7 69 11 128 7 131 -3 3 -24 8 -48 10 l-43 5 -34
-303z"/>
<path d="M5674 1508 c3 -29 15 -159 26 -288 11 -129 23 -249 25 -265 l5 -30
110 10 c61 5 110 13 110 18 0 4 0 22 0 41 l0 34 -64 -5 -64 -6 -6 44 c-5 37
-46 478 -46 494 0 3 -23 5 -51 5 l-51 0 6 -52z"/>
<path d="M5280 1510 c0 -39 1 -40 35 -40 l35 0 0 -235 0 -235 -41 0 -40 0 3
-42 3 -43 123 -3 122 -3 0 46 c0 45 0 45 -35 45 l-35 0 0 235 0 235 40 0 40 0
0 40 0 40 -125 0 -125 0 0 -40z"/>
</g>
</svg>
