<?xml version="1.0" encoding="UTF-8" standalone="no"?>
<!-- Created with Inkscape (http://www.inkscape.org/) -->

<svg
   version="1.1"
   id="svg2"
   width="1440"
   height="1440"
   viewBox="0 0 1440 1440"
   sodipodi:docname="D. Santa Cruz.ai"
   xmlns:inkscape="http://www.inkscape.org/namespaces/inkscape"
   xmlns:sodipodi="http://sodipodi.sourceforge.net/DTD/sodipodi-0.dtd"
   xmlns="http://www.w3.org/2000/svg"
   xmlns:svg="http://www.w3.org/2000/svg">
  <defs
     id="defs6">
    <clipPath
       clipPathUnits="userSpaceOnUse"
       id="clipPath16">
      <path
         d="M 0,1080 H 1080 V 0 H 0 Z"
         id="path14" />
    </clipPath>
  </defs>
  <sodipodi:namedview
     id="namedview4"
     pagecolor="#ffffff"
     bordercolor="#000000"
     borderopacity="0.25"
     inkscape:showpageshadow="2"
     inkscape:pageopacity="0.0"
     inkscape:pagecheckerboard="0"
     inkscape:deskcolor="#d1d1d1" />
  <g
     id="g8"
     inkscape:groupmode="layer"
     inkscape:label="D. Santa Cruz"
     transform="matrix(1.3333333,0,0,-1.3333333,0,1440)">
    <g
       id="g10">
      <g
         id="g12"
         clip-path="url(#clipPath16)">
        <g
           id="g18"
           transform="translate(1020.088,544.0618)">
          <path
             d="m 0,0 c 0,-264.789 -214.654,-479.442 -479.442,-479.442 -264.788,0 -479.442,214.653 -479.442,479.442 0,264.789 214.654,479.442 479.442,479.442 C -214.654,479.442 0,264.789 0,0"
             style="fill:#ffffff;fill-opacity:1;fill-rule:nonzero;stroke:none"
             id="path20" />
        </g>
        <g
           id="g22"
           transform="translate(539.9998,1011.6505)">
          <path
             d="m 0,0 c -125.983,0 -244.424,-49.06 -333.507,-138.143 -89.083,-89.082 -138.143,-207.526 -138.143,-333.507 0,-125.982 49.06,-244.425 138.143,-333.508 89.083,-89.083 207.524,-138.143 333.507,-138.143 125.983,0 244.424,49.06 333.506,138.143 89.085,89.083 138.145,207.526 138.145,333.508 0,125.981 -49.06,244.425 -138.145,333.507 C 244.424,-49.06 125.983,0 0,0 m 0,-964.192 c -131.562,0 -255.25,51.234 -348.279,144.262 -93.029,93.029 -144.262,216.717 -144.262,348.28 0,131.562 51.233,255.25 144.262,348.279 C -255.25,-30.343 -131.562,20.891 0,20.891 c 131.562,0 255.251,-51.234 348.278,-144.262 93.03,-93.029 144.264,-216.717 144.264,-348.279 0,-131.563 -51.234,-255.251 -144.264,-348.28 C 255.251,-912.958 131.562,-964.192 0,-964.192"
             style="fill:#000000;fill-opacity:1;fill-rule:nonzero;stroke:none"
             id="path24" />
        </g>
        <g
           id="g26"
           transform="translate(540.8031,879.074)">
          <path
             d="m 0,0 c -187.409,0 -339.877,-152.469 -339.877,-339.877 0,-187.409 152.468,-339.878 339.877,-339.878 187.409,0 339.878,152.469 339.878,339.878 C 339.878,-152.469 187.409,0 0,0 m 0,-700.646 c -96.365,0 -186.961,37.526 -255.102,105.666 -68.14,68.141 -105.666,158.738 -105.666,255.103 0,96.364 37.526,186.961 105.666,255.101 68.141,68.14 158.738,105.667 255.102,105.667 96.364,0 186.961,-37.527 255.102,-105.667 68.14,-68.14 105.667,-158.737 105.667,-255.101 0,-96.365 -37.527,-186.962 -105.667,-255.103 C 186.962,-663.12 96.365,-700.646 0,-700.646"
             style="fill:#000000;fill-opacity:1;fill-rule:nonzero;stroke:none"
             id="path28" />
        </g>
        <g
           id="g30"
           transform="translate(364.8393,764.9778)">
          <path
             d="m 0,0 h 173.005 c 0,0 4.85,-417.436 0,-453.17 C -11.318,-438.552 0,-209.531 0,-209.531"
             style="fill:#000000;fill-opacity:1;fill-rule:nonzero;stroke:none"
             id="path32" />
        </g>
        <g
           id="g34"
           transform="translate(536.7858,764.9778)">
          <path
             d="m 0,0 h 172.253 c -0.967,-60.259 -0.55,-109.08 0,-142.329 1.298,-78.406 4.08,-115.159 -11.268,-165.233 -9.217,-30.068 -21.423,-53.368 -30.588,-68.711 -6.647,-12.223 -20.305,-33.389 -45.075,-50.715 C 49.967,-451.719 13.896,-453.294 0,-453.164"
             style="fill:#e34338;fill-opacity:1;fill-rule:nonzero;stroke:none"
             id="path36" />
        </g>
        <g
           id="g38"
           transform="translate(607.5514,649.6467)">
          <path
             d="m 0,0 c 8.463,-1.594 17.053,-1.361 25.596,-1.852 5.559,-0.32 11.424,-1.338 11.14,-8.548 -0.259,-6.574 -5.483,-7.599 -11.06,-7.542 -10.975,0.108 -21.995,-0.593 -32.914,0.184 -13.538,0.962 -25.737,-2.976 -37.716,-8.244 -17.739,-7.801 -39.37,-1.899 -52.642,14.777 -4.447,5.588 -8.764,11.318 -11.006,18.663 -9.452,-7.311 -19.549,-9.461 -31.05,-6.454 -4.489,1.172 -9.548,0.76 -14.32,-0.377 -7.147,-1.703 -14.202,-0.83 -21.386,0.346 -4.952,0.809 -8.338,2.567 -8.463,7.703 -0.126,5.193 3.81,7.806 8.175,8.437 8.125,1.172 15.13,4.879 22.332,8.302 6.228,2.958 11.337,7.896 18.108,9.935 2.04,0.615 3.939,1.649 6.142,1.441 5.068,-0.484 8.348,-0.168 8.362,6.867 0.013,7.343 7.711,6.601 12.387,7.288 6.994,1.028 13.507,2.975 19.699,6.065 7.748,3.866 15.999,4.398 24.249,3.592 7.55,-0.737 13.009,-5.563 15.262,-12.595 2.584,-8.066 0.422,-15.826 -4.506,-22.708 -1.359,-1.897 -3.905,-2.891 -4.34,-5.835 5.325,-0.846 7.608,2.349 9.612,6.455 7.036,14.424 13.466,16.815 28.902,12.451 13.109,-3.707 25.735,-8.308 37.87,-14.568 7.39,-3.814 15.8,-4.543 24.088,-4.557 5.788,-0.01 11.404,-0.662 11.803,-7.718 C 54.739,4.151 49.112,3.228 43.296,3.2 40.626,3.186 37.956,2.902 35.287,2.74 22.193,1.19 8.973,3.367 -4.086,1.422 -6.324,1.508 -8.595,1.158 -10.744,1.577 -8.114,1.103 -5.556,1.561 -3.016,1.299 -1.862,1.201 -0.857,0.772 0,0"
             style="fill:#008039;fill-opacity:1;fill-rule:nonzero;stroke:none"
             id="path40" />
        </g>
        <g
           id="g42"
           transform="translate(604.3383,545.2049)">
          <path
             d="m 0,0 c 8.463,-1.594 17.053,-1.36 25.595,-1.852 5.559,-0.32 11.425,-1.337 11.141,-8.546 -0.259,-6.576 -5.483,-7.599 -11.061,-7.544 -10.974,0.108 -21.994,-0.592 -32.913,0.184 -13.539,0.962 -25.737,-2.976 -37.717,-8.244 -17.739,-7.801 -39.369,-1.899 -52.641,14.778 -4.448,5.587 -8.764,11.318 -11.007,18.664 -9.452,-7.311 -19.549,-9.463 -31.05,-6.456 -4.489,1.172 -9.548,0.76 -14.319,-0.376 -7.147,-1.703 -14.203,-0.829 -21.386,0.345 -4.952,0.811 -8.338,2.569 -8.464,7.704 -0.126,5.192 3.811,7.807 8.175,8.436 8.126,1.173 15.13,4.881 22.333,8.302 6.227,2.958 11.336,7.898 18.107,9.937 2.04,0.613 3.94,1.649 6.143,1.439 5.068,-0.482 8.348,-0.166 8.361,6.867 0.014,7.345 7.711,6.601 12.388,7.288 6.994,1.028 13.506,2.977 19.699,6.066 7.748,3.865 15.998,4.397 24.249,3.592 7.549,-0.736 13.009,-5.563 15.262,-12.595 2.584,-8.067 0.421,-15.826 -4.506,-22.707 -1.359,-1.899 -3.905,-2.892 -4.34,-5.836 5.324,-0.846 7.608,2.349 9.612,6.456 7.036,14.422 13.466,16.815 28.901,12.449 13.11,-3.707 25.736,-8.306 37.87,-14.568 7.391,-3.813 15.8,-4.543 24.089,-4.557 5.788,-0.01 11.404,-0.662 11.803,-7.716 C 54.739,4.153 49.112,3.23 43.295,3.2 40.625,3.186 37.956,2.902 35.286,2.74 22.192,1.19 8.972,3.37 -4.087,1.422 -6.324,1.51 -8.595,1.16 -10.745,1.577 -8.115,1.103 -5.556,1.562 -3.016,1.301 -1.862,1.201 -0.857,0.772 0,0"
             style="fill:#008039;fill-opacity:1;fill-rule:nonzero;stroke:none"
             id="path44" />
        </g>
        <g
           id="g46"
           transform="translate(604.3383,443.9775)">
          <path
             d="m 0,0 c 8.463,-1.594 17.052,-1.36 25.595,-1.852 5.559,-0.32 11.424,-1.337 11.141,-8.546 -0.259,-6.574 -5.483,-7.599 -11.061,-7.544 -10.974,0.108 -21.994,-0.592 -32.913,0.184 -13.539,0.962 -25.737,-2.976 -37.717,-8.244 -17.739,-7.801 -39.369,-1.899 -52.641,14.778 -4.448,5.587 -8.764,11.318 -11.007,18.664 -9.451,-7.311 -19.548,-9.463 -31.05,-6.456 -4.489,1.172 -9.547,0.76 -14.319,-0.377 -7.147,-1.702 -14.203,-0.828 -21.386,0.347 -4.952,0.81 -8.338,2.568 -8.464,7.702 -0.126,5.193 3.811,7.808 8.175,8.437 8.125,1.173 15.13,4.881 22.333,8.302 6.227,2.958 11.336,7.898 18.107,9.937 2.04,0.613 3.939,1.649 6.142,1.439 5.068,-0.482 8.349,-0.168 8.362,6.867 0.013,7.344 7.711,6.601 12.388,7.288 6.993,1.028 13.506,2.977 19.699,6.065 7.747,3.866 15.998,4.398 24.249,3.593 7.549,-0.736 13.009,-5.563 15.262,-12.594 2.584,-8.068 0.449,-15.847 -4.524,-22.696 -1.363,-1.876 -3.111,-3.474 -5.151,-5.717 6.153,-0.978 8.437,2.218 10.441,6.325 7.036,14.422 13.466,16.815 28.901,12.449 13.109,-3.707 25.736,-8.306 37.87,-14.568 7.39,-3.813 15.8,-4.543 24.088,-4.557 5.788,-0.01 11.404,-0.662 11.804,-7.716 C 54.739,4.152 49.112,3.23 43.296,3.2 40.625,3.186 37.956,2.902 35.286,2.74 22.192,1.19 8.972,3.37 -4.087,1.422 -6.324,1.51 -8.595,1.16 -10.745,1.577 -8.115,1.105 -5.556,1.561 -3.016,1.301 -1.862,1.202 -0.857,0.772 0,0"
             style="fill:#008039;fill-opacity:1;fill-rule:nonzero;stroke:none"
             id="path48" />
        </g>
        <g
           id="g50"
           transform="translate(637.9443,659.1614)">
          <path
             d="m 0,0 c -16.836,-1.549 -33.66,-0.039 -50.49,0.185 -5.34,0.073 -10.721,0.554 -15.95,-0.938 -2.661,-0.76 -5.318,-2.255 -5.464,-5.154 -0.125,-2.495 2.236,-4.184 4.426,-5.264 6.126,-3.019 12.846,-3.284 19.47,-3.78 13.865,-1.036 27.744,-1.896 41.612,-2.903 1.935,-0.141 4.481,0.828 5.522,-2.809 -13.158,0 -26.138,-0.462 -39.069,0.136 -11.505,0.532 -22.176,-1.409 -32.515,-6.437 -5.745,-2.793 -12.025,-4.215 -18.427,-5.01 -18.263,-2.265 -32.967,12.957 -40.13,28.782 -5.054,11.166 -5.099,11.47 -14.8,4.648 -5.169,-3.633 -11.157,-5.629 -17.413,-4.367 -8.823,1.777 -17.463,1.646 -26.239,-0.045 -5.872,-1.132 -11.645,0.376 -19.277,1.825 10.325,3.73 19.577,5.765 27.635,10.666 3.178,1.932 6.864,3.128 9.796,5.348 10.668,8.081 21.794,7.447 33.158,2.139 5.078,-2.371 10.161,-4.723 15.65,-5.753 6.842,-1.282 13.933,3.349 14.532,9.044 0.681,6.483 -4.857,11.546 -12.734,11.518 -7.327,-0.027 -14.663,0.199 -21.885,-1.182 -0.441,3.319 1.731,3.029 3.077,3.109 13.268,0.797 24.014,9.977 37.234,11.037 6.965,0.558 13.057,-0.55 16.165,-7.415 2.97,-6.562 0.402,-12.428 -3.727,-17.738 -0.327,-0.421 -0.723,-0.788 -1.089,-1.177 -3.651,-3.88 -8.376,-7.691 -4.726,-13.71 2.267,-3.738 14.008,-2.218 18.446,1.987 2.57,2.434 4.185,5.47 5.399,8.791 2.689,7.359 8.446,9.636 15.395,7.668 C -45.7,20.167 -34.52,18.185 -24.739,12.544 -13.557,6.095 -1.482,3.55 11.178,2.902 8.487,-2.054 3.306,2.585 0,0"
             style="fill:#ffffff;fill-opacity:1;fill-rule:nonzero;stroke:none"
             id="path52" />
        </g>
        <g
           id="g54"
           transform="translate(634.7311,554.72)">
          <path
             d="m 0,0 c -16.836,-1.547 -33.661,-0.039 -50.491,0.187 -5.34,0.07 -10.72,0.554 -15.95,-0.94 -2.66,-0.758 -5.318,-2.255 -5.463,-5.154 -0.126,-2.495 2.235,-4.184 4.426,-5.264 6.126,-3.019 12.846,-3.284 19.47,-3.779 13.865,-1.037 27.743,-1.895 41.611,-2.904 1.936,-0.141 4.483,0.83 5.522,-2.81 -13.158,0 -26.138,-0.461 -39.068,0.137 -11.505,0.534 -22.176,-1.409 -32.515,-6.436 -5.746,-2.793 -12.025,-4.216 -18.427,-5.011 -18.263,-2.264 -32.967,12.958 -40.13,28.782 -5.054,11.166 -5.099,11.47 -14.8,4.65 -5.169,-3.635 -11.157,-5.629 -17.413,-4.369 -8.824,1.778 -17.465,1.655 -26.239,-0.047 -5.877,-1.14 -11.632,0.519 -19.759,1.654 10.807,3.904 20.059,5.938 28.117,10.839 3.178,1.934 6.863,3.128 9.796,5.348 10.668,8.081 21.793,7.447 33.158,2.139 5.078,-2.371 10.16,-4.723 15.651,-5.751 6.841,-1.284 13.931,3.347 14.531,9.044 0.681,6.481 -4.857,11.511 -12.734,11.523 -3.746,0.008 -7.536,-0.425 -11.224,0.021 -3.679,0.445 -7.1,-2.269 -10.705,-0.881 -0.398,2.99 1.775,2.699 3.121,2.781 13.268,0.796 24.014,9.978 37.233,11.037 6.966,0.557 13.058,-0.551 16.166,-7.415 2.97,-6.561 0.402,-12.429 -3.728,-17.74 -0.327,-0.42 -0.722,-0.787 -1.089,-1.177 -3.651,-3.877 -8.375,-7.691 -4.726,-13.709 2.267,-3.738 14.009,-2.216 18.446,1.987 2.571,2.435 4.186,5.47 5.399,8.793 2.69,7.357 8.447,9.634 15.395,7.667 10.718,-3.035 21.898,-5.017 31.679,-10.657 C -13.557,6.097 -1.482,3.551 11.177,2.902 8.487,-2.054 3.306,2.585 0,0"
             style="fill:#ffffff;fill-opacity:1;fill-rule:nonzero;stroke:none"
             id="path56" />
        </g>
        <g
           id="g58"
           transform="translate(597.5374,546.7556)">
          <path
             d="m 0,0 c 1.13,-0.486 2.26,-0.973 3.39,-1.459 -4.001,0.07 -8.002,0.136 -12.003,0.225 -0.239,0.005 -0.474,0.197 -0.711,0.302 0.123,0.237 0.247,0.474 0.371,0.711 C -6.002,1.18 -3.007,0.833 0,0"
             style="fill:#98caa6;fill-opacity:1;fill-rule:nonzero;stroke:none"
             id="path60" />
        </g>
        <g
           id="g62"
           transform="translate(597.5374,546.7556)">
          <path
             d="m 0,0 c -2.985,-0.074 -5.969,-0.148 -8.953,-0.221 2.552,3.647 6.095,0.89 9.13,1.414 C 0.195,0.783 0.136,0.386 0,0"
             style="fill:#cde5d4;fill-opacity:1;fill-rule:nonzero;stroke:none"
             id="path64" />
        </g>
        <g
           id="g66"
           transform="translate(634.7311,453.4922)">
          <path
             d="m 0,0 c -16.836,-1.547 -33.661,-0.039 -50.491,0.187 -5.34,0.071 -10.72,0.554 -15.95,-0.94 -2.66,-0.758 -5.318,-2.255 -5.463,-5.154 -0.126,-2.493 2.235,-4.184 4.426,-5.264 6.126,-3.019 12.846,-3.284 19.47,-3.778 13.865,-1.038 27.742,-1.912 41.612,-2.886 1.984,-0.14 4.368,0.537 5.724,-2.828 -13.361,0 -26.341,-0.462 -39.271,0.138 -11.505,0.532 -22.176,-1.411 -32.515,-6.437 -5.746,-2.794 -12.025,-4.217 -18.428,-5.011 -18.262,-2.265 -32.966,12.958 -40.129,28.781 -5.054,11.166 -5.099,11.47 -14.8,4.65 -5.169,-3.634 -11.157,-5.629 -17.414,-4.369 -8.823,1.778 -17.464,1.656 -26.238,-0.047 -5.877,-1.14 -11.632,0.519 -19.76,1.654 10.808,3.904 20.06,5.938 28.118,10.839 3.178,1.934 6.864,3.128 9.796,5.35 10.668,8.079 21.794,7.445 33.158,2.137 5.078,-2.371 10.16,-4.723 15.651,-5.751 6.841,-1.282 13.932,3.349 14.531,9.044 0.681,6.481 -4.857,11.511 -12.735,11.525 -3.745,0.006 -7.547,-0.469 -11.22,0.032 -3.697,0.503 -7.093,-2.582 -10.736,-0.683 -0.369,2.779 1.803,2.489 3.149,2.57 13.268,0.796 24.014,9.978 37.234,11.037 6.965,0.558 13.057,-0.551 16.165,-7.415 2.97,-6.561 0.402,-12.429 -3.728,-17.739 -0.327,-0.421 -0.722,-0.788 -1.089,-1.177 -3.651,-3.88 -8.375,-7.691 -4.725,-13.71 2.267,-3.738 14.008,-2.216 18.446,1.987 2.57,2.436 4.185,5.47 5.398,8.793 2.69,7.357 8.447,9.634 15.396,7.668 C -45.7,20.167 -34.52,18.186 -24.74,12.545 -13.557,6.095 -1.482,3.551 11.177,2.902 8.487,-2.054 3.306,2.585 0,0"
             style="fill:#ffffff;fill-opacity:1;fill-rule:nonzero;stroke:none"
             id="path68" />
        </g>
        <g
           id="g70"
           transform="translate(597.5374,445.5282)">
          <path
             d="m 0,0 c 1.13,-0.487 2.26,-0.973 3.39,-1.46 -4.001,0.071 -8.002,0.137 -12.003,0.226 -0.239,0.005 -0.474,0.196 -0.711,0.302 0.123,0.237 0.247,0.474 0.371,0.711 C -6.002,1.18 -3.007,0.835 0,0"
             style="fill:#98caa6;fill-opacity:1;fill-rule:nonzero;stroke:none"
             id="path72" />
        </g>
        <g
           id="g74"
           transform="translate(597.5374,445.5282)">
          <path
             d="m 0,0 c -2.985,-0.074 -5.969,-0.148 -8.953,-0.221 2.552,3.647 6.095,0.889 9.13,1.413 C 0.195,0.783 0.136,0.386 0,0"
             style="fill:#cde5d4;fill-opacity:1;fill-rule:nonzero;stroke:none"
             id="path76" />
        </g>
        <g
           id="g78"
           transform="translate(563.9813,986.7416)">
          <path
             d="m 0,0 c 7.228,-4.312 16.362,-6.221 19.672,-15.487 3.863,-10.813 4.545,-21.952 2.65,-33.172 -3.424,-20.268 -11.337,-26.754 -31.973,-26.763 -6.148,-0.002 -12.296,-0.024 -18.443,-0.027 -1.859,0 -4.041,-0.339 -4.949,1.727 -0.806,1.837 0.841,2.954 2.181,3.736 2.8,1.632 2.838,4.149 2.821,6.938 -0.096,16.571 -0.645,33.171 0.193,49.699 0.291,5.728 -7.173,5.995 -5.601,11.328 6.589,2.566 13.45,0.554 20.152,1.198 3.89,0.374 7.897,-0.912 11.69,0.823 z"
             style="fill:#000000;fill-opacity:1;fill-rule:nonzero;stroke:none"
             id="path80" />
        </g>
        <g
           id="g82"
           transform="translate(130.6839,710.8865)">
          <path
             d="m 0,0 c -0.534,2.32 -0.097,4.735 0.951,6.872 1.613,3.287 1.798,3.83 4.621,7.247 2.992,3.621 6.818,1.405 3.675,-2.047 -0.582,-7.708 5.523,-8.751 12.699,-13.804 9.728,-6.849 19.37,-10.063 31.185,-13.563 7.572,-2.242 12.08,-4.5 16.665,0.513 2.393,2.82 2.053,6.201 1.211,9.244 -0.524,1.896 0.844,2.246 2.423,1.856 0.37,-0.307 0.437,-0.67 0.2,-1.089 2.635,-3.102 2.811,-6.531 1.358,-10.179 -1.73,-3.66 -2.898,-7.751 -5.302,-10.896 -5.572,-7.288 -13.467,-8.474 -22.034,-6.856 -3.78,1.263 -7.839,1.49 -11.525,3.105 C 21.622,-24.902 6.858,-11.302 1.908,-3.38"
             style="fill:#000000;fill-opacity:1;fill-rule:nonzero;stroke:none"
             id="path84" />
        </g>
        <g
           id="g86"
           transform="translate(562.3747,986.7416)">
          <path
             d="m 0,0 c -4.635,-3.698 -10.022,-1.243 -15.034,-1.708 -5.564,-0.516 -15.376,-4.754 -16.983,-3.147 -0.098,0.674 -3.214,4.821 -0.119,4.855 z"
             style="fill:#000000;fill-opacity:1;fill-rule:nonzero;stroke:none"
             id="path88" />
        </g>
        <g
           id="g90"
           transform="translate(779.6102,831.0744)">
          <path
             d="m 0,0 c 2.078,-3.28 -0.5,-5.435 -2.48,-3.901 -7.221,5.596 -16.715,8.836 -20.485,18.301 4.676,0.521 9.147,1.415 11.422,6.293 9.656,12.101 19.307,24.205 28.972,36.298 1.952,2.441 4.867,4.463 3.033,8.331 -0.758,1.597 -0.463,3.207 1.1,4.226 1.652,1.077 2.972,0.192 4.246,-0.955 9.114,-8.21 19.643,-14.769 27.648,-24.301 4.972,-5.92 5.731,-12.245 1.883,-18.491 C 51.43,19.455 46.986,12.927 37.633,14.92 c -2.121,0.452 -6.384,1.462 -4.336,-2.272 5.222,-9.517 -0.693,-14.986 -5.879,-21.074 -2.632,-2.961 -5.67,-4.993 -5.435,-10.302 0.213,-4.806 -3.981,-1.761 -6.398,-0.814 C 2.865,-8.731 2.883,-8.746 13.08,3.911 c 2.494,3.096 4.807,6.338 7.234,9.489 2.943,3.822 0.588,6.448 -2.111,8.818 -3.254,2.858 -4.768,-0.642 -6.284,-2.282 C 7.798,15.478 4.819,10.026 0.058,6.095 -2.36,4.087 -2.29,2.054 0,0"
             style="fill:#000000;fill-opacity:1;fill-rule:nonzero;stroke:none"
             id="path92" />
        </g>
        <g
           id="g94"
           transform="translate(287.4178,868.8375)">
          <path
             d="m 0,0 c -3.341,-7.162 -0.189,-8.08 7.113,-7.031 7.905,1.136 12.85,-4.544 16.471,-10.654 3.365,-5.677 3.04,-11.764 -0.605,-17.448 -7.316,-11.412 -18.043,-19.519 -27.866,-28.475 -2.896,-2.641 -5.451,-1.476 -4.549,2.477 1.042,4.57 -1.66,6.89 -4.08,9.619 -9.556,10.775 -19.019,21.636 -28.759,32.242 -2.823,3.075 -4.73,7.612 -10.942,6.222 -3.075,-0.688 -3.323,3.188 -1.175,5.028 10.279,8.806 19.205,19.439 32.073,24.848 C -12.733,20.859 0.308,11.336 0,0"
             style="fill:#000000;fill-opacity:1;fill-rule:nonzero;stroke:none"
             id="path96" />
        </g>
        <g
           id="g98"
           transform="translate(747.476,206.0163)">
          <path
             d="m 0,0 c 4.122,-5.329 5.433,-10.796 1.091,-16.725 -1.414,-1.931 -3.256,-5.049 1.258,-4.68 9.281,0.757 12.35,-5.916 16.049,-12.083 2.324,-3.877 3.117,-8.738 9.3,-9.442 2.824,-0.321 2.708,-3.8 0.035,-5.43 -4.539,-2.769 -9.241,-5.288 -13.974,-7.719 -3.188,-1.639 -4.715,0.294 -6.129,3.01 -3.075,5.906 -6.396,11.686 -9.725,17.453 -1.651,2.861 -3.795,5.456 -7.552,4.817 -3.856,-0.656 -6.836,-2.157 -4.106,-6.983 3.012,-5.325 5.85,-10.747 8.787,-16.115 0.964,-1.762 2.487,-2.816 4.496,-2.906 2.106,-0.095 4.579,0.459 4.728,-2.742 0.11,-2.36 -1.937,-2.783 -3.583,-3.686 -5.598,-3.071 -11.107,-6.305 -16.638,-9.497 -1.681,-0.971 -3.449,-1.812 -5.171,-0.389 -2.16,1.785 -0.33,3.297 0.618,4.8 1.578,2.502 0.211,4.248 -1.054,6.482 -7.601,13.417 -14.795,27.067 -22.449,40.454 -1.885,3.295 -2.575,7.907 -8.587,7.905 -3.034,-10e-4 -3.752,3.624 -0.317,5.629 3.889,2.268 7.952,4.238 11.94,6.338 5.454,2.846 7.892,4.005 11.715,6.24 l -0.024,-0.014 c 1.338,1.148 3.185,0.32 4.562,1.1 C -14.67,11.519 -6.523,9.253 0,0"
             style="fill:#000000;fill-opacity:1;fill-rule:nonzero;stroke:none"
             id="path100" />
        </g>
        <g
           id="g102"
           transform="translate(724.6136,934.0065)">
          <path
             d="m 0,0 c -0.413,-17.451 -12.622,-26.509 -28.85,-20.596 -7.485,2.728 -10.063,0.967 -11.677,-5.938 -0.84,-3.592 -2.53,-6.993 -3.93,-10.442 -0.841,-2.072 -1.603,-4.235 0.327,-5.915 1.917,-1.669 4.131,-3.185 1.77,-5.762 -2.309,-2.52 -4.291,0.239 -6.391,0.965 -5.539,1.917 -11.082,3.827 -16.656,5.637 -1.873,0.608 -3.689,1.335 -4.062,3.391 -0.476,2.625 1.512,2.968 3.497,3.106 3.238,0.226 3.42,3.093 4.184,5.195 5.817,16.013 11.42,32.104 17.337,48.08 0.985,2.66 0.851,4.497 -1.002,6.474 -1.256,1.34 -1.324,2.904 0.011,4.259 0.991,1.004 2.184,1.371 3.619,0.689 C -31.247,24.11 -19.351,22.308 -9.321,15.955 -3.335,12.164 0.733,7.187 0,0"
             style="fill:#000000;fill-opacity:1;fill-rule:nonzero;stroke:none"
             id="path104" />
        </g>
        <g
           id="g106"
           transform="translate(437.2804,104.5313)">
          <path
             d="m 0,0 c -4.949,1.582 7.907,4.796 9.514,14.438 1.607,8.035 -8.525,10.929 -13.871,9.408 -4.222,-1.201 -7.947,-12.605 -5.207,-16.225 0.888,-1.175 3.003,-1.723 1.881,-3.748 -1.14,-2.057 -3.082,-1.658 -4.969,-1.285 -2.869,0.567 -5.841,0.798 -8.597,1.698 -2.121,0.693 -4.309,3.038 -1.838,4.743 9.118,6.292 8.497,13.444 13.08,25.771 3.451,10.171 7.988,21.426 11.947,32.162 1.905,5.166 4.539,8.926 11.128,6.252 2.915,-1.182 6.202,-1.476 9.338,-2.08 4.354,-0.838 5.87,-2.948 5.709,-7.774 C 27.507,45.198 27.545,27.013 27.34,8.837 27.299,5.162 26.734,1.68 30.282,-1.358 33.314,-3.954 31.548,-6.733 27.932,-6.108 19.13,-4.586 10.453,-2.341 0,0"
             style="fill:#000000;fill-opacity:1;fill-rule:nonzero;stroke:none"
             id="path108" />
        </g>
        <g
           id="g110"
           transform="translate(793.5781,254.9724)">
          <path
             d="m 0,0 c -1.31,-3.346 1.057,-5.031 2.655,-7.135 8.079,-10.638 16.228,-21.228 24.063,-32.045 9.069,-12.52 7.808,-20.981 -4.047,-30.218 -13.195,-10.282 -22.853,-9.844 -32.564,2.065 -7.942,9.739 -15.4,19.874 -23.036,29.861 -2.499,3.269 -3.944,7.34 -9.678,6.737 -2.812,-0.296 -3.821,3.293 -1.511,5.241 5.913,4.988 12.203,9.535 18.424,14.148 1.29,0.956 3.034,1.328 4.386,0.007 1.094,-1.07 0.834,-2.482 0.077,-3.684 -1.331,-2.116 -2.334,-3.96 -0.351,-6.484 9.577,-12.19 18.949,-24.541 28.478,-36.769 4.061,-5.21 8.562,-7.849 14.941,-2.921 6.581,5.084 4.363,10.003 0.51,15.176 -8.891,11.936 -17.823,23.843 -26.684,35.802 -1.979,2.67 -4.243,3.76 -7.555,2.595 -1.212,-0.426 -2.795,-0.133 -3.498,1.203 -0.952,1.805 0.328,3.053 1.583,4.058 2.293,1.837 4.679,3.558 7.04,5.308 1.659,1.229 3.029,3.517 5.495,2.478 C 1.487,4.261 0.098,1.823 0,0"
             style="fill:#000000;fill-opacity:1;fill-rule:nonzero;stroke:none"
             id="path112" />
        </g>
        <g
           id="g114"
           transform="translate(956.0681,708.5109)">
          <path
             d="m 0,0 c -2.168,-3.751 -6.577,-4.09 -9.895,-5.814 -3.793,-1.972 -8.449,-5.616 -11.525,1.77 -1.46,3.508 -1.13,5.75 2.105,7.16 2.278,0.993 4.27,2.206 5.854,4.028 3.211,3.694 2.815,7.511 -0.641,10.596 -3.307,2.953 -6.405,1.401 -8.963,-1.587 -4.991,-5.829 -6.575,-13.264 -9.389,-20.107 -2.328,-5.66 -4.392,-11.444 -8.398,-16.2 -5.324,-6.322 -15.208,-9.586 -22.463,-6.653 -8.218,3.322 -13.404,9.92 -14.418,18.663 -0.456,3.934 -0.816,7.08 -3.889,9.838 -3.112,2.794 -2.9,5.427 1.338,7.25 3.907,1.68 7.67,3.696 11.56,5.42 3.538,1.569 6.628,2.836 8.867,-2.473 1.976,-4.687 0.892,-6.691 -3.466,-8.484 -2.372,-0.976 -4.614,-2.816 -6.305,-4.789 -3.481,-4.062 -3.217,-8.337 0.681,-12.091 4.509,-4.342 8.124,-1.196 10.787,2.144 5.903,7.403 7.744,16.807 11.332,25.338 2.119,5.038 4.714,9.65 8.749,13.141 11.932,10.322 29.073,4.179 31.848,-11.491 C -5.366,10.779 -6.52,5.43 -1.024,2.431 -0.497,2.144 -0.415,1.041 0,0"
             style="fill:#000000;fill-opacity:1;fill-rule:nonzero;stroke:none"
             id="path116" />
        </g>
        <g
           id="g118"
           transform="translate(261.6572,192.8843)">
          <path
             d="m 0,0 c -1.035,1.005 -2.07,2.011 -3.105,3.016 -2.115,2.632 -5.725,4.016 -6.537,7.76 9.935,3.197 13.19,11.728 11.294,18.2 -9.879,7.407 -14.054,6.974 -21.892,-2.468 -0.688,-0.829 0.007,-2.022 0.975,-2.703 1.58,-3.251 0.284,-4.534 -3.034,-4.433 -0.811,0.635 -1.695,1.197 -2.421,1.918 -2.441,2.425 -6.666,4.781 -6.843,7.392 -0.351,5.176 5.617,1.912 8.101,4.003 7.563,6.364 15.15,12.698 22.712,19.062 7.562,6.364 15.243,12.596 22.598,19.191 3.607,3.234 6.098,3.744 10.085,0.161 C 44.401,59.898 44.655,60.038 36.259,45.342 28.203,31.243 19.945,17.259 11.776,3.224 9.113,0.636 10.011,-2.001 11.669,-4.647 11.609,-5.193 11.549,-5.739 11.488,-6.285 5.452,-8.224 4.53,-0.815 0,0"
             style="fill:#000000;fill-opacity:1;fill-rule:nonzero;stroke:none"
             id="path120" />
        </g>
        <g
           id="g122"
           transform="translate(863.1599,739.4527)">
          <path
             d="m 0,0 c 4.509,-3.974 7.402,0.169 10.26,2.41 3.578,2.805 5.708,2.603 8.408,-1.237 2.704,-3.844 3.043,-6.179 -1.423,-8.867 -15.134,-9.108 -10.891,-11.229 -21.056,3.94 -5.191,7.745 -10.357,15.509 -15.437,23.328 -0.969,1.49 -2.606,3.202 -1.429,5.082 1.241,1.981 3.031,1.223 4.92,0.367 2.475,-1.123 4.543,0.441 6.577,1.796 13.75,9.156 27.542,18.25 41.285,27.415 2.45,1.634 4.194,3.398 4.341,7.003 0.164,4.057 3.327,4.059 5.3,1.177 7.685,-11.226 15.023,-22.687 22.572,-34.006 1.837,-2.753 0.824,-4.367 -1.624,-5.833 -2.277,-1.364 -4.602,-2.703 -6.664,-4.354 -3.575,-2.864 -6.276,-4.234 -9.744,0.749 -3.487,5.009 -1.188,7.195 2.817,9.122 5.419,2.606 5.157,5.507 1.809,10.004 -2.71,3.639 -5.002,3.05 -7.951,1.121 C 38.977,36.609 35.499,33.174 30.773,31.783 29.852,31.237 30.689,32.324 30.047,31.532 22.467,22.192 10.206,20.025 1.281,12.61 -5.495,6.98 -5.97,7.141 0,0"
             style="fill:#000000;fill-opacity:1;fill-rule:nonzero;stroke:none"
             id="path124" />
        </g>
        <g
           id="g126"
           transform="translate(339.1075,173.5541)">
          <path
             d="m 0,0 c -4.31,-7.035 -8.692,-14.027 -12.887,-21.131 -1.297,-2.195 -2.735,-3.058 -5.217,-2.254 -7.822,2.533 -10.852,7.927 -9.192,16.045 2.407,11.765 3.976,23.703 7.514,35.234 0.519,1.692 0.887,3.703 -1.949,5.988 -6.708,-10.47 -13.341,-20.823 -19.963,-31.183 -0.134,-0.212 -0.065,-0.551 -0.194,-0.77 -1.527,-2.604 4.359,-7.032 -1.004,-7.92 -4.486,-0.743 -8.059,3.617 -11.482,6.474 -2.348,1.962 -1.087,4.615 1.49,4.314 4.836,-0.566 5.935,3.007 7.697,5.725 8.858,13.667 17.513,27.465 26.34,41.153 1.603,2.484 2.669,4.775 0.778,7.504 0.172,4.422 2.782,2.818 5.055,2.045 C 2.183,51.862 2.214,51.855 -1.666,33.234 -3.184,25.948 -4.875,18.697 -6.487,11.43 -7.257,10.695 -7.497,9.714 -7.728,8.731 -7.025,7.456 -9.491,3.679 -5.042,5.392 -3.591,5.948 -2.148,6.316 -0.643,5.623 1.376,3.95 0.964,2.006 0,0"
             style="fill:#000000;fill-opacity:1;fill-rule:nonzero;stroke:none"
             id="path128" />
        </g>
        <g
           id="g130"
           transform="translate(350.1138,943.6763)">
          <path
             d="m 0,0 c 5.454,2.709 10.775,5.741 16.39,8.061 12.623,5.216 24.162,1.706 32.146,-9.87 5.928,-8.594 10.276,-17.971 12.253,-28.356 2.439,-12.805 -1.133,-21.946 -12.35,-28.546 -7.314,-4.304 -15.171,-7.691 -22.808,-11.441 -1.671,-0.82 -3.574,-1.771 -5.285,-0.473 -2.042,1.551 -0.923,3.186 0.349,4.737 1.88,2.293 0.686,4.326 -0.425,6.585 -6.686,13.595 -13.078,27.337 -19.926,40.849 -1.866,3.68 -2.815,7.803 -8.468,9.435 -5.139,1.483 -2.314,4.599 1.552,5.763 0.68,0.434 1.377,0.462 2.089,0.087 4.745,-1.975 7.929,-9.829 10.539,-15.805 5.451,-12.482 11.795,-24.556 17.796,-36.786 1.303,-2.657 2.626,-5.264 2.726,-8.292 4.077,1.245 7.408,4.34 11.917,4.464 -8.162,5.431 -10.225,10.307 -8.036,18.888 5.734,0.104 5.665,-5.201 7.82,-8.419 1.012,-1.51 1.602,-3.815 4.011,-3.071 2.088,0.645 2.248,2.787 2.365,4.679 0.151,2.433 -0.113,4.846 -1.116,7.073 -5.051,11.212 -9.791,22.573 -15.789,33.336 -1.048,1.88 -2.298,3.637 -4.167,4.797 -1.885,1.171 -4.02,2.087 -5.938,0.449 -1.814,-1.549 -0.61,-3.504 0.194,-5.129 4.153,-8.392 7.909,-16.967 11.808,-25.474 1.153,-2.515 3.413,-5.095 0.931,-8.107 -3.856,-1.839 -4.408,1.592 -5.616,3.665 -5.063,8.688 -9.113,17.875 -13.269,27.018 C 9.633,-5.351 7.48,-0.162 0.762,-4.589 -0.3,-5.288 -5.001,-5.913 -6.166,-5.144 -7.745,-1.881 -0.433,-1.74 0,0"
             style="fill:#000000;fill-opacity:1;fill-rule:nonzero;stroke:none"
             id="path132" />
        </g>
        <g
           id="g134"
           transform="translate(437.3918,943.5215)">
          <path
             d="m 0,0 c 4.123,-3.453 6.765,-2.969 6.752,2.864 -0.011,4.627 3.477,4.334 6.007,4.058 3.204,-0.35 7.506,-15.514 5.162,-17.929 -2.199,-2.265 -4.884,-3.713 -7.137,0.237 -1.252,2.194 -2.817,4.419 -5.629,2.772 -2.715,-1.59 -1.35,-4.363 -0.782,-6.56 1.332,-5.156 3.183,-10.185 4.373,-15.369 1.278,-5.568 4.405,-6.858 9.405,-4.987 4.877,1.825 4.826,5.298 2.677,9.047 -2.779,4.846 -2.081,7.631 3.714,9.267 5.898,1.665 6.649,-1.449 7.586,-6.006 2.634,-12.806 2.818,-12.786 -10.169,-16.7 -9.188,-2.77 -18.41,-5.432 -27.576,-8.277 -1.953,-0.606 -3.639,-0.956 -5.08,0.77 -1.358,1.627 -0.594,3.169 0.749,4.144 3.236,2.349 1.078,5.408 1.337,8.141 -3.056,15.814 -8.163,31.089 -12.3,46.619 -0.824,3.092 -2.122,5.843 -5.821,6.955 -2.709,0.815 -2.13,3.226 0.074,3.775 8.224,2.05 16.13,5.247 24.505,6.694 0.8,0.138 1.429,-0.551 2.215,-1.782 C -8.628,24.856 -6.847,18.955 -4.463,12.522 -2.927,8.375 -2.805,3.716 0,0"
             style="fill:#000000;fill-opacity:1;fill-rule:nonzero;stroke:none"
             id="path136" />
        </g>
        <g
           id="g138"
           transform="translate(732.3441,918.0189)">
          <path
             d="M 0,0 C 7.345,10.123 17.605,13.815 27.604,9.933 39.734,5.224 45.986,-3.553 44.106,-16.058 41.509,-33.334 34.32,-48.145 19.125,-58.541 c -9.357,-6.402 -17.673,-4.452 -25.93,0.794 -8.426,5.352 -12.27,13.622 -10.386,23.429 2.49,12.959 7.805,24.785 17.257,34.39 2.819,-3.059 -0.028,-5.324 -1.111,-7.822 -3.452,-7.956 -8.909,-14.945 -9.938,-24.088 -0.702,-6.248 -0.694,-12.101 1.663,-17.984 -0.096,-0.991 1.746,-0.007 0.707,-0.265 -0.207,-0.051 -0.324,0.164 -0.254,0.629 1.526,10.103 4.591,19.378 13.696,25.396 3.407,-3.339 0.851,-6.458 -0.548,-9.437 -1.927,-4.102 -4.541,-7.887 -5.954,-12.23 -0.773,-2.375 -1.029,-4.969 1.786,-6.222 2.365,-1.053 4.332,0.403 5.408,2.301 8.161,14.4 16.82,28.537 23.586,43.683 0.989,2.216 1.446,4.95 -1.328,6.344 -2.736,1.373 -4.48,-0.805 -6.068,-2.596 -2.695,-3.038 -3.927,-6.976 -6.115,-10.309 -1.909,-2.907 -2.582,-7.328 -7.485,-7.198 C 6.12,-8.548 14.214,-1.942 19.723,5.832 20.119,6.391 21.102,6.333 21.32,7.287 15.693,7.169 11.533,3.669 6.893,1.305 4.765,0.22 2.908,-2.851 0,0"
             style="fill:#000000;fill-opacity:1;fill-rule:nonzero;stroke:none"
             id="path140" />
        </g>
        <g
           id="g142"
           transform="translate(849.8505,226.6952)">
          <path
             d="m 0,0 c -8.191,16.996 -16.379,33.992 -24.575,50.986 -3.658,7.586 -5.934,7.847 -10.59,1.775 -1.991,-2.598 -1.4,-4.354 0.502,-6.199 1.913,-1.856 4.063,-3.466 5.989,-5.31 2.97,-2.843 1.319,-5.115 -0.921,-7.468 -2.194,-2.306 -3.845,-3.865 -7.293,-1.293 -14.374,10.723 -14.458,10.608 -2.451,24.181 5.477,6.191 11.014,12.331 16.34,18.65 2.866,3.399 5.173,4.524 7.245,-0.514 1.603,-3.898 3.195,-7.8 4.793,-11.701 C -4.878,47.283 2.984,32.249 9.618,16.67 c 0.916,-2.152 2.463,-3.282 4.666,-3.974 2.41,-0.758 3.468,-2.419 2.063,-4.938 C 13.041,3.128 9.333,-1.133 4.863,-4.69 0.794,-5.665 1.767,-1.412 0,0"
             style="fill:#000000;fill-opacity:1;fill-rule:nonzero;stroke:none"
             id="path144" />
        </g>
        <g
           id="g146"
           transform="translate(668.0545,117.3388)">
          <path
             d="m 0,0 c -14.255,11.818 -22.004,27.251 -23.626,45.411 -1.013,11.34 8.217,20.994 19.68,22.181 2.683,0.277 5.619,-0.134 7.189,2.526 3.419,5.793 5.734,4.212 8.074,-0.795 1.691,-3.619 3.698,-7.092 5.622,-10.599 1.754,-3.195 2.233,-5.971 -1.713,-8.016 -3.872,-2.006 -6.885,-2.427 -8.804,2.618 -0.919,2.416 -2.608,4.677 -4.392,6.596 -2.702,2.91 -5.864,3.223 -9.316,0.819 -3.17,-2.208 -4.058,-5.016 -2.435,-8.323 C -2.566,37.842 4.264,23.086 12.864,9.272 15.06,5.745 18.181,1.631 22.652,3.474 27.823,6.452 26.487,5.092 27.496,2.952 28.269,1.312 26.556,0.194 25.094,-0.604 16.607,-5.24 8.26,-4.533 0,0"
             style="fill:#000000;fill-opacity:1;fill-rule:nonzero;stroke:none"
             id="path148" />
        </g>
        <g
           id="g150"
           transform="translate(405.0167,176.7062)">
          <path
             d="m 0,0 c -5.83,-14.568 -11.619,-29.153 -17.534,-43.687 -0.905,-2.223 -2.693,-4.249 -0.595,-6.58 1.315,-1.461 2.82,-3.106 1.57,-4.879 -1.531,-2.17 -3.904,-1.03 -5.871,-0.246 -6.181,2.462 -12.399,4.853 -18.462,7.582 -3.496,1.573 -3.514,4.998 -0.093,5.57 6.088,1.017 6.411,5.831 8.096,9.711 6.134,14.122 12.02,28.351 18,42.54 3.315,3.611 -0.765,5.696 -1.737,8.428 0.276,1.267 1.142,1.881 2.343,2.134 C -6.682,17.779 1.021,15.235 8.139,11.286 8.397,10.504 8.22,9.818 7.675,9.216 2.562,8.277 0.279,4.973 0,0"
             style="fill:#000000;fill-opacity:1;fill-rule:nonzero;stroke:none"
             id="path152" />
        </g>
        <g
           id="g154"
           transform="translate(866.2518,814.3316)">
          <path
             d="m 0,0 c -9.309,-8.31 -18.619,-16.618 -27.926,-24.93 -3.074,-2.745 -6.882,-4.766 -5.959,-10.22 0.509,-3.013 -2.212,-3.659 -4.125,-1.636 -5.292,5.598 -10.523,11.297 -15.258,17.361 -2.441,3.127 -0.649,5.328 3.104,4.301 4.132,-1.132 6.396,1.112 9.069,3.408 8.033,6.903 15.452,14.539 24.291,20.486 6.026,5.937 16.026,8.285 16.889,18.969 0.103,1.274 2.132,1.078 3.364,0.27 C 7.921,24.523 11.35,20.124 14.454,15.44 15.419,13.501 15.313,11.514 13.15,10.84 7.228,8.995 4.338,3.654 0,0"
             style="fill:#000000;fill-opacity:1;fill-rule:nonzero;stroke:none"
             id="path156" />
        </g>
        <g
           id="g158"
           transform="translate(155.9082,755.2792)">
          <path
             d="m 0,0 c -2.567,-0.826 -5.183,0.273 -3.844,2.698 3.93,7.115 8.613,13.832 13.267,20.519 1.377,1.979 4.318,1.141 4.282,-0.755 -0.146,-7.755 6.831,-8.55 11,-11.949 3.854,-3.142 8.186,-5.696 12.308,-8.51 8.54,-6.916 17.326,-13.569 27.473,-17.884 4.495,-1.912 4.218,-3.569 1.849,-6.907 -2.097,-2.955 -4.557,-5.819 -5.177,-9.612 -0.667,-2.7 -1.999,-5.562 -4.775,-5.647 -3.25,-0.1 -2.784,3.426 -3.071,5.595 -0.404,3.052 -2.94,3.565 -4.85,4.836 C 34.464,-18.301 20.443,-9.02 6.43,0.272 4.223,1.677 2.079,1.625 0,0"
             style="fill:#000000;fill-opacity:1;fill-rule:nonzero;stroke:none"
             id="path160" />
        </g>
        <g
           id="g162"
           transform="translate(218.31,781.0248)">
          <path
             d="m 0,0 c -6.813,5.526 -13.626,11.053 -20.44,16.577 -3.355,2.719 -5.721,6.836 -11.586,4.815 -2.708,-0.933 -3.994,2.198 -1.963,4.722 4.682,5.816 9.539,11.492 14.41,17.151 0.829,0.963 2.016,1.946 3.482,1.406 1.765,-0.65 2.495,-2.134 1.775,-3.84 -1.478,-3.507 0.466,-5.406 2.876,-7.416 10.855,-9.05 21.587,-18.248 32.463,-27.272 4.646,-3.855 9.583,-7.144 15.738,-2.687 0.247,0.101 0.485,0.24 0.742,0.297 2.565,0.568 3.189,6.226 5.771,3.868 C 45.97,5.154 42.595,1.854 40.563,-0.368 34.999,-6.453 29.737,-12.79 19.783,-11.323 14.599,-10.56 11.196,-7.518 7.163,-5.062 4.642,-3.527 2.754,-1.156 0,0"
             style="fill:#000000;fill-opacity:1;fill-rule:nonzero;stroke:none"
             id="path164" />
        </g>
        <g
           id="g166"
           transform="translate(229.6853,296.0219)">
          <path
             d="m 0,0 c 3.8,8.655 10.504,12.311 19.794,11.434 8.864,-0.837 12.512,-6.897 14.582,-14.586 -0.486,-0.572 -1.104,-0.837 -1.854,-0.795 -1.766,0.641 -2.211,2.767 -3.911,3.482 l 0.108,-0.12 c -5.712,3.697 -11.193,0.9 -13.218,-7.018 -2.109,-8.246 -3.835,-16.581 -3.955,-25.153 -1.384,-9.664 -6.143,-16.956 -15.59,-20.121 -7.778,-2.605 -14.545,-0.062 -20.057,5.903 -1.108,1.893 -0.803,3.31 1.374,4.097 8.677,-2.319 13.469,1.287 15.721,10.367 C -4.332,-21.734 -4.654,-11.533 0,0"
             style="fill:#000000;fill-opacity:1;fill-rule:nonzero;stroke:none"
             id="path168" />
        </g>
        <g
           id="g170"
           transform="translate(625.2999,946.5209)">
          <path
             d="m 0,0 c 1.529,-4.516 3.954,-5.948 7.14,-1.531 1.821,2.523 3.295,3.823 6.512,2.228 3.485,-1.728 2.243,-4.354 1.882,-6.878 -0.264,-1.85 -0.701,-3.676 -1.057,-5.512 -0.592,-3.054 -0.25,-6.999 -4.587,-7.338 -4.187,-0.328 -5.284,2.602 -5.327,6.316 -0.022,1.901 -1.662,2.677 -3.38,2.649 -1.821,-0.031 -2.82,-1.221 -3.178,-2.986 -1.381,-6.801 -2.813,-13.592 -4.157,-20.4 -0.934,-4.725 2.747,-4.852 5.773,-5.881 3.731,-1.268 5.574,0.201 6.464,3.662 0.532,2.067 1.208,4.105 1.602,6.198 0.537,2.848 1.973,4.611 4.926,3.536 2.71,-0.987 7.11,-0.571 6.484,-5.4 -0.582,-4.49 -1.46,-8.959 -2.514,-13.363 -0.783,-3.271 -3.265,-3.75 -6.286,-3.097 -11.725,2.535 -23.461,5.023 -35.213,7.435 -2.133,0.438 -4.571,0.547 -5.322,2.859 -0.915,2.821 1.894,3.323 3.546,4.487 2.431,1.713 2.795,4.456 3.32,7.062 3.212,15.929 6.343,31.875 9.617,47.791 0.464,2.259 0.635,4.182 -1.225,5.853 -1.338,1.201 -3.309,2.223 -1.582,4.52 1.366,1.815 3.017,1.702 4.988,1.032 2.728,-0.927 5.552,-1.57 8.334,-2.335 -0.218,-0.312 -0.438,-0.624 -0.654,-0.94 -2.201,-1.414 -4.537,-1.324 -7.848,-0.329 3.802,-2.858 3.857,-6.036 2.724,-9.382 -5.241,-15.471 -6.476,-31.775 -9.902,-47.624 -0.62,-2.871 -0.803,-5.821 -2.733,-8.259 10.199,-4.119 10.59,-3.913 12.215,6.218 0.718,4.48 1.422,8.963 2.244,13.425 1.813,9.843 5.324,11.459 14.15,6.356 4.313,-2.494 2.899,1.104 3.82,2.961 C -0.2,-8.358 -1.859,-7.44 -2.148,0.09 -1.412,0.499 -0.697,0.467 0,0"
             style="fill:#000000;fill-opacity:1;fill-rule:nonzero;stroke:none"
             id="path172" />
        </g>
        <g
           id="g174"
           transform="translate(218.31,781.0248)">
          <path
             d="M 0,0 C 3.332,0.305 5.627,-2.074 7.634,-3.861 21.631,-16.319 36.593,-8.5 43.385,7.271 40.376,6.641 39.823,2.42 36.755,3.456 42.536,12.31 42.593,13.779 34.659,20.808 23.685,30.532 12.305,39.796 1.251,49.433 c -2.364,2.062 -4.433,2.705 -7.149,1.168 -1.473,-0.834 -3.099,-1.335 -4.323,0.22 -1.489,1.891 -0.239,3.51 0.98,4.964 1.714,2.043 3.583,3.959 5.228,6.054 1.33,1.695 2.453,3.813 4.984,3.299 2.926,-0.593 2.415,-3.018 2.19,-5.15 C 2.809,56.644 5.624,55.487 7.558,53.833 17.688,45.166 28.047,36.76 38.022,27.921 49.75,17.529 50.285,9.276 40.568,-2.314 29.901,-15.037 20.235,-16.633 8.174,-7.453 5.253,-5.229 1.963,-3.315 0,0"
             style="fill:#000000;fill-opacity:1;fill-rule:nonzero;stroke:none"
             id="path176" />
        </g>
        <g
           id="g178"
           transform="translate(866.1971,234.4537)">
          <path
             d="m 0,0 c -13.809,12.101 -15.497,30.876 -24.902,45.431 -1.773,2.744 -3.008,6.274 -2.406,9.918 8.177,-14.017 13.68,-29.317 20.991,-43.749 0.915,-1.807 1.517,-4.954 3.623,-4.622 4.148,0.653 5.929,4.489 8.183,7.172 2.149,2.558 1.409,3.981 -0.522,5.696 -1.795,1.594 -3.6,3.187 -5.508,4.641 -3.685,2.81 -3.288,5.368 -0.223,8.557 2.972,3.094 5.099,3.496 8.595,0.438 C 20.551,22.36 20.697,22.464 9.372,9.727 6.382,6.365 3.131,3.236 0,0"
             style="fill:#000000;fill-opacity:1;fill-rule:nonzero;stroke:none"
             id="path180" />
        </g>
        <g
           id="g182"
           transform="translate(217.0661,722.8788)">
          <path
             d="m 0,0 c -1.028,4.258 2.13,6.923 4.06,9.901 1.903,2.936 1.945,3.436 -1.706,5.294 -8.802,4.476 -16.965,10.226 -25.265,15.646 -0.832,0.543 -0.843,2.345 -1.234,3.563 7.628,-4.777 15.494,-9.223 22.794,-14.458 4.158,-2.981 6.554,-2.26 9.147,1.503 2.913,4.229 0.219,6.192 -2.993,8.102 -1.828,1.088 -3.493,2.472 -5.376,3.444 -4.028,2.077 -5.425,4.126 -2.208,8.56 2.818,3.884 4.624,4.69 8.877,1.872 C 21.887,32.964 22.028,33.103 11.582,17.076 7.827,11.315 3.867,5.688 0,0"
             style="fill:#000000;fill-opacity:1;fill-rule:nonzero;stroke:none"
             id="path184" />
        </g>
        <g
           id="g186"
           transform="translate(411.9356,965.3696)">
          <path
             d="m 0,0 c 10.661,-17.181 13.714,-36.791 16.845,-56.376 -4.647,15.503 -9.369,30.984 -13.874,46.528 -0.856,2.955 -1.242,5.655 -5.126,6.024 -1.752,0.166 -2.581,1.894 -2.326,3.646 0.209,1.433 1.362,2.086 2.785,2.464 12.088,3.208 24.159,6.477 36.235,9.728 0.197,-0.319 0.394,-0.637 0.592,-0.955 -0.126,-2.096 -1.777,-2.79 -3.307,-3.594 5.723,-0.418 3.149,-7.782 6.883,-8.777 3.1,-0.825 1.857,3.415 2.876,5.23 0.312,0.711 0.799,1.266 1.48,1.644 0.367,-4.065 7.435,-8.858 -1.566,-11.905 -4.786,-1.62 -7.698,-1.243 -8.278,4.527 -0.475,4.725 -2.495,7.241 -7.98,5.652 -5.194,-1.505 -5.854,-4.003 -4.12,-8.822 1.957,-5.436 2.934,-11.226 4.337,-16.862 -7.153,5.436 -5.196,14.388 -7.989,21.513 -1.311,3.341 5.629,6.798 7.75,7.244"
             style="fill:#000000;fill-opacity:1;fill-rule:nonzero;stroke:none"
             id="path188" />
        </g>
        <g
           id="g190"
           transform="translate(339.1075,173.5541)">
          <path
             d="m 0,0 c -0.239,1.883 0.174,4.015 -1.967,5.175 -0.65,1.128 -0.575,2.233 0.103,3.319 3.78,6.358 7.583,12.703 11.33,19.081 2.265,3.855 7.137,7.031 3.071,12.582 -0.757,1.033 0.219,2.541 1.664,3.079 1.959,0.729 13.386,-6.252 13.829,-8.404 0.46,-2.24 -1.142,-3.101 -2.696,-2.944 -5.187,0.525 -6.713,-3.519 -8.85,-6.731 C 10.931,16.811 5.488,8.391 0,0"
             style="fill:#000000;fill-opacity:1;fill-rule:nonzero;stroke:none"
             id="path192" />
        </g>
        <g
           id="g194"
           transform="translate(866.2518,814.3316)">
          <path
             d="m 0,0 c 2.707,7.123 10.298,9.674 14.454,15.44 17.23,-18.049 14.747,-12.234 -2.218,-28.192 -2.833,-2.665 -4.974,-1.676 -7.423,0.815 -2.96,3.01 -1.782,4.999 0.862,7.161 2.67,2.182 5.205,4.528 7.83,6.767 1.523,1.299 2.756,2.7 1.302,4.713 C 13.247,8.865 11.215,8.818 9.254,7.333 6.118,4.957 3.08,2.451 0,0"
             style="fill:#000000;fill-opacity:1;fill-rule:nonzero;stroke:none"
             id="path196" />
        </g>
        <g
           id="g198"
           transform="translate(869.7009,842.341)">
          <path
             d="m 0,0 c -2.288,-7.217 -8.773,-10.815 -13.649,-15.795 -1.809,-1.847 -3.509,-4.014 -6.604,-3.444 3.576,4.749 8.465,8.069 12.922,11.859 2.069,1.76 3.222,3.962 1.289,6.21 -1.833,2.132 -3.892,0.69 -5.574,-0.748 -2.439,-2.085 -4.942,-4.118 -7.193,-6.395 -2.712,-2.744 -4.866,-2.444 -7.358,0.359 -2.491,2.801 -2.547,5.072 0.482,7.375 1.699,1.292 3.342,2.661 4.964,4.05 C -8.683,13.779 -8.687,13.783 0,0"
             style="fill:#000000;fill-opacity:1;fill-rule:nonzero;stroke:none"
             id="path200" />
        </g>
        <g
           id="g202"
           transform="translate(207.3202,252.4995)">
          <path
             d="m 0,0 c -1.41,-0.732 -1.619,-2.069 -1.736,-3.451 0.162,0.087 0.162,0.087 -1.569,1.718 -1.74,1.775 -1.565,4.645 -3.581,6.261 l 0.051,-0.08 c -0.06,4.632 -1.897,8.102 -6.417,9.817 -4.116,2.27 -3.635,4.694 -0.2,7.15 3.445,2.464 7.093,4.676 10.349,7.365 3.466,2.862 5.955,3.26 9.035,-0.775 C 8.896,24.122 7.509,22.099 4.358,19.548 -1.524,14.785 -4.787,6.278 -0.034,1.642 0.506,1.288 0.691,0.927 0.521,0.558 0.35,0.186 0.177,0 0,0"
             style="fill:#000000;fill-opacity:1;fill-rule:nonzero;stroke:none"
             id="path204" />
        </g>
        <g
           id="g206"
           transform="translate(863.1599,739.4527)">
          <path
             d="m 0,0 c -6.878,5.122 -7.052,9.011 -0.219,12.926 6.995,4.007 14.526,7.778 21.4,11.32 1.072,0.552 2.226,1.855 2.683,3.428 1.001,3.442 3.754,4.166 6.909,4.109 -0.919,-0.917 -1.742,-1.966 -2.78,-2.721 -1.655,-1.203 -2.923,-2.476 -1.651,-4.592 1.135,-1.888 3.072,-2.462 4.792,-1.297 3.87,2.621 5.402,-0.4 6.755,-2.8 1.925,-3.415 -1.148,-4.516 -3.361,-5.941 C 31.854,12.71 29.199,10.948 26.647,9.051 24.278,7.289 22.302,7.6 20.344,9.657 c -1.947,2.047 -2.429,4.126 -0.207,6.22 1.928,1.816 3.441,3.949 0.965,6.005 -1.817,1.509 -3.914,0.199 -5.752,-1.143 C 11.495,17.925 7.759,14.76 3.501,12.732 -3.027,9.622 -4.336,5.762 0,0"
             style="fill:#000000;fill-opacity:1;fill-rule:nonzero;stroke:none"
             id="path208" />
        </g>
        <g
           id="g210"
           transform="translate(139.9312,722.9587)">
          <path
             d="m 0,0 c -0.745,1.546 -2.156,1.894 -3.675,2.047 1.039,1.091 2.079,2.182 3.118,3.274 5.307,2.951 3.378,7.504 5.165,11.21 7.965,1.055 13.569,-4.713 20.169,-7.41 C 27.136,8.157 25.267,4.416 23.63,2.124 21.972,-0.195 20.712,-1.834 17.265,-0.141 11.704,2.591 5.783,6.341 0,0"
             style="fill:#000000;fill-opacity:1;fill-rule:nonzero;stroke:none"
             id="path212" />
        </g>
        <g
           id="g214"
           transform="translate(262.014,292.7056)">
          <path
             d="m 0,0 c 0.682,0.055 1.365,0.11 2.047,0.165 2.751,-3.561 2.943,-9.008 8.822,-9.45 0.3,-0.023 0.631,-0.831 0.787,-1.324 0.604,-1.898 -10.786,-12.469 -14.163,-12.607 -4.239,-0.174 -6.409,3.851 -6.69,6.61 -0.439,4.296 4.611,5.823 7.28,8.572 C 0.536,-5.789 -2.221,-2.301 0,0"
             style="fill:#000000;fill-opacity:1;fill-rule:nonzero;stroke:none"
             id="path216" />
        </g>
        <g
           id="g218"
           transform="translate(668.0545,117.3388)">
          <path
             d="m 0,0 c 7.979,-1.703 15.955,-4.343 23.95,-0.075 1.12,0.598 2.873,1.135 2.3,2.575 -0.276,0.692 -2.343,0.672 -3.598,0.974 9.992,6.192 9.035,9.648 4.7,19.768 -1.118,2.608 -2.705,4.908 0.851,6.601 4.025,1.916 4.373,-2.058 5.414,-3.984 C 38.24,17.295 36.096,6.651 28.845,0.584 19.795,-6.99 9.214,-7.204 0,0"
             style="fill:#000000;fill-opacity:1;fill-rule:nonzero;stroke:none"
             id="path220" />
        </g>
        <g
           id="g222"
           transform="translate(390.5046,196.3082)">
          <path
             d="m 0,0 c -0.518,-0.46 -1.035,-0.919 -1.553,-1.378 -4.937,-1.605 -7.749,-4.891 -8.042,-10.169 -1.507,-3.163 -0.64,-8.798 -7.105,-6.788 -3.602,1.119 -5.551,2.901 -3.634,7.026 2.12,4.563 3.974,9.253 5.84,13.929 1.744,4.37 4.411,4.915 8.028,2.184 C -5.168,2.048 -0.416,3.943 0,0"
             style="fill:#000000;fill-opacity:1;fill-rule:nonzero;stroke:none"
             id="path224" />
        </g>
        <g
           id="g226"
           transform="translate(622.0604,977.4281)">
          <path
             d="m 0,0 c 9.864,-0.661 19.312,-3.583 28.967,-5.373 3.399,-0.63 5.195,-2.464 3.748,-6.271 -0.555,-1.463 -0.588,-3.129 -0.819,-4.709 -1.401,-9.608 -2.221,-10.09 -11.543,-6.731 0.198,0.316 0.396,0.631 0.588,0.951 1.031,0.829 2.381,1.13 3.409,1.912 5.538,4.21 4.933,8.995 -1.423,11.745 C 20,-7.21 16.93,-6.671 13.753,-6.587 12.97,-6.518 12.212,-6.365 11.46,-6.151 7.429,-4.458 1.184,-7.509 -0.415,-0.619 Z"
             style="fill:#000000;fill-opacity:1;fill-rule:nonzero;stroke:none"
             id="path228" />
        </g>
        <g
           id="g230"
           transform="translate(416.262,188.0697)">
          <path
             d="m 0,0 1.058,-1.273 c 0.288,0.007 0.584,-0.049 0.845,-0.169 5.084,-2.32 6.726,-6.122 4.631,-11.531 l 0.051,0.082 c -2.67,-1.54 -1.973,-4.963 -3.69,-6.829 -1.714,-1.861 -0.765,-6.833 -5.163,-5.457 -3.726,1.166 -4.241,4.404 -2.884,7.896 L -5.2,-17.406 c 2.107,1.704 2.138,4.41 3.2,6.619 l -0.096,-0.152 c 2.096,4.511 -2.305,6.087 -1.25,9.423 l 0.029,0.044 c 0.468,0.738 0.978,0.894 1.531,0.468 C -1.486,-1.235 -1.607,0 0,0"
             style="fill:#000000;fill-opacity:1;fill-rule:nonzero;stroke:none"
             id="path232" />
        </g>
        <g
           id="g234"
           transform="translate(204.1137,707.2047)">
          <path
             d="m 0,0 c -0.552,-0.538 -1.105,-1.077 -1.658,-1.616 -0.578,-0.881 -1.223,-0.933 -1.935,-0.155 -2.683,3.624 -6.004,6.373 -10.139,8.328 -1.967,0.929 -4.623,2.425 -2.798,5.443 1.691,2.797 4.31,1.656 6.292,0.523 C -5.287,9.689 -0.269,6.734 0,0"
             style="fill:#000000;fill-opacity:1;fill-rule:nonzero;stroke:none"
             id="path236" />
        </g>
        <g
           id="g238"
           transform="translate(207.3202,252.4995)">
          <path
             d="m 0,0 c -0.011,0.547 1.64,-0.15 -0.034,1.642 4.888,-1.792 12.316,0.671 14.384,9.773 1.754,7.718 3.361,12.495 4.968,20.574 0.534,2.69 1.607,8.035 3.047,11.533 C 20.069,31.449 18.316,19.238 15.283,7.353 13.311,-0.371 7.364,-2.571 0,0"
             style="fill:#000000;fill-opacity:1;fill-rule:nonzero;stroke:none"
             id="path240" />
        </g>
        <g
           id="g242"
           transform="translate(241.2311,263.2656)">
          <path
             d="m 0,0 c -1.632,9.547 0.777,18.618 3.77,27.462 2.821,8.335 8.565,10.097 13.404,4.71 C 10.216,34.095 6.442,31.512 4.708,23.394 3.047,15.615 1.562,7.799 0,0"
             style="fill:#000000;fill-opacity:1;fill-rule:nonzero;stroke:none"
             id="path244" />
        </g>
        <g
           id="g246"
           transform="translate(625.2999,946.5209)">
          <path
             d="m 0,0 c -0.623,0.028 -1.245,0.057 -1.867,0.085 -2.249,8.149 0.727,15.568 3.514,22.896 1.272,3.347 4.166,4.586 7.733,2.813 v -0.001 c 1.273,-1.77 4.53,0.403 5.18,-2.607 C 14.362,22.892 14.164,22.597 13.966,22.302 7.855,23.688 4.179,22.427 3.716,15.036 3.398,9.966 1.301,5.008 0,0"
             style="fill:#000000;fill-opacity:1;fill-rule:nonzero;stroke:none"
             id="path248" />
        </g>
        <g
           id="g250"
           transform="translate(263.3091,221.8601)">
          <path
             d="m 0,0 c 4.304,-4.513 0.484,-15.731 -6.028,-17.55 -1.198,-0.334 -2.508,-0.27 -4.33,-0.443 2.09,-2.973 3.845,-5.47 5.601,-7.967 -2.097,1.515 -4.212,3.005 -6.284,4.552 -1.307,0.976 -2.383,2.195 -1.931,3.965 0.527,2.059 2.35,1.533 3.85,1.78 C -2.757,-14.612 1.561,-7.128 0,0"
             style="fill:#000000;fill-opacity:1;fill-rule:nonzero;stroke:none"
             id="path252" />
        </g>
        <g
           id="g254"
           transform="translate(422.69,184.8557)">
          <path
             d="m 0,0 c -0.625,-0.045 -9.121,1.787 -9.745,1.742 -6.822,4.759 -14.983,6.423 -22.441,9.71 -1.725,2.18 -5.671,1.371 -6.465,4.804 9.317,-3.64 18.619,-7.317 27.964,-10.885 C -8.947,4.707 4.821,-1.607 0,0"
             style="fill:#000000;fill-opacity:1;fill-rule:nonzero;stroke:none"
             id="path256" />
        </g>
        <g
           id="g258"
           transform="translate(411.1095,170.7882)">
          <path
             d="M 0,0 C 0.332,-2.902 0.579,-5.852 3.601,-7.112 8.235,-4.419 5.831,2.814 11.737,4.39 10.689,1.416 9.845,-1.651 8.537,-4.506 7.18,-7.466 6.417,-11.467 1.233,-8.772 -3.764,-6.175 -2.67,-3.351 0,0"
             style="fill:#000000;fill-opacity:1;fill-rule:nonzero;stroke:none"
             id="path260" />
        </g>
        <g
           id="g262"
           transform="translate(747.476,206.0163)">
          <path
             d="M 0,0 C -6.423,4.758 -12.243,11.599 -21.587,6.092 -23.954,4.697 -26.582,4.38 -29.292,4.717 -13.906,13.281 -6.741,12.127 0,0"
             style="fill:#000000;fill-opacity:1;fill-rule:nonzero;stroke:none"
             id="path264" />
        </g>
        <g
           id="g266"
           transform="translate(412.9157,186.5541)">
          <path
             d="m 0,0 c 1.391,-3.012 6.172,-5.574 1.25,-9.423 10e-4,2.561 0.751,5.775 -2.885,6.309 C -6.571,-2.39 -6.296,-8.126 -7.899,-9.848 -8.89,-3.659 -7.119,0.316 0,0"
             style="fill:#000000;fill-opacity:1;fill-rule:nonzero;stroke:none"
             id="path268" />
        </g>
        <g
           id="g270"
           transform="translate(642.4136,954.344)">
          <path
             d="m 0,0 c -3.308,2.345 -1.359,5.475 -0.568,7.834 1.126,3.361 -0.57,4.89 -2.58,6.645 l 0.387,0.533 C 3.603,15.458 5.625,13.605 4.492,8.144 3.908,5.328 2.741,2.714 0.632,0.633 0.422,0.421 0.211,0.211 0,0"
             style="fill:#000000;fill-opacity:1;fill-rule:nonzero;stroke:none"
             id="path272" />
        </g>
        <g
           id="g274"
           transform="translate(380.9099,184.7616)">
          <path
             d="M 0,0 C -0.709,6.069 1.429,9.886 8.041,10.166 10.855,7.778 13.271,5.33 9.218,1.956 9.198,4.254 10.2,7.375 7.168,8.071 4.107,8.774 2.642,6.113 1.651,3.492 1.197,2.292 0.556,1.162 0,0"
             style="fill:#000000;fill-opacity:1;fill-rule:nonzero;stroke:none"
             id="path276" />
        </g>
        <g
           id="g278"
           transform="translate(422.7959,175.0965)">
          <path
             d="M 0,0 C 0.947,5.034 -2.011,8.388 -5.039,11.712 4.411,9.285 4.411,9.285 0,0"
             style="fill:#000000;fill-opacity:1;fill-rule:nonzero;stroke:none"
             id="path280" />
        </g>
        <g
           id="g282"
           transform="translate(261.6572,192.8843)">
          <path
             d="M 0,0 C 5.204,0.418 6.444,-6.411 11.488,-6.285 4.647,-9.696 3.679,-2.369 0,0"
             style="fill:#000000;fill-opacity:1;fill-rule:nonzero;stroke:none"
             id="path284" />
        </g>
        <g
           id="g286"
           transform="translate(337.2434,182.0481)">
          <path
             d="m 0,0 c -0.033,-1.107 -0.066,-2.214 -0.101,-3.32 -0.99,-0.559 -1.978,-1.12 -2.966,-1.681 -6.75,-0.691 -3.476,3.531 -3.104,6.332 0.516,0.535 1.032,1.07 1.548,1.605 C -4.099,0.356 -3.713,-2.442 0,0"
             style="fill:#000000;fill-opacity:1;fill-rule:nonzero;stroke:none"
             id="path288" />
        </g>
        <g
           id="g290"
           transform="translate(718.2077,210.747)">
          <path
             d="M 0,0 C -3.01,-3.761 -6.396,-6.816 -11.715,-6.239 -6.261,-3.394 -3.047,-1.787 0,0"
             style="fill:#000000;fill-opacity:1;fill-rule:nonzero;stroke:none"
             id="path292" />
        </g>
        <g
           id="g294"
           transform="translate(144.5392,739.4897)">
          <path
             d="M 0,0 C -0.682,-4.216 3.803,-10.812 -5.165,-11.21 0.311,-9.203 -4.242,-2.575 0,0"
             style="fill:#000000;fill-opacity:1;fill-rule:nonzero;stroke:none"
             id="path296" />
        </g>
        <g
           id="g298"
           transform="translate(768.0671,851.7675)">
          <path
             d="M 0,0 C -1.058,-7.088 -6.359,-6.474 -11.422,-6.293 -8.252,-3.039 -2.6,-4.289 0,0"
             style="fill:#000000;fill-opacity:1;fill-rule:nonzero;stroke:none"
             id="path300" />
        </g>
        <g
           id="g302"
           transform="translate(446.475,977.3832)">
          <path
             d="M 0,0 C 7.208,3.618 8.488,-0.595 8.524,-6.452 L 7.975,-6.828 c -3.78,0.577 -4.722,4.575 -7.567,6.279 z"
             style="fill:#000000;fill-opacity:1;fill-rule:nonzero;stroke:none"
             id="path304" />
        </g>
        <g
           id="g306"
           transform="translate(194.0678,266.7643)">
          <path
             d="M 0,0 C 6.391,-0.492 7.303,-4.567 6.418,-9.816 4.496,-6.402 3.819,-2.174 0,0"
             style="fill:#000000;fill-opacity:1;fill-rule:nonzero;stroke:none"
             id="path308" />
        </g>
        <g
           id="g310"
           transform="translate(262.014,292.7056)">
          <path
             d="m 0,0 c -0.523,-2.706 1.262,-5.962 -1.917,-8.034 0.803,3.861 0.346,7.513 -1.801,10.886 C -1.727,2.881 -0.839,1.472 0,0"
             style="fill:#000000;fill-opacity:1;fill-rule:nonzero;stroke:none"
             id="path312" />
        </g>
        <g
           id="g314"
           transform="translate(273.3267,188.237)">
          <path
             d="M 0,0 C -2.845,2.663 -5.328,5.32 0.106,7.871 -1.693,4.654 -1.693,4.654 0,0"
             style="fill:#000000;fill-opacity:1;fill-rule:nonzero;stroke:none"
             id="path316" />
        </g>
        <g
           id="g318"
           transform="translate(205.6719,695.937)">
          <path
             d="M 0,0 C -3.189,7.479 -6.378,14.959 -9.567,22.438 -9.104,22.23 0.995,17.503 1.682,7.975 1.93,4.534 0.861,1.713 0,0"
             style="fill:#000000;fill-opacity:1;fill-rule:nonzero;stroke:none"
             id="path320" />
        </g>
        <g
           id="g322"
           transform="translate(239.3587,212.2567)">
          <path
             d="M 0,0 C 1.875,0.886 3.182,2.161 3.034,4.432 4.956,3.132 5.137,1.675 3.848,0.056 2.736,-1.34 1.742,-1.689 0,0"
             style="fill:#000000;fill-opacity:1;fill-rule:nonzero;stroke:none"
             id="path324" />
        </g>
        <g
           id="g326"
           transform="translate(849.8505,226.6952)">
          <path
             d="M 0,0 C 1.621,-1.563 3.242,-3.127 4.863,-4.69 1.475,-6.446 0.715,-5.714 0,0"
             style="fill:#000000;fill-opacity:1;fill-rule:nonzero;stroke:none"
             id="path328" />
        </g>
        <g
           id="g330"
           transform="translate(414.2617,177.2823)">
          <path
             d="M 0,0 C 0.621,-3.022 0.177,-5.529 -3.2,-6.619 -1.214,-3.675 -1.214,-2.068 0,0"
             style="fill:#000000;fill-opacity:1;fill-rule:nonzero;stroke:none"
             id="path332" />
        </g>
        <g
           id="g334"
           transform="translate(200.521,705.4335)">
          <path
             d="m 0,0 c 0.645,0.052 1.29,0.104 1.935,0.156 2.837,-2.679 3.214,-6.305 1.684,-8.105 -1.128,-1.327 -3.057,-1.386 -3.66,-1.38 0.297,0.275 2.015,1.915 2.053,4.593 C 2.051,-1.985 0.288,-0.271 0,0"
             style="fill:#000000;fill-opacity:1;fill-rule:nonzero;stroke:none"
             id="path336" />
        </g>
        <g
           id="g338"
           transform="translate(326.0933,234.7785)">
          <path
             d="M 0,0 C -2.001,0.098 -3.944,0.055 -5.055,-2.045 -6.573,-0.692 -6.548,0.891 -4.827,1.696 -2.989,2.554 -0.694,3.13 0,0"
             style="fill:#000000;fill-opacity:1;fill-rule:nonzero;stroke:none"
             id="path340" />
        </g>
        <g
           id="g342"
           transform="translate(200.4343,257.0279)">
          <path
             d="M 0,0 C 2.71,-1.22 3.427,-3.579 3.581,-6.261 2.098,-4.679 2.098,-4.679 0,0"
             style="fill:#000000;fill-opacity:1;fill-rule:nonzero;stroke:none"
             id="path344" />
        </g>
        <g
           id="g346"
           transform="translate(562.2668,978.5354)">
          <path
             d="m 0,0 c 3.844,-3.76 5.316,-8.224 5.16,-13.678 -0.346,-12.003 0.081,-24.03 -0.352,-36.028 -0.331,-9.176 -4.079,-12.131 -12.35,-10.938 -2.356,4.24 -1.021,8.834 -1.088,13.24 -0.207,13.62 -0.102,27.246 -0.066,40.869 C -8.674,1.718 -8.62,1.726 0,0"
             style="fill:#fefefe;fill-opacity:1;fill-rule:nonzero;stroke:none"
             id="path348" />
        </g>
        <g
           id="g350"
           transform="translate(562.2668,978.5354)">
          <path
             d="m 0,0 c -5.488,1.422 -8.261,0.487 -8.044,-6.37 0.572,-18.079 0.386,-36.181 0.502,-54.274 -2.958,1.33 -2.029,4.026 -2.042,6.25 C -9.673,-37.953 -9.725,-21.51 -9.66,-5.068 -9.629,2.752 -7.352,3.876 0,0"
             style="fill:#000000;fill-opacity:1;fill-rule:nonzero;stroke:none"
             id="path352" />
        </g>
        <g
           id="g354"
           transform="translate(822.8546,874.5626)">
          <path
             d="m 0,0 c -0.004,-3.313 -11.838,-17.9 -15.175,-18.712 -2.612,-0.636 -4.694,0.326 -6.366,2.239 -2.033,2.327 -1.004,4.243 0.742,6.299 3.78,4.454 7.393,9.051 11.019,13.633 1.61,2.035 3.407,3.528 6.099,2.227 C -1.373,4.572 -0.014,2.678 0,0"
             style="fill:#f7f8f7;fill-opacity:1;fill-rule:nonzero;stroke:none"
             id="path356" />
        </g>
        <g
           id="g358"
           transform="translate(298.9991,831.4756)">
          <path
             d="m 0,0 c 0.043,-2.893 -1.118,-5.268 -3.649,-6.584 -3.022,-1.572 -4.169,1.269 -5.683,2.94 -4.103,4.527 -8.076,9.173 -12.249,13.633 -1.699,1.814 -3.812,3.679 -2.328,6.113 1.225,2.011 3.878,2.659 6.368,2.579 C -11.308,18.481 0.039,6.36 0,0"
             style="fill:#f9f9f8;fill-opacity:1;fill-rule:nonzero;stroke:none"
             id="path360" />
        </g>
        <g
           id="g362"
           transform="translate(270.5297,851.4734)">
          <path
             d="m 0,0 c -1.495,0.087 -2.643,0.376 -3.624,1.512 -3.8,4.395 -7.652,8.748 -11.595,13.015 -1.588,1.719 -2.587,3.522 -1.249,5.639 1.24,1.962 3.359,2.405 5.6,2.187 C -5.047,21.785 4.457,11.262 4.18,5.597 4.042,2.793 3.288,0.326 0,0"
             style="fill:#f6f7f6;fill-opacity:1;fill-rule:nonzero;stroke:none"
             id="path364" />
        </g>
        <g
           id="g366"
           transform="translate(727.5401,203.884)">
          <path
             d="m 0,0 c 0.072,-0.08 0.136,-0.171 0.186,-0.266 2.419,-4.579 4.805,-9.176 7.268,-13.732 2.433,-4.5 1.643,-8.308 -2.829,-10.733 -4.987,-2.705 -5.499,2.576 -7.235,4.885 -2.484,3.303 -4.264,7.136 -6.344,10.743 -2.621,3.587 -6.04,7.173 -0.02,10.776 L -9.081,1.595 C -5.519,3.926 -2.594,2.851 0,0"
             style="fill:#f9f9f8;fill-opacity:1;fill-rule:nonzero;stroke:none"
             id="path368" />
        </g>
        <g
           id="g370"
           transform="translate(718.566,205.5567)">
          <path
             d="M 0,0 C -3.851,-3.599 -1.278,-7.186 0.02,-10.776 -6.725,-5.045 -6.73,-2.503 0,0"
             style="fill:#000000;fill-opacity:1;fill-rule:nonzero;stroke:none"
             id="path372" />
        </g>
        <g
           id="g374"
           transform="translate(727.6508,203.7611)">
          <path
             d="M 0,0 C -2.848,5.199 -5.855,2.607 -9.192,1.718 -5.344,5.34 -2.239,4.99 0,0"
             style="fill:#000000;fill-opacity:1;fill-rule:nonzero;stroke:none"
             id="path376" />
        </g>
        <g
           id="g378"
           transform="translate(708.5406,941.739)">
          <path
             d="m 0,0 c -1.977,-6.202 -3.561,-13.227 -7.517,-19.324 -2.273,-3.504 -5.408,-4.077 -8.999,-1.97 -3.686,2.163 -1.916,4.635 -0.746,7.489 2.218,5.41 3.742,11.102 5.91,16.535 0.984,2.467 1.613,6.474 5.746,5.005 C -2.6,6.666 -0.009,4.495 0,0"
             style="fill:#f9f9f8;fill-opacity:1;fill-rule:nonzero;stroke:none"
             id="path380" />
        </g>
        <g
           id="g382"
           transform="translate(446.451,147.2824)">
          <path
             d="m 0,0 c 0.344,-4.208 0.031,-5.874 -0.009,-8.81 -0.036,-2.626 0.45,-5.837 -3.105,-6.419 -2.859,-0.467 -5.999,-0.182 -8.187,2.183 -2.031,2.196 -0.636,4.394 0.362,6.639 2.574,5.789 5.024,11.635 7.409,17.505 0.599,1.473 0.667,3.329 2.972,2.634 1.737,-0.523 1.25,-2.096 1.216,-3.326 C 0.561,6.936 0.369,3.469 0.214,0.001 0.143,0.001 0.071,0 0,0"
             style="fill:#f5f5f4;fill-opacity:1;fill-rule:nonzero;stroke:none"
             id="path384" />
        </g>
        <g
           id="g386"
           transform="translate(284.6807,251.6355)">
          <path
             d="m 0,0 c -3.874,-8.955 -9.489,-17.052 -15.098,-24.955 -2.123,-2.993 -4.959,1.177 -7.252,2.612 -2.457,1.538 -3.381,3.886 -1.08,5.87 7.103,6.126 14.471,11.944 21.737,17.882 C -0.191,2.32 1.416,2.32 0,0"
             style="fill:#f2f4f3;fill-opacity:1;fill-rule:nonzero;stroke:none"
             id="path388" />
        </g>
        <g
           id="g390"
           transform="translate(331.0722,183.3787)">
          <path
             d="M 0,0 C 0.214,-2.513 -1.375,-5.911 3.104,-6.332 2.252,-7.977 0.664,-10.322 -0.747,-8.448 -2.548,-6.058 -2.705,-2.603 0,0"
             style="fill:#000000;fill-opacity:1;fill-rule:nonzero;stroke:none"
             id="path392" />
        </g>
        <g
           id="g394"
           transform="translate(345.4102,939.965)">
          <path
             d="m 0,0 c 0.406,0.25 0.847,0.369 1.322,0.356 1.555,0.168 3.74,-0.268 4.572,0.597 7.006,7.283 9.067,0.813 11.474,-4.056 4.976,-10.066 9.834,-20.193 14.546,-30.385 0.876,-1.896 1.578,-3.289 3.881,-3.008 l -0.034,0.05 c -0.184,-11.218 1.989,-14.944 11.676,-18.891 -6.525,-2.9 -12.473,-5.544 -19.541,-8.685 4.226,5.911 -0.534,9.378 -2.326,13.195 -7,14.904 -14.901,29.389 -21.682,44.384 C 2.784,-4.001 -1.969,-3.92 0,0"
             style="fill:#000000;fill-opacity:1;fill-rule:nonzero;stroke:none"
             id="path396" />
        </g>
        <g
           id="g398"
           transform="translate(381.2053,903.4686)">
          <path
             d="m 0,0 c -5.241,11.041 -10.546,22.053 -15.667,33.149 -1.024,2.217 -3.579,4.646 -0.919,7.237 2.7,2.63 5.907,2.018 8.904,0.426 2.666,-1.416 4.522,-3.666 5.817,-6.406 C 3.598,22.845 9.093,11.3 14.565,-0.256 c 1.294,-2.734 1.504,-5.657 1.4,-8.625 -0.119,-3.392 -1.959,-5.557 -5.104,-6.372 -3.28,-0.849 -3.875,2.224 -4.984,4.121 C 3.751,-7.495 1.92,-3.687 -0.034,0.05 Z"
             style="fill:#fdfefd;fill-opacity:1;fill-rule:nonzero;stroke:none"
             id="path400" />
        </g>
        <g
           id="g402"
           transform="translate(740.9153,897.8562)">
          <path
             d="m 0,0 c 3.583,6.164 7.006,12.429 10.814,18.451 2.05,3.242 4.177,7.5 9.299,5.01 5.166,-2.512 4.5,-6.606 2.237,-10.809 -7.541,-14.007 -15.022,-28.047 -22.725,-41.965 -2.089,-3.775 -4.992,-7.877 -10.061,-4.824 -5.188,3.126 -3.021,7.531 -0.992,11.866 2.795,5.972 7.341,11.113 8.528,17.845 C -3.318,-2.043 -2.558,-0.433 0,0"
             style="fill:#fdfefd;fill-opacity:1;fill-rule:nonzero;stroke:none"
             id="path404" />
        </g>
        <g
           id="g406"
           transform="translate(740.9153,897.8562)">
          <path
             d="m 0,0 c -0.967,-1.475 -1.933,-2.951 -2.9,-4.426 -7.653,-8.138 -12.916,-17.312 -12.984,-29.264 -6.576,3.891 -6.763,10.672 -6.575,16.97 0.329,11.021 5.468,20.545 10.848,29.89 1.275,2.213 3.802,3.959 3.106,7.065 0,0 -0.065,-0.073 -0.066,-0.073 4.342,2.315 8.958,4.24 12.953,7.048 4.599,3.232 8.746,2.629 13.207,0.61 C 7.059,21.228 1.959,11.621 0,0"
             style="fill:#000000;fill-opacity:1;fill-rule:nonzero;stroke:none"
             id="path408" />
        </g>
        <g
           id="g410"
           transform="translate(634.6799,972.3146)">
          <path
             d="m 0,0 c -10.327,-1.342 -6.677,-10.887 -9.413,-16.589 -1.237,-2.578 -0.075,-6.261 -1.834,-9.12 2.786,-7.646 4.97,-8.422 10.991,-3.67 1.041,0.821 1.766,2.223 3.262,1.596 2.288,-0.96 0.766,-2.637 0.527,-4.062 -0.352,-2.095 -0.478,-4.252 -1.068,-6.276 -0.427,-1.467 -1.134,-3.192 -3.069,-3.274 -2.206,-0.094 -2.353,1.7 -2.587,3.296 -0.485,3.307 -2.681,4.291 -5.699,4.357 -3.456,0.074 -4.808,-2.284 -5.278,-4.979 -1.322,-7.576 -2.891,-15.182 -3.229,-22.826 -0.166,-3.741 -0.948,-4.733 -4.245,-4.301 -4.715,0.618 -9.421,1.299 -15.721,2.173 5.167,3.203 6.224,6.912 7.219,11.62 3.325,15.752 3.921,32.126 10.072,47.247 1.73,4.251 -0.099,7.055 -5.069,10.038 5.355,-0.324 8.731,-0.528 12.106,-0.734 C -10.01,-0.831 -3.599,3.661 0,0"
             style="fill:#000000;fill-opacity:1;fill-rule:nonzero;stroke:none"
             id="path412" />
        </g>
        <g
           id="g414"
           transform="translate(446.8825,976.8343)">
          <path
             d="m 0,0 c 5.319,1.277 5.087,-4.138 7.568,-6.279 0.147,-1.589 0.06,-3.244 0.487,-4.755 1.095,-3.874 -2.213,-4.774 -4.294,-5.427 -2.855,-0.895 -3.48,2.345 -3.596,4.109 -0.305,4.617 -1.094,8.396 -8.506,8.006 3.968,1.81 6.99,1.604 8.341,4.346"
             style="fill:#000000;fill-opacity:1;fill-rule:nonzero;stroke:none"
             id="path416" />
        </g>
        <g
           id="g418"
           transform="translate(643.046,954.9768)">
          <path
             d="m 0,0 c -0.639,2.228 0.234,4.15 1.261,6.02 2.9,5.277 1.172,7.953 -4.654,8.359 -1.658,0.986 -3.315,1.972 -4.973,2.958 3.959,-0.046 7.796,-0.035 11.68,-1.657 4.115,-1.717 7.01,-3.485 5.887,-8.534 C 8.096,2.176 5.978,-1.364 0,0"
             style="fill:#000000;fill-opacity:1;fill-rule:nonzero;stroke:none"
             id="path420" />
        </g>
        <g
           id="g422"
           transform="translate(549.6417,806.7593)">
          <path
             d="M 0,0 -22.498,27.319 V -33.747 H 0 Z"
             style="fill:#00823a;fill-opacity:1;fill-rule:nonzero;stroke:none"
             id="path424" />
        </g>
        <g
           id="g426"
           transform="translate(549.3661,831.6772)">
          <path
             d="M 0,0 0.276,-25.297"
             style="fill:#00823a;fill-opacity:1;fill-rule:nonzero;stroke:none"
             id="path428" />
        </g>
      </g>
    </g>
  </g>
</svg>
