<?xml version="1.0" encoding="UTF-8" standalone="no"?>
<!-- Created with Inkscape (http://www.inkscape.org/) -->

<svg
   version="1.1"
   id="svg2"
   width="1440"
   height="1440"
   viewBox="0 0 1440 1440"
   sodipodi:docname="Antofagasta.ai"
   xmlns:inkscape="http://www.inkscape.org/namespaces/inkscape"
   xmlns:sodipodi="http://sodipodi.sourceforge.net/DTD/sodipodi-0.dtd"
   xmlns="http://www.w3.org/2000/svg"
   xmlns:svg="http://www.w3.org/2000/svg">
  <defs
     id="defs6">
    <clipPath
       clipPathUnits="userSpaceOnUse"
       id="clipPath16">
      <path
         d="M 0,1080 H 1080 V 0 H 0 Z"
         id="path14" />
    </clipPath>
  </defs>
  <sodipodi:namedview
     id="namedview4"
     pagecolor="#ffffff"
     bordercolor="#000000"
     borderopacity="0.25"
     inkscape:showpageshadow="2"
     inkscape:pageopacity="0.0"
     inkscape:pagecheckerboard="0"
     inkscape:deskcolor="#d1d1d1" />
  <g
     id="g8"
     inkscape:groupmode="layer"
     inkscape:label="Antofagasta"
     transform="matrix(1.3333333,0,0,-1.3333333,0,1440)">
    <g
       id="g10">
      <g
         id="g12"
         clip-path="url(#clipPath16)">
        <g
           id="g18"
           transform="translate(865.1688,280.3168)">
          <path
             d="m 0,0 c -4.999,4.622 -11.433,10.504 -18.189,16.648 -52.036,-57.651 -140.537,-128.866 -237.077,-158.231 -22.082,-6.372 -48.736,-9.384 -70.599,-46.167 -6.965,12.021 -18.74,24.393 -27.284,29.772 -10.281,7.208 -23.763,10.955 -39.307,15.239 -26.861,7.121 -42.122,14.405 -65.974,25.896 -67.542,32.679 -131.431,85.935 -175.11,133.491 C -638.064,12.536 -651.729,0 -651.729,0 c 0,0 -23.404,63.263 -32.679,114.993 24.599,-8.837 110.677,-43.161 110.677,-43.161 0,0 -14.532,-13.193 -20.348,-18.497 12.307,-15.125 126.497,-150.781 265.699,-150.781 1.243,0 2.502,0.011 3.749,0.033 h 0.019 c 7.521,0 15.152,0.424 22.863,1.227 h 0.065 l 0.02,0.008 c 79.18,8.284 167.354,58.813 244.014,149.513 -6.137,5.597 -13.97,12.723 -20.348,18.497 C -45.312,85.3 -0.17,103.997 32.679,114.993 22.46,67.396 12.752,37.651 0,0 m -597.778,478.78 c 21.854,1.098 52.596,6.929 81.081,13.423 v -0.008 l 0.538,0.13 c 10.507,2.401 20.665,4.88 29.97,7.251 l 0.246,0.059 c 0.844,0.216 1.663,0.425 2.467,0.632 0.477,0.122 0.947,0.244 1.419,0.366 2.186,0.564 4.218,1.093 6.025,1.569 0.008,0.002 0.016,0.005 0.023,0.006 0.52,0.129 1.027,0.249 1.544,0.377 1.899,0.467 3.796,0.933 5.668,1.38 0.562,0.134 1.112,0.259 1.673,0.391 1.811,0.428 3.622,0.856 5.407,1.265 0.433,0.099 0.856,0.191 1.288,0.289 1.912,0.434 3.818,0.865 5.698,1.277 0.011,0.003 0.023,0.006 0.034,0.008 61.895,13.583 106.41,15.482 122.472,15.68 0.113,10e-4 0.21,0.002 0.32,0.003 0.469,0.005 0.929,0.009 1.347,0.012 0.514,0.003 0.999,0.005 1.443,0.005 0.573,0 1.054,-0.003 1.488,-0.006 0.121,-10e-4 0.242,-0.002 0.352,-0.003 0.357,-0.004 0.686,-0.008 0.927,-0.012 0.189,-0.003 0.341,-0.006 0.453,-0.009 0.112,0.003 0.266,0.006 0.458,0.009 0.238,0.004 0.561,0.008 0.913,0.011 0.111,0.002 0.233,0.003 0.355,0.004 0.434,0.003 0.914,0.006 1.485,0.006 0.037,0 0.082,-10e-4 0.119,-10e-4 0.411,0 0.849,-10e-4 1.319,-0.004 0.468,-0.003 0.977,-0.008 1.51,-0.014 0.051,0 0.096,-10e-4 0.147,-10e-4 17.171,-0.211 67.005,-2.375 135.874,-18.748 0.228,-0.055 0.45,-0.105 0.679,-0.159 2.142,-0.511 4.309,-1.041 6.487,-1.581 0.246,-0.06 0.485,-0.116 0.73,-0.177 l 0.004,-10e-4 c 1.664,-0.439 3.554,-0.93 5.542,-1.444 0.907,-0.235 1.824,-0.47 2.751,-0.708 0.381,-0.098 0.719,-0.186 1.11,-0.285 l 0.232,-0.057 c 9.46,-2.415 19.822,-4.946 30.544,-7.396 l 0.522,-0.126 -0.001,0.008 c 28.482,-6.493 59.221,-12.323 81.072,-13.421 V 312.394 C -56.386,246.266 -81.574,151.805 -122.361,90.64 -142.924,55.155 -194.255,-6.472 -228.228,-34.65 c -14.798,-10.544 -54.26,-27.192 -78.245,-36.872 h -38.845 c -24.016,9.68 -63.477,26.328 -78.275,36.872 -33.974,28.178 -85.305,89.805 -105.868,125.29 -40.787,61.165 -65.974,155.626 -68.317,221.754 z m 105.744,83.853 h 136.357 c -33.439,12.079 -57.342,44.093 -57.342,81.698 0,47.964 38.882,86.846 86.846,86.846 47.964,0 86.847,-38.882 86.847,-86.846 0,-37.605 -23.904,-69.619 -57.343,-81.698 h 136.357 v -38.964 c -0.012,0.003 -0.024,0.006 -0.036,0.009 -1.71,0.437 -3.338,0.855 -4.867,1.252 -0.011,0.003 -0.02,0.006 -0.031,0.008 -1.534,0.398 -2.97,0.774 -4.291,1.122 l -0.167,0.044 -0.167,0.041 c -79.956,19.869 -137.178,21.413 -152.812,21.413 -1.468,0 -2.545,-0.013 -3.215,-0.025 -0.672,0.012 -1.749,0.025 -3.217,0.025 -15.639,0 -72.88,-1.544 -152.835,-21.413 l -0.168,-0.041 -0.167,-0.044 c -2.79,-0.735 -6.082,-1.591 -9.749,-2.525 z M 24.85,138.381 C -7.641,127.505 -51.723,109.337 -83.91,96.071 l -3.484,-1.435 -4.63,-1.908 c 40.047,68.546 60.525,159.418 62.629,218.793 l 0.015,0.436 v 0.437 166.386 23.454 l -23.425,1.178 c -22.632,1.138 -55.914,7.921 -82.741,14.195 l -0.102,6.062 v 38.964 24.664 h -24.664 -70.108 c 10.08,16.905 15.757,36.522 15.757,57.034 0,61.487 -50.023,111.51 -111.51,111.51 -61.487,0 -111.51,-50.023 -111.51,-111.51 0,-20.512 5.677,-40.129 15.758,-57.034 h -70.109 -24.663 v -24.664 -39.098 -6.027 c -26.753,-6.246 -59.807,-12.964 -82.32,-14.096 l -23.424,-1.178 V 478.78 312.394 311.957 l 0.015,-0.436 c 2.102,-59.337 22.556,-150.132 62.553,-218.663 l -4.723,1.883 c -3.531,1.409 -86.758,34.585 -111.475,43.463 l -40.141,14.42 7.528,-41.984 c 9.551,-53.27 32.837,-116.53 33.823,-119.197 l 12.742,-34.444 27.063,24.827 c 0,0 0.125,0.115 0.354,0.325 50.033,-50.477 109.3,-93.989 165.53,-121.195 23.758,-11.446 40.902,-19.706 70.28,-27.504 13.28,-3.661 24.744,-6.829 31.587,-11.625 l 0.499,-0.35 0.515,-0.325 c 4.352,-2.74 13.653,-11.891 19.087,-21.268 l 21.07,-36.359 21.47,36.123 c 14.192,23.878 29.066,27.814 47.898,32.798 2.834,0.75 5.618,1.49 8.338,2.274 l 0.17,0.049 0.17,0.052 c 106.962,32.535 191.612,107.322 231.126,147.272 0.073,-0.067 0.147,-0.135 0.219,-0.202 l 27.91,-25.804 12.193,36.001 c 13.046,38.519 23.08,69.511 33.433,117.728 l 9.082,42.298 z"
             style="fill:#004a92;fill-opacity:1;fill-rule:nonzero;stroke:none"
             id="path20" />
        </g>
        <g
           id="g22"
           transform="translate(539.3042,883.0283)">
          <path
             d="m 0,0 c 22.986,0 41.619,18.634 41.619,41.619 0,22.986 -18.633,41.62 -41.619,41.62 -22.986,0 -41.619,-18.634 -41.619,-41.62 C -41.619,18.634 -22.986,0 0,0"
             style="fill:#004a92;fill-opacity:1;fill-rule:nonzero;stroke:none"
             id="path24" />
        </g>
        <g
           id="g26"
           transform="translate(213.4393,280.3168)">
          <path
             d="m 0,0 c 0,0 13.665,12.536 18.189,16.648 43.68,-47.556 107.568,-100.812 175.11,-133.491 23.853,-11.491 39.114,-18.775 65.975,-25.896 15.543,-4.284 29.025,-8.031 39.307,-15.239 8.543,-5.379 20.318,-17.751 27.284,-29.772 21.862,36.783 48.517,39.795 70.599,46.167 96.539,29.365 185.041,100.58 237.077,158.231 C 640.297,10.504 646.73,4.622 651.729,0 c 12.753,37.651 22.46,67.396 32.68,114.993 C 651.559,103.997 606.417,85.3 573.732,71.832 580.11,66.058 587.942,58.932 594.079,53.335 509.925,-46.231 411.89,-97.413 327.117,-97.413 h -0.019 c -1.247,-0.022 -2.505,-0.033 -3.748,-0.033 -139.202,0 -253.392,135.656 -265.699,150.781 5.816,5.304 20.347,18.497 20.347,18.497 0,0 -86.078,34.324 -110.677,43.161 C -23.404,63.263 0,0 0,0"
             style="fill:#fdd92a;fill-opacity:1;fill-rule:nonzero;stroke:none"
             id="path28" />
        </g>
        <g
           id="g30"
           transform="translate(542.4836,803.2115)">
          <path
             d="M 0,0 C -1.68,0 -2.762,-0.02 -3.21,-0.029 -3.662,-0.02 -4.745,0 -6.43,0 c -13.95,0 -69.067,-1.347 -146.888,-20.685 -35.114,-9.249 -88.664,-21.765 -121.775,-23.43 v -166.386 c 2.343,-66.128 27.53,-160.589 68.317,-221.754 20.563,-35.485 71.894,-97.112 105.868,-125.29 14.798,-10.544 54.259,-27.191 78.275,-36.872 h 38.845 c 23.985,9.681 63.447,26.328 78.245,36.872 33.973,28.178 85.304,89.805 105.867,125.29 40.787,61.165 65.975,155.626 68.318,221.754 v 166.386 c -33.111,1.665 -86.661,14.181 -121.776,23.43 C 69.041,-1.346 13.924,0 0,0"
             style="fill:#5db2dc;fill-opacity:1;fill-rule:nonzero;stroke:none"
             id="path32" />
        </g>
        <g
           id="g34"
           transform="translate(444.9668,724.5661)">
          <path
             d="m 0,0 c 0,0 -7.281,-10.511 -7.684,-19.492 -0.31,-11.394 2.878,-19.323 7.684,-34.151 -34.077,-20.411 -102.097,-55.128 -159.695,-99.887 28.242,10.847 47.419,14.729 59.192,17.573 -29.406,-18.861 -35.834,-45.492 -33.214,-66.569 9.711,-48.19 80.074,-81.06 117.606,-98.675 8.972,-5.104 35.225,-21.538 35.225,-21.538 h 168.328 v 65.932 c 36.07,-34.84 60.117,-20.348 60.117,-20.348 v 13.873 c 23.016,24.077 22.505,31.754 22.505,31.754 0,0 -12.083,-5.364 -15.618,-4.26 -5.025,6.62 -4.188,20.05 1.19,29.191 6.38,12.8 20.154,27.952 29.843,33.561 4.824,2.902 15.229,8.363 21.272,3.167 6.625,-6.242 -6.783,-26.513 -6.783,-26.513 0,0 24.378,13.211 35.364,22.637 7.106,6.42 18.581,13.548 19.838,30.983 0.481,4.736 0.203,10.8 0.034,14.736 -0.051,1.626 -0.061,2.021 -1.779,4.589 -11.658,15.549 -49.757,59.004 -49.757,59.004 v 16.339 c 0.213,14.724 -16.514,20.922 -23.43,22.963 -8.187,2.485 -22.968,6.102 -30.521,8.483 -12.226,7.635 -30.895,20.076 -61.967,22.505 0.065,13.97 0.268,57.552 0.298,63.931 C 132.64,79.245 97.487,78.699 94.292,78.625 91.093,78.699 55.868,79.247 0.359,69.757 0.146,69.684 0,69.633 0,69.633 Z"
             style="fill:#ffffff;fill-opacity:1;fill-rule:nonzero;stroke:none"
             id="path36" />
        </g>
        <g
           id="g38"
           transform="translate(506.317,600.0158)">
          <path
             d="m 0,0 c 0,0 58.13,-49.027 78.614,-49.018 24.644,-0.403 65.975,35.761 65.975,35.761 0,0 -49.202,-58.99 -64.741,-57.958 C 48.29,-70.28 0,0 0,0"
             style="fill:#000032;fill-opacity:1;fill-rule:nonzero;stroke:none"
             id="path40" />
        </g>
        <g
           id="g42"
           transform="translate(628.7089,516.777)">
          <path
             d="m 0,0 c -28.055,-21.412 -49.832,-53.291 -60.734,-100.503 15.1,35.012 33.935,60.32 54.26,68.132 C 14.582,-62.868 43.029,-70.93 55.493,-59.5 25.995,-58.539 6.973,-28.103 0,0"
             style="fill:#000032;fill-opacity:1;fill-rule:nonzero;stroke:none"
             id="path44" />
        </g>
        <g
           id="g46"
           transform="translate(453.2907,664.4492)">
          <path
             d="m 0,0 c -6.393,-9.308 -16.531,-16.128 -26.367,-24.569 -21.895,-18.789 -46.895,-43.238 -49.066,-74.855 -0.223,-31.878 14.864,-57.066 41.194,-91.861 9.484,-13.614 29.424,-33.292 45.029,-55.041 -35.939,26.865 -133.936,63.992 -139.085,109.375 -3.116,25.261 26.25,62.344 26.25,62.344 0,0 -2.112,3.553 -47.168,-10.79 C -98.499,-53.245 -27.747,-15.033 0,0"
             style="fill:#000032;fill-opacity:1;fill-rule:nonzero;stroke:none"
             id="path48" />
        </g>
        <g
           id="g50"
           transform="translate(477.954,645.3348)">
          <path
             d="m 0,0 c -17.54,16.147 -32.987,35.874 -33.296,50.043 0.185,8.782 3.506,18.841 14.49,28.264 8.285,-3.617 31.439,-10.177 50.468,-8.758 19.934,1.73 43.417,9.208 76.549,9.592 39.94,0.862 66.168,-5.559 85.789,-14.995 13.185,-6.839 27.354,-16.416 38.465,-29.964 1.611,-2 3.155,-4.752 7.28,-5.324 2.309,-0.282 5.481,-0.314 7.505,-0.187 -1.2,-7.67 -7.136,-13.278 -13.873,-12.64 -5.333,0.444 -10.514,1.1 -16.79,9.247 -13.009,19.501 -20.881,28.028 -41.693,37.427 -15.21,7.247 -49.84,10.119 -66.683,9.736 -22.637,-0.047 -58.884,-5.542 -58.884,-5.542 0,0 20.442,-1.214 31.137,-1.849 C 67.929,55.667 46.742,51.928 33.757,52.771 24.834,53.568 13.683,54.88 0.294,61.883 -4.159,64.194 -11.74,68.766 -16.956,69.366 -25.608,59.603 -27.379,50.813 -24.409,40.418 -20.442,28.052 -9.718,11.326 0,0"
             style="fill:#000032;fill-opacity:1;fill-rule:nonzero;stroke:none"
             id="path52" />
        </g>
        <g
           id="g54"
           transform="translate(698.0749,653.9672)">
          <path
             d="m 0,0 -29.596,-16.956 -6.297,-37.612 -1.719,43.161 -36.07,39.462 z"
             style="fill:#000032;fill-opacity:1;fill-rule:nonzero;stroke:none"
             id="path56" />
        </g>
        <g
           id="g58"
           transform="translate(754.1839,623.7543)">
          <path
             d="m 0,0 c 0,0 11.702,-21.012 14.745,-35.089 0.809,-4.176 -0.255,-17.012 -0.255,-17.012 0,0 16.497,14.756 21.281,20.617 4.104,4.495 2.457,5.434 -0.596,8.054 C 24.755,-14.846 0,0 0,0"
             style="fill:#000032;fill-opacity:1;fill-rule:nonzero;stroke:none"
             id="path60" />
        </g>
        <g
           id="g62"
           transform="translate(779.772,562.7126)">
          <path
             d="m 0,0 c -28.612,9.627 -80.956,20.155 -107.285,24.355 -17.324,-14.499 -28.18,-27.617 -32.178,-39.764 -4.103,-12.714 0.686,-22.159 4.465,-28.369 9.274,-17.076 44.941,-43.462 52.501,-41.806 5.214,2.034 13.44,14.06 13.44,14.06 0,0 -12.85,-7.434 -14.599,-6.006 -3.949,2.17 -5.467,12.982 -5.422,18.839 0.398,7.217 0.448,11.103 4.124,19.094 8.819,15.869 25.72,25.793 32.958,30.103 4.826,2.83 15.25,7.281 22.794,4.362 6.067,-2.313 4.447,-9.128 3.614,-12.749 -0.574,-2.353 -1.986,-6.902 -3.418,-9.094 C -21.6,-24.124 -7.392,-15.857 0,0"
             style="fill:#000032;fill-opacity:1;fill-rule:nonzero;stroke:none"
             id="path64" />
        </g>
        <g
           id="g66"
           transform="translate(657.0719,506.2951)">
          <path
             d="m 0,0 c 2.496,-2.623 5.111,-5.118 8.324,-8.015 6.92,-0.62 17.481,2.726 23.122,15.414 C 26.723,5.271 9.537,-0.534 0,0"
             style="fill:#ffffff;fill-opacity:1;fill-rule:nonzero;stroke:none"
             id="path68" />
        </g>
        <g
           id="g70"
           transform="translate(730.4454,574.4278)">
          <path
             d="m 0,0 c -2.26,-15.273 -13.181,-26.785 -31.754,-29.596 5.634,4.631 10.849,12.109 9.244,18.02 C -24.939,-1.695 -51.213,9.366 -54.26,10.79 -45.391,9.775 -10.366,2.292 0,0"
             style="fill:#ffffff;fill-opacity:1;fill-rule:nonzero;stroke:none"
             id="path72" />
        </g>
        <g
           id="g74"
           transform="translate(483.5033,775.4343)">
          <path
             d="m 0,0 c -2.158,-1.85 -4.316,-2.775 -6.166,-3.391 v -6.474 c 3.391,1.233 6.474,3.082 9.249,5.549 v -26.822 h 7.091 V 5.857 H 4.316 C 3.7,3.699 2.158,1.85 0,0"
             style="fill:#000032;fill-opacity:1;fill-rule:nonzero;stroke:none"
             id="path76" />
        </g>
        <g
           id="g78"
           transform="translate(524.5062,763.4106)">
          <path
             d="m 0,0 c -0.925,-1.233 -2.158,-1.541 -3.391,-1.541 -1.542,0 -2.466,0.616 -3.7,1.541 -0.925,1.233 -1.541,2.775 -1.541,5.241 0,2.467 0.308,4.008 1.233,5.241 0.925,0.925 1.85,1.542 3.391,1.542 1.233,0 2.466,-0.617 3.7,-1.85 C 0.617,8.941 1.233,7.091 1.233,4.933 1.541,2.775 0.925,1.233 0,0 m -12.023,14.49 c -2.158,-2.158 -3.392,-5.241 -3.392,-9.249 0,-3.699 0.925,-6.474 3.083,-8.94 2.158,-2.158 4.625,-3.392 7.707,-3.392 2.775,0 4.933,0.925 6.783,3.083 -0.308,-4.316 -0.925,-7.09 -1.85,-8.323 -0.925,-1.234 -2.158,-2.158 -3.699,-2.158 -1.234,0 -2.158,0.308 -2.775,0.924 -0.617,0.617 -1.233,1.85 -1.233,3.083 l -6.782,-0.616 c 0.616,-3.083 1.541,-5.549 3.391,-7.091 1.849,-1.542 4.007,-2.466 7.091,-2.466 4.007,0 7.398,1.541 9.865,4.624 2.466,3.083 3.699,8.016 3.699,14.798 0,6.782 -1.233,11.407 -3.699,14.49 -2.467,2.774 -5.549,4.316 -9.249,4.316 -4.008,0.308 -6.782,-0.617 -8.94,-3.083"
             style="fill:#000032;fill-opacity:1;fill-rule:nonzero;stroke:none"
             id="path80" />
        </g>
        <g
           id="g82"
           transform="translate(553.1774,761.2527)">
          <path
             d="m 0,0 c 0.925,1.233 2.158,1.542 3.391,1.542 1.542,0 2.466,-0.617 3.7,-1.542 0.925,-1.233 1.541,-2.775 1.541,-5.241 0,-2.466 -0.308,-4.008 -1.233,-5.241 -0.925,-0.925 -1.85,-1.541 -3.391,-1.541 -1.233,0 -2.466,0.616 -3.699,1.85 -0.926,1.233 -1.542,3.082 -1.542,5.24 0,2.467 0.308,4.008 1.233,4.933 m -5.549,15.723 c -2.466,-3.083 -3.7,-8.016 -3.7,-14.798 0,-6.782 1.233,-11.407 3.7,-14.49 2.466,-2.774 5.549,-4.316 9.248,-4.316 3.392,0 6.475,1.233 8.632,3.391 2.159,2.159 3.392,5.241 3.392,9.249 0,3.7 -0.925,6.474 -3.083,8.941 C 10.482,5.858 8.015,7.091 4.933,7.091 2.158,7.091 0,6.166 -1.85,4.008 c 0.309,4.316 0.925,7.091 1.85,8.324 0.925,1.233 2.466,2.158 3.699,2.158 1.234,0 2.158,-0.308 2.775,-0.925 0.617,-0.617 1.233,-1.85 1.233,-3.083 l 6.783,0.617 c -0.617,3.083 -1.542,5.241 -3.391,6.782 -1.85,1.541 -4.316,2.466 -7.091,2.466 -3.699,-0.308 -7.091,-1.541 -9.557,-4.624"
             style="fill:#000032;fill-opacity:1;fill-rule:nonzero;stroke:none"
             id="path84" />
        </g>
        <g
           id="g86"
           transform="translate(587.3978,761.2527)">
          <path
             d="m 0,0 c 0.925,1.233 2.158,1.542 3.391,1.542 1.542,0 2.466,-0.617 3.7,-1.542 0.925,-1.233 1.541,-2.775 1.541,-5.241 0,-2.466 -0.308,-4.008 -1.233,-5.241 -0.925,-0.925 -1.85,-1.541 -3.391,-1.541 -1.233,0 -2.466,0.616 -3.7,1.85 -0.925,1.233 -1.541,3.082 -1.541,5.24 0,2.467 0.308,4.008 1.233,4.933 m -5.549,15.723 c -2.466,-3.083 -3.7,-8.016 -3.7,-14.798 0,-6.782 1.233,-11.407 3.7,-14.49 2.466,-2.774 5.549,-4.316 9.248,-4.316 3.392,0 6.475,1.233 8.633,3.391 2.158,2.159 3.391,5.241 3.391,9.249 0,3.7 -0.925,6.474 -3.083,8.941 C 10.482,5.858 8.015,7.091 4.933,7.091 2.158,7.091 0,6.166 -1.85,4.008 c 0.309,4.316 0.925,7.091 1.85,8.324 0.925,1.233 2.466,2.158 3.699,2.158 1.234,0 2.158,-0.308 2.775,-0.925 0.617,-0.617 1.233,-1.85 1.233,-3.083 l 6.783,0.617 c -0.617,3.083 -1.542,5.241 -3.7,6.782 -1.849,1.541 -4.316,2.466 -7.091,2.466 -3.391,-0.308 -6.782,-1.541 -9.248,-4.624"
             style="fill:#000032;fill-opacity:1;fill-rule:nonzero;stroke:none"
             id="path88" />
        </g>
        <g
           id="g90"
           transform="translate(446.9915,207.743)">
          <path
             d="m 0,0 0.31,173.737 -22.201,17.711 h -28.044 v 18.75 H -2.499 L 15.998,195.4 h 152.014 l 18.496,14.798 h 47.437 v -18.75 H 205.901 L 183.693,173.734 V 0 Z"
             style="fill:#af6326;fill-opacity:1;fill-rule:nonzero;stroke:none"
             id="path92" />
        </g>
        <g
           id="g94"
           transform="translate(686.6102,423.6153)">
          <path
             d="M 0,0 H -11.349 -51.118 -55.1 l -3.108,-2.487 -15.389,-12.311 H -221.631 L -237.02,-2.487 -240.128,0 h -3.982 -39.769 -11.349 v -11.349 -7.399 -11.35 h 11.349 20.383 l 18.509,-14.763 -0.298,-165.316 11.349,-11.37 h 172.335 l 11.349,11.349 v 165.329 l 18.52,14.772 H -11.349 0 v 11.349 7.399 z m -11.349,-11.349 v -7.399 h -24.355 l -25.897,-20.656 v -170.794 h -172.335 l 0.308,170.794 -25.896,20.656 h -24.355 v 7.399 h 39.769 l 18.498,-14.798 h 155.996 l 18.498,14.798 z"
             style="fill:#004a92;fill-opacity:1;fill-rule:nonzero;stroke:none"
             id="path96" />
        </g>
        <g
           id="g98"
           transform="translate(486.8946,356.4649)">
          <path
             d="M 0,0 C 3.083,0 5.241,0.617 8.324,1.542 V 12.948 C 6.474,10.482 3.391,8.941 0.308,8.941 c -5.857,0 -9.865,4.007 -9.865,9.865 0,5.549 4.008,10.174 9.865,10.174 3.392,0 6.475,-1.542 8.324,-4.008 v 11.406 c -2.774,1.234 -5.549,1.85 -8.632,1.85 -5.241,0 -10.173,-2.158 -13.873,-5.857 -3.391,-3.699 -5.241,-8.324 -5.241,-13.257 0,-5.549 1.85,-10.173 5.857,-13.873 C -9.865,2.158 -4.933,0 0,0"
             style="fill:#004a92;fill-opacity:1;fill-rule:nonzero;stroke:none"
             id="path100" />
        </g>
        <g
           id="g102"
           transform="translate(505.7004,356.4649)">
          <path
             d="m 0,0 c 3.083,0 5.549,2.466 5.549,5.549 0,3.083 -2.466,5.55 -5.549,5.55 -3.083,0 -5.549,-2.467 -5.549,-5.55 C -5.549,2.775 -3.083,0 0,0"
             style="fill:#004a92;fill-opacity:1;fill-rule:nonzero;stroke:none"
             id="path104" />
        </g>
        <g
           id="g106"
           transform="translate(526.0476,365.714)">
          <path
             d="M 0,0 V 20.347 H 2.158 C 8.324,20.347 12.64,16.648 12.64,10.173 12.64,3.083 7.707,0 2.158,0 Z m 22.197,10.173 c 0,10.174 -8.324,18.19 -18.497,18.19 H -9.865 V -8.016 H 3.7 c 10.173,0 18.497,7.708 18.497,18.189"
             style="fill:#004a92;fill-opacity:1;fill-rule:nonzero;stroke:none"
             id="path108" />
        </g>
        <g
           id="g110"
           transform="translate(557.1853,356.4649)">
          <path
             d="m 0,0 c 3.083,0 5.549,2.466 5.549,5.549 0,3.083 -2.466,5.55 -5.549,5.55 -3.083,0 -5.549,-2.467 -5.549,-5.55 C -5.549,2.775 -3.083,0 0,0"
             style="fill:#004a92;fill-opacity:1;fill-rule:nonzero;stroke:none"
             id="path112" />
        </g>
        <g
           id="g114"
           transform="translate(583.6984,382.67)">
          <path
             d="M 0,0 V 0 L 4.008,-11.715 H -4.008 Z M -6.474,-18.806 H 6.474 L 8.94,-25.28 H 19.114 L 5.241,11.099 H -5.241 L -19.114,-25.28 h 10.173 z"
             style="fill:#004a92;fill-opacity:1;fill-rule:nonzero;stroke:none"
             id="path116" />
        </g>
        <g
           id="g118"
           transform="translate(610.2115,356.4649)">
          <path
             d="m 0,0 c 3.083,0 5.549,2.466 5.549,5.549 0,3.083 -2.466,5.55 -5.549,5.55 -3.083,0 -5.549,-2.467 -5.549,-5.55 C -5.549,2.775 -3.083,0 0,0"
             style="fill:#004a92;fill-opacity:1;fill-rule:nonzero;stroke:none"
             id="path120" />
        </g>
        <g
           id="g122"
           transform="translate(477.6459,228.8323)">
          <path
             d="m 0,0 c -2.466,0 -4.625,1.233 -6.474,2.775 l -3.083,-5.858 c 2.774,-2.158 6.474,-3.083 9.865,-3.083 2.775,0 5.858,0.925 8.016,2.775 2.158,1.849 2.775,4.624 2.775,7.399 0,4.624 -3.083,6.474 -6.783,7.707 l -1.85,0.616 c -1.233,0.309 -3.083,0.926 -3.083,2.775 0,1.541 1.85,2.467 3.083,2.467 1.85,0 3.391,-0.617 4.933,-1.85 l 2.774,5.549 c -2.466,1.541 -5.857,2.158 -8.632,2.158 -5.549,0 -9.557,-3.699 -9.557,-9.557 0,-5.549 3.083,-6.474 7.708,-8.016 C 1.233,5.549 4.008,4.624 4.008,2.775 3.391,0.925 1.541,0 0,0"
             style="fill:#004a92;fill-opacity:1;fill-rule:nonzero;stroke:none"
             id="path124" />
        </g>
        <g
           id="g126"
           transform="translate(492.7523,226.9824)">
          <path
             d="m 0,0 c 0,-2.466 1.85,-4.316 4.316,-4.316 2.466,0 4.316,1.85 4.316,4.316 0,2.466 -1.85,4.316 -4.316,4.316 C 1.85,4.316 0,2.467 0,0"
             style="fill:#004a92;fill-opacity:1;fill-rule:nonzero;stroke:none"
             id="path128" />
        </g>
        <g
           id="g130"
           transform="translate(518.957,242.7054)">
          <path
             d="m 0,0 v 0 l 3.083,-8.941 h -6.166 z m 4.933,-14.49 1.85,-4.932 H 14.49 L 4.008,8.632 h -8.016 l -10.79,-28.054 h 7.707 l 1.85,4.932 z"
             style="fill:#004a92;fill-opacity:1;fill-rule:nonzero;stroke:none"
             id="path132" />
        </g>
        <g
           id="g134"
           transform="translate(540.5375,231.2984)">
          <path
             d="m 0,0 c -2.466,0 -4.316,-1.85 -4.316,-4.316 0,-2.466 1.85,-4.316 4.316,-4.316 2.466,0 4.316,1.85 4.316,4.316 C 4.316,-1.85 2.466,0 0,0"
             style="fill:#004a92;fill-opacity:1;fill-rule:nonzero;stroke:none"
             id="path136" />
        </g>
        <g
           id="g138"
           transform="translate(559.0348,229.757)">
          <path
             d="m 0,0 h -1.541 v 15.723 h 1.85 c 4.624,0 8.015,-2.775 8.015,-7.708 C 8.016,2.158 4.316,0 0,0 m 15.723,7.707 c 0,8.016 -6.474,13.873 -14.181,13.873 H -8.94 V -6.474 H 1.542 C 9.249,-6.166 15.723,0 15.723,7.707"
             style="fill:#004a92;fill-opacity:1;fill-rule:nonzero;stroke:none"
             id="path140" />
        </g>
        <g
           id="g142"
           transform="translate(587.3978,226.9824)">
          <path
             d="m 0,0 c 0,2.466 -1.85,4.316 -4.316,4.316 -2.466,0 -4.316,-1.85 -4.316,-4.316 0,-2.466 1.85,-4.316 4.316,-4.316 C -2.158,-4.316 0,-2.158 0,0"
             style="fill:#004a92;fill-opacity:1;fill-rule:nonzero;stroke:none"
             id="path144" />
        </g>
        <g
           id="g146"
           transform="translate(599.7296,245.7882)">
          <path
             d="m 0,0 h 1.233 c 2.775,0 5.241,0 5.241,-3.699 0,-3.392 -2.466,-3.392 -5.241,-3.392 l -1.233,0 z m -7.091,-22.197 h 7.399 v 9.249 h 4.008 c 6.474,0 9.865,2.774 9.865,9.557 0,6.474 -4.316,9.248 -10.173,9.248 H -7.091 Z"
             style="fill:#004a92;fill-opacity:1;fill-rule:nonzero;stroke:none"
             id="path148" />
        </g>
        <g
           id="g150"
           transform="translate(612.9862,226.9824)">
          <path
             d="m 0,0 c 0,-2.466 1.849,-4.316 4.316,-4.316 2.466,0 4.316,1.85 4.316,4.316 0,2.466 -1.85,4.316 -4.316,4.316 C 1.849,4.316 0,2.467 0,0"
             style="fill:#004a92;fill-opacity:1;fill-rule:nonzero;stroke:none"
             id="path152" />
        </g>
        <g
           id="g154"
           transform="translate(262.7661,304.0553)">
          <path
             d="m 0,0 -3.699,4.625 8.015,3.082 z m 6.474,12.332 -21.889,-7.707 3.084,-3.392 4.932,1.85 5.549,-6.474 -2.466,-4.624 3.083,-3.7 10.79,20.656 z"
             style="fill:#000032;fill-opacity:1;fill-rule:nonzero;stroke:none"
             id="path156" />
        </g>
        <g
           id="g158"
           transform="translate(290.5125,292.9571)">
          <path
             d="m 0,0 -10.482,-9.866 4.316,16.34 -2.775,3.083 -15.722,-14.798 2.774,-3.083 10.174,9.865 -4.316,-16.339 3.083,-3.083 15.723,15.106 z"
             style="fill:#000032;fill-opacity:1;fill-rule:nonzero;stroke:none"
             id="path160" />
        </g>
        <g
           id="g162"
           transform="translate(307.1603,271.6848)">
          <path
             d="M 0,0 2.466,2.466 -9.865,14.49 -12.332,11.715 -7.707,7.399 -20.347,-5.549 -17.264,-8.632 -4.625,4.316 Z"
             style="fill:#000032;fill-opacity:1;fill-rule:nonzero;stroke:none"
             id="path164" />
        </g>
        <g
           id="g166"
           transform="translate(312.4012,249.4876)">
          <path
             d="m 0,0 c -1.541,-0.308 -3.083,0.308 -4.316,1.541 -1.233,1.234 -1.85,2.467 -1.85,4.317 0,1.849 0.925,3.391 2.467,5.241 1.541,1.849 3.391,2.774 4.932,3.082 C 2.775,14.49 4.316,13.873 5.858,12.64 7.091,11.407 8.016,10.174 8.016,8.324 8.016,6.783 7.091,4.933 5.549,3.083 3.391,1.233 1.85,0.308 0,0 m 8.324,0 c 2.466,2.775 3.391,5.241 3.391,8.016 0,2.774 -1.233,5.241 -3.699,7.399 -1.233,1.233 -2.775,1.849 -4.008,2.466 -0.925,0.308 -2.158,0.617 -3.391,0.308 -1.233,0 -2.467,-0.308 -3.392,-0.925 -1.541,-0.616 -3.082,-1.849 -4.316,-3.391 -2.158,-2.466 -3.391,-5.241 -3.391,-8.015 0,-2.775 1.233,-5.241 3.7,-7.399 2.466,-2.158 4.932,-3.083 7.707,-2.775 C 3.7,-4.008 6.166,-2.466 8.324,0"
             style="fill:#000032;fill-opacity:1;fill-rule:nonzero;stroke:none"
             id="path168" />
        </g>
        <g
           id="g170"
           transform="translate(337.3729,238.6976)">
          <path
             d="m 0,0 -7.091,5.549 3.392,4.008 8.015,-6.474 2.467,2.774 -11.716,9.249 -13.564,-16.647 3.391,-2.775 5.857,7.091 7.091,-5.55 z"
             style="fill:#000032;fill-opacity:1;fill-rule:nonzero;stroke:none"
             id="path172" />
        </g>
        <g
           id="g174"
           transform="translate(349.3962,224.2077)">
          <path
             d="m 0,0 -4.624,3.391 7.09,4.625 z m -16.031,1.233 3.7,-2.774 4.316,2.774 7.09,-5.241 -1.541,-4.933 3.699,-2.774 5.858,22.505 -3.7,2.775 z"
             style="fill:#000032;fill-opacity:1;fill-rule:nonzero;stroke:none"
             id="path176" />
        </g>
        <g
           id="g178"
           transform="translate(370.9767,212.8011)">
          <path
             d="M 0,0 -2.158,-3.083 2.158,-5.858 0.617,-8.016 c -0.925,0 -1.85,0 -2.775,0.309 -0.925,0.308 -1.85,0.616 -2.466,0.924 -1.542,0.925 -2.467,2.467 -2.775,4.008 -0.308,1.85 0.308,3.7 1.85,5.858 1.233,1.849 2.774,3.083 4.316,3.699 1.542,0.309 3.083,0 4.933,-0.925 0.925,-0.616 1.849,-1.541 2.158,-2.466 0.308,-0.925 0.308,-1.85 0,-3.083 l 4.007,-1.85 c 0.617,1.85 0.925,3.7 0,5.55 C 9.249,5.857 7.707,7.399 5.549,8.94 3.7,10.173 2.158,10.79 0.617,10.79 c -2.158,0.309 -4.008,0 -5.55,-1.233 -1.849,-0.925 -3.391,-2.466 -4.624,-4.316 -1.233,-1.85 -1.85,-3.7 -2.158,-5.549 -0.308,-1.85 0,-3.7 0.925,-5.549 0.925,-1.85 2.158,-3.084 4.316,-4.317 1.541,-0.925 3.083,-1.541 4.933,-2.158 1.85,-0.308 3.391,-0.616 4.624,-0.308 l 4.624,7.091 z"
             style="fill:#000032;fill-opacity:1;fill-rule:nonzero;stroke:none"
             id="path180" />
        </g>
        <g
           id="g182"
           transform="translate(393.7904,195.2285)">
          <path
             d="m 0,0 -5.241,3.083 6.474,5.549 z m -16.031,-0.617 4.008,-2.466 4.007,3.391 7.399,-4.316 -0.924,-5.241 4.007,-2.466 3.391,23.122 -4.007,2.158 z"
             style="fill:#000032;fill-opacity:1;fill-rule:nonzero;stroke:none"
             id="path184" />
        </g>
        <g
           id="g186"
           transform="translate(419.0703,197.3865)">
          <path
             d="M 0,0 C -1.541,0.617 -2.775,1.233 -4.008,1.233 -5.241,1.233 -6.474,0.925 -7.399,0.616 -8.324,0 -9.249,-0.617 -9.557,-1.85 c -0.617,-1.541 -0.925,-3.083 0,-4.933 0.616,-1.233 1.542,-2.466 3.391,-4.007 1.542,-1.234 2.467,-2.158 2.775,-2.467 0.616,-0.616 0.925,-1.233 0.925,-1.541 0,-0.308 0,-0.925 -0.309,-1.233 -0.308,-0.617 -0.924,-1.233 -1.85,-1.542 -0.924,-0.308 -1.849,0 -3.391,0.617 -1.233,0.617 -1.849,1.233 -2.466,2.158 -0.308,0.925 -0.308,2.158 0,3.391 l -4.008,1.542 c -0.925,-2.158 -0.925,-4.316 0,-6.166 0.617,-1.85 2.467,-3.391 4.933,-4.625 1.542,-0.924 3.083,-1.233 4.624,-1.233 1.234,0 2.467,0.309 3.7,0.925 1.233,0.617 1.85,1.542 2.466,2.775 0.617,1.233 0.925,2.466 0.617,3.391 0,1.233 -0.617,2.158 -1.233,3.083 -0.617,0.925 -1.85,2.158 -3.7,3.391 -1.541,1.541 -2.774,2.466 -3.083,3.083 -0.308,0.616 -0.308,0.925 0,1.542 0.309,0.616 0.617,0.924 1.233,0.924 0.925,0 1.85,0 3.083,-0.616 1.233,-0.617 1.85,-1.234 2.159,-1.85 0.308,-0.617 0.308,-1.542 0,-2.775 l 4.007,-1.849 c 0.925,1.849 0.925,3.699 0.309,5.24 C 4.008,-2.775 2.466,-1.233 0,0"
             style="fill:#000032;fill-opacity:1;fill-rule:nonzero;stroke:none"
             id="path188" />
        </g>
        <g
           id="g190"
           transform="translate(447.4333,184.1299)">
          <path
             d="m 0,0 -16.031,6.782 -1.233,-3.391 5.857,-2.466 -6.782,-16.648 4.008,-1.85 6.782,16.648 5.857,-2.466 z"
             style="fill:#000032;fill-opacity:1;fill-rule:nonzero;stroke:none"
             id="path192" />
        </g>
        <g
           id="g194"
           transform="translate(451.7494,168.7153)">
          <path
             d="M 0,0 5.241,6.782 5.549,-1.85 Z m 4.933,12.331 -15.107,-17.88 4.316,-1.542 3.392,4.008 8.323,-2.775 0.309,-5.241 4.624,-1.541 -1.233,23.43 z"
             style="fill:#000032;fill-opacity:1;fill-rule:nonzero;stroke:none"
             id="path196" />
        </g>
        <g
           id="g198"
           transform="translate(488.7444,171.4896)">
          <path
             d="m 0,0 -4.316,0.925 -4.625,-20.964 15.107,-3.083 0.616,3.391 -10.481,2.467 z"
             style="fill:#000032;fill-opacity:1;fill-rule:nonzero;stroke:none"
             id="path200" />
        </g>
        <g
           id="g202"
           transform="translate(509.0916,154.8421)">
          <path
             d="M 0,0 4.008,7.707 6.166,-0.617 Z M 2.158,12.948 -8.941,-7.707 -4.316,-8.324 -1.85,-3.7 6.782,-4.625 8.015,-9.866 12.64,-10.482 6.474,12.023 Z"
             style="fill:#000032;fill-opacity:1;fill-rule:nonzero;stroke:none"
             id="path204" />
        </g>
        <g
           id="g206"
           transform="translate(546.3948,162.2409)">
          <path
             d="m 0,0 h 3.083 c 0.617,0 1.233,-0.308 1.85,-0.925 0.616,-0.616 0.616,-1.233 0.616,-1.85 0,-0.616 0,-1.233 -0.616,-1.849 C 4.625,-5.241 4.316,-5.549 3.7,-5.857 3.083,-6.166 1.85,-6.166 0.309,-6.166 H -2.158 V 0 Z m -5.857,-18.189 h 4.316 l -0.308,8.324 h 2.774 c 1.85,0 3.391,0.308 4.624,0.308 0.617,0.308 1.542,0.617 2.158,0.925 0.617,0.617 1.234,1.233 1.85,2.158 0.617,0.925 0.617,2.158 0.617,3.391 0,1.85 -0.617,3.083 -1.233,4.316 C 8.016,2.158 7.091,3.083 5.858,3.391 4.933,3.7 3.391,3.7 0.617,3.7 h -7.091 z"
             style="fill:#000032;fill-opacity:1;fill-rule:nonzero;stroke:none"
             id="path208" />
        </g>
        <g
           id="g210"
           transform="translate(569.2086,148.9844)">
          <path
             d="m 0,0 -0.617,5.858 10.791,1.233 -0.309,3.699 -10.79,-1.233 -0.616,4.625 11.715,1.541 -0.617,3.391 -16.031,-1.541 2.466,-21.581 16.34,1.85 -0.309,3.391 z"
             style="fill:#000032;fill-opacity:1;fill-rule:nonzero;stroke:none"
             id="path212" />
        </g>
        <g
           id="g214"
           transform="translate(594.1804,167.1736)">
          <path
             d="m 0,0 c 1.849,0.308 2.775,0.617 3.083,0.617 0.616,0 1.233,0 1.85,-0.617 0.616,-0.308 0.924,-0.925 0.924,-1.541 V -3.083 C 5.549,-3.699 5.241,-4.008 4.933,-4.316 4.316,-4.624 3.083,-4.933 1.233,-5.241 l -3.083,-0.616 -1.233,5.241 z m -4.316,-19.114 4.316,0.925 -1.85,8.94 0.925,0.308 c 0.925,0.309 1.85,0.309 2.158,0.309 0.616,0 0.925,-0.309 1.542,-0.617 0.616,-0.308 1.541,-1.233 2.774,-2.774 l 4.008,-4.008 5.241,0.925 -3.391,3.699 c -1.234,1.542 -2.467,2.466 -3.083,3.083 -0.617,0.617 -1.542,0.925 -2.775,1.233 1.85,0.617 3.083,1.542 3.7,2.775 C 9.865,-3.083 10.173,-1.541 9.865,0 9.557,1.233 8.941,2.158 8.324,3.083 7.399,4.008 6.474,4.316 5.549,4.625 4.316,4.933 2.775,4.625 0.617,4.316 l -8.941,-1.85 z"
             style="fill:#000032;fill-opacity:1;fill-rule:nonzero;stroke:none"
             id="path216" />
        </g>
        <g
           id="g218"
           transform="translate(630.5588,158.2334)">
          <path
             d="M 0,0 -0.925,3.391 -11.407,0.308 -16.34,17.573 -20.656,16.339 -14.49,-4.316 Z"
             style="fill:#000032;fill-opacity:1;fill-rule:nonzero;stroke:none"
             id="path220" />
        </g>
        <g
           id="g222"
           transform="translate(639.8075,179.1973)">
          <path
             d="M 0,0 5.549,-6.474 0,-8.632 Z m 0.308,-12.64 8.016,3.083 3.391,-4.008 4.316,1.85 L 0.308,5.549 -4.008,4.008 v -23.122 l 4.316,1.541 z"
             style="fill:#000032;fill-opacity:1;fill-rule:nonzero;stroke:none"
             id="path224" />
        </g>
        <g
           id="g226"
           transform="translate(670.02,193.9952)">
          <path
             d="m 0,0 c 1.542,0.925 2.775,1.233 3.391,1.541 0.925,0.309 1.542,0.309 2.158,0 0.617,-0.308 1.542,-0.616 2.159,-1.233 0.616,-0.616 1.541,-1.849 2.158,-3.083 0.924,-1.541 1.233,-2.774 1.541,-3.699 0.309,-0.925 0.309,-1.85 0,-2.467 -0.308,-0.616 -0.617,-1.233 -1.233,-1.541 -0.308,-0.308 -1.233,-0.925 -2.158,-1.541 l -2.775,-1.542 -6.474,12.64 z m 9.866,-15.106 c 1.541,0.616 2.466,1.541 3.082,2.158 0.925,0.924 1.542,1.849 1.85,3.083 0.308,1.233 0.617,2.774 0.308,4.316 -0.308,1.233 -0.616,2.774 -1.541,4.316 C 12.64,0.617 11.715,1.85 10.482,3.083 9.557,4.008 8.324,4.933 7.091,5.241 5.858,5.549 4.625,5.857 3.391,5.549 2.466,5.241 1.233,4.933 -0.308,4.008 l -7.091,-3.7 9.865,-19.114 z"
             style="fill:#000032;fill-opacity:1;fill-rule:nonzero;stroke:none"
             id="path228" />
        </g>
        <g
           id="g230"
           transform="translate(709.7897,196.1532)">
          <path
             d="m 0,0 -1.85,3.083 -10.173,-6.166 -3.083,4.933 9.249,5.549 -1.85,3.083 -9.557,-5.549 -2.467,4.008 10.174,6.165 -1.85,3.083 -13.873,-8.324 11.407,-18.497 z"
             style="fill:#000032;fill-opacity:1;fill-rule:nonzero;stroke:none"
             id="path232" />
        </g>
        <g
           id="g234"
           transform="translate(729.2122,209.4098)">
          <path
             d="m 0,0 -2.158,3.083 -8.941,-6.474 -10.173,14.798 -3.391,-2.466 12.332,-17.573 z"
             style="fill:#000032;fill-opacity:1;fill-rule:nonzero;stroke:none"
             id="path236" />
        </g>
        <g
           id="g238"
           transform="translate(747.4014,223.5911)">
          <path
             d="M 0,0 -8.941,10.79 6.782,5.549 10.174,8.324 -3.699,24.972 -6.783,22.505 2.466,11.099 -13.565,16.648 -16.956,13.873 -3.083,-2.775 Z"
             style="fill:#000032;fill-opacity:1;fill-rule:nonzero;stroke:none"
             id="path240" />
        </g>
        <g
           id="g242"
           transform="translate(758.8081,257.8116)">
          <path
             d="m 0,0 c 1.233,1.233 2.775,1.85 4.316,1.541 1.542,0 3.391,-1.233 4.933,-3.082 1.85,-1.85 2.466,-3.7 2.774,-5.242 0,-1.541 -0.616,-3.082 -1.849,-4.316 -1.233,-1.232 -2.775,-1.849 -4.316,-1.541 -1.542,0 -3.392,1.233 -4.933,2.775 -1.85,1.85 -2.466,3.699 -2.466,5.241 C -1.85,-2.775 -1.233,-1.233 0,0 m -2.466,-12.948 c 2.466,-2.467 4.932,-4.008 7.707,-4.008 2.775,0 5.241,0.925 7.707,3.083 2.467,2.158 3.392,4.624 3.7,7.399 0,2.775 -1.233,5.549 -3.391,8.015 C 10.79,4.008 8.324,5.549 5.549,5.549 2.775,5.549 0.308,4.625 -2.158,2.466 -3.391,1.233 -4.316,0 -4.933,-1.233 c -0.308,-0.925 -0.616,-2.158 -0.616,-3.391 0,-1.233 0.308,-2.467 0.616,-3.7 0,-1.233 0.925,-2.775 2.467,-4.624"
             style="fill:#000032;fill-opacity:1;fill-rule:nonzero;stroke:none"
             id="path244" />
        </g>
        <g
           id="g246"
           transform="translate(778.5391,268.9101)">
          <path
             d="m 0,0 -4.008,3.699 2.467,2.467 c 1.233,1.233 1.849,2.158 2.158,2.158 0.616,0.308 1.233,0.617 1.849,0.617 0.617,0 1.233,-0.309 1.542,-0.926 0.617,-0.308 0.617,-0.924 0.925,-1.541 0,-0.617 0,-0.925 -0.309,-1.541 C 4.316,4.316 3.699,3.391 2.158,1.85 Z m 8.941,-8.941 -6.475,6.166 0.617,0.617 c 0.616,0.617 1.233,1.233 1.85,1.541 0.308,0.309 0.924,0.309 1.541,0.309 0.617,0 1.85,-0.309 4.008,-0.617 l 5.549,-0.925 3.7,3.7 -4.933,0.925 c -1.85,0.308 -3.391,0.616 -4.316,0.616 -0.925,0 -1.85,0 -3.083,-0.308 1.233,1.542 1.542,3.083 1.542,4.624 0,1.542 -0.617,2.775 -1.85,3.7 -0.925,0.925 -1.85,1.541 -3.083,1.541 -1.233,0.309 -2.158,0 -3.392,-0.308 -0.924,-0.617 -2.158,-1.541 -4.007,-3.391 L -9.865,2.466 5.857,-12.64 Z"
             style="fill:#000032;fill-opacity:1;fill-rule:nonzero;stroke:none"
             id="path248" />
        </g>
        <g
           id="g250"
           transform="translate(791.7956,291.4153)">
          <path
             d="M 0,0 13.873,-11.715 16.648,-8.324 3.083,3.391 7.091,8.324 4.316,10.79 -6.782,-2.466 -4.008,-4.933 Z"
             style="fill:#000032;fill-opacity:1;fill-rule:nonzero;stroke:none"
             id="path252" />
        </g>
        <g
           id="g254"
           transform="translate(826.9408,306.5218)">
          <path
             d="m 0,0 -2.775,2.158 -7.399,-9.557 -4.624,3.7 6.474,8.632 -2.775,2.158 -6.782,-8.632 -3.699,2.774 7.09,9.249 -2.774,2.466 L -27.13,0 -9.865,-12.948 Z"
             style="fill:#000032;fill-opacity:1;fill-rule:nonzero;stroke:none"
             id="path256" />
        </g>
        <g
           id="g258"
           transform="translate(508.1244,285.0284)">
          <path
             d="M 0,0 13.584,-3.185 22.264,8.389 17.59,22.999 3.411,27.339 -5.303,16.594 C -5.249,15.32 -4.729,8.47 0,0"
             style="fill:#ffffff;fill-opacity:1;fill-rule:nonzero;stroke:none"
             id="path260" />
        </g>
        <g
           id="g262"
           transform="translate(547.4866,269.2649)">
          <path
             d="M 0,0 7.769,12.533 -0.813,23.189 H -15.791 L -24.482,11.602 -18.11,0.155 C -16.843,-0.25 -10.028,-2.133 0,0"
             style="fill:#ffffff;fill-opacity:1;fill-rule:nonzero;stroke:none"
             id="path264" />
        </g>
        <g
           id="g266"
           transform="translate(510.546,326.9818)">
          <path
             d="m 0,0 1.452,-13.059 14.193,-4.344 11.684,9.055 -0.068,14.737 -13.707,4.523 C 11.977,10.148 3.586,5.873 0,0"
             style="fill:#ffffff;fill-opacity:1;fill-rule:nonzero;stroke:none"
             id="path268" />
        </g>
        <g
           id="g270"
           transform="translate(569.6535,285.4047)">
          <path
             d="m 0,0 c 0.787,1.137 5.062,7.79 5.435,18.121 l -9.208,9.345 -12.991,-4.215 -4.919,-15.224 8.597,-10.681 z"
             style="fill:#ffffff;fill-opacity:1;fill-rule:nonzero;stroke:none"
             id="path272" />
        </g>
        <g
           id="g274"
           transform="translate(565.3728,314.4111)">
          <path
             d="m 0,0 1.751,12.832 c -5.795,7.315 -14.145,11.019 -15.776,11.691 l -11.92,-5.494 0.068,-14.764 12.873,-8.488 z"
             style="fill:#ffffff;fill-opacity:1;fill-rule:nonzero;stroke:none"
             id="path276" />
        </g>
        <g
           id="g278"
           transform="translate(549.2798,347.3938)">
          <path
             d="m 0,0 2.676,-6.954 c 1.783,-0.723 10.303,-4.468 16.403,-12.143 H 26.54 C 20.536,-9.714 11.098,-2.767 0,0"
             style="fill:#ffffff;fill-opacity:1;fill-rule:nonzero;stroke:none"
             id="path280" />
        </g>
        <g
           id="g282"
           transform="translate(582.6057,308.2455)">
          <path
             d="m 0,0 -5.9,-4.824 c -0.395,-10.633 -4.657,-17.415 -5.682,-18.891 l 2.193,-7.338 c 5.976,7.536 9.575,17.039 9.575,27.381 C 0.186,-2.433 0.101,-1.214 0,0"
             style="fill:#ffffff;fill-opacity:1;fill-rule:nonzero;stroke:none"
             id="path284" />
        </g>
        <g
           id="g286"
           transform="translate(506.7287,284.204)">
          <path
             d="m 0,0 c -4.895,8.744 -5.465,15.728 -5.528,17.317 l -6.621,5.823 c -0.058,-0.921 -0.141,-1.835 -0.141,-2.77 0,-10.975 4.047,-21.004 10.695,-28.738 z"
             style="fill:#ffffff;fill-opacity:1;fill-rule:nonzero;stroke:none"
             id="path288" />
        </g>
        <g
           id="g290"
           transform="translate(554.3743,263.3536)">
          <path
             d="m 0,0 -6.562,4.318 c -3.621,-0.77 -6.843,-1.048 -9.556,-1.048 -4.958,0 -8.217,0.884 -9.302,1.228 l -6.31,-4.421 c 4.961,-1.932 10.335,-3.034 15.971,-3.034 5.557,0 10.856,1.076 15.759,2.957"
             style="fill:#ffffff;fill-opacity:1;fill-rule:nonzero;stroke:none"
             id="path292" />
        </g>
        <g
           id="g294"
           transform="translate(501.0656,327.729)">
          <path
             d="m 0,0 8.196,0.247 c 3.89,6.218 12.356,10.526 14.114,11.371 l 2.336,7.47 C 14.296,15.92 5.587,9.027 0,0"
             style="fill:#ffffff;fill-opacity:1;fill-rule:nonzero;stroke:none"
             id="path296" />
        </g>
        <g
           id="g298"
           transform="translate(497.685,924.6475)">
          <path
             d="M 0,0 C 0,22.986 18.633,41.62 41.619,41.62 64.605,41.62 83.238,22.986 83.238,0 83.238,-22.985 64.605,-41.619 41.619,-41.619 18.633,-41.619 0,-22.985 0,0 m -124.55,-120.796 c 3.667,0.935 6.959,1.79 9.749,2.525 l 0.167,0.044 0.167,0.041 c 79.956,19.869 137.197,21.413 152.836,21.413 1.468,0 2.544,-0.013 3.216,-0.024 0.671,0.011 1.748,0.024 3.216,0.024 15.633,0 72.855,-1.544 152.812,-21.413 l 0.167,-0.041 0.167,-0.044 c 2.655,-0.699 5.771,-1.509 9.225,-2.391 v 38.965 H 70.815 c 33.439,12.078 57.342,44.093 57.342,81.697 0,47.964 -38.882,86.847 -86.846,86.847 -47.964,0 -86.847,-38.883 -86.847,-86.847 0,-37.604 23.904,-69.619 57.343,-81.697 H -124.55 Z"
             style="fill:#fdd92a;fill-opacity:1;fill-rule:nonzero;stroke:none"
             id="path300" />
        </g>
        <g
           id="g302"
           transform="translate(568.6835,326.6754)">
          <path
             d="m 0,0 -1.719,-12.592 9.02,-9.156 6.413,5.241 C 12.956,-10.553 11.014,-4.975 8.123,0 Z"
             style="fill:#5db2dc;fill-opacity:1;fill-rule:nonzero;stroke:none"
             id="path304" />
        </g>
        <g
           id="g306"
           transform="translate(538.6152,348.7498)">
          <path
             d="m 0,0 c -3.823,0 -7.515,-0.539 -11.055,-1.457 l -2.505,-8.008 13.51,-4.455 11.733,5.405 -2.941,7.639 C 5.915,-0.306 2.993,0 0,0"
             style="fill:#5db2dc;fill-opacity:1;fill-rule:nonzero;stroke:none"
             id="path308" />
        </g>
        <g
           id="g310"
           transform="translate(510.4061,313.5497)">
          <path
             d="m 0,0 -1.422,12.796 -8.924,-0.27 C -13.169,7.483 -15.038,1.842 -15.693,-4.167 l 7.189,-6.321 z"
             style="fill:#5db2dc;fill-opacity:1;fill-rule:nonzero;stroke:none"
             id="path312" />
        </g>
        <g
           id="g314"
           transform="translate(527.758,268.992)">
          <path
             d="m 0,0 -6.252,11.235 -13.291,3.116 -1.717,-9.008 c 4.036,-4.285 8.897,-7.771 14.353,-10.178 z"
             style="fill:#5db2dc;fill-opacity:1;fill-rule:nonzero;stroke:none"
             id="path316" />
        </g>
        <g
           id="g318"
           transform="translate(571.9713,275.6971)">
          <path
             d="m 0,0 -2.403,8.039 -12.818,-2.603 -7.66,-12.36 7.13,-4.693 C -9.66,-8.959 -4.297,-4.957 0,0"
             style="fill:#5db2dc;fill-opacity:1;fill-rule:nonzero;stroke:none"
             id="path320" />
        </g>
        <g
           id="g322"
           transform="translate(527.3018,308.385)">
          <path
             d="M 0,0 4.579,-14.31 H 19.171 L 23.983,0.573 11.424,8.854 Z"
             style="fill:#5db2dc;fill-opacity:1;fill-rule:nonzero;stroke:none"
             id="path324" />
        </g>
        <g
           id="g326"
           transform="translate(573.2172,277.1922)">
          <path
             d="m 0,0 -2.193,7.338 c 1.024,1.476 5.286,8.258 5.681,18.891 l 5.901,4.824 C 9.489,29.839 9.575,28.621 9.575,27.381 9.575,17.039 5.976,7.536 0,0 m -16.997,-13.113 -7.13,4.694 7.661,12.36 12.817,2.603 2.403,-8.039 c -4.297,-4.957 -9.66,-8.959 -15.751,-11.618 m -33.575,-0.648 6.309,4.42 c 1.085,-0.343 4.345,-1.228 9.303,-1.228 2.712,0 5.934,0.278 9.555,1.049 l 6.562,-4.319 c -4.903,-1.881 -10.202,-2.956 -15.759,-2.956 -5.636,0 -11.01,1.101 -15.97,3.034 m -16.147,10.903 1.717,9.009 13.291,-3.117 6.252,-11.234 -6.907,-4.835 c -5.456,2.407 -10.317,5.893 -14.353,10.177 m -11.919,33.01 6.622,-5.824 c 0.063,-1.588 0.633,-8.572 5.528,-17.316 l -1.595,-8.369 c -6.648,7.734 -10.695,17.764 -10.695,28.738 0,0.935 0.083,1.85 0.14,2.771 m 31.133,39.473 -2.336,-7.47 C -51.6,61.31 -60.066,57.002 -63.956,50.784 l -8.196,-0.247 c 5.588,9.026 14.297,15.92 24.647,19.088 m 21.646,1.056 2.94,-7.638 -11.733,-5.406 -13.51,4.456 2.505,8.008 c 3.54,0.917 7.232,1.457 11.055,1.457 2.993,0 5.915,-0.307 8.743,-0.877 M 2.603,51.104 h -7.462 c -6.1,7.675 -14.619,11.42 -16.402,12.144 l -2.676,6.954 C -12.839,67.435 -3.402,60.487 2.603,51.104 M -6.252,36.891 -4.534,49.483 H 3.589 C 6.48,44.508 8.423,38.93 9.18,32.976 L 2.767,27.735 Z m -18.995,-20.651 4.92,15.223 12.991,4.215 9.207,-9.344 C 1.498,16.002 -2.777,9.349 -3.564,8.213 L -16.65,5.559 Z m -16.275,-0.979 h 14.979 l 8.581,-10.655 -7.769,-12.533 c -10.028,-2.133 -16.842,-0.251 -18.11,0.154 l -6.372,11.448 z m -5.504,17.125 -14.194,4.344 -1.451,13.06 c 3.586,5.872 11.977,10.148 13.554,10.912 l 13.707,-4.523 0.068,-14.738 z m 13.236,23.862 11.92,5.494 c 1.632,-0.672 9.981,-4.376 15.777,-11.691 l -1.751,-12.832 -13.004,-4.223 -12.873,8.487 z m 11.857,-24.482 -4.812,-14.883 h -14.591 l -4.579,14.31 11.423,8.854 z m -39.749,3.409 14.179,-4.34 4.674,-14.61 -8.68,-11.574 -13.584,3.185 c -4.728,8.47 -5.249,15.32 -5.303,16.594 z m -11.475,13.709 8.924,0.27 1.422,-12.796 -8.504,-10.488 -7.189,6.321 c 0.655,6.008 2.523,11.65 5.347,16.693 m 38.555,24.295 c -25.293,0 -45.797,-20.504 -45.797,-45.798 0,-25.293 20.504,-45.797 45.797,-45.797 25.294,0 45.798,20.504 45.798,45.797 0,25.294 -20.504,45.798 -45.798,45.798"
             style="fill:#000032;fill-opacity:1;fill-rule:nonzero;stroke:none"
             id="path328" />
        </g>
      </g>
    </g>
  </g>
</svg>
