<?xml version="1.0" standalone="no"?>
<!DOCTYPE svg PUBLIC "-//W3C//DTD SVG 20010904//EN"
 "http://www.w3.org/TR/2001/REC-SVG-20010904/DTD/svg10.dtd">
<svg version="1.0" xmlns="http://www.w3.org/2000/svg"
 width="1200.000000pt" height="1274.000000pt" viewBox="0 0 1200.000000 1274.000000"
 preserveAspectRatio="xMidYMid meet">

<g transform="translate(0.000000,1274.000000) scale(0.100000,-0.100000)"
fill="#000000" stroke="none">
<path d="M0 6370 l0 -6370 6000 0 6000 0 0 6370 0 6370 -6000 0 -6000 0 0
-6370z m6488 5058 l2 -218 430 0 430 0 0 -67 c0 -60 8 -84 81 -262 230 -558
470 -1291 634 -1936 31 -121 59 -228 61 -237 5 -17 -101 -18 -2126 -18 -2025
0 -2131 1 -2126 18 2 9 30 116 61 237 164 645 404 1378 634 1936 73 178 81
202 81 262 l0 67 430 0 430 0 0 213 c0 118 3 217 7 220 3 4 223 6 487 5 l481
-3 3 -217z m-3963 -703 c186 -51 329 -163 403 -316 63 -129 70 -117 -98 -154
-80 -17 -157 -35 -172 -38 -18 -5 -28 -3 -28 3 0 31 -60 127 -103 165 -67 61
-141 88 -247 89 -108 1 -174 -16 -250 -64 -123 -80 -179 -206 -187 -425 -6
-145 9 -258 48 -360 16 -44 38 -76 83 -121 73 -73 143 -103 256 -111 187 -13
332 86 395 270 10 31 23 57 28 57 12 0 319 -89 324 -94 8 -8 -18 -78 -59 -158
-50 -97 -145 -201 -229 -251 -219 -129 -572 -137 -810 -16 -127 64 -259 197
-319 324 -59 123 -74 201 -74 390 -1 208 14 286 85 432 97 202 271 333 515
387 92 21 352 15 439 -9z m7543 9 c216 -44 375 -162 458 -339 53 -113 60 -104
-106 -140 -80 -17 -157 -34 -172 -38 -24 -6 -28 -3 -39 31 -30 90 -105 167
-198 203 -67 26 -199 31 -278 10 -72 -18 -165 -80 -207 -138 -106 -144 -128
-479 -45 -698 16 -44 38 -76 83 -121 73 -73 143 -103 256 -111 187 -13 332 86
395 270 10 31 23 57 28 57 12 0 319 -89 324 -94 8 -8 -18 -78 -59 -158 -50
-97 -145 -201 -229 -251 -219 -129 -572 -137 -810 -16 -126 63 -259 197 -318
322 -61 127 -76 204 -76 392 0 208 16 287 86 432 40 83 63 116 122 176 110
111 240 180 397 212 93 19 295 18 388 -1z m-7428 -2401 c0 -10 -7 -94 -16
-188 -21 -233 -30 -1059 -15 -1355 40 -785 148 -1489 326 -2126 88 -318 242
-740 361 -992 30 -64 53 -119 52 -124 -7 -18 -304 376 -480 637 -821 1213
-1401 2605 -1662 3993 l-33 172 734 0 c692 0 733 -1 733 -17z m5577 -48 c52
-227 114 -647 142 -960 139 -1535 -85 -2957 -649 -4122 -307 -633 -647 -1112
-1139 -1603 -186 -186 -459 -429 -545 -485 -33 -22 -29 -24 -229 143 -186 155
-544 510 -697 692 -713 848 -1177 1878 -1380 3065 -162 945 -159 1981 6 2970
23 139 59 323 69 353 4 10 450 12 2206 10 l2202 -3 14 -60z m2577 -107 c-261
-1388 -841 -2779 -1662 -3993 -176 -261 -473 -655 -480 -637 -1 5 22 60 52
124 119 252 273 674 361 992 178 637 286 1341 326 2126 15 296 6 1122 -15
1355 -9 94 -16 178 -16 188 0 16 41 17 733 17 l734 0 -33 -172z"/>
<path d="M5310 9930 l0 -790 343 0 c479 0 597 14 748 90 151 77 267 234 320
435 30 110 33 379 6 504 -49 228 -168 392 -350 480 -131 65 -191 71 -663 71
l-404 0 0 -790z m719 520 c261 -28 360 -171 360 -520 0 -148 -17 -258 -54
-337 -32 -70 -66 -108 -125 -138 -73 -37 -139 -45 -355 -45 l-205 0 0 525 0
525 143 0 c78 0 184 -5 236 -10z"/>
<path d="M5616 7880 c-14 -17 -28 -46 -32 -66 -7 -36 -1 -107 11 -135 6 -15
-14 -17 -197 -22 -213 -5 -311 -18 -466 -63 -99 -29 -247 -96 -319 -145 -53
-36 -163 -137 -163 -150 0 -4 28 4 62 18 34 14 92 31 128 39 69 15 210 19 210
7 0 -5 -40 -27 -88 -51 -244 -121 -510 -371 -705 -666 -57 -85 -217 -381 -217
-401 0 -4 25 16 56 43 55 49 151 108 160 99 3 -3 -4 -23 -15 -45 -114 -224
-211 -694 -211 -1022 l0 -65 44 90 c49 103 122 189 190 226 25 13 48 21 51 17
4 -3 -7 -44 -23 -90 -39 -109 -78 -285 -93 -418 -15 -133 -6 -363 20 -490 26
-132 82 -299 92 -274 92 255 128 321 231 430 54 57 89 83 150 114 44 22 84 38
88 35 4 -2 4 -24 -1 -47 -4 -24 -8 -99 -9 -168 -1 -517 265 -979 754 -1310 80
-53 246 -150 258 -150 5 0 -3 17 -16 38 -87 138 -138 278 -144 398 -5 101 9
144 65 195 53 50 91 63 178 62 189 -1 372 -92 491 -241 58 -73 137 -234 165
-337 41 -151 13 -275 -72 -319 -34 -17 -34 -17 66 -11 179 10 312 50 360 107
23 27 26 28 32 11 4 -10 8 -63 8 -118 0 -116 -20 -173 -83 -238 l-37 -38 71
25 c40 15 94 38 120 53 69 38 175 147 207 213 32 65 57 174 57 248 l0 52 93 0
c164 0 303 48 400 138 46 44 107 133 107 158 0 7 -28 1 -72 -16 -91 -35 -170
-46 -227 -30 -55 15 -116 70 -137 126 -17 44 -16 46 3 72 13 17 39 32 72 42
l53 15 -46 22 c-59 29 -126 90 -143 130 -21 51 -17 63 20 63 83 0 160 47 198
121 18 37 25 69 13 69 -3 0 -28 -7 -55 -16 -35 -12 -72 -15 -127 -12 -166 10
-295 121 -400 347 -81 171 -25 279 108 211 l39 -20 -19 46 c-27 62 -26 115 3
142 18 17 47 24 157 37 151 17 280 45 349 76 141 62 119 137 -73 235 -137 71
-223 130 -302 209 -99 98 -117 161 -63 229 50 63 210 109 384 110 127 1 187
-22 211 -81 20 -48 14 -87 -31 -181 -19 -41 -35 -76 -35 -79 0 -3 35 -3 78 1
180 16 301 64 380 151 67 73 87 132 87 255 l0 95 44 0 c38 1 48 6 77 39 44 51
64 96 64 146 0 82 -66 150 -165 170 -33 7 -102 26 -154 42 -344 109 -555 297
-605 540 -16 78 -52 134 -131 207 -151 137 -413 241 -725 285 -40 6 -47 11
-64 47 -28 57 -149 168 -231 211 -73 38 -177 71 -329 107 -98 22 -158 56 -184
102 -10 16 -20 29 -24 29 -3 0 -18 -14 -32 -30z m1333 -1171 c55 -40 101 -76
101 -80 0 -15 -67 -21 -108 -10 -75 21 -143 102 -127 152 9 26 14 24 134 -62z"/>
</g>
</svg>
