<?xml version="1.0" encoding="UTF-8" standalone="no"?>
<!-- Created with Inkscape (http://www.inkscape.org/) -->

<svg
   version="1.1"
   id="svg2"
   width="1440"
   height="1440"
   viewBox="0 0 1440 1440"
   sodipodi:docname="Magallanes.ai"
   xmlns:inkscape="http://www.inkscape.org/namespaces/inkscape"
   xmlns:sodipodi="http://sodipodi.sourceforge.net/DTD/sodipodi-0.dtd"
   xmlns="http://www.w3.org/2000/svg"
   xmlns:svg="http://www.w3.org/2000/svg">
  <defs
     id="defs6">
    <clipPath
       clipPathUnits="userSpaceOnUse"
       id="clipPath44">
      <path
         d="M 0,1080 H 1080 V 0 H 0 Z"
         id="path42" />
    </clipPath>
  </defs>
  <sodipodi:namedview
     id="namedview4"
     pagecolor="#ffffff"
     bordercolor="#000000"
     borderopacity="0.25"
     inkscape:showpageshadow="2"
     inkscape:pageopacity="0.0"
     inkscape:pagecheckerboard="0"
     inkscape:deskcolor="#d1d1d1" />
  <g
     id="g8"
     inkscape:groupmode="layer"
     inkscape:label="Magallanes"
     transform="matrix(1.3333333,0,0,-1.3333333,0,1440)">
    <g
       id="g10"
       transform="translate(131.3968,645.2253)">
      <path
         d="M 0,0 55.436,-325.226 408.573,-589.108 757.83,-325.226 816.962,0 Z"
         style="fill:#ffffff;fill-opacity:1;fill-rule:nonzero;stroke:none"
         id="path12" />
    </g>
    <g
       id="g14"
       transform="translate(475.9398,645.2253)">
      <path
         d="m 0,0 v -541.262 l 64.03,-47.846 65.323,49.355 V 0 Z"
         style="fill:#7fc7ec;fill-opacity:1;fill-rule:nonzero;stroke:none"
         id="path16" />
    </g>
    <g
       id="g18"
       transform="translate(131.3968,645.2253)">
      <path
         d="m 0,0 55.436,-325.226 58.891,-44.007 V 0 Z"
         style="fill:#f4df4a;fill-opacity:1;fill-rule:nonzero;stroke:none"
         id="path20" />
    </g>
    <g
       id="g22"
       transform="translate(834.1983,645.2253)">
      <path
         d="M 0,0 V -366.803 L 55.029,-325.226 114.161,0 Z"
         style="fill:#f4df4a;fill-opacity:1;fill-rule:nonzero;stroke:none"
         id="path24" />
    </g>
    <g
       id="g26"
       transform="translate(268.4178,645.2253)">
      <path
         d="m 0,0 v -386.19 l 129.357,-96.663 V 0 Z"
         style="fill:#7fc7ec;fill-opacity:1;fill-rule:nonzero;stroke:none"
         id="path28" />
    </g>
    <g
       id="g30"
       transform="translate(683.4582,645.2253)">
      <path
         d="m 0,0 v -480.695 l 129.367,97.743 V 0 Z"
         style="fill:#7fc7ec;fill-opacity:1;fill-rule:nonzero;stroke:none"
         id="path32" />
    </g>
    <g
       id="g34"
       transform="translate(951.378,654.8104)">
      <path
         d="m 0,0 -822.757,-3.66 0.455,172.922 H 0 Z"
         style="fill:#ecdb79;fill-opacity:1;fill-rule:nonzero;stroke:none"
         id="path36" />
    </g>
    <g
       id="g38">
      <g
         id="g40"
         clip-path="url(#clipPath44)">
        <g
           id="g46"
           transform="translate(136.2061,816.9208)">
          <path
             d="m 0,0 -0.419,-158.588 808.446,3.595 V 0 Z m 815.176,-162.107 h 0.14 z M -7.588,-172.921 c -1.892,0 -3.707,0.754 -5.048,2.088 -1.354,1.347 -2.108,3.176 -2.101,5.082 l 0.461,172.92 c 0.014,3.938 3.211,7.128 7.148,7.128 h 822.304 c 3.951,0 7.149,-3.197 7.149,-7.149 v -169.255 c 0,-3.937 -3.184,-7.128 -7.121,-7.149 l -822.758,-3.665 z"
             style="fill:#1a1917;fill-opacity:1;fill-rule:nonzero;stroke:none"
             id="path48" />
        </g>
        <g
           id="g50"
           transform="translate(137.1834,659.874)">
          <path
             d="M 0,0 V 156.09 H 806.087 V 3.045 Z"
             style="fill:#f4df4a;fill-opacity:1;fill-rule:nonzero;stroke:none"
             id="path52" />
        </g>
        <g
           id="g54"
           transform="translate(140.7576,812.3898)">
          <path
             d="m 0,0 v -148.926 l 798.938,3.015 V 0 Z m -3.574,-156.089 c -0.943,0 -1.85,0.377 -2.52,1.04 -0.678,0.67 -1.054,1.585 -1.054,2.534 V 3.575 c 0,1.975 1.598,3.574 3.574,3.574 h 806.087 c 1.968,0 3.574,-1.599 3.574,-3.574 v -153.046 c 0,-1.969 -1.592,-3.567 -3.56,-3.574 L -3.56,-156.089 Z"
             style="fill:#ffffff;fill-opacity:1;fill-rule:nonzero;stroke:none"
             id="path56" />
        </g>
        <g
           id="g58"
           transform="translate(212.7882,788.741)">
          <path
             d="m 0,0 10.136,-60.47 h 0.266 L 20.538,0 H 56.477 V -102.077 H 32.965 v 76.066 H 32.699 L 19.324,-102.077 H 1.215 l -13.376,76.066 h -0.265 v -76.066 h -23.513 l 0,102.077 z"
             style="fill:#1a1917;fill-opacity:1;fill-rule:nonzero;stroke:none"
             id="path60" />
        </g>
        <g
           id="g62"
           transform="translate(310.2155,767.8677)">
          <path
             d="M 0,0 -6.897,-43.31 H 7.148 L 0.265,0 Z M 15.931,20.873 39.443,-81.203 H 12.691 l -2.569,17.871 H -9.871 L -12.44,-81.203 H -38.787 L -15.68,20.873 Z"
             style="fill:#1a1917;fill-opacity:1;fill-rule:nonzero;stroke:none"
             id="path64" />
        </g>
        <g
           id="g66"
           transform="translate(417.2071,742.1355)">
          <path
             d="m 0,0 v -55.471 h -17.034 l -0.53,9.005 h -0.28 c -0.81,-2.192 -1.954,-4.007 -3.435,-5.431 -1.493,-1.424 -3.155,-2.499 -4.998,-3.211 -1.857,-0.726 -3.839,-1.215 -5.948,-1.508 -2.122,-0.28 -4.258,-0.433 -6.422,-0.433 -6.395,0 -11.435,1.131 -15.135,3.365 -3.686,2.234 -6.479,5.599 -8.377,10.081 -1.885,4.481 -3.086,10.01 -3.575,16.587 -0.502,6.576 -0.739,14.101 -0.739,22.59 0,8.573 0.474,16.154 1.41,22.73 0.949,6.577 2.75,12.105 5.403,16.587 2.667,4.468 6.325,7.875 11.016,10.221 4.677,2.331 10.723,3.504 18.109,3.504 4.412,0 8.489,-0.628 12.217,-1.857 3.742,-1.242 6.967,-3.253 9.661,-6.003 2.709,-2.779 4.817,-6.325 6.353,-10.654 C -0.768,25.76 0,20.497 0,14.297 h -24.322 c 0,5.431 -0.461,9.383 -1.354,11.868 -0.894,2.96 -2.835,4.426 -5.809,4.426 -2.08,0 -3.713,-0.517 -4.928,-1.564 -1.215,-1.047 -2.122,-2.904 -2.709,-5.584 -0.586,-2.667 -0.963,-6.256 -1.145,-10.793 -0.181,-4.524 -0.265,-10.22 -0.265,-17.076 0,-6.869 0.084,-12.566 0.265,-17.09 0.182,-4.523 0.559,-8.125 1.145,-10.792 0.587,-2.667 1.438,-4.524 2.569,-5.571 1.131,-1.061 2.639,-1.578 4.524,-1.578 1.354,0 2.541,0.28 3.588,0.852 1.033,0.573 1.913,1.647 2.625,3.225 0.726,1.564 1.284,3.756 1.689,6.576 0.405,2.807 0.615,6.409 0.615,10.793 h -8.922 V 0 Z"
             style="fill:#1a1917;fill-opacity:1;fill-rule:nonzero;stroke:none"
             id="path68" />
        </g>
        <g
           id="g70"
           transform="translate(457.4734,767.8677)">
          <path
             d="M 0,0 -6.897,-43.31 H 7.149 L 0.266,0 Z M 15.931,20.873 39.443,-81.203 H 12.692 l -2.569,17.871 H -9.871 l -2.569,-17.871 h -26.346 l 23.107,102.076 z"
             style="fill:#1a1917;fill-opacity:1;fill-rule:nonzero;stroke:none"
             id="path72" />
        </g>
        <g
           id="g74"
           transform="translate(524.7568,788.741)">
          <path
             d="m 0,0 v -80.352 h 30.94 v -21.725 H -25.132 V 0 Z"
             style="fill:#1a1917;fill-opacity:1;fill-rule:nonzero;stroke:none"
             id="path76" />
        </g>
        <g
           id="g78"
           transform="translate(585.827,788.741)">
          <path
             d="m 0,0 v -80.352 h 30.94 v -21.725 H -25.132 V 0 Z"
             style="fill:#1a1917;fill-opacity:1;fill-rule:nonzero;stroke:none"
             id="path80" />
        </g>
        <g
           id="g82"
           transform="translate(653.2498,767.8677)">
          <path
             d="M 0,0 -6.897,-43.31 H 7.149 L 0.266,0 Z M 15.931,20.873 39.443,-81.203 H 12.692 l -2.57,17.871 H -9.871 l -2.569,-17.871 h -26.347 l 23.108,102.076 z"
             style="fill:#1a1917;fill-opacity:1;fill-rule:nonzero;stroke:none"
             id="path84" />
        </g>
        <g
           id="g86"
           transform="translate(723.507,788.741)">
          <path
             d="m 0,0 16.21,-62.899 h 0.265 V 0 h 23.512 v -102.077 h -27.56 l -16.755,63.053 h -0.265 v -63.053 h -23.513 l 0,102.077 z"
             style="fill:#1a1917;fill-opacity:1;fill-rule:nonzero;stroke:none"
             id="path88" />
        </g>
        <g
           id="g90"
           transform="translate(831.0429,788.741)">
          <path
             d="m 0,0 v -21.725 h -32.015 v -17.439 h 29.991 v -20.873 h -29.991 v -20.315 h 33.23 v -21.725 h -58.362 l 0,102.077 z"
             style="fill:#1a1917;fill-opacity:1;fill-rule:nonzero;stroke:none"
             id="path92" />
        </g>
        <g
           id="g94"
           transform="translate(877.5229,761.7245)">
          <path
             d="m 0,0 c 0,3.044 -0.587,5.64 -1.759,7.791 -1.173,2.15 -2.974,3.211 -5.404,3.211 -2.694,0 -4.677,-0.921 -5.948,-2.778 -1.256,-1.857 -1.884,-3.938 -1.884,-6.228 0,-3.337 1.005,-5.975 3.043,-7.93 2.025,-1.955 4.566,-3.644 7.624,-5.068 3.071,-1.438 6.352,-2.89 9.871,-4.371 3.504,-1.479 6.799,-3.406 9.857,-5.794 3.058,-2.373 5.613,-5.501 7.637,-9.354 2.025,-3.868 3.044,-8.894 3.044,-15.093 0,-10.863 -2.932,-18.751 -8.782,-23.652 -5.864,-4.915 -14.325,-7.372 -25.411,-7.372 -5.222,0 -9.843,0.461 -13.851,1.368 -4.007,0.894 -7.386,2.472 -10.122,4.719 -2.75,2.234 -4.845,5.166 -6.283,8.783 -1.452,3.63 -2.164,8.098 -2.164,13.445 v 3.574 h 24.322 v -2.429 c 0,-4.384 0.754,-7.456 2.29,-9.229 1.536,-1.759 3.518,-2.639 5.947,-2.639 2.612,0 4.622,0.95 6.018,2.862 1.396,1.899 2.095,4.231 2.095,6.996 0,3.337 -0.978,5.989 -2.905,7.944 -1.94,1.955 -4.37,3.616 -7.302,4.998 -2.932,1.383 -6.101,2.793 -9.522,4.217 -3.421,1.438 -6.604,3.295 -9.522,5.585 -2.932,2.275 -5.361,5.277 -7.302,9.005 -1.941,3.714 -2.904,8.573 -2.904,14.577 0,10.388 2.611,18.304 7.832,23.735 5.222,5.432 13.153,8.154 23.778,8.154 10.988,0 18.946,-2.499 23.847,-7.512 4.915,-4.998 7.372,-12.984 7.372,-23.945 L 0,-2.43 Z"
             style="fill:#1a1917;fill-opacity:1;fill-rule:nonzero;stroke:none"
             id="path96" />
        </g>
        <path
           d="M 902.237,825.967 H 178.212 v 92.676 h 724.025 z"
           style="fill:#f4df4a;fill-opacity:1;fill-rule:nonzero;stroke:none"
           id="path98" />
        <path
           d="m 181.785,829.542 h 716.876 v 85.525 H 181.785 Z m 720.451,-7.148 H 178.211 c -1.976,0 -3.574,1.599 -3.574,3.574 v 92.674 c 0,1.975 1.598,3.574 3.574,3.574 h 724.025 c 1.968,0 3.574,-1.599 3.574,-3.574 v -92.674 c 0,-1.975 -1.606,-3.574 -3.574,-3.574"
           style="fill:#1a1917;fill-opacity:1;fill-rule:nonzero;stroke:none"
           id="path100" />
        <g
           id="g102"
           transform="translate(461.3482,884.3407)">
          <path
             d="m 0,0 h -11.198 v 7.47 h 1.033 c 3.812,0 6.821,0.712 9.013,2.136 2.199,1.438 3.588,3.728 4.175,6.911 h 8.412 V -39.708 H 0 Z"
             style="fill:#ffffff;fill-opacity:1;fill-rule:nonzero;stroke:none"
             id="path104" />
        </g>
        <g
           id="g106"
           transform="translate(462.7094,845.9966)">
          <path
             d="M 0,0 H 8.712 V 53.503 H 2.75 C 1.99,50.529 0.475,48.281 -1.773,46.815 -4.112,45.293 -7.288,44.504 -11.198,44.462 V 39.708 L 0,39.708 Z M 11.435,-2.723 H -2.723 V 36.986 H -13.92 v 10.192 h 2.394 c 3.533,0 6.318,0.642 8.273,1.913 1.892,1.235 3.058,3.204 3.581,6.017 l 0.203,1.117 h 10.904 z"
             style="fill:#1a1917;fill-opacity:1;fill-rule:nonzero;stroke:none"
             id="path108" />
        </g>
        <g
           id="g110"
           transform="translate(508.4421,879.7332)">
          <path
             d="m 0,0 c 1.005,-1.27 2.353,-1.899 4.049,-1.899 1.696,0 3.044,0.629 4.049,1.899 1.005,1.271 1.508,3.253 1.508,5.962 0,5.124 -1.85,7.693 -5.557,7.693 -3.707,0 -5.557,-2.569 -5.557,-7.693 C -1.508,3.253 -1.005,1.271 0,0 m -2.185,-22.828 c 0.189,-1.201 0.531,-2.22 1.033,-3.099 0.503,-0.88 1.18,-1.564 2.025,-2.067 0.844,-0.503 1.905,-0.754 3.176,-0.754 1.271,0 2.332,0.251 3.176,0.754 0.845,0.503 1.522,1.187 2.025,2.067 0.503,0.879 0.845,1.898 1.033,3.099 0.189,1.187 0.279,2.443 0.279,3.77 0,1.382 -0.09,2.652 -0.279,3.812 -0.188,1.158 -0.53,2.178 -1.033,3.057 -0.503,0.88 -1.18,1.564 -2.025,2.067 -0.844,0.502 -1.905,0.754 -3.176,0.754 -1.271,0 -2.332,-0.252 -3.176,-0.754 -0.845,-0.503 -1.522,-1.187 -2.025,-2.067 -0.502,-0.879 -0.844,-1.899 -1.033,-3.057 -0.181,-1.16 -0.279,-2.43 -0.279,-3.812 0,-1.327 0.098,-2.583 0.279,-3.77 m -9.327,12.747 c 1.585,2.542 3.966,4.119 7.142,4.761 v 0.154 c -1.536,0.377 -2.813,0.963 -3.847,1.745 -1.033,0.796 -1.871,1.704 -2.506,2.709 -0.635,1.005 -1.082,2.066 -1.347,3.17 -0.265,1.117 -0.398,2.177 -0.398,3.183 0,5.501 1.466,9.466 4.405,11.868 2.939,2.415 6.974,3.616 12.112,3.616 5.138,0 9.173,-1.201 12.112,-3.616 2.939,-2.402 4.405,-6.367 4.405,-11.868 0,-1.006 -0.146,-2.066 -0.432,-3.183 -0.294,-1.104 -0.754,-2.165 -1.39,-3.17 -0.635,-1.005 -1.473,-1.913 -2.506,-2.709 -1.033,-0.782 -2.29,-1.368 -3.77,-1.745 V -5.32 c 3.176,-0.642 5.557,-2.219 7.149,-4.761 1.585,-2.541 2.38,-5.584 2.38,-9.131 0,-1.647 -0.195,-3.448 -0.593,-5.403 -0.398,-1.969 -1.236,-3.784 -2.506,-5.487 -1.271,-1.69 -3.079,-3.086 -5.439,-4.203 -2.352,-1.117 -5.494,-1.675 -9.41,-1.675 -3.916,0 -7.051,0.558 -9.41,1.675 -2.353,1.117 -4.168,2.513 -5.438,4.203 -1.271,1.703 -2.109,3.518 -2.5,5.487 -0.398,1.955 -0.6,3.756 -0.6,5.403 0,3.547 0.796,6.59 2.387,9.131"
             style="fill:#ffffff;fill-opacity:1;fill-rule:nonzero;stroke:none"
             id="path112" />
        </g>
        <g
           id="g114"
           transform="translate(512.4913,892.0296)">
          <path
             d="m 0,0 c -1.955,0 -4.196,-0.719 -4.196,-6.332 0,-2.38 0.405,-4.098 1.215,-5.117 0.747,-0.942 1.689,-1.382 2.981,-1.382 1.291,0 2.234,0.44 2.981,1.382 0.809,1.019 1.215,2.737 1.215,5.117 C 4.196,-0.719 1.955,0 0,0 m 0,-15.554 c -2.129,0 -3.847,0.817 -5.117,2.416 -1.208,1.536 -1.801,3.762 -1.801,6.806 0,7.484 3.762,9.055 6.918,9.055 3.155,0 6.918,-1.571 6.918,-9.055 0,-3.044 -0.593,-5.27 -1.801,-6.806 C 3.846,-14.737 2.129,-15.554 0,-15.554 m -4.894,-19.358 c 0.161,-1.033 0.447,-1.892 0.873,-2.632 0.384,-0.67 0.886,-1.187 1.536,-1.578 1.256,-0.74 3.714,-0.74 4.97,0 0.649,0.391 1.152,0.908 1.536,1.578 0.426,0.74 0.712,1.599 0.873,2.632 0.174,1.103 0.258,2.297 0.258,3.56 0,1.32 -0.084,2.527 -0.258,3.595 -0.161,0.999 -0.454,1.871 -0.873,2.597 -0.384,0.671 -0.887,1.187 -1.536,1.578 -1.256,0.74 -3.714,0.74 -4.97,0 -0.65,-0.391 -1.152,-0.907 -1.536,-1.578 -0.419,-0.726 -0.712,-1.598 -0.873,-2.597 -0.174,-1.109 -0.258,-2.317 -0.258,-3.595 0,-1.221 0.084,-2.415 0.258,-3.56 M 0,-42.403 c -1.515,0 -2.821,0.321 -3.868,0.95 -1.054,0.621 -1.899,1.487 -2.513,2.555 -0.593,1.033 -0.984,2.199 -1.193,3.567 v 0.007 c -0.196,1.278 -0.301,2.611 -0.301,3.972 0,1.417 0.105,2.772 0.301,4.021 0.216,1.327 0.614,2.513 1.193,3.526 0.614,1.068 1.459,1.933 2.513,2.555 2.095,1.256 5.641,1.256 7.735,0 1.055,-0.622 1.899,-1.487 2.514,-2.555 0.579,-1.013 0.977,-2.199 1.193,-3.519 0.196,-1.207 0.3,-2.562 0.3,-4.028 0,-1.403 -0.104,-2.743 -0.3,-3.986 -0.209,-1.361 -0.6,-2.527 -1.193,-3.56 C 5.766,-39.966 4.922,-40.832 3.867,-41.453 2.82,-42.082 1.515,-42.403 0,-42.403 M 0,7.47 c -4.796,0 -8.58,-1.11 -11.246,-3.302 -2.597,-2.122 -3.91,-5.76 -3.91,-10.821 0,-0.893 0.119,-1.864 0.356,-2.869 0.23,-0.963 0.628,-1.892 1.173,-2.758 0.551,-0.872 1.291,-1.661 2.192,-2.359 0.879,-0.663 2.011,-1.173 3.337,-1.501 l 1.04,-0.251 v -2.179 l -1.089,-0.376 c -2.827,-0.573 -4.88,-1.927 -6.262,-4.147 -1.445,-2.311 -2.178,-5.138 -2.178,-8.412 0,-1.536 0.189,-3.268 0.572,-5.132 0.349,-1.766 1.082,-3.378 2.255,-4.949 1.124,-1.487 2.779,-2.765 4.929,-3.784 2.164,-1.026 5.138,-1.542 8.831,-1.542 3.7,0 6.667,0.516 8.831,1.542 2.143,1.013 3.805,2.29 4.935,3.791 1.159,1.557 1.899,3.176 2.255,4.942 0.377,1.843 0.566,3.568 0.566,5.132 0,3.267 -0.726,6.101 -2.171,8.412 -1.389,2.22 -3.442,3.574 -6.269,4.147 l -1.089,0.223 v 2.164 l 1.026,0.419 c 1.284,0.328 2.394,0.831 3.288,1.508 0.886,0.691 1.627,1.48 2.178,2.352 0.551,0.873 0.963,1.816 1.222,2.793 0.258,0.998 0.384,1.954 0.384,2.834 0,5.061 -1.313,8.699 -3.903,10.814 C 8.58,6.36 4.796,7.47 0,7.47 m 0,-57.105 c -4.098,0 -7.463,0.607 -9.99,1.808 -2.555,1.215 -4.552,2.765 -5.941,4.614 -1.403,1.878 -2.325,3.91 -2.75,6.039 -0.412,2.038 -0.629,3.951 -0.629,5.669 0,3.79 0.873,7.099 2.597,9.85 1.152,1.843 2.688,3.253 4.594,4.209 -0.342,0.203 -0.663,0.419 -0.964,0.649 -1.166,0.894 -2.115,1.927 -2.834,3.065 -0.712,1.117 -1.222,2.325 -1.522,3.582 -0.293,1.214 -0.44,2.394 -0.44,3.497 0,5.913 1.655,10.262 4.908,12.922 3.163,2.597 7.533,3.923 12.971,3.923 5.438,0 9.808,-1.326 12.978,-3.93 3.246,-2.653 4.9,-7.002 4.9,-12.915 0,-1.103 -0.16,-2.29 -0.481,-3.518 -0.329,-1.257 -0.852,-2.451 -1.557,-3.561 -0.719,-1.138 -1.669,-2.171 -2.82,-3.057 -0.301,-0.224 -0.615,-0.44 -0.943,-0.636 1.927,-0.956 3.477,-2.373 4.643,-4.23 1.717,-2.751 2.589,-6.067 2.589,-9.85 0,-1.746 -0.209,-3.652 -0.621,-5.676 -0.433,-2.129 -1.361,-4.161 -2.75,-6.025 -1.397,-1.864 -3.4,-3.413 -5.948,-4.621 C 7.47,-49.021 4.105,-49.635 0,-49.635"
             style="fill:#1a1917;fill-opacity:1;fill-rule:nonzero;stroke:none"
             id="path116" />
        </g>
        <g
           id="g118"
           transform="translate(553.9444,874.0928)">
          <path
             d="m 0,0 c 0.957,-1.634 2.541,-2.458 4.768,-2.458 2.276,0 3.889,0.824 4.845,2.458 0.949,1.647 1.424,4.37 1.424,8.182 0,1.591 -0.077,3.071 -0.237,4.454 -0.161,1.368 -0.461,2.541 -0.915,3.532 -0.446,0.977 -1.082,1.745 -1.905,2.304 -0.817,0.544 -1.892,0.824 -3.212,0.824 -1.382,0 -2.478,-0.28 -3.295,-0.824 C 0.649,17.913 0.028,17.131 -0.398,16.126 -0.823,15.121 -1.096,13.934 -1.229,12.593 -1.361,11.239 -1.431,9.773 -1.431,8.182 -1.431,4.37 -0.949,1.647 0,0 m 0.593,-21.32 c 0.769,-1.187 2.109,-1.788 4.014,-1.788 1.536,0 2.751,0.364 3.652,1.076 0.9,0.712 1.598,1.703 2.108,2.974 0.503,1.27 0.831,2.778 0.991,4.523 0.161,1.746 0.238,3.658 0.238,5.725 v 2.695 H 11.435 C 10.486,-7.54 9.117,-8.698 7.344,-9.564 c -1.773,-0.88 -3.93,-1.313 -6.471,-1.313 -2.485,0 -4.608,0.433 -6.353,1.313 -1.745,0.866 -3.162,2.094 -4.244,3.644 -1.09,1.563 -1.885,3.421 -2.388,5.571 -0.503,2.136 -0.754,4.481 -0.754,7.023 0,6.506 1.445,11.49 4.328,14.925 2.883,3.449 7.505,5.166 13.858,5.166 3.916,0 7.043,-0.726 9.375,-2.178 2.325,-1.466 4.112,-3.393 5.355,-5.808 1.249,-2.401 2.052,-5.194 2.422,-8.377 0.37,-3.17 0.559,-6.479 0.559,-9.927 0,-4.022 -0.119,-7.903 -0.357,-11.631 -0.237,-3.728 -0.956,-7.023 -2.143,-9.885 -1.193,-2.862 -3.071,-5.124 -5.64,-6.786 -2.569,-1.675 -6.157,-2.513 -10.758,-2.513 -2.017,0 -3.958,0.21 -5.836,0.6 -1.885,0.405 -3.54,1.145 -4.964,2.221 -1.431,1.089 -2.583,2.54 -3.455,4.37 -0.873,1.829 -1.341,4.091 -1.39,6.785 h 10.954 c 0,-2.108 0.384,-3.77 1.151,-4.956"
             style="fill:#ffffff;fill-opacity:1;fill-rule:nonzero;stroke:none"
             id="path120" />
        </g>
        <g
           id="g122"
           transform="translate(555.1174,874.7794)">
          <path
             d="m 0,0 c 0.712,-1.214 1.857,-1.78 3.595,-1.78 2.353,0 3.225,1.019 3.672,1.78 0.824,1.424 1.236,3.951 1.236,7.498 0,1.571 -0.07,2.974 -0.224,4.3 C 8.133,13.041 7.868,14.06 7.477,14.919 7.135,15.672 6.667,16.245 6.046,16.664 4.845,17.467 2.206,17.432 1.054,16.657 0.461,16.252 0.007,15.68 -0.321,14.912 -0.684,14.053 -0.928,12.999 -1.047,11.777 -1.18,10.465 -1.242,9.041 -1.242,7.498 -1.242,3.1 -0.565,0.992 0,0 m 3.595,-4.503 c -3.393,0 -5.103,1.704 -5.941,3.135 l -0.007,0.007 c -1.082,1.885 -1.612,4.782 -1.612,8.859 0,1.64 0.076,3.148 0.209,4.544 0.154,1.502 0.468,2.821 0.936,3.931 0.53,1.249 1.319,2.234 2.359,2.939 2.081,1.382 5.899,1.417 8.022,0.007 1.04,-0.705 1.835,-1.669 2.387,-2.869 0.51,-1.117 0.845,-2.409 1.026,-3.938 0.168,-1.431 0.252,-2.939 0.252,-4.614 C 11.226,3.414 10.695,0.51 9.62,-1.361 8.775,-2.799 7.051,-4.503 3.595,-4.503 M -11.26,-18.409 c 0.153,-1.878 0.551,-3.504 1.193,-4.838 0.768,-1.619 1.795,-2.918 3.051,-3.874 1.25,-0.95 2.743,-1.613 4.426,-1.976 1.815,-0.377 3.686,-0.565 5.55,-0.565 4.314,0 7.686,0.768 10.018,2.289 2.352,1.523 4.028,3.54 5.124,6.172 1.131,2.722 1.815,5.899 2.045,9.445 0.231,3.686 0.35,7.568 0.35,11.547 0,3.357 -0.182,6.646 -0.545,9.766 -0.349,3.016 -1.117,5.683 -2.283,7.91 -1.131,2.206 -2.723,3.937 -4.873,5.284 -2.094,1.306 -5.005,1.969 -8.649,1.969 -5.906,0 -10.221,-1.571 -12.817,-4.677 -2.66,-3.17 -4.007,-7.896 -4.007,-14.053 0,-2.43 0.237,-4.684 0.712,-6.709 0.46,-1.976 1.2,-3.693 2.185,-5.11 0.956,-1.368 2.213,-2.45 3.727,-3.204 1.55,-0.775 3.477,-1.166 5.753,-1.166 2.324,0 4.3,0.391 5.871,1.166 1.55,0.761 2.744,1.759 3.56,2.987 l 0.405,0.608 h 2.088 l 0.16,-1.361 v -2.695 c 0,-2.129 -0.084,-4.098 -0.244,-5.85 -0.175,-1.871 -0.538,-3.519 -1.082,-4.901 -0.601,-1.494 -1.453,-2.687 -2.528,-3.539 -1.151,-0.908 -2.659,-1.369 -4.495,-1.369 -2.974,0 -4.447,1.313 -5.152,2.409 -0.734,1.131 -1.173,2.583 -1.32,4.335 z M 2.96,-32.385 c -2.053,0 -4.112,0.217 -6.116,0.635 -2.073,0.44 -3.923,1.271 -5.5,2.465 -1.606,1.222 -2.905,2.855 -3.868,4.866 -0.956,2.01 -1.466,4.481 -1.522,7.344 l -0.021,1.389 H -0.37 v -1.361 c 0,-1.844 0.314,-3.261 0.929,-4.217 0.188,-0.293 0.754,-1.166 2.876,-1.166 1.208,0 2.15,0.258 2.806,0.782 0.712,0.558 1.264,1.347 1.689,2.408 0.447,1.131 0.754,2.528 0.901,4.147 0.14,1.515 0.216,3.211 0.23,5.048 -0.684,-0.538 -1.452,-1.013 -2.297,-1.425 -1.933,-0.956 -4.313,-1.452 -7.064,-1.452 -2.702,0 -5.048,0.496 -6.967,1.459 -1.92,0.957 -3.519,2.332 -4.747,4.084 -1.18,1.696 -2.053,3.728 -2.59,6.039 -0.524,2.227 -0.796,4.691 -0.796,7.33 0,6.813 1.564,12.126 4.649,15.798 3.135,3.749 8.147,5.655 14.898,5.655 4.16,0 7.553,-0.803 10.094,-2.388 2.541,-1.599 4.503,-3.735 5.844,-6.339 1.312,-2.52 2.178,-5.494 2.561,-8.845 0.378,-3.225 0.573,-6.618 0.573,-10.08 0,-4.035 -0.126,-7.98 -0.363,-11.714 -0.244,-3.847 -0.998,-7.324 -2.241,-10.325 -1.299,-3.107 -3.372,-5.599 -6.157,-7.4 -2.779,-1.815 -6.646,-2.737 -11.498,-2.737"
             style="fill:#1a1917;fill-opacity:1;fill-rule:nonzero;stroke:none"
             id="path124" />
        </g>
        <g
           id="g126"
           transform="translate(622.8754,891.0148)">
          <path
             d="m 0,0 c -2.332,-3.281 -4.405,-6.814 -6.234,-10.569 -1.829,-3.756 -3.428,-7.624 -4.803,-11.589 -1.375,-3.979 -2.513,-8.014 -3.414,-12.119 -0.9,-4.105 -1.591,-8.14 -2.066,-12.105 H -28.51 c 0.425,3.393 1.06,6.953 1.905,10.681 0.845,3.728 1.976,7.525 3.379,11.393 1.403,3.867 3.107,7.763 5.117,11.672 2.018,3.924 4.398,7.763 7.149,11.519 H -34.626 V 8.726 L 0,8.726 Z"
             style="fill:#ffffff;fill-opacity:1;fill-rule:nonzero;stroke:none"
             id="path128" />
        </g>
        <g
           id="g130"
           transform="translate(595.9147,845.9966)">
          <path
             d="m 0,0 h 9.243 c 0.468,3.595 1.124,7.302 1.94,11.037 0.908,4.119 2.067,8.252 3.456,12.273 1.396,4.028 3.037,7.979 4.866,11.735 1.808,3.721 3.86,7.218 6.094,10.409 v 6.932 H -6.304 V 45.265 H 18.681 L 17.096,43.101 C 14.409,39.429 12.042,35.617 10.06,31.764 8.098,27.952 6.401,24.078 5.012,20.252 3.623,16.419 2.499,12.643 1.682,9.02 0.977,5.906 0.412,2.876 0,0 M 11.651,-2.723 H -3.093 l 0.196,1.529 c 0.426,3.421 1.075,7.058 1.926,10.814 0.845,3.735 2.004,7.616 3.428,11.554 1.431,3.937 3.177,7.916 5.187,11.832 1.662,3.226 3.582,6.423 5.725,9.536 H -9.027 V 55.108 H 28.322 V 44.588 L 28.071,44.232 C 25.816,41.07 23.763,37.579 21.948,33.858 20.161,30.193 18.57,26.346 17.208,22.416 15.854,18.5 14.716,14.472 13.836,10.451 12.943,6.388 12.258,2.36 11.791,-1.522 Z"
             style="fill:#1a1917;fill-opacity:1;fill-rule:nonzero;stroke:none"
             id="path132" />
        </g>
        <g
           id="g134"
           transform="translate(315.2456,991.1953)">
          <path
             d="m 0,0 c 0.471,-0.509 0.608,-0.688 0.79,-0.824 6.154,-4.847 12.292,-9.712 18.491,-14.494 1.064,-0.817 1.276,-1.493 0.896,-2.766 -1.671,-5.401 -3.236,-10.841 -4.831,-16.264 -0.684,-2.382 -1.382,-4.775 -2.173,-7.506 0.714,0.418 1.079,0.592 1.413,0.812 6.609,4.422 13.219,8.824 19.797,13.291 0.911,0.623 1.504,0.646 2.431,0.012 6.518,-4.437 13.097,-8.805 19.661,-13.184 0.379,-0.251 0.729,-0.768 1.458,-0.51 -0.106,0.319 -0.182,0.578 -0.258,0.847 -2.219,7.556 -4.406,15.126 -6.67,22.669 -0.334,1.117 -0.183,1.736 0.759,2.469 5.151,3.962 10.241,7.984 15.346,11.999 1.307,1.026 2.583,2.078 4.285,3.449 h -2.234 c -7.657,0 -15.33,0.034 -22.987,-0.034 -1.231,-0.015 -1.748,0.373 -2.128,1.489 -2.233,6.518 -4.528,13.002 -6.821,19.497 -0.472,1.36 -1.003,2.704 -1.657,4.433 C 35.234,24.469 35.052,23.991 34.885,23.509 32.302,16.185 29.704,8.873 27.196,1.527 26.787,0.339 26.24,-0.053 24.979,-0.034 19.25,0.038 13.508,0 7.779,0 Z m -4.148,1.759 c 3.131,-0.042 6.29,-0.11 9.435,-0.125 6.246,-0.012 12.49,0 18.734,-0.004 0.821,0 1.504,-0.088 1.884,1.017 3.039,8.794 6.153,17.564 9.238,26.35 0.046,0.152 0.03,0.334 0.03,0.501 h 0.7 c 3.083,-8.747 6.183,-17.484 9.191,-26.254 0.44,-1.287 1.033,-1.652 2.355,-1.648 8.843,0.064 17.67,0.038 26.513,0.038 h 2.158 c -3.555,-2.83 -6.731,-5.356 -9.922,-7.871 -4.208,-3.331 -8.417,-6.685 -12.687,-9.955 -0.926,-0.707 -0.942,-1.379 -0.637,-2.348 2.552,-8.603 5.074,-17.21 7.611,-25.825 0.091,-0.322 0.153,-0.661 0.335,-1.349 -2.659,1.775 -5.06,3.369 -7.475,4.973 -5.485,3.673 -10.97,7.323 -16.425,11.053 -0.957,0.646 -1.549,0.703 -2.552,0.019 -7.187,-4.907 -14.449,-9.739 -21.681,-14.586 -0.608,-0.418 -1.246,-0.805 -2.234,-1.435 0.912,3.16 1.717,5.94 2.522,8.717 1.824,6.214 3.631,12.432 5.485,18.635 0.273,0.9 0.213,1.443 -0.592,2.07 -6.959,5.431 -13.872,10.92 -20.816,16.383 -0.349,0.265 -0.607,0.736 -1.17,0.588 z"
             style="fill:#f4df4a;fill-opacity:1;fill-rule:evenodd;stroke:none"
             id="path136" />
        </g>
        <g
           id="g138"
           transform="translate(320.1636,989.4084)">
          <path
             d="m 0,0 0.544,-0.447 c 4.957,-3.902 9.913,-7.812 14.905,-11.665 1.641,-1.257 2.115,-2.702 1.522,-4.692 -1.327,-4.293 -2.583,-8.579 -3.833,-12.873 l -1.85,-6.345 c 5.739,3.832 11.463,7.665 17.174,11.539 1.521,1.033 2.925,1.033 4.446,0 5.599,-3.804 11.24,-7.567 16.881,-11.33 l 0.286,-0.188 -1.082,3.693 c -1.529,5.228 -3.051,10.45 -4.615,15.672 -0.551,1.829 -0.118,3.225 1.376,4.384 4.167,3.211 8.293,6.457 12.419,9.704 l 2.918,2.29 c 0.112,0.09 0.216,0.174 0.328,0.258 l -2.918,0.007 c -5.732,-0.014 -11.484,0 -17.229,-0.042 -1.969,-0.182 -3.204,0.845 -3.84,2.702 -1.976,5.78 -4.007,11.539 -6.045,17.299 l -0.699,1.996 -0.509,-1.445 C 28.085,14.597 25.997,8.677 23.966,2.737 23.323,0.851 22.109,-0.035 20.147,-0.035 H 20.035 C 15.742,0.028 11.414,0.021 7.163,0.007 Z m 55.869,-45.712 c -0.342,0 -0.691,0.098 -0.991,0.3 l -10.318,6.877 c -4.545,3.036 -9.083,6.073 -13.592,9.158 l -1.243,1.201 c -0.028,-0.014 -0.049,-0.035 -0.077,-0.048 l 0.775,-1.132 C 24.699,-33.272 18.918,-37.139 13.145,-41 l -4.412,-2.953 c -0.419,-0.293 -0.88,-0.586 -1.473,-0.956 l -0.789,-0.503 c -0.607,-0.405 -1.431,-0.37 -2.031,0.077 -0.594,0.44 -0.852,1.208 -0.649,1.927 l 3.755,12.929 c 1.411,4.816 2.821,9.633 4.259,14.436 -4.37,3.582 -8.733,7.023 -13.103,10.472 l -7.701,6.067 c -0.028,0.02 -0.153,0.132 -0.251,0.216 -0.328,0.035 -0.642,0.16 -0.915,0.37 -0.432,0.335 -0.69,0.858 -0.69,1.41 v 1.054 c 0,0.475 0.188,0.936 0.53,1.271 0.342,0.335 0.963,0.516 1.277,0.516 L -5.92,5.284 C -3.826,5.249 -1.725,5.215 0.377,5.208 L 19.1,5.201 h 0.258 c 2.109,6.094 4.224,12.091 6.339,18.088 l 2.842,8.091 c 0,0.984 0.733,1.689 1.717,1.689 h 0.698 c 0.761,0 1.431,-0.475 1.682,-1.194 l 1.438,-4.063 c 2.611,-7.393 5.222,-14.786 7.763,-22.2 0.091,-0.265 0.161,-0.383 0.189,-0.425 0.021,0.007 0.153,-0.014 0.44,-0.014 h 0.027 c 6.751,0.049 13.509,0.049 20.28,0.035 h 8.399 c 0.76,0 1.438,-0.482 1.689,-1.201 0.251,-0.712 0.021,-1.515 -0.579,-1.983 -3.554,-2.834 -6.73,-5.361 -9.928,-7.874 l -1.186,-0.943 c -3.819,-3.03 -7.645,-6.066 -11.519,-9.026 1.92,-6.932 3.833,-13.446 5.745,-19.959 l 2.199,-7.686 c 0.196,-0.719 -0.076,-1.48 -0.684,-1.913 -0.314,-0.224 -0.677,-0.335 -1.04,-0.335"
             style="fill:#1a1917;fill-opacity:1;fill-rule:nonzero;stroke:none"
             id="path140" />
        </g>
        <g
           id="g142"
           transform="translate(315.2456,991.1953)">
          <path
             d="m 0,0 h 7.779 c 5.729,0 11.471,0.038 17.2,-0.034 1.261,-0.019 1.808,0.373 2.217,1.561 2.508,7.346 5.106,14.658 7.689,21.982 0.167,0.482 0.349,0.96 0.683,1.876 0.654,-1.729 1.185,-3.073 1.657,-4.433 2.293,-6.495 4.588,-12.979 6.821,-19.497 0.38,-1.116 0.897,-1.504 2.128,-1.489 C 53.831,0.034 61.504,0 69.161,0 h 2.234 c -1.702,-1.371 -2.978,-2.423 -4.285,-3.449 -5.105,-4.015 -10.195,-8.037 -15.346,-11.999 -0.942,-0.733 -1.093,-1.352 -0.759,-2.469 2.264,-7.543 4.451,-15.113 6.67,-22.669 0.076,-0.269 0.152,-0.528 0.258,-0.847 -0.729,-0.258 -1.079,0.259 -1.458,0.51 -6.564,4.379 -13.143,8.747 -19.661,13.184 -0.927,0.634 -1.52,0.611 -2.431,-0.012 -6.578,-4.467 -13.188,-8.869 -19.797,-13.291 -0.334,-0.22 -0.699,-0.394 -1.413,-0.812 0.791,2.731 1.489,5.124 2.173,7.506 1.595,5.423 3.16,10.863 4.831,16.264 0.38,1.273 0.168,1.949 -0.896,2.766 C 13.082,-10.536 6.944,-5.671 0.79,-0.824 0.608,-0.688 0.471,-0.509 0,0"
             style="fill:#f4df4a;fill-opacity:1;fill-rule:evenodd;stroke:none"
             id="path144" />
        </g>
        <g
           id="g146"
           transform="translate(320.1636,989.4084)">
          <path
             d="m 0,0 0.544,-0.447 c 4.957,-3.902 9.913,-7.812 14.905,-11.665 1.641,-1.257 2.115,-2.702 1.522,-4.692 -1.327,-4.293 -2.583,-8.579 -3.833,-12.873 l -1.85,-6.345 c 5.739,3.832 11.463,7.658 17.174,11.539 1.521,1.033 2.925,1.033 4.446,0 5.599,-3.804 11.24,-7.567 16.881,-11.33 l 0.286,-0.188 -1.082,3.693 c -1.529,5.228 -3.051,10.45 -4.615,15.665 -0.551,1.836 -0.118,3.232 1.376,4.391 4.167,3.211 8.293,6.457 12.419,9.704 l 2.918,2.29 c 0.112,0.09 0.216,0.174 0.328,0.258 l -2.918,0.007 c -5.745,0 -11.477,0.007 -17.229,-0.042 h -0.077 c -1.941,0 -3.135,0.858 -3.763,2.702 -1.976,5.78 -4.007,11.539 -6.045,17.299 l -0.699,1.996 -0.509,-1.445 C 28.085,14.597 25.997,8.677 23.966,2.737 23.323,0.851 22.109,-0.035 20.147,-0.035 H 20.035 C 15.742,0.028 11.414,0.021 7.163,0.007 Z m 8.259,-41.852 c -0.391,0 -0.782,0.126 -1.104,0.378 -0.572,0.453 -0.816,1.207 -0.614,1.905 l 3.162,10.898 c 1.264,4.307 2.521,8.614 3.847,12.907 0.098,0.322 0.098,0.461 0.098,0.489 -0.007,0 -0.091,0.112 -0.377,0.329 -5.006,3.86 -9.976,7.776 -14.94,11.693 l -3.56,2.813 c -0.181,0.14 -0.356,0.307 -0.712,0.705 -0.475,0.524 -0.747,1.438 -0.461,2.087 0.287,0.643 0.782,1.222 1.487,1.222 l 12.07,0.007 c 4.308,-0.014 8.629,0 12.929,-0.042 l 0.503,0.356 c 2.031,5.948 4.126,11.882 6.22,17.809 l 2.171,6.081 c 0.251,0.705 0.922,1.172 1.669,1.172 h 0.007 c 0.747,0 1.41,-0.461 1.675,-1.159 l 0.531,-1.403 c 0.419,-1.11 0.795,-2.087 1.137,-3.072 l 0.761,-2.164 c 2.039,-5.773 4.077,-11.546 6.06,-17.341 0,0 0.419,-0.279 0.426,-0.279 5.745,0.056 11.491,0.063 17.257,0.042 L 66.48,3.574 c 0.761,0 1.432,-0.482 1.683,-1.194 0.258,-0.712 0.028,-1.514 -0.566,-1.989 L 65.824,-1.04 c -0.9,-0.733 -1.71,-1.382 -2.527,-2.025 l -2.911,-2.296 c -4.14,-3.254 -8.273,-6.5 -12.447,-9.718 0,0 -0.14,-0.531 -0.14,-0.538 1.571,-5.222 3.099,-10.458 4.628,-15.693 l 2.283,-7.784 c 0.3,-0.921 -0.181,-1.913 -1.096,-2.234 -1.577,-0.544 -2.555,0.307 -2.946,0.621 l -2.862,1.92 c -5.647,3.77 -11.302,7.54 -16.915,11.351 -6.297,-3.993 -12.189,-7.93 -18.088,-11.874 l -2.143,-1.432 c -0.237,-0.153 -0.482,-0.293 -0.817,-0.481 l -0.691,-0.391 c -0.279,-0.161 -0.586,-0.238 -0.893,-0.238"
             style="fill:#1a1917;fill-opacity:1;fill-rule:nonzero;stroke:none"
             id="path148" />
        </g>
        <g
           id="g150"
           transform="translate(434.4098,1010.0889)">
          <path
             d="m 0,0 c 0.471,-0.501 0.608,-0.687 0.775,-0.824 6.169,-4.839 12.307,-9.712 18.506,-14.495 1.064,-0.816 1.276,-1.492 0.896,-2.765 -1.686,-5.401 -3.236,-10.84 -4.831,-16.264 -0.684,-2.382 -1.383,-4.775 -2.173,-7.498 0.714,0.41 1.079,0.584 1.413,0.809 6.609,4.417 13.218,8.823 19.797,13.287 0.911,0.622 1.505,0.645 2.431,0.01 6.518,-4.436 13.097,-8.804 19.661,-13.18 0.379,-0.254 0.729,-0.764 1.458,-0.508 -0.106,0.315 -0.182,0.581 -0.258,0.843 -2.219,7.558 -4.406,15.125 -6.67,22.668 -0.334,1.117 -0.183,1.737 0.759,2.477 5.151,3.954 10.241,7.981 15.346,11.992 1.291,1.025 2.568,2.077 4.269,3.448 h -2.218 c -7.673,0 -15.33,0.034 -22.987,-0.033 -1.231,-0.016 -1.748,0.372 -2.128,1.496 -2.233,6.51 -4.527,12.994 -6.821,19.489 -0.472,1.36 -1.003,2.712 -1.657,4.433 C 35.234,24.47 35.052,23.994 34.885,23.508 32.302,16.185 29.704,8.874 27.196,1.531 26.787,0.339 26.24,-0.049 24.979,-0.033 19.236,0.038 13.507,0 7.764,0 Z M -4.148,1.759 C -1.017,1.717 2.142,1.649 5.288,1.641 11.532,1.622 17.777,1.634 24.021,1.63 c 0.805,0 1.489,-0.087 1.869,1.018 3.054,8.8 6.168,17.563 9.253,26.349 0.046,0.152 0.015,0.335 0.03,0.501 h 0.699 c 3.069,-8.743 6.184,-17.483 9.192,-26.25 0.441,-1.292 1.034,-1.656 2.355,-1.645 8.842,0.057 17.67,0.031 26.513,0.031 h 2.158 c -3.556,-2.823 -6.731,-5.349 -9.922,-7.87 -4.208,-3.331 -8.417,-6.686 -12.687,-9.956 -0.926,-0.707 -0.942,-1.379 -0.653,-2.34 2.553,-8.611 5.09,-17.218 7.612,-25.833 0.106,-0.323 0.167,-0.66 0.35,-1.348 -2.675,1.774 -5.075,3.369 -7.476,4.972 -5.484,3.673 -10.969,7.331 -16.424,11.053 -0.957,0.646 -1.549,0.71 -2.552,0.019 -7.187,-4.907 -14.449,-9.739 -21.681,-14.585 -0.609,-0.414 -1.261,-0.806 -2.234,-1.433 0.912,3.164 1.717,5.937 2.522,8.714 1.824,6.218 3.632,12.432 5.485,18.634 0.259,0.901 0.213,1.444 -0.592,2.078 -6.959,5.425 -13.872,10.913 -20.83,16.376 -0.335,0.265 -0.593,0.736 -1.156,0.588 z"
             style="fill:#f4df4a;fill-opacity:1;fill-rule:evenodd;stroke:none"
             id="path152" />
        </g>
        <g
           id="g154"
           transform="translate(439.3228,1008.2988)">
          <path
             d="m 0,0 2.66,-2.108 c 4.258,-3.351 8.51,-6.702 12.796,-10.004 1.641,-1.257 2.115,-2.702 1.522,-4.691 -1.25,-4.007 -2.415,-8.007 -3.588,-12.008 l -2.102,-7.204 1.166,0.775 c 5.348,3.574 10.688,7.148 16.008,10.758 1.55,1.047 2.911,1.054 4.454,0.006 5.298,-3.616 10.653,-7.176 16,-10.743 l 1.166,-0.775 -1.04,3.553 c -1.543,5.271 -3.086,10.541 -4.663,15.798 -0.552,1.871 -0.126,3.226 1.368,4.398 4.119,3.163 8.189,6.36 12.252,9.557 L 61.412,0 58.187,0.007 C 52.553,0.021 46.919,0.028 41.272,-0.028 H 41.16 c -1.912,0 -3.099,0.866 -3.721,2.716 -2.08,6.059 -4.216,12.112 -6.366,18.179 l -0.384,1.096 -0.238,-0.664 C 28.273,15.121 26.088,8.95 23.973,2.744 23.324,0.852 22.102,-0.028 20.147,-0.028 H 20.036 C 15.889,0.021 11.721,-0.007 7.554,0.007 Z m 55.876,-45.712 c -0.342,0 -0.691,0.098 -0.984,0.3 l -11.254,7.498 c -4.23,2.834 -8.461,5.669 -12.663,8.545 l -1.25,1.201 c -0.021,-0.014 -0.049,-0.028 -0.07,-0.042 l 0.775,-1.138 c -5.787,-3.959 -11.637,-7.875 -17.48,-11.777 l -4.217,-2.828 c -0.37,-0.251 -0.775,-0.509 -1.256,-0.809 l -1.006,-0.636 c -0.614,-0.425 -1.438,-0.39 -2.031,0.07 -0.6,0.44 -0.859,1.215 -0.649,1.927 l 3.693,12.698 c 1.431,4.894 2.862,9.781 4.321,14.668 -4.51,3.686 -9.027,7.246 -13.543,10.806 l -7.267,5.732 c -0.036,0.021 -0.147,0.125 -0.245,0.209 -0.321,0.035 -0.642,0.161 -0.908,0.37 -0.432,0.335 -0.69,0.859 -0.69,1.41 v 1.055 c 0,0.474 0.188,0.935 0.53,1.27 0.335,0.335 0.789,0.517 1.257,0.517 h 0.02 L -6.506,5.299 C -0.461,5.208 5.627,5.208 11.707,5.208 h 3.658 3.742 0.245 c 2.101,6.059 4.202,12.014 6.303,17.976 l 2.884,8.196 c 0.083,0.928 0.795,1.696 1.724,1.696 h 0.698 c 0.761,0 1.438,-0.481 1.689,-1.193 l 2.918,-8.301 C 37.677,17.599 39.785,11.617 41.837,5.62 41.928,5.355 41.998,5.236 42.026,5.194 42.068,5.18 42.187,5.18 42.438,5.18 h 0.049 C 49.14,5.229 55.758,5.208 62.39,5.215 l 8.789,-0.007 c 0.761,0 1.438,-0.482 1.689,-1.201 C 73.12,3.288 72.882,2.492 72.289,2.018 L 60.63,-7.218 c -3.637,-2.884 -7.281,-5.781 -10.974,-8.601 2.527,-9.033 5.068,-17.641 7.589,-26.256 0.055,-0.174 0.111,-0.404 0.195,-0.726 l 0.168,-0.67 c 0.188,-0.719 -0.091,-1.473 -0.692,-1.905 -0.314,-0.224 -0.677,-0.336 -1.04,-0.336"
             style="fill:#1a1917;fill-opacity:1;fill-rule:nonzero;stroke:none"
             id="path156" />
        </g>
        <g
           id="g158"
           transform="translate(434.4098,1010.0889)">
          <path
             d="m 0,0 h 7.764 c 5.743,0 11.472,0.038 17.215,-0.033 1.261,-0.016 1.808,0.372 2.217,1.564 2.508,7.343 5.106,14.654 7.689,21.977 0.167,0.486 0.349,0.962 0.683,1.877 0.654,-1.721 1.185,-3.073 1.657,-4.433 2.294,-6.495 4.588,-12.979 6.821,-19.489 0.38,-1.124 0.897,-1.512 2.128,-1.496 C 53.831,0.034 61.488,0 69.161,0 h 2.218 C 69.678,-1.371 68.401,-2.423 67.11,-3.448 62.005,-7.459 56.915,-11.486 51.764,-15.44 c -0.942,-0.74 -1.093,-1.36 -0.759,-2.477 2.264,-7.543 4.451,-15.11 6.67,-22.668 0.076,-0.262 0.152,-0.528 0.258,-0.843 -0.729,-0.256 -1.079,0.254 -1.458,0.508 -6.564,4.376 -13.143,8.744 -19.661,13.18 -0.926,0.635 -1.52,0.612 -2.431,-0.01 -6.579,-4.464 -13.188,-8.87 -19.797,-13.287 -0.334,-0.225 -0.699,-0.399 -1.413,-0.809 0.79,2.723 1.489,5.116 2.173,7.498 1.595,5.424 3.145,10.863 4.831,16.264 0.38,1.273 0.168,1.949 -0.896,2.765 C 13.082,-10.536 6.944,-5.663 0.775,-0.824 0.608,-0.687 0.471,-0.501 0,0"
             style="fill:#f4df4a;fill-opacity:1;fill-rule:evenodd;stroke:none"
             id="path160" />
        </g>
        <g
           id="g162"
           transform="translate(439.3228,1008.2988)">
          <path
             d="m 0,0 2.66,-2.108 c 4.258,-3.351 8.51,-6.702 12.796,-10.004 1.641,-1.257 2.115,-2.702 1.522,-4.691 -1.25,-4.007 -2.415,-8.007 -3.588,-12.008 l -2.102,-7.204 1.166,0.775 c 5.348,3.574 10.688,7.148 16.008,10.758 1.55,1.047 2.911,1.054 4.454,0.006 5.298,-3.616 10.653,-7.176 16,-10.743 l 1.166,-0.775 -1.04,3.553 c -1.543,5.271 -3.086,10.541 -4.663,15.798 -0.552,1.871 -0.126,3.226 1.368,4.398 4.119,3.163 8.189,6.36 12.252,9.557 L 61.412,0 58.187,0.007 C 52.553,0.021 46.919,0.028 41.272,-0.028 H 41.16 c -1.912,0 -3.099,0.866 -3.721,2.716 -2.08,6.059 -4.216,12.112 -6.366,18.179 l -0.384,1.096 -0.238,-0.664 C 28.273,15.121 26.088,8.95 23.973,2.744 23.324,0.852 22.102,-0.028 20.147,-0.028 H 20.036 C 15.889,0.021 11.721,-0.007 7.554,0.007 Z m 8.259,-41.844 c -0.391,0 -0.782,0.125 -1.104,0.384 -0.572,0.446 -0.816,1.2 -0.614,1.899 l 3.421,11.756 c 1.173,4.021 2.346,8.042 3.602,12.042 0.091,0.321 0.091,0.461 0.091,0.489 -0.014,0 -0.091,0.111 -0.377,0.328 -4.3,3.316 -8.566,6.674 -12.831,10.032 l -5.69,4.474 C -5.326,-0.377 -5.704,0 -5.773,0.084 l -0.433,0.468 c -0.496,0.516 -0.635,1.277 -0.349,1.94 0.279,0.656 0.921,1.083 1.641,1.083 l 12.46,0.006 c 4.189,-0.014 8.357,0.022 12.539,-0.034 l 2.198,-0.224 -1.689,0.579 c 2.116,6.214 4.301,12.399 6.493,18.591 l 1.891,5.299 c 0.258,0.705 0.908,1.152 1.676,1.173 0.74,0 1.403,-0.461 1.668,-1.153 l 0.384,-0.998 c 0.489,-1.291 0.915,-2.387 1.292,-3.483 l 0.446,-1.271 c 2.151,-6.073 4.294,-12.14 6.381,-18.227 0.007,0 0.412,-0.286 0.419,-0.286 5.655,0.041 11.282,0.034 16.95,0.034 l 8.272,-0.006 c 0.761,0 1.432,-0.482 1.683,-1.194 0.258,-0.712 0.028,-1.515 -0.566,-1.99 l -7.371,-5.885 c -4.078,-3.204 -8.154,-6.416 -12.273,-9.571 l -1.85,-1.061 1.71,0.517 c 1.585,-5.271 3.128,-10.549 4.671,-15.827 l 2.247,-7.637 c 0.308,-0.928 -0.181,-1.926 -1.102,-2.248 -1.522,-0.537 -2.57,0.314 -2.967,0.643 l -3.714,2.485 c -5.362,3.574 -10.723,7.142 -16.036,10.765 -5.752,-3.623 -11.107,-7.205 -16.454,-10.779 l -3.777,-2.527 c -0.244,-0.161 -0.496,-0.301 -0.844,-0.496 l -0.678,-0.377 c -0.272,-0.161 -0.579,-0.237 -0.886,-0.237"
             style="fill:#1a1917;fill-opacity:1;fill-rule:nonzero;stroke:none"
             id="path164" />
        </g>
        <g
           id="g166"
           transform="translate(553.5889,1010.0931)">
          <path
             d="m 0,0 c 0.456,-0.505 0.593,-0.692 0.776,-0.821 6.168,-4.846 12.306,-9.72 18.505,-14.498 1.064,-0.82 1.276,-1.497 0.881,-2.765 -1.671,-5.406 -3.236,-10.841 -4.816,-16.268 -0.699,-2.382 -1.382,-4.771 -2.173,-7.498 0.714,0.409 1.063,0.592 1.398,0.808 6.609,4.418 13.234,8.824 19.812,13.295 0.912,0.615 1.505,0.638 2.416,0.007 6.518,-4.44 13.097,-8.808 19.661,-13.184 0.394,-0.254 0.729,-0.763 1.459,-0.509 -0.092,0.315 -0.183,0.581 -0.259,0.843 -2.203,7.559 -4.391,15.125 -6.655,22.669 -0.334,1.117 -0.197,1.74 0.759,2.476 5.152,3.955 10.242,7.981 15.33,11.992 1.307,1.026 2.584,2.082 4.285,3.453 L 69.161,0 C 61.488,0 53.831,0.031 46.158,-0.038 44.943,-0.05 44.426,0.334 44.047,1.459 41.813,7.969 39.504,14.457 37.225,20.947 36.738,22.311 36.222,23.66 35.568,25.381 35.234,24.469 35.037,23.991 34.87,23.505 32.302,16.18 29.704,8.869 27.196,1.527 26.772,0.334 26.24,-0.05 24.963,-0.038 19.235,0.038 13.492,0 7.764,0 Z M -4.163,1.755 C -1.017,1.717 2.128,1.644 5.273,1.637 11.517,1.618 17.762,1.633 24.006,1.626 c 0.821,0 1.504,-0.088 1.885,1.017 3.038,8.802 6.153,17.568 9.252,26.35 0.046,0.155 0.015,0.334 0.03,0.502 h 0.7 C 38.941,20.75 42.056,12.01 45.05,3.244 45.505,1.952 46.097,1.588 47.42,1.599 56.247,1.663 65.089,1.633 73.917,1.633 h 2.173 c -3.555,-2.826 -6.746,-5.352 -9.922,-7.874 -4.224,-3.331 -8.432,-6.685 -12.702,-9.956 -0.926,-0.706 -0.926,-1.378 -0.637,-2.339 2.552,-8.608 5.074,-17.218 7.611,-25.833 0.091,-0.323 0.168,-0.657 0.35,-1.348 -2.674,1.781 -5.075,3.372 -7.475,4.972 -5.485,3.676 -10.985,7.331 -16.44,11.057 -0.942,0.646 -1.549,0.706 -2.552,0.015 -7.187,-4.907 -14.434,-9.732 -21.666,-14.586 -0.623,-0.414 -1.261,-0.805 -2.234,-1.432 0.912,3.165 1.702,5.941 2.522,8.714 1.824,6.218 3.632,12.432 5.485,18.635 0.259,0.9 0.213,1.447 -0.607,2.077 C 10.864,-10.841 3.951,-5.352 -2.992,0.11 -3.327,0.376 -3.6,0.85 -4.163,0.699 Z"
             style="fill:#f4df4a;fill-opacity:1;fill-rule:evenodd;stroke:none"
             id="path168" />
        </g>
        <g
           id="g170"
           transform="translate(558.5101,1008.3059)">
          <path
             d="m 0,0 2.018,-1.613 c 4.467,-3.518 8.935,-7.037 13.431,-10.499 1.662,-1.285 2.115,-2.744 1.494,-4.719 -1.396,-4.531 -2.722,-9.09 -4.049,-13.648 l -1.612,-5.536 1.263,0.845 c 5.312,3.546 10.625,7.099 15.91,10.687 1.536,1.034 2.939,1.041 4.447,-0.006 5.577,-3.805 11.218,-7.561 16.866,-11.317 l 0.3,-0.202 -0.314,1.075 c -1.78,6.101 -3.553,12.196 -5.382,18.283 -0.566,1.878 -0.14,3.232 1.375,4.405 4.419,3.393 8.789,6.835 13.145,10.269 l 2.178,1.711 c 0.112,0.091 0.224,0.174 0.335,0.265 L 58.822,0 C 52.958,0.014 47.101,0.014 41.251,-0.035 h -0.077 c -1.926,0 -3.12,0.866 -3.742,2.716 -1.647,4.803 -3.343,9.606 -5.033,14.409 l -1.724,4.879 -0.866,-2.464 C 27.848,13.92 25.879,8.336 23.966,2.737 23.282,0.817 22.088,-0.035 20.098,-0.035 H 20.022 C 15.721,0.021 11.435,0.028 7.142,0.007 Z m 55.869,-45.719 c -0.342,0 -0.691,0.098 -0.991,0.3 l -11.253,7.498 c -4.231,2.834 -8.468,5.669 -12.678,8.538 0,0.056 -0.447,0.021 -0.523,0.021 -0.007,0 -0.015,0 -0.015,-0.007 -5.605,-3.819 -11.253,-7.602 -16.901,-11.386 l -7.036,-4.65 c -0.622,-0.411 -1.418,-0.377 -2.039,0.063 -0.593,0.447 -0.858,1.215 -0.649,1.934 l 4.168,14.332 c 1.277,4.349 2.548,8.691 3.846,13.033 -4.705,3.826 -9.396,7.526 -14.088,11.233 l -6.729,5.306 c -0.035,0.02 -0.147,0.125 -0.245,0.209 -0.321,0.035 -0.635,0.154 -0.9,0.356 -0.447,0.342 -0.705,0.866 -0.705,1.424 v 1.054 c 0,0.475 0.188,0.936 0.53,1.271 0.335,0.328 0.789,0.517 1.257,0.517 h 0.021 l 3.63,-0.049 c 1.934,-0.035 3.86,-0.063 5.787,-0.07 l 18.73,-0.007 h 0.258 c 2.493,7.218 5.013,14.339 7.526,21.46 l 1.669,4.712 c 0.076,0.928 0.781,1.696 1.71,1.696 h 0.705 c 0.761,0 1.438,-0.481 1.689,-1.194 L 35.31,24.28 c 2.185,-6.22 4.378,-12.44 6.506,-18.667 0.098,-0.272 0.168,-0.384 0.196,-0.426 0,-0.007 0.14,-0.014 0.419,-0.014 h 0.049 c 6.771,0.049 13.522,0.042 20.287,0.035 h 8.405 c 0.761,0 1.438,-0.482 1.689,-1.201 0.251,-0.719 0.014,-1.515 -0.579,-1.983 L 59.513,-8.098 c -3.281,-2.597 -6.562,-5.187 -9.878,-7.728 l 7.966,-27.652 c 0.188,-0.719 -0.091,-1.48 -0.691,-1.906 -0.315,-0.223 -0.678,-0.335 -1.041,-0.335"
             style="fill:#1a1917;fill-opacity:1;fill-rule:nonzero;stroke:none"
             id="path172" />
        </g>
        <g
           id="g174"
           transform="translate(553.5889,1010.0931)">
          <path
             d="m 0,0 h 7.764 c 5.728,0 11.471,0.038 17.199,-0.038 1.277,-0.012 1.809,0.372 2.233,1.565 2.508,7.342 5.106,14.653 7.674,21.978 0.167,0.486 0.364,0.964 0.698,1.876 0.654,-1.721 1.17,-3.07 1.657,-4.434 2.279,-6.49 4.588,-12.978 6.822,-19.488 0.379,-1.125 0.896,-1.509 2.111,-1.497 C 53.831,0.031 61.488,0 69.161,0 h 2.218 c -1.701,-1.371 -2.978,-2.427 -4.285,-3.453 -5.088,-4.011 -10.178,-8.037 -15.33,-11.992 -0.956,-0.736 -1.093,-1.359 -0.759,-2.476 2.264,-7.544 4.452,-15.11 6.655,-22.669 0.076,-0.262 0.167,-0.528 0.259,-0.843 -0.73,-0.254 -1.065,0.255 -1.459,0.509 -6.564,4.376 -13.143,8.744 -19.661,13.184 -0.911,0.631 -1.504,0.608 -2.416,-0.007 -6.578,-4.471 -13.203,-8.877 -19.812,-13.295 -0.335,-0.216 -0.684,-0.399 -1.398,-0.808 0.791,2.727 1.474,5.116 2.173,7.498 1.58,5.427 3.145,10.862 4.816,16.268 0.395,1.268 0.183,1.945 -0.881,2.765 C 13.082,-10.541 6.944,-5.667 0.776,-0.821 0.593,-0.692 0.456,-0.505 0,0"
             style="fill:#f4df4a;fill-opacity:1;fill-rule:evenodd;stroke:none"
             id="path176" />
        </g>
        <g
           id="g178"
           transform="translate(558.5101,1008.3059)">
          <path
             d="m 0,0 2.018,-1.613 c 4.467,-3.518 8.935,-7.037 13.431,-10.499 1.662,-1.285 2.115,-2.744 1.494,-4.719 -1.396,-4.531 -2.722,-9.09 -4.049,-13.648 l -1.612,-5.536 1.263,0.845 c 5.312,3.546 10.625,7.099 15.91,10.687 1.536,1.034 2.939,1.041 4.447,-0.006 5.577,-3.805 11.218,-7.561 16.866,-11.317 l 0.3,-0.202 -0.314,1.075 c -1.78,6.101 -3.553,12.196 -5.382,18.283 -0.566,1.878 -0.14,3.232 1.375,4.405 4.419,3.393 8.789,6.835 13.145,10.269 l 2.178,1.711 c 0.112,0.091 0.224,0.174 0.335,0.265 L 58.822,0 C 52.958,0.014 47.101,0.014 41.251,-0.035 h -0.077 c -1.926,0 -3.12,0.866 -3.742,2.716 -1.647,4.803 -3.343,9.606 -5.033,14.409 l -1.724,4.879 -0.866,-2.464 C 27.848,13.92 25.879,8.336 23.966,2.737 23.282,0.817 22.088,-0.035 20.098,-0.035 H 20.022 C 15.721,0.021 11.435,0.028 7.142,0.007 Z m 8.252,-41.851 c -0.391,0 -0.782,0.125 -1.103,0.377 -0.573,0.453 -0.817,1.207 -0.615,1.906 l 2.926,10.094 c 1.333,4.573 2.666,9.145 4.069,13.704 0.105,0.328 0.112,0.468 0.112,0.496 -0.014,0 -0.098,0.118 -0.377,0.335 -4.503,3.469 -8.978,6.994 -13.459,10.52 L -5.25,-0.44 c -0.237,0.168 -0.426,0.384 -0.691,0.677 l -0.307,0.349 c -0.475,0.531 -0.593,1.285 -0.307,1.927 0.286,0.643 0.928,1.061 1.633,1.061 L 7.135,3.581 c 4.328,-0.007 8.635,0.007 12.929,-0.042 0.328,-0.041 0.418,0.056 0.53,0.377 1.906,5.585 3.875,11.184 5.843,16.776 l 2.534,7.093 c 0.252,0.698 0.922,1.165 1.662,1.173 h 0.014 c 0.74,0 1.403,-0.461 1.668,-1.153 l 0.175,-0.446 c 0.579,-1.529 1.054,-2.772 1.494,-4.028 l 1.787,-5.055 c 1.696,-4.809 3.393,-9.619 5.047,-14.45 l 0.405,-0.287 c 5.878,0.042 11.728,0.056 17.606,0.035 h 7.631 c 0.761,0 1.431,-0.481 1.682,-1.193 C 68.4,1.669 68.17,0.866 67.577,0.391 l -1.871,-1.515 c -0.866,-0.698 -1.641,-1.333 -2.43,-1.948 l -2.171,-1.71 c -4.37,-3.449 -8.747,-6.897 -13.173,-10.29 l -1.85,-1.061 1.71,0.517 c 1.836,-6.102 3.617,-12.21 5.397,-18.319 l 1.431,-4.901 c 0.293,-0.928 -0.119,-2.185 -1.04,-2.499 -1.515,-0.551 -2.528,0.314 -2.925,0.629 l -2.87,1.926 c -5.655,3.763 -11.302,7.526 -16.915,11.345 -5.696,-3.603 -11.016,-7.156 -16.343,-10.709 l -3.888,-2.597 c -0.258,-0.168 -0.502,-0.307 -0.852,-0.503 l -0.642,-0.37 c -0.279,-0.161 -0.586,-0.237 -0.893,-0.237"
             style="fill:#1a1917;fill-opacity:1;fill-rule:nonzero;stroke:none"
             id="path180" />
        </g>
        <g
           id="g182"
           transform="translate(672.7534,991.1915)">
          <path
             d="m 0,0 c 0.471,-0.502 0.608,-0.688 0.775,-0.821 6.168,-4.846 12.306,-9.712 18.521,-14.497 1.048,-0.813 1.261,-1.497 0.881,-2.762 -1.672,-5.402 -3.237,-10.841 -4.816,-16.272 -0.699,-2.382 -1.399,-4.763 -2.173,-7.499 0.714,0.411 1.063,0.593 1.398,0.809 6.609,4.426 13.218,8.828 19.796,13.295 0.912,0.623 1.505,0.642 2.431,0.016 6.518,-4.441 13.083,-8.817 19.661,-13.185 0.38,-0.255 0.729,-0.771 1.459,-0.517 -0.091,0.323 -0.183,0.585 -0.258,0.843 -2.219,7.563 -4.406,15.129 -6.671,22.669 -0.319,1.117 -0.182,1.744 0.76,2.476 5.166,3.955 10.241,7.985 15.346,12 1.291,1.026 2.567,2.073 4.269,3.445 L 69.16,0 c -7.657,0 -15.33,0.03 -22.987,-0.03 -1.23,-0.016 -1.732,0.365 -2.112,1.489 -2.233,6.51 -4.543,12.998 -6.837,19.489 -0.486,1.367 -1.003,2.712 -1.641,4.441 -0.334,-0.92 -0.531,-1.398 -0.699,-1.884 C 32.317,16.189 29.703,8.869 27.196,1.527 26.786,0.335 26.239,-0.05 24.978,-0.03 19.25,0.042 13.507,0 7.779,0 Z m -4.148,1.763 c 3.145,-0.042 6.275,-0.11 9.435,-0.126 6.244,-0.019 12.49,-0.003 18.734,-0.003 0.805,0 1.504,-0.088 1.884,1.017 3.024,8.794 6.153,17.564 9.238,26.349 0.06,0.149 0.03,0.335 0.03,0.502 h 0.699 c 3.069,-8.744 6.184,-17.484 9.192,-26.254 0.44,-1.288 1.033,-1.653 2.355,-1.645 8.842,0.061 17.67,0.031 26.512,0.031 h 2.158 c -3.555,-2.827 -6.731,-5.352 -9.921,-7.867 -4.209,-3.331 -8.418,-6.685 -12.687,-9.956 -0.926,-0.714 -0.942,-1.382 -0.653,-2.347 2.567,-8.603 5.089,-17.218 7.627,-25.833 0.091,-0.322 0.167,-0.653 0.334,-1.341 -2.674,1.774 -5.075,3.366 -7.46,4.973 -5.5,3.672 -10.985,7.323 -16.439,11.053 -0.942,0.646 -1.55,0.702 -2.568,0.019 -7.172,-4.915 -14.418,-9.739 -21.665,-14.594 -0.609,-0.414 -1.247,-0.805 -2.234,-1.431 0.911,3.164 1.717,5.944 2.522,8.721 1.822,6.214 3.631,12.431 5.484,18.635 0.274,0.892 0.213,1.439 -0.592,2.07 -6.959,5.427 -13.871,10.92 -20.815,16.375 -0.349,0.269 -0.608,0.744 -1.17,0.595 z"
             style="fill:#f4df4a;fill-opacity:1;fill-rule:evenodd;stroke:none"
             id="path184" />
        </g>
        <g
           id="g186"
           transform="translate(677.6697,989.4014)">
          <path
             d="m 0,0 1.508,-1.201 c 4.635,-3.651 9.285,-7.302 13.962,-10.911 1.633,-1.264 2.094,-2.709 1.508,-4.685 -1.494,-4.789 -2.876,-9.577 -4.273,-14.374 l -1.41,-4.844 1.438,0.956 c 5.25,3.518 10.5,7.03 15.721,10.583 1.55,1.027 2.918,1.048 4.441,0.021 5.696,-3.888 11.434,-7.721 17.187,-11.539 l -0.726,2.464 c -1.648,5.634 -3.295,11.267 -4.984,16.88 -0.531,1.892 -0.112,3.239 1.368,4.405 4.37,3.344 8.67,6.737 12.97,10.123 L 61.391,0 58.194,0.007 C 52.539,0.014 46.899,0.021 41.272,-0.028 h -0.07 c -1.941,0 -3.127,0.859 -3.742,2.709 -1.689,4.9 -3.42,9.794 -5.152,14.688 l -1.62,4.593 -1.019,-2.89 C 27.757,13.634 25.83,8.196 23.973,2.744 23.302,0.81 22.116,0.056 20.035,-0.028 15.903,0.014 11.728,0 7.554,0.007 Z m 55.876,-45.705 c -0.349,0 -0.684,0.098 -0.991,0.293 -2.681,1.78 -5.083,3.372 -7.47,4.985 l -2.96,1.975 c -4.51,3.009 -9.005,6.018 -13.487,9.083 l -1.257,1.201 c -0.028,-0.015 -0.056,-0.028 -0.07,-0.049 l 0.768,-1.132 c -5.962,-4.09 -11.979,-8.118 -18.011,-12.146 l -3.672,-2.458 c -0.475,-0.335 -1.019,-0.67 -1.759,-1.138 L 6.45,-45.412 c -0.628,-0.384 -1.41,-0.377 -2.024,0.091 -0.6,0.447 -0.852,1.215 -0.642,1.927 l 4.314,14.793 c 1.229,4.195 2.457,8.384 3.7,12.566 -4.272,3.504 -8.545,6.876 -12.817,10.247 l -7.973,6.284 c -0.028,0.02 -0.153,0.132 -0.265,0.223 -0.321,0.035 -0.628,0.16 -0.893,0.363 -0.447,0.342 -0.699,0.865 -0.699,1.417 v 1.054 c 0,0.475 0.196,0.936 0.531,1.271 0.349,0.342 0.935,0.363 1.284,0.517 L -5.906,5.292 C -1.159,5.208 3.602,5.194 8.405,5.201 c 1.773,0 3.56,0.007 5.348,0.007 h 5.347 0.251 c 2.081,6.031 4.175,11.965 6.269,17.899 l 2.919,8.28 c 0,0.984 0.725,1.689 1.717,1.689 h 0.698 c 0.754,0 1.438,-0.482 1.689,-1.194 l 2.36,-6.722 c 2.303,-6.507 4.593,-13.013 6.827,-19.54 0.098,-0.266 0.168,-0.384 0.196,-0.426 0,0.007 0.112,-0.014 0.432,-0.014 h 0.028 c 6.521,0.035 13.041,0.028 19.547,0.035 l 9.145,-0.007 c 0.754,0 1.439,-0.482 1.69,-1.201 0.251,-0.719 0.014,-1.515 -0.586,-1.99 l -9.928,-7.86 c -4.398,-3.498 -8.53,-6.772 -12.705,-9.976 1.759,-6.409 3.532,-12.413 5.292,-18.409 l 2.666,-9.264 c 0.182,-0.712 -0.097,-1.466 -0.698,-1.885 -0.307,-0.216 -0.67,-0.328 -1.033,-0.328"
             style="fill:#1a1917;fill-opacity:1;fill-rule:nonzero;stroke:none"
             id="path188" />
        </g>
        <g
           id="g190"
           transform="translate(672.7534,991.1915)">
          <path
             d="m 0,0 h 7.779 c 5.728,0 11.471,0.042 17.199,-0.03 1.261,-0.02 1.808,0.365 2.218,1.557 2.507,7.342 5.121,14.662 7.688,21.978 0.168,0.486 0.365,0.964 0.699,1.884 0.638,-1.729 1.155,-3.074 1.641,-4.441 2.294,-6.491 4.604,-12.979 6.837,-19.489 0.38,-1.124 0.882,-1.505 2.112,-1.489 C 53.83,0.03 61.503,0 69.16,0 h 2.219 c -1.702,-1.372 -2.978,-2.419 -4.269,-3.445 -5.105,-4.015 -10.18,-8.045 -15.346,-12 -0.942,-0.732 -1.079,-1.359 -0.76,-2.476 2.265,-7.54 4.452,-15.106 6.671,-22.669 0.075,-0.258 0.167,-0.52 0.258,-0.843 -0.73,-0.254 -1.079,0.262 -1.459,0.517 -6.578,4.368 -13.143,8.744 -19.661,13.185 -0.926,0.626 -1.519,0.607 -2.431,-0.016 -6.578,-4.467 -13.187,-8.869 -19.796,-13.295 -0.335,-0.216 -0.684,-0.398 -1.398,-0.809 0.774,2.736 1.474,5.117 2.173,7.499 1.579,5.431 3.144,10.87 4.816,16.272 0.38,1.265 0.167,1.949 -0.881,2.762 C 13.081,-10.533 6.943,-5.667 0.775,-0.821 0.608,-0.688 0.471,-0.502 0,0"
             style="fill:#f4df4a;fill-opacity:1;fill-rule:evenodd;stroke:none"
             id="path192" />
        </g>
        <g
           id="g194"
           transform="translate(677.6697,989.4014)">
          <path
             d="m 0,0 1.508,-1.201 c 4.635,-3.651 9.285,-7.302 13.962,-10.911 1.633,-1.264 2.094,-2.709 1.508,-4.685 -1.494,-4.789 -2.876,-9.577 -4.273,-14.374 l -1.41,-4.844 1.438,0.956 c 5.25,3.518 10.5,7.03 15.721,10.583 1.55,1.027 2.918,1.048 4.441,0.021 5.696,-3.888 11.434,-7.721 17.187,-11.539 l -0.726,2.464 c -1.648,5.634 -3.295,11.267 -4.984,16.88 -0.531,1.892 -0.112,3.239 1.368,4.405 4.37,3.344 8.67,6.737 12.97,10.123 L 61.391,0 58.194,0.007 C 52.581,0.014 46.899,0.021 41.272,-0.028 h -0.07 c -1.941,0 -3.127,0.859 -3.742,2.709 -1.689,4.9 -3.42,9.794 -5.152,14.688 l -1.62,4.593 -1.019,-2.89 C 27.757,13.634 25.83,8.196 23.973,2.744 23.302,0.81 22.116,0.056 20.035,-0.028 15.889,0.014 11.728,0 7.554,0.007 Z m 8.265,-41.844 c -0.39,0 -0.781,0.132 -1.117,0.383 -0.558,0.454 -0.795,1.201 -0.6,1.899 l 2.723,9.39 c 1.396,4.817 2.792,9.627 4.286,14.416 0.098,0.328 0.098,0.467 0.084,0.488 0,0 -0.084,0.112 -0.349,0.321 -4.691,3.616 -9.341,7.275 -14.004,10.94 l -4.538,3.574 c -0.083,0.063 -0.461,0.447 -0.53,0.524 l -0.419,0.461 c -0.503,0.516 -0.642,1.277 -0.363,1.94 0.279,0.656 0.935,1.082 1.647,1.082 L 7.539,3.581 c 4.175,0.007 8.378,0.021 12.552,-0.035 l 2.192,-0.23 -1.689,0.572 c 1.857,5.473 3.784,10.926 5.696,16.371 l 2.681,7.511 c 0.252,0.712 0.922,1.187 1.676,1.194 h 0.014 c 0.74,0 1.41,-0.461 1.675,-1.166 l 0.559,-1.487 c 0.404,-1.068 0.754,-2.017 1.102,-2.973 l 1.676,-4.776 c 1.745,-4.907 3.476,-9.815 5.166,-14.736 l 0.405,-0.28 c 5.655,0.035 11.351,0.028 16.95,0.035 l 8.265,-0.007 c 0.754,0 1.438,-0.482 1.69,-1.194 C 68.4,1.669 68.177,0.866 67.576,0.391 l -6.66,-5.32 c -4.3,-3.399 -8.614,-6.799 -12.984,-10.143 l -1.843,-1.061 1.717,0.516 c 1.689,-5.626 3.337,-11.267 4.985,-16.915 l 1.954,-6.674 c 0.224,-0.9 -0.265,-1.822 -1.145,-2.129 -1.536,-0.523 -2.555,0.328 -2.946,0.643 -6.66,4.446 -13.25,8.83 -19.756,13.278 -5.669,-3.575 -10.918,-7.094 -16.182,-10.612 l -4.049,-2.715 c -0.293,-0.196 -0.586,-0.35 -1.033,-0.601 l -0.503,-0.279 c -0.265,-0.147 -0.572,-0.223 -0.866,-0.223"
             style="fill:#1a1917;fill-opacity:1;fill-rule:nonzero;stroke:none"
             id="path196" />
        </g>
        <g
           id="g198"
           transform="translate(193.4019,313.6711)">
          <path
             d="M 0,0 346.546,-258.955 689.287,0.007 749.352,330.329 H -56.316 Z m 346.567,-275.046 c -1.508,0 -3.009,0.475 -4.28,1.424 L -10.849,-9.739 c -1.466,1.097 -2.457,2.716 -2.764,4.524 l -58.215,341.492 c -0.356,2.073 0.223,4.203 1.578,5.808 1.361,1.613 3.358,2.541 5.466,2.541 h 822.695 c 2.122,0 4.132,-0.942 5.486,-2.569 1.355,-1.626 1.927,-3.77 1.551,-5.857 L 702.858,-5.292 c -0.321,-1.766 -1.299,-3.343 -2.722,-4.426 L 350.874,-273.601 c -1.271,-0.963 -2.792,-1.445 -4.307,-1.445"
             style="fill:#1a1917;fill-opacity:1;fill-rule:nonzero;stroke:none"
             id="path200" />
        </g>
        <g
           id="g202"
           transform="translate(197.5624,316.2191)">
          <path
             d="M 0,0 342.364,-255.841 680.98,0.007 739.746,323.25 H -55.101 Z m 342.378,-263.883 c -0.754,0 -1.508,0.237 -2.136,0.712 L -5.417,-4.873 c -0.74,0.545 -1.236,1.362 -1.389,2.262 l -56.058,328.835 c -0.175,1.04 0.111,2.102 0.796,2.904 0.677,0.803 1.675,1.271 2.729,1.271 h 803.371 c 1.061,0 2.067,-0.468 2.751,-1.285 0.67,-0.809 0.949,-1.884 0.768,-2.932 L 687.765,-2.646 c -0.167,-0.879 -0.642,-1.668 -1.368,-2.206 L 344.535,-263.164 c -0.642,-0.475 -1.396,-0.719 -2.157,-0.719"
             style="fill:#ffffff;fill-opacity:1;fill-rule:nonzero;stroke:none"
             id="path204" />
        </g>
      </g>
    </g>
  </g>
</svg>
