<?xml version="1.0" standalone="no"?>
<!DOCTYPE svg PUBLIC "-//W3C//DTD SVG 20010904//EN"
 "http://www.w3.org/TR/2001/REC-SVG-20010904/DTD/svg10.dtd">
<svg version="1.0" xmlns="http://www.w3.org/2000/svg"
 width="500.000000pt" height="610.000000pt" viewBox="0 0 500.000000 610.000000"
 preserveAspectRatio="xMidYMid meet">

<g transform="translate(0.000000,610.000000) scale(0.100000,-0.100000)"
fill="#000000" stroke="none">
<path d="M2260 5769 c-382 -46 -751 -180 -1054 -381 l-100 -66 -124 119 c-69
65 -128 119 -132 119 -7 0 -420 -445 -433 -467 -6 -9 18 -67 70 -171 266 -529
312 -1105 137 -1733 -13 -47 -63 -203 -112 -345 -49 -142 -96 -283 -104 -312
l-16 -52 42 37 c223 200 436 408 431 421 -16 42 -37 203 -42 327 -16 418 128
825 411 1157 234 274 588 480 950 553 242 49 554 34 786 -38 l45 -14 297 276
c163 152 298 281 299 286 6 27 -293 154 -492 209 -216 59 -349 78 -579 81
-113 2 -239 0 -280 -6z"/>
<path d="M3815 5233 c-187 -173 -373 -345 -414 -382 l-73 -67 98 -66 c99 -66
211 -163 314 -271 l55 -57 385 357 c212 196 385 359 385 363 0 10 -396 440
-404 439 -3 0 -159 -142 -346 -316z"/>
<path d="M2365 4704 c-626 -68 -1138 -552 -1240 -1173 -21 -126 -16 -383 10
-501 99 -449 412 -826 831 -1002 517 -215 1102 -97 1503 304 212 212 352 487
397 783 21 130 13 364 -15 485 -60 262 -180 484 -364 677 -258 269 -591 418
-957 428 -69 2 -143 1 -165 -1z m507 -448 c181 -33 310 -140 373 -311 93 -249
23 -512 -170 -640 l-56 -37 58 -37 c65 -42 102 -99 123 -188 6 -28 17 -158 24
-289 l12 -237 37 -32 c35 -31 37 -35 37 -94 l0 -61 -235 0 c-270 0 -245 -10
-286 110 -20 59 -22 86 -24 290 -1 130 -6 236 -12 250 -14 32 -50 66 -86 79
-17 7 -125 11 -278 11 l-249 0 0 -370 0 -370 -230 0 -230 0 0 970 0 970 558 0
c427 -1 575 -4 634 -14z"/>
<path d="M1740 3300 l0 -900 165 0 165 0 0 370 0 370 278 0 c296 0 339 -5 402
-50 17 -12 40 -40 52 -63 21 -39 23 -61 29 -287 5 -196 10 -255 24 -292 l17
-48 185 0 184 0 -30 43 c-41 59 -48 96 -55 307 -12 370 -25 395 -251 495 -58
26 -59 27 -35 37 218 91 301 174 335 335 18 85 18 140 1 225 -29 134 -106 247
-205 301 -97 54 -137 57 -723 57 l-538 0 0 -900z m1010 624 c98 -45 147 -146
137 -281 -9 -122 -65 -204 -156 -232 -25 -7 -145 -11 -350 -11 l-311 0 0 276
0 276 318 -4 c295 -3 320 -5 362 -24z"/>
<path d="M2140 3670 l0 -212 278 4 c246 3 281 5 314 22 59 29 81 75 86 175 3
75 0 92 -20 131 -43 82 -52 85 -375 88 l-283 3 0 -211z"/>
<path d="M4143 4288 l-172 -160 31 -61 c130 -258 191 -570 168 -858 -34 -420
-191 -769 -478 -1063 -196 -200 -411 -333 -687 -425 -153 -51 -263 -70 -445
-77 -225 -10 -444 25 -640 100 -88 34 -235 107 -305 150 l-39 24 -56 -51 c-31
-29 -202 -187 -380 -353 -179 -165 -343 -317 -365 -337 l-40 -37 55 -50 c138
-125 338 -243 505 -299 172 -57 223 -63 550 -65 298 -2 301 -2 373 -29 86 -31
163 -74 232 -128 l50 -40 65 50 c35 27 97 66 137 85 117 58 182 67 481 65 208
-1 279 3 347 16 280 55 521 186 735 400 60 61 139 151 173 200 78 111 156 268
176 355 24 106 39 314 32 449 -14 272 -50 433 -160 729 -92 247 -121 337 -152
482 -80 369 -83 703 -8 1058 3 17 3 32 -2 31 -5 0 -86 -73 -181 -161z"/>
<path d="M650 2314 c-266 -246 -320 -300 -320 -322 0 -62 31 -226 59 -313 33
-101 131 -294 149 -294 11 0 784 711 790 727 2 5 -28 42 -66 82 -83 88 -153
185 -229 319 -30 53 -57 97 -59 97 -2 0 -148 -133 -324 -296z"/>
</g>
</svg>
