<?xml version="1.0" encoding="UTF-8" standalone="no"?>
<!-- Created with Inkscape (http://www.inkscape.org/) -->

<svg
   version="1.1"
   id="svg2"
   width="1440"
   height="1440"
   viewBox="0 0 1440 1440"
   sodipodi:docname="San Luis.ai"
   xmlns:inkscape="http://www.inkscape.org/namespaces/inkscape"
   xmlns:sodipodi="http://sodipodi.sourceforge.net/DTD/sodipodi-0.dtd"
   xmlns="http://www.w3.org/2000/svg"
   xmlns:svg="http://www.w3.org/2000/svg">
  <defs
     id="defs6">
    <clipPath
       clipPathUnits="userSpaceOnUse"
       id="clipPath16">
      <path
         d="M 0,1080 H 1080 V 0 H 0 Z"
         id="path14" />
    </clipPath>
  </defs>
  <sodipodi:namedview
     id="namedview4"
     pagecolor="#ffffff"
     bordercolor="#000000"
     borderopacity="0.25"
     inkscape:showpageshadow="2"
     inkscape:pageopacity="0.0"
     inkscape:pagecheckerboard="0"
     inkscape:deskcolor="#d1d1d1" />
  <g
     id="g8"
     inkscape:groupmode="layer"
     inkscape:label="San Luis"
     transform="matrix(1.3333333,0,0,-1.3333333,0,1440)">
    <g
       id="g10">
      <g
         id="g12"
         clip-path="url(#clipPath16)">
        <g
           id="g18"
           transform="translate(540.0004,41.947)">
          <path
             d="m 0,0 -39.852,46.857 c -3.629,4.266 -17.305,19.209 -40.907,32.345 -12.278,6.834 -52.708,25.056 -83.407,36.223 l -0.272,0.098 c -41.842,15.484 -82.776,34.876 -121.669,57.643 -38.97,22.531 -71.655,54.919 -94.527,93.67 -23.633,40.041 -36.125,85.901 -36.125,132.622 0,50.514 14.408,99.468 41.68,141.673 57.208,98.676 71.197,131.708 72.778,135.596 l 0.66,1.948 0.516,0.93 c 9.717,22.041 14.644,45.758 14.644,70.491 0,31.993 -8.643,63.299 -24.996,90.533 l -21.679,36.107 95.244,89.794 32.11,-14.853 c 30.245,-13.992 62.643,-21.087 96.292,-21.087 29.494,0 53.848,9.466 72.386,28.134 l 37.122,37.382 37.124,-37.382 c 18.538,-18.668 42.894,-28.134 72.387,-28.134 33.65,0 66.048,7.095 96.293,21.087 l 32.11,14.853 95.244,-89.794 -21.68,-36.107 c -16.352,-27.234 -24.995,-58.54 -24.995,-90.533 0,-24.733 4.926,-48.451 14.641,-70.49 l 0.941,-2.132 0.259,-0.8 c 1.677,-4.113 15.786,-37.28 72.754,-135.542 27.276,-42.206 41.683,-91.159 41.683,-141.674 0,-46.719 -12.492,-92.579 -36.126,-132.622 C 357.76,228.084 325.072,195.694 286.1,173.162 247.205,150.397 206.272,131.004 164.438,115.523 l -0.271,-0.098 C 133.47,104.258 93.036,86.036 80.757,79.202 57.156,66.066 43.481,51.123 39.852,46.857 Z"
             style="fill:#000000;fill-opacity:1;fill-rule:nonzero;stroke:none"
             id="path20" />
        </g>
        <g
           id="g22"
           transform="translate(539.9996,81.0372)">
          <path
             d="m 0,0 -20.322,25.077 c -8.09,9.981 -24.874,25.179 -47.713,37.891 -14.635,8.147 -56.789,26.89 -87.189,37.949 -40.574,15.013 -80.141,33.761 -117.741,55.776 -72.562,41.932 -117.635,119.963 -117.635,203.675 0,45.667 13.079,89.909 37.827,127.99 61.16,105.46 74.068,137.756 74.978,140.105 l 0.607,1.501 c 11.191,25.385 16.866,52.652 16.866,81.042 0,36.735 -9.934,72.698 -28.727,103.998 l -10.841,18.054 67.051,63.214 16.055,-7.428 c 33.713,-15.595 69.806,-23.502 107.275,-23.502 45.737,0 74.702,19.501 90.948,35.86 L 0,919.893 18.56,901.202 c 16.247,-16.359 45.212,-35.86 90.95,-35.86 37.469,0 73.561,7.907 107.274,23.502 l 16.056,7.428 67.05,-63.214 -10.84,-18.054 c -18.794,-31.3 -28.728,-67.263 -28.728,-103.998 0,-28.391 5.675,-55.657 16.868,-81.042 l 0.609,-1.507 c 0.928,-2.397 13.864,-34.726 74.975,-140.099 C 377.523,450.277 390.6,406.036 390.6,360.368 390.6,276.643 345.507,198.596 272.922,156.669 235.33,134.662 195.778,115.921 155.361,100.965 124.828,89.86 82.673,71.115 68.035,62.968 45.196,50.256 28.414,35.058 20.322,25.077 Z"
             style="fill:#ffffff;fill-opacity:1;fill-rule:nonzero;stroke:none"
             id="path24" />
        </g>
        <g
           id="g26"
           transform="translate(799.3953,261.0168)">
          <path
             d="m 0,0 c 64.308,37.122 104.254,106.243 104.254,180.388 0,40.656 -11.697,80.024 -33.826,113.843 -65.026,112.083 -77.199,144.613 -77.314,144.927 -12.692,28.786 -19.138,59.711 -19.138,91.868 0,41.409 11.147,81.962 32.244,117.325 l -38.004,35.828 c -37.145,-17.099 -76.875,-25.768 -118.102,-25.768 -54.492,0 -89.557,23.385 -109.51,43.258 -19.951,-19.873 -55.017,-43.258 -109.509,-43.258 -41.226,0 -80.957,8.669 -118.103,25.768 l -38.004,-35.828 c 21.099,-35.363 32.245,-75.916 32.245,-117.325 0,-32.157 -6.445,-63.082 -19.156,-91.915 -0.097,-0.267 -12.271,-32.797 -77.275,-144.843 -22.151,-33.858 -33.847,-73.225 -33.847,-113.88 0,-74.146 39.946,-143.267 104.25,-180.386 36.261,-21.235 74.411,-39.315 113.393,-53.739 32.039,-11.657 75.27,-30.926 91.078,-39.726 21.782,-12.124 37.752,-24.848 54.928,-43.79 17.177,18.944 33.147,31.667 54.928,43.79 15.811,8.801 59.042,28.071 91.083,39.727 C -74.411,-39.315 -36.261,-21.234 0,0"
             style="fill:#ffef00;fill-opacity:1;fill-rule:nonzero;stroke:none"
             id="path28" />
        </g>
        <g
           id="g30"
           transform="translate(539.9996,123.7637)">
          <path
             d="m 0,0 c -17.176,18.942 -33.146,31.666 -54.928,43.791 -15.808,8.799 -59.039,28.068 -91.079,39.725 -38.981,14.424 -77.131,32.504 -113.392,53.739 -64.304,37.119 -104.25,106.24 -104.25,180.386 0,40.655 11.696,80.022 33.846,113.88 65.005,112.046 77.179,144.576 77.275,144.844 12.712,28.833 19.157,59.757 19.157,91.914 0,41.409 -11.147,81.962 -32.245,117.325 l 38.003,35.828 c 37.147,-17.099 76.878,-25.768 118.104,-25.768 54.492,0 89.557,23.386 109.509,43.258 19.953,-19.872 55.018,-43.258 109.51,-43.258 41.227,0 80.957,8.669 118.102,25.768 l 38.004,-35.828 c -21.097,-35.363 -32.244,-75.916 -32.244,-117.325 0,-32.157 6.445,-63.081 19.138,-91.867 0.115,-0.315 12.288,-32.845 77.314,-144.928 22.128,-33.819 33.826,-73.187 33.826,-113.843 0,-74.145 -39.947,-143.265 -104.254,-180.388 C 223.135,116.019 184.985,97.938 146.011,83.517 113.97,71.861 70.739,52.591 54.928,43.791 33.146,31.667 17.177,18.944 0,0 m 331.173,432.316 c -64.891,111.852 -77.061,144.326 -77.193,144.688 -12.622,28.631 -19.022,59.34 -19.022,91.275 0,41.335 11.186,81.812 32.346,117.056 l 0.328,0.547 -39.711,37.439 -0.486,-0.225 C 190.359,805.946 150.683,797.25 109.51,797.25 55.047,797.25 20.203,820.825 0.563,840.602 L 0,841.168 -0.563,840.602 c -19.639,-19.777 -54.482,-43.352 -108.946,-43.352 -41.174,0 -80.85,8.696 -117.924,25.846 l -0.488,0.225 -39.71,-37.439 0.328,-0.547 c 21.162,-35.244 32.346,-75.721 32.346,-117.056 0,-31.935 -6.399,-62.644 -19.041,-91.322 -0.115,-0.315 -12.284,-32.789 -77.153,-144.605 -22.298,-34.079 -34.083,-73.746 -34.083,-114.711 0,-74.713 40.25,-144.359 105.038,-181.757 36.336,-21.279 74.571,-39.398 113.643,-53.856 C -114.575,70.396 -71.456,51.176 -55.7,42.406 -33.831,30.235 -17.865,17.453 -0.589,-1.712 L 0,-2.364 0.589,-1.712 c 17.276,19.165 33.244,31.947 55.11,44.118 15.76,8.772 58.88,27.99 90.859,39.622 39.063,14.457 77.299,32.575 113.636,53.856 64.791,37.4 105.041,107.046 105.041,181.757 0,40.965 -11.786,80.633 -34.062,114.675"
             style="fill:#000000;fill-opacity:1;fill-rule:nonzero;stroke:none"
             id="path32" />
        </g>
        <g
           id="g34"
           transform="translate(459.7615,781.6642)">
          <path
             d="m 0,0 c -5.571,3.666 -13.82,7.082 -25.215,10.444 -13.043,3.848 -17.816,6.793 -19.523,8.582 -1.724,1.811 -2.563,3.937 -2.563,6.499 0,2.796 0.862,4.935 2.64,6.541 3.154,2.862 7.692,4.311 13.496,4.311 5.55,0 9.687,-1.309 12.295,-3.888 2.704,-2.678 4.521,-7.339 5.397,-13.851 l 0.359,-2.667 28.156,1.545 -0.077,2.834 c -0.376,13.534 -4.407,24.559 -11.978,32.764 -7.655,8.295 -19.069,12.502 -33.922,12.502 -9.061,0 -16.948,-1.754 -23.438,-5.215 -6.596,-3.517 -11.712,-8.705 -15.211,-15.418 -3.442,-6.601 -5.187,-13.791 -5.187,-21.369 0,-11.773 3.723,-21.913 11.067,-30.135 5.303,-5.937 14.088,-10.746 26.856,-14.7 9.295,-2.889 15.297,-4.909 17.811,-5.998 3.348,-1.485 5.671,-3.177 6.908,-5.026 1.24,-1.854 1.842,-4.093 1.842,-6.841 0,-4.421 -1.548,-8.187 -4.736,-11.509 -3.109,-3.242 -7.948,-4.886 -14.383,-4.886 -6.099,0 -10.771,1.823 -14.281,5.576 -3.622,3.869 -6.082,10.189 -7.315,18.783 l -0.404,2.821 -27.673,-3.361 0.266,-2.823 c 1.534,-16.256 6.372,-28.872 14.379,-37.5 8.138,-8.767 19.846,-13.214 34.798,-13.214 10.167,0 18.829,1.834 25.75,5.445 7.044,3.677 12.558,9.359 16.392,16.886 3.763,7.392 5.672,15.426 5.672,23.878 0,9.268 -1.607,17.212 -4.778,23.61 C 10.199,-8.919 5.691,-3.745 0,0"
             style="fill:#000000;fill-opacity:1;fill-rule:nonzero;stroke:none"
             id="path36" />
        </g>
        <g
           id="g38"
           transform="translate(526.7941,760.2094)">
          <path
             d="M 0,0 11.295,38.77 22.816,0 Z m -2.58,84.682 -45.493,-145.94 h 30.161 l 9.255,31.826 h 40.493 l 9.79,-31.826 h 30.772 l -46.77,145.94 z"
             style="fill:#000000;fill-opacity:1;fill-rule:nonzero;stroke:none"
             id="path40" />
        </g>
        <g
           id="g42"
           transform="translate(672.4565,844.8916)">
          <path
             d="M 0,0 V -83.937 L -41.17,0 h -26.758 v -145.94 h 26.858 v 81.835 l 40.492,-81.835 h 27.436 l 0,145.94 z"
             style="fill:#000000;fill-opacity:1;fill-rule:nonzero;stroke:none"
             id="path44" />
        </g>
        <g
           id="g46"
           transform="translate(771.2474,430.9016)">
          <path
             d="m 0,0 c -0.297,-2.816 -8.101,-69.416 -83.303,-106.564 -64.656,-31.935 -133.875,-5.384 -194.946,18.043 -12.956,4.973 -25.195,9.668 -37.086,13.693 -13.83,4.681 -28.91,7.31 -44.325,8.484 v 260.802 h 43.204 v 36.771 h -136.053 v -36.771 h 27.58 V -68.487 c -43.006,-5.273 -77.608,-15.955 -80.177,-16.763 l 12.814,-40.843 c 28.131,8.829 112.298,27.961 163.233,10.718 11.083,-3.751 22.933,-8.296 35.48,-13.108 43.091,-16.531 93.072,-35.71 145.304,-35.706 27.577,0 55.785,5.346 83.931,19.249 C 32.995,-96.857 42.263,-7.824 42.61,-4.056 Z"
             style="fill:#000000;fill-opacity:1;fill-rule:nonzero;stroke:none"
             id="path48" />
        </g>
        <g
           id="g50"
           transform="translate(519.8796,477.0306)">
          <path
             d="m 0,0 c 0,-16.212 -0.412,-27.907 -1.224,-34.763 -0.677,-5.741 -2.672,-10.595 -5.926,-14.432 -2.855,-3.364 -7.081,-4.93 -13.301,-4.93 -6.161,0 -10.597,1.747 -13.958,5.5 -3.707,4.137 -6.109,9.863 -7.136,16.972 -0.462,3.436 -1.013,12.139 -1.013,34.083 V 122.734 H -85.19 V 4.143 c 0,-23.68 0.981,-41.924 2.917,-54.232 1.422,-8.853 4.409,-17.422 8.877,-25.463 4.628,-8.336 11.014,-15.203 18.981,-20.414 8.164,-5.342 19.886,-8.051 34.844,-8.051 12.532,0 22.986,2.471 31.068,7.346 7.982,4.815 14.444,11.366 19.209,19.475 4.624,7.871 7.822,17.541 9.506,28.747 1.604,10.668 2.418,28.94 2.418,54.306 V 122.734 H 0 Z"
             style="fill:#000000;fill-opacity:1;fill-rule:nonzero;stroke:none"
             id="path52" />
        </g>
        <path
           d="m 578.327,376.584 h 42.634 v 223.18 h -42.634 z"
           style="fill:#000000;fill-opacity:1;fill-rule:nonzero;stroke:none"
           id="path54" />
        <g
           id="g56"
           transform="translate(733.2791,504.5481)">
          <path
             d="m 0,0 c -7.294,5.622 -18.439,11.047 -33.128,16.125 -17.353,5.998 -22.183,10.277 -23.453,11.837 -1.879,2.312 -2.752,4.975 -2.752,8.38 0,3.689 0.861,6.322 2.718,8.288 3.471,3.69 8.144,5.409 14.706,5.409 6.088,0 10.369,-1.534 13.089,-4.685 1.983,-2.301 3.587,-5.926 4.768,-10.647 H 19.79 C 18.489,52.634 13.305,67.479 4.326,78.88 -6.078,92.09 -21.535,98.788 -41.618,98.788 c -12.25,0 -22.949,-2.803 -31.794,-8.331 -8.921,-5.572 -15.818,-13.731 -20.495,-24.25 -4.506,-10.128 -6.792,-21.138 -6.792,-32.723 0,-18.034 4.906,-33.616 14.582,-46.311 7.029,-9.219 19.044,-16.961 35.709,-23.005 14.576,-5.31 20.203,-7.722 22.315,-8.789 3.722,-1.938 6.275,-4.084 7.583,-6.373 1.374,-2.411 2.071,-5.518 2.071,-9.236 0,-6.137 -1.805,-11.325 -5.517,-15.86 -3.42,-4.176 -8.411,-6.124 -15.709,-6.124 -6.735,0 -11.677,2.265 -15.562,7.13 -2.75,3.444 -4.948,8.363 -6.581,14.668 h -43.337 c 2.549,-21.393 8.63,-38.303 18.131,-50.298 11.016,-13.912 26.849,-20.966 47.055,-20.966 13.649,0 25.329,2.913 34.717,8.655 9.515,5.824 16.931,14.732 22.037,26.483 4.911,11.299 7.401,23.563 7.401,36.455 0,14.102 -2.107,26.226 -6.253,36.032 C 13.693,-13.996 7.655,-5.903 0,0"
             style="fill:#000000;fill-opacity:1;fill-rule:nonzero;stroke:none"
             id="path58" />
        </g>
      </g>
    </g>
  </g>
</svg>
