<?xml version="1.0" encoding="UTF-8"?>
<svg xmlns="http://www.w3.org/2000/svg" xmlns:xlink="http://www.w3.org/1999/xlink" width="248.66pt" height="480.83pt" viewBox="0 0 248.66 480.83" version="1.1">
<defs>
<clipPath id="clip1">
  <path d="M 0 68 L 248.660156 68 L 248.660156 480.828125 L 0 480.828125 Z M 0 68 "/>
</clipPath>
</defs>
<g id="surface1">
<path style=" stroke:none;fill-rule:nonzero;fill:rgb(0.39978%,37.998962%,22.698975%);fill-opacity:1;" d="M 94.050781 25.558594 C 95.8125 26.828125 97.578125 28.125 99.292969 29.386719 C 102.730469 31.914063 106.285156 34.53125 109.882813 36.960938 L 110.078125 37.09375 L 110.128906 37.324219 C 110.304688 38.144531 110.019531 38.871094 109.765625 39.515625 C 109.648438 39.8125 109.539063 40.09375 109.480469 40.363281 L 109.464844 40.425781 C 108.617188 42.9375 107.78125 45.453125 106.945313 47.96875 C 105.925781 51.023438 104.875 54.183594 103.828125 57.289063 L 103.800781 57.367188 L 103.753906 57.433594 C 103.644531 57.59375 103.5625 57.769531 103.507813 57.960938 C 105.417969 56.445313 107.351563 54.925781 109.226563 53.449219 C 112.859375 50.597656 116.617188 47.648438 120.253906 44.679688 L 120.3125 44.636719 C 120.507813 44.515625 120.71875 44.453125 120.941406 44.453125 C 121.304688 44.453125 121.667969 44.613281 122.058594 44.941406 C 124.570313 46.914063 127.097656 49 129.539063 51.015625 C 132.230469 53.234375 134.996094 55.519531 137.800781 57.691406 C 137 54.964844 136.164063 52.226563 135.347656 49.5625 C 134.179688 45.738281 132.972656 41.78125 131.871094 37.867188 L 131.765625 37.484375 L 132.074219 37.242188 C 135.464844 34.570313 138.949219 31.90625 142.324219 29.328125 C 143.9375 28.09375 145.597656 26.824219 147.242188 25.558594 C 146.074219 25.550781 144.804688 25.542969 143.363281 25.542969 C 142.019531 25.542969 140.675781 25.546875 139.332031 25.550781 C 137.988281 25.554688 136.644531 25.558594 135.296875 25.558594 C 132.78125 25.558594 130.738281 25.546875 128.871094 25.511719 L 128.453125 25.507813 L 128.320313 25.113281 C 126.957031 21.105469 125.65625 17.007813 124.398438 13.042969 C 123.445313 10.046875 122.464844 6.949219 121.460938 3.914063 C 121.265625 3.535156 121.183594 3.117188 121.105469 2.714844 C 121.101563 2.6875 121.09375 2.664063 121.089844 2.640625 C 120.832031 3.484375 120.53125 4.308594 120.242188 5.117188 C 119.742188 6.496094 119.226563 7.921875 118.945313 9.359375 L 118.917969 9.453125 C 118.046875 11.792969 117.292969 14.226563 116.566406 16.574219 C 115.691406 19.410156 114.785156 22.339844 113.652344 25.148438 L 113.507813 25.511719 L 113.113281 25.519531 C 111.199219 25.546875 109.113281 25.558594 106.539063 25.558594 C 105.160156 25.558594 103.78125 25.554688 102.398438 25.550781 C 101.019531 25.546875 99.640625 25.546875 98.261719 25.546875 C 96.691406 25.546875 95.316406 25.550781 94.050781 25.558594 Z M 139.933594 60.804688 L 138.515625 59.730469 C 135.207031 57.222656 131.941406 54.527344 128.789063 51.925781 C 126.351563 49.914063 123.832031 47.835938 121.3125 45.859375 C 121.082031 45.667969 120.976563 45.640625 120.949219 45.636719 C 117.320313 48.597656 113.578125 51.539063 109.957031 54.382813 C 107.730469 56.128906 105.429688 57.9375 103.175781 59.734375 L 102.253906 60.46875 L 102.21875 59.289063 C 102.191406 58.46875 102.238281 57.601563 102.730469 56.835938 C 103.769531 53.757813 104.8125 50.625 105.820313 47.597656 C 106.65625 45.089844 107.492188 42.582031 108.332031 40.074219 C 108.414063 39.726563 108.542969 39.402344 108.664063 39.085938 C 108.851563 38.609375 109.015625 38.191406 109 37.789063 C 105.460938 35.390625 101.96875 32.824219 98.589844 30.339844 C 96.609375 28.878906 94.558594 27.371094 92.523438 25.914063 L 92.445313 25.847656 C 92.335938 25.734375 92.109375 25.515625 91.996094 25.40625 L 90.972656 24.410156 L 92.402344 24.394531 C 94.125 24.371094 95.988281 24.363281 98.261719 24.363281 C 99.640625 24.363281 101.023438 24.367188 102.402344 24.367188 C 103.78125 24.371094 105.160156 24.375 106.539063 24.375 C 108.929688 24.375 110.902344 24.367188 112.703125 24.34375 C 113.746094 21.6875 114.605469 18.914063 115.4375 16.226563 C 116.164063 13.875 116.914063 11.441406 117.796875 9.085938 C 118.09375 7.574219 118.621094 6.121094 119.128906 4.714844 C 119.582031 3.460938 120.050781 2.167969 120.34375 0.867188 L 120.535156 0.00390625 L 121.257813 0.511719 C 121.976563 1.015625 122.136719 1.832031 122.265625 2.488281 C 122.332031 2.835938 122.398438 3.164063 122.527344 3.402344 L 122.566406 3.5 C 123.578125 6.554688 124.566406 9.671875 125.523438 12.6875 C 126.738281 16.515625 127.992188 20.46875 129.304688 24.339844 C 131.054688 24.367188 132.972656 24.378906 135.296875 24.378906 C 136.640625 24.378906 137.984375 24.375 139.328125 24.367188 C 140.675781 24.367188 142.019531 24.359375 143.363281 24.359375 C 145.535156 24.359375 147.3125 24.371094 148.960938 24.394531 L 150.652344 24.421875 L 149.3125 25.453125 C 147.230469 27.066406 145.101563 28.695313 143.039063 30.269531 C 139.773438 32.765625 136.402344 35.34375 133.117188 37.925781 C 134.183594 41.707031 135.351563 45.523438 136.480469 49.214844 C 137.46875 52.449219 138.488281 55.789063 139.441406 59.097656 L 139.933594 60.804688 "/>
<path style=" stroke:none;fill-rule:nonzero;fill:rgb(0.39978%,37.998962%,22.698975%);fill-opacity:1;" d="M 11.695313 67.820313 C 14.769531 70.132813 17.941406 72.414063 21.023438 74.628906 C 23.242188 76.222656 25.535156 77.871094 27.769531 79.519531 L 28.101563 79.765625 L 27.984375 80.160156 C 26.683594 84.550781 25.207031 88.976563 23.777344 93.253906 C 23.015625 95.527344 22.234375 97.863281 21.480469 100.191406 C 23.75 98.429688 26.011719 96.628906 28.214844 94.875 C 31.523438 92.238281 34.949219 89.515625 38.382813 86.929688 L 38.65625 86.722656 L 38.96875 86.855469 C 40.058594 87.320313 40.945313 88.113281 41.796875 88.882813 C 42.324219 89.355469 42.824219 89.808594 43.359375 90.175781 L 43.398438 90.203125 C 45.3125 91.757813 47.222656 93.320313 49.128906 94.882813 C 51.25 96.617188 53.425781 98.398438 55.597656 100.15625 C 55.089844 98.464844 54.582031 96.769531 54.070313 95.074219 C 52.765625 90.714844 51.410156 86.203125 50.050781 81.78125 C 50.011719 81.628906 49.957031 81.484375 49.898438 81.335938 C 49.742188 80.9375 49.546875 80.441406 49.660156 79.875 L 49.703125 79.65625 L 49.878906 79.519531 C 51.542969 78.246094 53.214844 76.972656 54.890625 75.699219 C 58.269531 73.132813 61.746094 70.484375 65.117188 67.816406 C 64.003906 67.808594 62.804688 67.804688 61.453125 67.804688 C 60.007813 67.804688 58.566406 67.808594 57.121094 67.8125 C 55.671875 67.816406 54.226563 67.820313 52.78125 67.820313 C 50.425781 67.820313 48.492188 67.808594 46.703125 67.785156 L 46.394531 67.78125 L 46.222656 67.523438 C 46.160156 67.4375 46.042969 67.269531 45.980469 67.179688 L 45.929688 67.105469 L 45.902344 67.019531 C 43.699219 60.1875 41.222656 52.496094 38.820313 44.9375 C 38.246094 46.699219 37.6875 48.476563 37.144531 50.203125 C 36.039063 53.714844 34.894531 57.34375 33.636719 60.882813 C 33.058594 63.066406 32.457031 65.324219 31.492188 67.4375 L 31.335938 67.777344 L 30.960938 67.78125 C 29.070313 67.808594 27.007813 67.820313 24.480469 67.820313 C 23.0625 67.820313 21.648438 67.816406 20.234375 67.8125 C 18.820313 67.808594 17.40625 67.804688 15.988281 67.804688 C 14.390625 67.804688 12.988281 67.808594 11.695313 67.820313 Z M 57.835938 103.484375 L 56.347656 102.28125 C 53.679688 100.132813 50.984375 97.929688 48.382813 95.796875 C 46.480469 94.242188 44.578125 92.683594 42.671875 91.136719 C 42.078125 90.726563 41.53125 90.234375 41.003906 89.761719 C 40.28125 89.105469 39.589844 88.488281 38.808594 88.085938 C 35.484375 90.597656 32.164063 93.242188 28.949219 95.800781 C 26.257813 97.945313 23.472656 100.160156 20.699219 102.289063 L 19.207031 103.4375 L 19.773438 101.644531 C 20.703125 98.714844 21.695313 95.746094 22.65625 92.878906 C 24.039063 88.738281 25.46875 84.464844 26.734375 80.222656 C 24.613281 78.664063 22.4375 77.101563 20.332031 75.589844 C 16.78125 73.035156 13.109375 70.398438 9.601563 67.714844 L 8.238281 66.675781 L 9.953125 66.652344 C 11.726563 66.632813 13.644531 66.621094 15.988281 66.621094 C 17.40625 66.621094 18.820313 66.625 20.234375 66.628906 C 21.652344 66.632813 23.066406 66.636719 24.480469 66.636719 C 26.835938 66.636719 28.785156 66.625 30.566406 66.605469 C 31.410156 64.671875 31.964844 62.582031 32.5 60.554688 L 32.515625 60.507813 C 33.769531 56.984375 34.910156 53.355469 36.015625 49.847656 C 36.710938 47.648438 37.425781 45.371094 38.164063 43.140625 L 38.308594 42.703125 L 39.375 42.777344 L 39.496094 43.160156 C 42.03125 51.140625 44.667969 59.335938 46.996094 66.570313 C 47.007813 66.582031 47.015625 66.59375 47.023438 66.605469 C 48.722656 66.628906 50.5625 66.636719 52.78125 66.636719 C 54.226563 66.636719 55.671875 66.632813 57.117188 66.628906 C 58.5625 66.625 60.007813 66.621094 61.453125 66.621094 C 63.507813 66.621094 65.203125 66.628906 66.792969 66.648438 L 68.445313 66.664063 L 67.15625 67.699219 C 63.378906 70.730469 59.425781 73.734375 55.605469 76.640625 C 54.003906 77.859375 52.402344 79.074219 50.8125 80.296875 C 50.832031 80.476563 50.910156 80.679688 50.996094 80.902344 C 51.066406 81.078125 51.136719 81.261719 51.1875 81.453125 C 52.542969 85.859375 53.894531 90.371094 55.203125 94.734375 C 55.898438 97.039063 56.589844 99.347656 57.285156 101.652344 L 57.835938 103.484375 "/>
<path style=" stroke:none;fill-rule:nonzero;fill:rgb(0.39978%,37.998962%,22.698975%);fill-opacity:1;" d="M 176.828125 67.828125 C 179.480469 69.890625 182.246094 71.882813 184.929688 73.816406 C 186.75 75.128906 188.632813 76.484375 190.457031 77.847656 L 190.519531 77.902344 C 190.710938 78.089844 191.011719 78.265625 191.332031 78.449219 C 192.109375 78.902344 193.285156 79.582031 192.886719 80.957031 C 192.1875 83.078125 191.46875 85.214844 190.773438 87.277344 C 189.351563 91.511719 187.882813 95.875 186.5625 100.210938 L 188.742188 98.472656 C 193.5625 94.628906 198.546875 90.648438 203.519531 86.832031 L 203.882813 86.554688 L 204.242188 86.835938 C 207.023438 89.003906 209.792969 91.28125 212.476563 93.488281 C 215.109375 95.65625 217.824219 97.890625 220.558594 100.023438 C 219.574219 96.414063 218.464844 92.800781 217.386719 89.289063 C 216.777344 87.316406 216.148438 85.269531 215.550781 83.253906 C 215.480469 82.984375 215.390625 82.726563 215.300781 82.453125 C 215.03125 81.65625 214.753906 80.832031 214.871094 79.921875 L 214.902344 79.695313 L 215.078125 79.546875 C 217.570313 77.445313 220.226563 75.445313 222.796875 73.515625 C 225.234375 71.683594 227.746094 69.800781 230.113281 67.820313 C 228.925781 67.808594 227.640625 67.804688 226.171875 67.804688 C 224.804688 67.804688 223.433594 67.808594 222.066406 67.8125 C 220.695313 67.816406 219.328125 67.820313 217.957031 67.820313 C 215.484375 67.820313 213.46875 67.804688 211.621094 67.773438 L 211.207031 67.765625 L 211.074219 67.375 C 209.964844 64.136719 208.925781 60.8125 207.925781 57.601563 C 206.640625 53.480469 205.316406 49.234375 203.820313 45.117188 C 202.890625 48.070313 201.925781 51.050781 200.992188 53.941406 C 199.570313 58.335938 198.105469 62.882813 196.734375 67.378906 L 196.609375 67.792969 L 196.175781 67.796875 C 194.617188 67.8125 192.953125 67.820313 190.945313 67.820313 C 190.941406 67.820313 190.941406 67.820313 190.941406 67.820313 C 189.515625 67.820313 188.09375 67.816406 186.671875 67.8125 C 185.246094 67.808594 183.824219 67.804688 182.402344 67.804688 C 180.289063 67.804688 178.476563 67.8125 176.828125 67.828125 Z M 222.585938 103.074219 L 221.21875 102.03125 C 218.003906 99.570313 214.8125 96.941406 211.722656 94.402344 C 209.164063 92.296875 206.523438 90.121094 203.878906 88.050781 C 199.035156 91.773438 194.179688 95.648438 189.480469 99.394531 L 186.636719 101.648438 C 186.429688 101.75 186.015625 101.957031 185.804688 102.058594 L 184.601563 102.644531 L 184.980469 101.359375 C 186.421875 96.515625 188.0625 91.628906 189.65625 86.898438 C 190.347656 84.839844 191.066406 82.707031 191.757813 80.605469 C 191.871094 80.210938 191.617188 79.980469 190.738281 79.472656 C 190.382813 79.265625 190.011719 79.050781 189.722656 78.769531 C 187.910156 77.421875 186.046875 76.078125 184.238281 74.777344 C 181.097656 72.511719 177.847656 70.171875 174.777344 67.722656 L 173.492188 66.691406 L 175.140625 66.667969 C 177.238281 66.636719 179.546875 66.621094 182.402344 66.621094 C 183.824219 66.621094 185.25 66.625 186.671875 66.628906 C 188.097656 66.632813 189.519531 66.636719 190.941406 66.636719 C 190.941406 66.636719 190.941406 66.636719 190.945313 66.636719 C 192.765625 66.636719 194.300781 66.632813 195.730469 66.617188 C 197.066406 62.25 198.488281 57.84375 199.867188 53.578125 C 200.847656 50.550781 201.855469 47.417969 202.828125 44.328125 L 202.863281 44.238281 L 203.953125 42.085938 L 204.425781 43.347656 C 206.144531 47.917969 207.621094 52.660156 209.054688 57.246094 C 210.011719 60.324219 211.003906 63.5 212.058594 66.597656 C 213.785156 66.625 215.675781 66.640625 217.957031 66.640625 C 219.324219 66.640625 220.695313 66.636719 222.0625 66.628906 C 223.433594 66.625 224.800781 66.621094 226.171875 66.621094 C 228.3125 66.621094 230.070313 66.632813 231.707031 66.65625 L 233.253906 66.679688 L 232.085938 67.695313 C 229.34375 70.078125 226.378906 72.304688 223.507813 74.460938 C 221.015625 76.332031 218.441406 78.269531 216.027344 80.292969 C 216.011719 80.863281 216.210938 81.453125 216.421875 82.078125 C 216.515625 82.355469 216.609375 82.640625 216.6875 82.929688 C 217.28125 84.929688 217.90625 86.96875 218.515625 88.945313 C 219.765625 93.011719 221.058594 97.21875 222.152344 101.410156 L 222.585938 103.074219 "/>
<g clip-path="url(#clip1)" clip-rule="nonzero">
<path style=" stroke:none;fill-rule:nonzero;fill:rgb(0.39978%,37.998962%,22.698975%);fill-opacity:1;" d="M 1.644531 119.25 C 5.804688 131.632813 9.976563 144.015625 14.144531 156.398438 C 21.089844 177.007813 28.269531 198.316406 35.28125 219.292969 C 37.640625 226.046875 39.933594 232.960938 42.152344 239.648438 C 42.894531 241.882813 43.636719 244.117188 44.382813 246.351563 C 56.84375 283.265625 69.472656 320.816406 81.6875 357.128906 C 92.425781 389.058594 103.527344 422.074219 114.480469 454.539063 C 115.359375 457.121094 116.226563 459.761719 117.066406 462.316406 C 118.722656 467.355469 120.429688 472.550781 122.328125 477.59375 C 122.527344 477.085938 122.726563 476.585938 122.859375 476.253906 C 125.628906 468.296875 128.414063 460.320313 131.195313 452.34375 C 136.386719 437.46875 141.753906 422.085938 146.988281 406.945313 C 164.316406 357.335938 181.894531 306.882813 198.894531 258.09375 C 213.664063 215.691406 228.941406 171.847656 243.988281 128.734375 C 244.402344 127.367188 244.910156 125.980469 245.402344 124.636719 C 246.050781 122.878906 246.714844 121.066406 247.179688 119.246094 C 239.570313 119.234375 231.96875 119.234375 224.359375 119.234375 L 198.476563 119.234375 C 193.679688 119.234375 188.882813 119.234375 184.089844 119.230469 L 183.695313 119.230469 L 183.542969 118.871094 C 183.0625 117.742188 182.601563 116.582031 182.15625 115.460938 C 181.078125 112.761719 179.964844 109.972656 178.542969 107.402344 C 170.9375 92.300781 159.59375 80.753906 146.59375 74.871094 C 139.277344 71.628906 131.324219 69.914063 123.59375 69.914063 C 122.324219 69.914063 121.046875 69.960938 119.796875 70.050781 C 114.457031 70.398438 110.175781 71.117188 106.320313 72.320313 C 95.976563 75.367188 86.253906 82.054688 78.933594 91.144531 C 72.648438 98.855469 67.59375 108.410156 64.308594 118.78125 L 64.179688 119.191406 L 63.746094 119.195313 C 57.371094 119.226563 50.628906 119.242188 41.886719 119.242188 C 37.765625 119.242188 33.640625 119.238281 29.515625 119.234375 C 25.390625 119.230469 21.265625 119.230469 17.140625 119.230469 C 11.191406 119.230469 6.238281 119.234375 1.644531 119.25 Z M 122.304688 480.828125 L 121.761719 479.429688 C 119.636719 473.921875 117.757813 468.207031 115.941406 462.683594 C 115.105469 460.136719 114.238281 457.496094 113.359375 454.917969 C 102.410156 422.453125 91.304688 389.4375 80.566406 357.507813 C 68.351563 321.191406 55.722656 283.644531 43.261719 246.730469 C 42.515625 244.492188 41.773438 242.257813 41.03125 240.019531 C 38.8125 233.339844 36.523438 226.429688 34.164063 219.675781 C 27.148438 198.695313 19.96875 177.382813 13.027344 156.773438 C 8.765625 144.132813 4.507813 131.492188 0.261719 118.847656 L 0 118.070313 L 0.820313 118.070313 C 5.648438 118.054688 10.835938 118.046875 17.140625 118.046875 C 21.265625 118.046875 25.390625 118.050781 29.515625 118.054688 C 33.640625 118.054688 37.765625 118.058594 41.886719 118.058594 C 50.429688 118.058594 57.0625 118.046875 63.3125 118.015625 C 66.644531 107.660156 71.722656 98.121094 78.015625 90.402344 C 85.480469 81.125 95.410156 74.300781 105.976563 71.1875 C 109.914063 69.960938 114.285156 69.222656 119.714844 68.871094 C 120.992188 68.777344 122.296875 68.730469 123.59375 68.730469 C 131.488281 68.730469 139.605469 70.480469 147.074219 73.789063 C 160.328125 79.789063 171.871094 91.527344 179.585938 106.851563 C 181.035156 109.464844 182.164063 112.289063 183.253906 115.023438 C 183.648438 116.019531 184.058594 117.046875 184.480469 118.050781 C 189.144531 118.054688 193.8125 118.054688 198.476563 118.054688 L 224.359375 118.050781 C 232.214844 118.050781 240.070313 118.054688 247.925781 118.0625 L 248.660156 118.066406 L 248.503906 118.78125 C 248.027344 120.921875 247.257813 123.015625 246.515625 125.042969 C 246.027344 126.371094 245.523438 127.742188 245.113281 129.097656 C 230.058594 172.234375 214.78125 216.082031 200.007813 258.480469 C 183.011719 307.273438 165.433594 357.726563 148.105469 407.332031 C 142.867188 422.476563 137.503906 437.859375 132.3125 452.734375 C 129.527344 460.707031 126.746094 468.6875 123.96875 476.664063 C 123.6875 477.375 123.136719 478.75 122.863281 479.4375 L 122.304688 480.828125 "/>
</g>
<path style=" stroke:none;fill-rule:nonzero;fill:rgb(0.39978%,37.998962%,22.698975%);fill-opacity:1;" d="M 120.9375 83.351563 C 119.335938 83.59375 117.699219 83.421875 116.109375 83.742188 C 105.128906 84.863281 94.691406 90.628906 88.089844 99.488281 C 80.796875 108.957031 77.152344 120.757813 75.871094 132.515625 C 57.0625 132.566406 38.257813 132.5 19.445313 132.546875 C 19.554688 133.671875 20.105469 134.6875 20.382813 135.773438 C 23.890625 145.890625 27.292969 156.046875 30.8125 166.160156 C 58.074219 245.964844 85.371094 325.75 112.683594 405.535156 C 115.753906 414.847656 119.164063 424.058594 122.097656 433.410156 C 122.699219 433.03125 122.796875 432.28125 123.015625 431.671875 C 128.75 415.621094 134.496094 399.578125 140.167969 383.507813 C 170.019531 299.871094 199.855469 216.222656 229.605469 132.550781 C 210.707031 132.488281 191.804688 132.585938 172.90625 132.503906 C 172.023438 131.136719 172.140625 129.332031 171.652344 127.804688 C 168.859375 115.136719 163.40625 102.40625 153.328125 93.828125 C 144.5625 86.074219 132.480469 82.695313 120.9375 83.351563 "/>
<path style=" stroke:none;fill-rule:nonzero;fill:rgb(98.399353%,99.198914%,98.799133%);fill-opacity:1;" d="M 117.09375 99.300781 C 122.46875 98.660156 127.894531 99.527344 133.046875 101.066406 C 136.867188 102.019531 140.65625 104.003906 144.695313 103.480469 C 146.796875 102.980469 147.34375 100.769531 148.371094 99.167969 C 149.625 99.132813 150.894531 99.085938 152.152344 99.15625 C 152.167969 111.953125 152.171875 124.75 152.148438 137.546875 C 150.878906 137.542969 149.621094 137.628906 148.359375 137.527344 C 147.027344 131.757813 145.265625 126.0625 142.714844 120.710938 C 140.203125 115.476563 136.28125 110.65625 130.789063 108.410156 C 124.269531 105.667969 116.328125 105.394531 110.121094 109.113281 C 107.445313 111.171875 104.984375 113.691406 103.707031 116.871094 C 102.140625 122.070313 103.320313 127.835938 106.226563 132.351563 C 109.601563 137.246094 114.917969 140.246094 119.976563 143.132813 C 125.964844 146.417969 131.988281 149.628906 137.949219 152.964844 C 142.441406 155.472656 146.785156 158.386719 150.316406 162.15625 C 154.1875 165.6875 156.832031 170.386719 158.5 175.3125 C 161.84375 186.738281 159.179688 200.367188 150.167969 208.558594 C 146.445313 212.578125 141.527344 215.28125 136.488281 217.316406 C 125.21875 221.078125 113.152344 218.199219 102.222656 214.671875 C 100.160156 214.378906 97.582031 213.253906 95.773438 214.753906 C 94.910156 215.421875 94.421875 216.394531 93.894531 217.324219 C 92.730469 217.371094 91.566406 217.375 90.40625 217.339844 C 90.394531 203.847656 90.382813 190.355469 90.410156 176.867188 C 91.574219 176.820313 92.734375 176.828125 93.898438 176.890625 C 94.941406 181.527344 96.019531 186.191406 97.953125 190.558594 C 101.042969 198.203125 106.550781 205.097656 114.035156 208.785156 C 116.871094 210.277344 119.980469 211.296875 123.199219 211.449219 C 128.691406 212.328125 134.78125 210.625 138.507813 206.355469 C 144.078125 200.765625 144.238281 191.644531 140.925781 184.84375 C 139.566406 182.554688 138.035156 180.277344 135.914063 178.628906 C 124.816406 168.898438 110.253906 164.265625 99.277344 154.386719 C 93.335938 149.609375 90.332031 141.980469 89.933594 134.503906 C 89.246094 126.132813 91.425781 117.363281 96.636719 110.691406 C 101.398438 104.195313 109.066406 99.9375 117.09375 99.300781 "/>
<path style=" stroke:none;fill-rule:nonzero;fill:rgb(98.399353%,99.198914%,98.799133%);fill-opacity:1;" d="M 29.882813 143.214844 C 45.792969 143.144531 61.714844 143.144531 77.625 143.214844 C 77.707031 143.292969 77.863281 143.453125 77.941406 143.535156 C 77.976563 145.753906 78.078125 147.984375 77.945313 150.210938 C 77.863281 150.277344 77.699219 150.421875 77.613281 150.492188 C 74.125 150.464844 70.472656 151.285156 67.835938 153.710938 C 65.980469 155.605469 65.359375 158.34375 65.28125 160.902344 C 66.425781 166.632813 68.488281 172.128906 70.015625 177.761719 C 82.996094 217.457031 96.832031 256.890625 110.757813 296.269531 C 111.175781 297.464844 111.523438 298.757813 112.1875 299.824219 C 115.308594 290.414063 118.878906 281.140625 122.097656 271.757813 C 122.210938 271.761719 122.433594 271.765625 122.539063 271.773438 C 126.316406 281.148438 130.457031 290.382813 134.203125 299.769531 C 134.289063 299.652344 134.464844 299.429688 134.550781 299.3125 C 148.328125 260.484375 161.953125 221.601563 174.867188 182.464844 C 176.964844 175.546875 179.367188 168.671875 180.960938 161.597656 C 181.441406 159.351563 180.8125 156.953125 179.582031 155.054688 C 177.34375 151.433594 172.652344 150.5625 168.726563 150.519531 C 168.6875 148.070313 168.691406 145.628906 168.722656 143.183594 C 184.65625 143.183594 200.597656 143.121094 216.523438 143.214844 C 216.605469 143.292969 216.761719 143.453125 216.839844 143.535156 C 216.875 145.753906 216.96875 147.988281 216.847656 150.210938 C 216.304688 150.804688 215.402344 150.449219 214.71875 150.738281 C 210.140625 151.941406 207.210938 156.230469 205.382813 160.328125 C 200.742188 171.890625 196.753906 183.699219 192.582031 195.429688 C 175.472656 244.359375 158.851563 293.464844 142.289063 342.585938 C 139.546875 350.800781 136.589844 358.949219 134.042969 367.222656 C 132.03125 363.101563 130.535156 358.738281 128.769531 354.503906 C 126.734375 349.546875 124.71875 344.585938 122.75 339.601563 C 122.609375 339.230469 122.648438 338.640625 122.089844 338.835938 C 119.171875 348.03125 115.980469 357.152344 112.820313 366.273438 C 112.773438 366.585938 112.40625 367.242188 112.253906 366.589844 C 99.1875 327.722656 86.019531 288.890625 72.777344 250.09375 C 63.558594 223.398438 54.503906 196.648438 44.816406 170.117188 C 42.695313 164.992188 41.363281 159.390625 37.785156 155.003906 C 35.917969 152.527344 33.0625 150.597656 29.882813 150.496094 C 29.800781 150.421875 29.636719 150.277344 29.550781 150.203125 C 29.484375 148.152344 29.5 146.101563 29.515625 144.054688 C 29.464844 143.691406 29.585938 143.410156 29.882813 143.214844 "/>
</g>
</svg>
