<?xml version="1.0" encoding="UTF-8" standalone="no"?>
<!-- Created with Inkscape (http://www.inkscape.org/) -->

<svg
   xmlns:dc="http://purl.org/dc/elements/1.1/"
   xmlns:cc="http://creativecommons.org/ns#"
   xmlns:rdf="http://www.w3.org/1999/02/22-rdf-syntax-ns#"
   xmlns:svg="http://www.w3.org/2000/svg"
   xmlns="http://www.w3.org/2000/svg"
   xmlns:sodipodi="http://sodipodi.sourceforge.net/DTD/sodipodi-0.dtd"
   xmlns:inkscape="http://www.inkscape.org/namespaces/inkscape"
   id="svg2816"
   version="1.1"
   inkscape:version="0.47 r22583"
   width="1147.4994"
   height="1008.8378"
   xml:space="preserve"
   sodipodi:docname="Logo_Uni__n_San_Felipe.ai"><metadata
     id="metadata2822"><rdf:RDF><cc:Work
         rdf:about=""><dc:format>image/svg+xml</dc:format><dc:type
           rdf:resource="http://purl.org/dc/dcmitype/StillImage" /><dc:title></dc:title></cc:Work></rdf:RDF></metadata><defs
     id="defs2820"><inkscape:perspective
       sodipodi:type="inkscape:persp3d"
       inkscape:vp_x="0 : 0.5 : 1"
       inkscape:vp_y="0 : 1000 : 0"
       inkscape:vp_z="1 : 0.5 : 1"
       inkscape:persp3d-origin="0.5 : 0.33333333 : 1"
       id="perspective2824" /><clipPath
       clipPathUnits="userSpaceOnUse"
       id="clipPath2832"><path
         d="M 0,500 500,500 500,0 0,0 0,500 z"
         id="path2834" /></clipPath></defs><sodipodi:namedview
     pagecolor="#ffffff"
     bordercolor="#666666"
     borderopacity="1"
     objecttolerance="10"
     gridtolerance="10"
     guidetolerance="10"
     inkscape:pageopacity="0"
     inkscape:pageshadow="2"
     inkscape:window-width="1152"
     inkscape:window-height="804"
     id="namedview2818"
     showgrid="false"
     inkscape:zoom="0.854025"
     inkscape:cx="552.07916"
     inkscape:cy="35.291461"
     inkscape:window-x="-4"
     inkscape:window-y="-4"
     inkscape:window-maximized="1"
     inkscape:current-layer="g2826" /><g
     id="g2826"
     inkscape:groupmode="layer"
     inkscape:label="Logo_Uni__n_San_Felipe"
     transform="matrix(1.25,0,0,-1.25,239.57916,536.65374)"><g
       id="g2828"
       transform="matrix(8.2788825,0,0,8.3996318,-1806.8834,-2075.2725)"><g
         id="g2830"
         clip-path="url(#clipPath2832)"><g
           id="g2836"
           transform="translate(214.0171,289.9712)"><path
             d="m 0,0 0,-52.216 c 0,-6.085 0.317,-10.472 1.109,-13.019 0.634,-2.548 2.219,-4.67 4.437,-6.51 5.545,-4.386 15.845,-6.651 30.897,-6.651 16.478,0 27.254,2.548 32.324,7.783 1.742,1.84 2.852,3.821 3.485,6.227 0.476,2.547 0.792,6.51 0.792,12.17 l 0,52.216 c 0,1.84 -0.316,3.255 -0.95,4.104 -0.634,0.708 -2.059,1.416 -3.962,1.839 l 0,2.265 20.916,0 0,-2.265 C 87.146,5.52 85.72,4.953 85.087,4.104 84.453,3.255 84.136,1.981 84.136,0 l 0,-54.339 c 0,-6.651 -0.793,-11.745 -2.219,-15.283 -2.693,-6.226 -7.763,-10.896 -15.052,-13.868 -7.447,-2.971 -17.746,-4.386 -30.897,-4.386 -19.648,0 -32.957,3.395 -40.246,10.188 -3.011,2.688 -5.07,5.802 -6.18,9.34 -1.108,3.395 -1.742,8.065 -1.742,14.009 L -12.2,0 c 0,1.981 -0.317,3.255 -0.951,4.104 -0.634,0.849 -2.06,1.416 -3.961,1.839 l 0,2.265 22.024,0 0,-2.265 C 3.011,5.52 1.584,4.812 0.951,4.104 0.317,3.255 0,1.84 0,0"
             style="fill:#1d191b;fill-opacity:1;fill-rule:nonzero;stroke:none"
             id="path2838" /></g><g
           id="g2840"
           transform="translate(217.479,260.9351)"><path
             d="M 0,0 -0.719,0.418 4.565,8.075 5.183,7.596 C 5.091,7.344 5.023,7.108 4.977,6.891 4.931,6.673 4.908,6.484 4.908,6.323 c 0,-1.008 1.521,-2.267 4.562,-3.778 3.041,-1.513 6.277,-2.269 9.708,-2.269 3.659,0 6.585,0.619 8.781,1.854 2.195,1.235 3.292,2.87 3.292,4.907 0,1.785 -0.852,3.056 -2.557,3.811 -1.704,0.755 -4.902,1.189 -9.593,1.303 -6.242,0.184 -10.649,1.006 -13.222,2.469 -2.572,1.464 -3.858,3.806 -3.858,7.027 0,3.337 1.653,6.125 4.958,8.366 3.306,2.24 7.51,3.359 12.611,3.359 3.408,0 7.332,-0.886 11.77,-2.659 1.303,-0.523 2.116,-0.783 2.436,-0.783 0.183,0 0.396,0.073 0.635,0.22 0.24,0.148 0.521,0.38 0.841,0.699 l 0.687,-0.409 -4.433,-7.96 -0.696,0.448 c 0.046,0.068 0.093,0.172 0.14,0.308 0.047,0.139 0.07,0.264 0.07,0.377 0,1.191 -1.217,2.307 -3.653,3.349 -2.435,1.041 -5.174,1.561 -8.215,1.561 -3.293,0 -6.003,-0.578 -8.129,-1.735 -2.127,-1.155 -3.19,-2.593 -3.19,-4.31 0,-2.772 3.555,-4.306 10.666,-4.605 1.463,-0.067 2.595,-0.125 3.394,-0.171 5.332,-0.343 9.193,-1.327 11.584,-2.952 2.391,-1.625 3.586,-4.062 3.586,-7.312 0,-3.386 -1.784,-6.27 -5.352,-8.651 -3.567,-2.38 -7.947,-3.569 -13.138,-3.569 -4.986,0 -10.074,1.48 -15.266,4.444 C 2.207,0.306 1.52,0.628 1.269,0.628 1.108,0.628 0.948,0.593 0.788,0.523 0.628,0.454 0.366,0.279 0,0"
             style="fill:#1d191b;fill-opacity:1;fill-rule:nonzero;stroke:none"
             id="path2842" /></g><g
           id="g2844"
           transform="translate(259.1816,219.8057)"><path
             d="m 0,0 c 0,-0.642 0.108,-1.095 0.327,-1.357 0.218,-0.265 0.67,-0.488 1.359,-0.67 l 0,-0.843 -9.134,0 0,0.843 c 0.664,0.16 1.099,0.372 1.306,0.635 0.206,0.263 0.31,0.728 0.31,1.392 l 0,31.126 c 0,0.685 -0.109,1.163 -0.327,1.436 -0.217,0.273 -0.647,0.502 -1.289,0.684 l 0,0.773 30.652,0 c 0.595,0 1.039,0.121 1.336,0.362 0.298,0.241 0.55,0.705 0.756,1.395 l 0.773,0 0,-7.94 -0.74,0 c -0.204,0.687 -0.433,1.13 -0.684,1.324 -0.252,0.194 -0.709,0.291 -1.373,0.291 L 0,29.451 0,18.42 l 15.3,0 c 0.663,0 1.132,0.109 1.406,0.326 0.273,0.219 0.514,0.649 0.72,1.29 l 0.772,0 0,-7.87 -0.772,0 c -0.183,0.664 -0.4,1.101 -0.652,1.308 -0.252,0.206 -0.72,0.308 -1.406,0.308 L 0,13.782 0,0"
             style="fill:#1d191b;fill-opacity:1;fill-rule:nonzero;stroke:none"
             id="path2846" /></g><path
           d="m 279.091,296.248 1.113,0 0,-10.496 -1.113,0 0,10.496 z"
           style="fill:#1d191b;fill-opacity:1;fill-rule:nonzero;stroke:#1d191b;stroke-width:1.10300004;stroke-linecap:butt;stroke-linejoin:miter;stroke-miterlimit:3.86400008;stroke-opacity:1;stroke-dasharray:none"
           id="path2848" /><path
           d="m 283.041,292.172 -6.927,0 0,1.114 6.927,0 0,-1.114 z"
           style="fill:#1d191b;fill-opacity:1;fill-rule:nonzero;stroke:#1d191b;stroke-width:1.10300004;stroke-linecap:butt;stroke-linejoin:miter;stroke-miterlimit:3.86400008;stroke-opacity:1;stroke-dasharray:none"
           id="path2850" /><g
           id="g2852"
           transform="translate(255.5234,280.1401)"><path
             d="m 0,0 c 2.283,3.38 8.33,4.208 13.508,1.854 l 0.13,-0.062 c 1.922,3.317 6.136,5.62 11.029,5.62 4.79,0 8.932,-2.207 10.904,-5.412 5.168,2.329 11.188,1.495 13.464,-1.874 2.28,-3.379 -0.066,-8.027 -5.244,-10.384 -4.231,-1.924 -9.043,-1.721 -11.907,0.26 -2.017,-1.189 -4.514,-1.892 -7.217,-1.892 -2.734,0 -5.257,0.719 -7.286,1.932 -2.83,-2.136 -7.79,-2.402 -12.137,-0.426 C 0.065,-8.027 -2.282,-3.379 0,0"
             style="fill:#f03e3e;fill-opacity:1;fill-rule:nonzero;stroke:none"
             id="path2854" /></g><g
           id="g2856"
           transform="translate(255.5234,280.1401)"><path
             d="m 0,0 c 2.283,3.38 8.33,4.208 13.508,1.854 l 0.13,-0.062 c 1.922,3.317 6.136,5.62 11.029,5.62 4.79,0 8.932,-2.207 10.904,-5.412 5.168,2.329 11.188,1.495 13.464,-1.874 2.28,-3.379 -0.066,-8.027 -5.244,-10.384 -4.231,-1.924 -9.043,-1.721 -11.907,0.26 -2.017,-1.189 -4.514,-1.892 -7.217,-1.892 -2.734,0 -5.257,0.719 -7.286,1.932 -2.83,-2.136 -7.79,-2.402 -12.137,-0.426 C 0.065,-8.027 -2.282,-3.379 0,0 z"
             style="fill:none;stroke:#1d191b;stroke-width:1.10300004;stroke-linecap:butt;stroke-linejoin:miter;stroke-miterlimit:3.86400008;stroke-opacity:1;stroke-dasharray:none"
             id="path2858" /></g><g
           id="g2860"
           transform="translate(265.001,261.1821)"><path
             d="m 0,0 0,8.307 c 0,0 4.084,1.646 14.385,1.629 10.398,-0.019 15.371,-1.86 15.371,-1.86 l 0,-8.121 L 21.814,-1.847 6.197,-2.359 0.719,-0.82 0,0 z"
             style="fill:#f03e3e;fill-opacity:1;fill-rule:nonzero;stroke:none"
             id="path2862" /></g><g
           id="g2864"
           transform="translate(265.001,261.1821)"><path
             d="m 0,0 0,8.307 c 0,0 4.084,1.646 14.385,1.629 10.398,-0.019 15.371,-1.86 15.371,-1.86 l 0,-8.121 L 21.814,-1.847 6.197,-2.359 0.719,-0.82 0,0 z"
             style="fill:none;stroke:#1d191b;stroke-width:1.10300004;stroke-linecap:butt;stroke-linejoin:miter;stroke-miterlimit:3.86400008;stroke-opacity:1;stroke-dasharray:none"
             id="path2866" /></g><g
           id="g2868"
           transform="translate(265.001,261.0103)"><path
             d="m 0,0 c 0,1.615 6.661,2.925 14.879,2.925 8.217,0 14.877,-1.31 14.877,-2.925 0,-1.614 -6.66,-2.925 -14.877,-2.925 C 6.661,-2.925 0,-1.614 0,0"
             style="fill:#ffffff;fill-opacity:1;fill-rule:nonzero;stroke:none"
             id="path2870" /></g><g
           id="g2872"
           transform="translate(265.001,261.0103)"><path
             d="m 0,0 c 0,1.615 6.661,2.925 14.879,2.925 8.217,0 14.877,-1.31 14.877,-2.925 0,-1.614 -6.66,-2.925 -14.877,-2.925 C 6.661,-2.925 0,-1.614 0,0 z"
             style="fill:none;stroke:#1d191b;stroke-width:1.10300004;stroke-linecap:butt;stroke-linejoin:miter;stroke-miterlimit:3.86400008;stroke-opacity:1;stroke-dasharray:none"
             id="path2874" /></g><g
           id="g2876"
           transform="translate(275.665,268.7427)"><path
             d="M 0,0 C 0,0.781 0.336,1.413 0.75,1.413 1.163,1.413 1.5,0.781 1.5,0 1.5,-0.779 1.163,-1.412 0.75,-1.412 0.336,-1.412 0,-0.779 0,0"
             style="fill:#ffffff;fill-opacity:1;fill-rule:nonzero;stroke:none"
             id="path2878" /></g><g
           id="g2880"
           transform="translate(275.665,268.7427)"><path
             d="M 0,0 C 0,0.781 0.336,1.413 0.75,1.413 1.163,1.413 1.5,0.781 1.5,0 1.5,-0.779 1.163,-1.412 0.75,-1.412 0.336,-1.412 0,-0.779 0,0 z"
             style="fill:none;stroke:#1d191b;stroke-width:1.10300004;stroke-linecap:butt;stroke-linejoin:miter;stroke-miterlimit:3.86400008;stroke-opacity:1;stroke-dasharray:none"
             id="path2882" /></g><g
           id="g2884"
           transform="translate(283.0947,268.6616)"><path
             d="m 0,0 c 0,0.781 0.334,1.413 0.748,1.413 0.414,0 0.75,-0.632 0.75,-1.413 0,-0.78 -0.336,-1.412 -0.75,-1.412 C 0.334,-1.412 0,-0.78 0,0"
             style="fill:#ffffff;fill-opacity:1;fill-rule:nonzero;stroke:none"
             id="path2886" /></g><g
           id="g2888"
           transform="translate(283.0947,268.6616)"><path
             d="m 0,0 c 0,0.781 0.334,1.413 0.748,1.413 0.414,0 0.75,-0.632 0.75,-1.413 0,-0.78 -0.336,-1.412 -0.75,-1.412 C 0.334,-1.412 0,-0.78 0,0 z"
             style="fill:none;stroke:#1d191b;stroke-width:1.10300004;stroke-linecap:butt;stroke-linejoin:miter;stroke-miterlimit:3.86400008;stroke-opacity:1;stroke-dasharray:none"
             id="path2890" /></g><g
           id="g2892"
           transform="translate(268.6748,273.9399)"><path
             d="M 0,0 C 0,0 2.17,-2.652 0.482,-3.617 M 21.75,0.069 c 0,0 -2.17,-2.651 -0.482,-3.615 M 3.961,-0.681 c 0,0 2.893,-0.797 2.893,-2.117 m 0,0.06 c 0,0 2.275,0.679 2.275,2.88 m 8.371,-0.78 c 0,0 -2.894,-0.797 -2.894,-2.117 m 0,0.06 c 0,0 -2.274,0.679 -2.274,2.88 M -1.179,-3.691 c 0,0 2.368,-1.538 0.527,-2.096 m 23.865,1.67 c 0,0 -2.368,-1.537 -0.527,-2.097"
             style="fill:none;stroke:#1d191b;stroke-width:1.10300004;stroke-linecap:butt;stroke-linejoin:miter;stroke-miterlimit:3.86400008;stroke-opacity:1;stroke-dasharray:none"
             id="path2894" /></g><path
           d="m 199.751,230.096 45.304,0 0,-9.604 -45.304,0 0,9.604 z"
           style="fill:#f0ee4b;fill-opacity:1;fill-rule:nonzero;stroke:#1d191b;stroke-width:0.49000001;stroke-linecap:butt;stroke-linejoin:miter;stroke-miterlimit:3.86400008;stroke-opacity:1;stroke-dasharray:none"
           id="path2896" /><path
           d="m 198.127,221.443 48.465,0 0,-3.77 -48.465,0 0,3.77 z"
           style="fill:#fdfdfa;fill-opacity:1;fill-rule:nonzero;stroke:#1d191b;stroke-width:0.49000001;stroke-linecap:butt;stroke-linejoin:miter;stroke-miterlimit:3.86400008;stroke-opacity:1;stroke-dasharray:none"
           id="path2898" /><path
           d="m 195.348,219.031 54.024,0 0,-2.01 -54.024,0 0,2.01 z"
           style="fill:#fdfdfa;fill-opacity:1;fill-rule:nonzero;stroke:#1d191b;stroke-width:0.49000001;stroke-linecap:butt;stroke-linejoin:miter;stroke-miterlimit:3.86400008;stroke-opacity:1;stroke-dasharray:none"
           id="path2900" /><path
           d="m 236.183,230.095 5.12,0 0,-5.122 -5.12,0 0,5.122 z"
           style="fill:#1d191b;fill-opacity:1;fill-rule:nonzero;stroke:#1d191b;stroke-width:0.49000001;stroke-linecap:butt;stroke-linejoin:miter;stroke-miterlimit:3.86400008;stroke-opacity:1;stroke-dasharray:none"
           id="path2902" /><path
           d="m 203.502,230.095 5.121,0 0,-5.122 -5.121,0 0,5.122 z"
           style="fill:#1d191b;fill-opacity:1;fill-rule:nonzero;stroke:#1d191b;stroke-width:0.49000001;stroke-linecap:butt;stroke-linejoin:miter;stroke-miterlimit:3.86400008;stroke-opacity:1;stroke-dasharray:none"
           id="path2904" /><g
           id="g2906"
           transform="translate(199.3818,244.0801)"><path
             d="m 0,0 0,4.524 3.491,0 0,-2.717 2.77,0 0,2.717 3.182,0 0,-2.717 2.958,0 0,2.717 3.337,0 0,-4.628 -4.145,-3.319 -7.328,0 L 0,0 z"
             style="fill:#cfd0cf;fill-opacity:1;fill-rule:nonzero;stroke:none"
             id="path2908" /></g><g
           id="g2910"
           transform="translate(199.3818,244.0801)"><path
             d="m 0,0 0,4.524 3.491,0 0,-2.717 2.77,0 0,2.717 3.182,0 0,-2.717 2.958,0 0,2.717 3.337,0 0,-4.628 -4.145,-3.319 -7.328,0 L 0,0 z"
             style="fill:none;stroke:#1d191b;stroke-width:0.49000001;stroke-linecap:butt;stroke-linejoin:miter;stroke-miterlimit:3.86400008;stroke-opacity:1;stroke-dasharray:none"
             id="path2912" /></g><g
           id="g2914"
           transform="translate(229.8608,244.0801)"><path
             d="m 0,0 0,4.524 3.492,0 0,-2.717 2.768,0 0,2.717 3.183,0 0,-2.717 2.958,0 0,2.717 3.337,0 0,-4.628 L 12.023,-3.216 4.489,-3.113 0,0 z"
             style="fill:#cfd0cf;fill-opacity:1;fill-rule:nonzero;stroke:none"
             id="path2916" /></g><g
           id="g2918"
           transform="translate(229.8608,244.0801)"><path
             d="m 0,0 0,4.524 3.492,0 0,-2.717 2.768,0 0,2.717 3.183,0 0,-2.717 2.958,0 0,2.717 3.337,0 0,-4.628 L 12.023,-3.216 4.489,-3.113 0,0 z"
             style="fill:none;stroke:#1d191b;stroke-width:0.49000001;stroke-linecap:butt;stroke-linejoin:miter;stroke-miterlimit:3.86400008;stroke-opacity:1;stroke-dasharray:none"
             id="path2920" /></g><g
           id="g2922"
           transform="translate(198.4321,230.6738)"><path
             d="M 0,0 1.319,-1.845 46.623,-1.619 48.106,0 46.623,1.211 1.319,1.211 0,0 z"
             style="fill:#1d191b;fill-opacity:1;fill-rule:nonzero;stroke:none"
             id="path2924" /></g><g
           id="g2926"
           transform="translate(198.4321,230.6738)"><path
             d="M 0,0 1.319,-1.845 46.623,-1.619 48.106,0 46.623,1.211 1.319,1.211 0,0 z"
             style="fill:none;stroke:#1d191b;stroke-width:0.49000001;stroke-linecap:butt;stroke-linejoin:miter;stroke-miterlimit:3.86400008;stroke-opacity:1;stroke-dasharray:none"
             id="path2928" /></g><path
           d="m 201.98,242.05 10.47,0 0,-11.454 -10.47,0 0,11.454 z"
           style="fill:#f0ee4b;fill-opacity:1;fill-rule:nonzero;stroke:#1d191b;stroke-width:0.49000001;stroke-linecap:butt;stroke-linejoin:miter;stroke-miterlimit:3.86400008;stroke-opacity:1;stroke-dasharray:none"
           id="path2930" /><path
           d="m 232.754,242.05 10.47,0 0,-11.454 -10.47,0 0,11.454 z"
           style="fill:#f0ee4b;fill-opacity:1;fill-rule:nonzero;stroke:#1d191b;stroke-width:0.49000001;stroke-linecap:butt;stroke-linejoin:miter;stroke-miterlimit:3.86400008;stroke-opacity:1;stroke-dasharray:none"
           id="path2932" /><path
           d="m 205.374,242.05 3.681,0 0,-3.629 -3.681,0 0,3.629 z"
           style="fill:#1d191b;fill-opacity:1;fill-rule:nonzero;stroke:#1d191b;stroke-width:0.49000001;stroke-linecap:butt;stroke-linejoin:miter;stroke-miterlimit:3.86400008;stroke-opacity:1;stroke-dasharray:none"
           id="path2934" /><path
           d="m 236.149,242.05 3.681,0 0,-3.629 -3.681,0 0,3.629 z"
           style="fill:#1d191b;fill-opacity:1;fill-rule:nonzero;stroke:#1d191b;stroke-width:0.49000001;stroke-linecap:butt;stroke-linejoin:miter;stroke-miterlimit:3.86400008;stroke-opacity:1;stroke-dasharray:none"
           id="path2936" /><g
           id="g2938"
           transform="translate(211.873,221.1318)"><path
             d="m 0,0 c 1.189,4.977 5.443,8.659 10.509,8.659 5.067,0 9.321,-3.682 10.51,-8.659 l 0.018,-0.078 0.007,-4.032 -21.103,0 0.041,4.032 0,0.078 L 0,0 z"
             style="fill:#1d191b;fill-opacity:1;fill-rule:nonzero;stroke:none"
             id="path2940" /></g><g
           id="g2942"
           transform="translate(211.873,221.1318)"><path
             d="m 0,0 c 1.189,4.977 5.443,8.659 10.509,8.659 5.067,0 9.321,-3.682 10.51,-8.659 l 0.018,-0.078 0.007,-4.032 -21.103,0 0.041,4.032 0,0.078 L 0,0 z"
             style="fill:none;stroke:#1d191b;stroke-width:0.49000001;stroke-linecap:butt;stroke-linejoin:miter;stroke-miterlimit:3.86400008;stroke-opacity:1;stroke-dasharray:none"
             id="path2944" /></g><g
           id="g2946"
           transform="translate(213.7026,221.3516)"><path
             d="m 0,0 c 0.979,3.869 4.479,6.732 8.646,6.732 4.168,0 7.667,-2.863 8.645,-6.732 l 0.015,-0.061 0,-4.269 -17.321,0 0,4.33 L 0,0 z"
             style="fill:none;stroke:#1d191b;stroke-width:0.49000001;stroke-linecap:butt;stroke-linejoin:miter;stroke-miterlimit:3.86400008;stroke-opacity:1;stroke-dasharray:none"
             id="path2948" /></g><path
           d="m 220.502,229.602 2.37,0 0,-2.247 -2.37,0 0,2.247 z"
           style="fill:#ffffff;fill-opacity:1;fill-rule:nonzero;stroke:none"
           id="path2950" /><path
           d="m 220.664,229.561 2.37,0 0,-2.247 -2.37,0 0,2.247 z"
           style="fill:none;stroke:#1d191b;stroke-width:0.49000001;stroke-linecap:butt;stroke-linejoin:miter;stroke-miterlimit:3.86400008;stroke-opacity:1;stroke-dasharray:none"
           id="path2952" /><g
           id="g2954"
           transform="translate(217.5898,228.7598)"><path
             d="M 0,0 2.287,0.613 2.871,-1.557 0.583,-2.169 0,0 z"
             style="fill:#ffffff;fill-opacity:1;fill-rule:nonzero;stroke:none"
             id="path2956" /></g><g
           id="g2958"
           transform="translate(217.5898,228.7598)"><path
             d="M 0,0 2.287,0.613 2.871,-1.557 0.583,-2.169 0,0 z"
             style="fill:none;stroke:#1d191b;stroke-width:0.49000001;stroke-linecap:butt;stroke-linejoin:miter;stroke-miterlimit:3.86400008;stroke-opacity:1;stroke-dasharray:none"
             id="path2960" /></g><g
           id="g2962"
           transform="translate(215.1177,227.2979)"><path
             d="M 0,0 2.05,1.184 3.175,-0.761 1.124,-1.943 0,0 z"
             style="fill:#ffffff;fill-opacity:1;fill-rule:nonzero;stroke:none"
             id="path2964" /></g><g
           id="g2966"
           transform="translate(215.1177,227.2979)"><path
             d="M 0,0 2.05,1.184 3.175,-0.761 1.124,-1.943 0,0 z"
             style="fill:none;stroke:#1d191b;stroke-width:0.49000001;stroke-linecap:butt;stroke-linejoin:miter;stroke-miterlimit:3.86400008;stroke-opacity:1;stroke-dasharray:none"
             id="path2968" /></g><g
           id="g2970"
           transform="translate(212.8838,225.4248)"><path
             d="M 0,0 1.674,1.674 3.264,0.086 1.591,-1.588 0,0 z"
             style="fill:#ffffff;fill-opacity:1;fill-rule:nonzero;stroke:none"
             id="path2972" /></g><g
           id="g2974"
           transform="translate(212.8838,225.4248)"><path
             d="M 0,0 1.674,1.674 3.264,0.086 1.591,-1.588 0,0 z"
             style="fill:none;stroke:#1d191b;stroke-width:0.49000001;stroke-linecap:butt;stroke-linejoin:miter;stroke-miterlimit:3.86400008;stroke-opacity:1;stroke-dasharray:none"
             id="path2976" /></g><g
           id="g2978"
           transform="translate(211.4199,222.707)"><path
             d="M 0,0 1.183,2.051 3.13,0.929 1.947,-1.122 0,0 z"
             style="fill:#ffffff;fill-opacity:1;fill-rule:nonzero;stroke:none"
             id="path2980" /></g><g
           id="g2982"
           transform="translate(211.4199,222.707)"><path
             d="M 0,0 1.183,2.051 3.13,0.929 1.947,-1.122 0,0 z"
             style="fill:none;stroke:#1d191b;stroke-width:0.49000001;stroke-linecap:butt;stroke-linejoin:miter;stroke-miterlimit:3.86400008;stroke-opacity:1;stroke-dasharray:none"
             id="path2984" /></g><g
           id="g2986"
           transform="translate(210.7671,219.7803)"><path
             d="M 0,0 0.611,2.287 2.782,1.707 2.171,-0.579 0,0 z"
             style="fill:#ffffff;fill-opacity:1;fill-rule:nonzero;stroke:none"
             id="path2988" /></g><g
           id="g2990"
           transform="translate(210.7671,219.7803)"><path
             d="M 0,0 0.611,2.287 2.782,1.707 2.171,-0.579 0,0 z"
             style="fill:none;stroke:#1d191b;stroke-width:0.49000001;stroke-linecap:butt;stroke-linejoin:miter;stroke-miterlimit:3.86400008;stroke-opacity:1;stroke-dasharray:none"
             id="path2992" /></g><g
           id="g2994"
           transform="translate(210.959,217.2744)"><path
             d="M 0,0 -0.002,2.366 2.246,2.368 2.248,0.002 0,0 z"
             style="fill:#ffffff;fill-opacity:1;fill-rule:nonzero;stroke:none"
             id="path2996" /></g><g
           id="g2998"
           transform="translate(210.959,217.2744)"><path
             d="M 0,0 -0.002,2.366 2.246,2.368 2.248,0.002 0,0 z"
             style="fill:none;stroke:#1d191b;stroke-width:0.49000001;stroke-linecap:butt;stroke-linejoin:miter;stroke-miterlimit:3.86400008;stroke-opacity:1;stroke-dasharray:none"
             id="path3000" /></g><g
           id="g3002"
           transform="translate(232.5601,219.6367)"><path
             d="m 0,0 0.001,-2.37 -2.246,0 0,2.37 L 0,0 z"
             style="fill:#ffffff;fill-opacity:1;fill-rule:nonzero;stroke:none"
             id="path3004" /></g><g
           id="g3006"
           transform="translate(232.5601,219.6367)"><path
             d="m 0,0 0.001,-2.37 -2.246,0 0,2.37 L 0,0 z"
             style="fill:none;stroke:#1d191b;stroke-width:0.49000001;stroke-linecap:butt;stroke-linejoin:miter;stroke-miterlimit:3.86400008;stroke-opacity:1;stroke-dasharray:none"
             id="path3008" /></g><g
           id="g3010"
           transform="translate(231.98,222.4551)"><path
             d="M 0,0 0.613,-2.289 -1.555,-2.87 -2.168,-0.582 0,0 z"
             style="fill:#ffffff;fill-opacity:1;fill-rule:nonzero;stroke:none"
             id="path3012" /></g><g
           id="g3014"
           transform="translate(231.98,222.4551)"><path
             d="M 0,0 0.613,-2.289 -1.555,-2.87 -2.168,-0.582 0,0 z"
             style="fill:none;stroke:#1d191b;stroke-width:0.49000001;stroke-linecap:butt;stroke-linejoin:miter;stroke-miterlimit:3.86400008;stroke-opacity:1;stroke-dasharray:none"
             id="path3016" /></g><g
           id="g3018"
           transform="translate(230.6187,224.8799)"><path
             d="M 0,0 1.184,-2.052 -0.76,-3.175 -1.944,-1.123 0,0 z"
             style="fill:#ffffff;fill-opacity:1;fill-rule:nonzero;stroke:none"
             id="path3020" /></g><g
           id="g3022"
           transform="translate(230.6187,224.8799)"><path
             d="M 0,0 1.184,-2.052 -0.76,-3.175 -1.944,-1.123 0,0 z"
             style="fill:none;stroke:#1d191b;stroke-width:0.49000001;stroke-linecap:butt;stroke-linejoin:miter;stroke-miterlimit:3.86400008;stroke-opacity:1;stroke-dasharray:none"
             id="path3024" /></g><g
           id="g3026"
           transform="translate(228.6719,226.9668)"><path
             d="M 0,0 1.674,-1.676 0.088,-3.263 -1.587,-1.588 0,0 z"
             style="fill:#ffffff;fill-opacity:1;fill-rule:nonzero;stroke:none"
             id="path3028" /></g><g
           id="g3030"
           transform="translate(228.6719,226.9668)"><path
             d="M 0,0 1.674,-1.676 0.088,-3.263 -1.587,-1.588 0,0 z"
             style="fill:none;stroke:#1d191b;stroke-width:0.49000001;stroke-linecap:butt;stroke-linejoin:miter;stroke-miterlimit:3.86400008;stroke-opacity:1;stroke-dasharray:none"
             id="path3032" /></g><g
           id="g3034"
           transform="translate(226.2388,228.4043)"><path
             d="M 0,0 2.05,-1.185 0.93,-3.129 -1.121,-1.945 0,0 z"
             style="fill:#ffffff;fill-opacity:1;fill-rule:nonzero;stroke:none"
             id="path3036" /></g><g
           id="g3038"
           transform="translate(226.2388,228.4043)"><path
             d="M 0,0 2.05,-1.185 0.93,-3.129 -1.121,-1.945 0,0 z"
             style="fill:none;stroke:#1d191b;stroke-width:0.49000001;stroke-linecap:butt;stroke-linejoin:miter;stroke-miterlimit:3.86400008;stroke-opacity:1;stroke-dasharray:none"
             id="path3040" /></g><g
           id="g3042"
           transform="translate(223.4517,229.3555)"><path
             d="M 0,0 2.287,-0.613 1.708,-2.781 -0.579,-2.168 0,0 z"
             style="fill:#ffffff;fill-opacity:1;fill-rule:nonzero;stroke:none"
             id="path3044" /></g><g
           id="g3046"
           transform="translate(223.4517,229.3555)"><path
             d="M 0,0 2.287,-0.613 1.708,-2.781 -0.579,-2.168 0,0 z"
             style="fill:none;stroke:#1d191b;stroke-width:0.49000001;stroke-linecap:butt;stroke-linejoin:miter;stroke-miterlimit:3.86400008;stroke-opacity:1;stroke-dasharray:none"
             id="path3048" /></g><g
           id="g3050"
           transform="translate(224.9507,217.2783)"><path
             d="M 0,0 0.208,0.742 2.364,0.165 2.33,0 0,0 z"
             style="fill:none;stroke:#1d191b;stroke-width:0.49000001;stroke-linecap:butt;stroke-linejoin:miter;stroke-miterlimit:3.86400008;stroke-opacity:1;stroke-dasharray:none"
             id="path3052" /></g><g
           id="g3054"
           transform="translate(214.6377,245.0605)"><path
             d="m 0,0 0,4.524 3.492,0 0,-2.717 2.769,0 0,2.717 3.182,0 0,-2.717 2.958,0 0,2.717 3.337,0 0,-4.627 L 11.559,-1.788 4.232,-2.047 0,0 z"
             style="fill:#cfd0cf;fill-opacity:1;fill-rule:nonzero;stroke:none"
             id="path3056" /></g><g
           id="g3058"
           transform="translate(214.6377,245.0605)"><path
             d="m 0,0 0,4.524 3.492,0 0,-2.717 2.769,0 0,2.717 3.182,0 0,-2.717 2.958,0 0,2.717 3.337,0 0,-4.627 L 11.559,-1.788 4.232,-2.047 0,0 z"
             style="fill:none;stroke:#1d191b;stroke-width:0.49000001;stroke-linecap:butt;stroke-linejoin:miter;stroke-miterlimit:3.86400008;stroke-opacity:1;stroke-dasharray:none"
             id="path3060" /></g><path
           d="m 217.247,243.846 10.47,0 0,-11.455 -10.47,0 0,11.455 z"
           style="fill:#f0ee4b;fill-opacity:1;fill-rule:nonzero;stroke:#1d191b;stroke-width:0.49000001;stroke-linecap:butt;stroke-linejoin:miter;stroke-miterlimit:3.86400008;stroke-opacity:1;stroke-dasharray:none"
           id="path3062" /><path
           d="m 220.692,243.846 3.579,0 0,-5.568 -3.579,0 0,5.568 z"
           style="fill:#1d191b;fill-opacity:1;fill-rule:nonzero;stroke:#1d191b;stroke-width:0.49000001;stroke-linecap:butt;stroke-linejoin:miter;stroke-miterlimit:3.86400008;stroke-opacity:1;stroke-dasharray:none"
           id="path3064" /><g
           id="g3066"
           transform="translate(212.0171,235.5859)"><path
             d="m 0,0 6.663,0 0,-2.989 7.637,0 0,3.037 6.663,0 0,-3.037 6.895,0 0,2.941 6.664,0 0,-4.942 -48.097,0 0,4.942 6.663,0 0,-2.941 6.912,0 L 0,0 z"
             style="fill:#cfd0cf;fill-opacity:1;fill-rule:nonzero;stroke:none"
             id="path3068" /></g><g
           id="g3070"
           transform="translate(212.0171,235.5859)"><path
             d="m 0,0 6.663,0 0,-2.989 7.637,0 0,3.037 6.663,0 0,-3.037 6.895,0 0,2.941 6.664,0 0,-4.942 -48.097,0 0,4.942 6.663,0 0,-2.941 6.912,0 L 0,0 z"
             style="fill:none;stroke:#1d191b;stroke-width:0.49000001;stroke-linecap:butt;stroke-linejoin:miter;stroke-miterlimit:3.86400008;stroke-opacity:1;stroke-dasharray:none"
             id="path3072" /></g></g></g></g></svg>