<?xml version="1.0" standalone="no"?>
<!DOCTYPE svg PUBLIC "-//W3C//DTD SVG 20010904//EN"
 "http://www.w3.org/TR/2001/REC-SVG-20010904/DTD/svg10.dtd">
<svg version="1.0" xmlns="http://www.w3.org/2000/svg"
 width="1080.000000pt" height="1080.000000pt" viewBox="0 0 1080.000000 1080.000000"
 preserveAspectRatio="xMidYMid meet">

<g transform="translate(0.000000,1080.000000) scale(0.100000,-0.100000)"
fill="#000000" stroke="none">
<path d="M1690 10197 c0 -1 308 -2160 685 -4797 377 -2637 685 -4796 685
-4797 0 -2 1053 -3 2339 -3 l2339 0 6 27 c3 16 310 2161 681 4768 372 2607
678 4755 681 4773 l6 32 -3711 0 c-2041 0 -3711 -1 -3711 -3z m7340 -68 c0
-12 -1336 -9383 -1345 -9436 l-6 -33 -1029 0 -1030 0 0 2700 0 2700 1300 0
c771 0 1300 4 1300 9 0 11 47 341 55 389 l6 32 -1331 0 -1330 0 0 1640 0 1640
-220 0 -220 0 0 -1640 0 -1640 -1330 0 -1331 0 6 -32 c8 -48 55 -378 55 -389
0 -5 529 -9 1300 -9 l1300 0 0 -2700 0 -2700 -1030 0 c-566 0 -1030 1 -1030 3
0 1 -304 2128 -675 4727 -371 2599 -675 4731 -675 4737 0 10 724 13 3630 13
2646 0 3630 -3 3630 -11z"/>
<path d="M3795 8715 c-216 -41 -377 -160 -470 -347 -76 -156 -89 -220 -89
-453 0 -175 3 -210 22 -280 46 -165 134 -307 241 -387 117 -89 225 -126 391
-135 329 -18 572 143 676 449 13 39 24 82 24 95 l0 24 -156 -3 -157 -3 -12
-40 c-44 -149 -149 -233 -300 -243 -179 -11 -300 71 -366 247 -32 88 -42 156
-41 291 1 134 21 240 62 321 33 63 106 135 169 166 50 25 67 28 156 28 83 -1
109 -5 153 -24 70 -31 135 -104 160 -179 l19 -57 153 -3 c84 -1 157 1 160 5
13 14 -18 135 -51 201 -124 253 -428 386 -744 327z"/>
<path d="M6280 7920 l0 -771 398 3 c376 4 400 5 463 26 286 95 457 420 436
832 -18 354 -166 576 -437 657 -46 14 -123 17 -457 20 l-403 4 0 -771z m746
485 c103 -30 182 -136 209 -281 19 -97 19 -289 0 -378 -30 -144 -102 -253
-198 -300 -49 -25 -57 -26 -249 -26 l-198 0 0 500 0 500 193 0 c141 0 207 -4
243 -15z"/>
<path d="M6784 5406 c-219 -50 -384 -192 -470 -404 -114 -283 -87 -676 63
-911 118 -184 315 -283 568 -284 136 -1 230 20 338 74 85 43 202 162 249 254
34 66 78 191 78 221 0 11 -30 14 -158 14 l-159 0 -13 -42 c-30 -103 -90 -174
-180 -217 -46 -22 -69 -26 -145 -26 -82 0 -97 3 -157 33 -141 69 -213 212
-225 447 -14 277 83 491 250 553 70 26 188 29 264 7 69 -21 139 -84 174 -160
16 -33 29 -66 29 -72 0 -10 39 -13 160 -13 l160 0 0 28 c0 51 -56 189 -103
255 -79 110 -182 183 -322 227 -90 29 -308 37 -401 16z"/>
<path d="M3292 4833 c4 -501 6 -575 21 -628 28 -98 63 -159 125 -217 114 -109
259 -160 462 -161 347 -2 558 138 615 411 12 53 15 178 15 615 l0 547 -165 0
-165 0 0 -546 c0 -386 -3 -558 -12 -585 -15 -51 -70 -114 -122 -141 -31 -17
-64 -23 -139 -26 -121 -5 -168 10 -227 74 -78 85 -75 53 -78 672 l-3 552 -165
0 -165 0 3 -567z"/>
</g>
</svg>
