<?xml version="1.0" encoding="UTF-8" standalone="no"?>
<svg
   xmlns:dc="http://purl.org/dc/elements/1.1/"
   xmlns:cc="http://creativecommons.org/ns#"
   xmlns:rdf="http://www.w3.org/1999/02/22-rdf-syntax-ns#"
   xmlns:svg="http://www.w3.org/2000/svg"
   xmlns="http://www.w3.org/2000/svg"
   viewBox="0 0 1440 1440"
   height="1440"
   width="1440"
   xml:space="preserve"
   id="svg2"
   version="1.1"><metadata
     id="metadata8"><rdf:RDF><cc:Work
         rdf:about=""><dc:format>image/svg+xml</dc:format><dc:type
           rdf:resource="http://purl.org/dc/dcmitype/StillImage" /></cc:Work></rdf:RDF></metadata><defs
     id="defs6"><clipPath
       id="clipPath18"
       clipPathUnits="userSpaceOnUse"><path
         id="path16"
         d="M 0,1080 H 1080 V 0 H 0 Z" /></clipPath></defs><g
     transform="matrix(1.3333333,0,0,-1.3333333,0,1440)"
     id="g10"><g
       id="g12"><g
         clip-path="url(#clipPath18)"
         id="g14"><g
           transform="translate(140.4421,1072.2357)"
           id="g20"><path
             id="path22"
             style="fill:#24344b;fill-opacity:1;fill-rule:nonzero;stroke:none"
             d="m 0,0 h 796.267 c 0.036,-7.91 0.072,-17.485 0.109,-26.556 0.096,-23.967 0.191,-47.605 0.288,-71.572 0.136,-34.037 0.272,-67.909 0.408,-101.946 0.157,-39.282 0.314,-78.481 0.471,-117.763 0.159,-39.701 0.318,-79.36 0.477,-119.061 0.141,-35.295 0.282,-70.569 0.423,-105.864 0.104,-26.064 0.209,-52.118 0.313,-78.181 0.139,-34.647 1.914,-68.551 -3.931,-102.784 -5.363,-31.411 -14.957,-62.073 -28.038,-91.116 -17.76,-39.429 -42,-75.755 -70.768,-107.994 -40.895,-45.828 -89.161,-89.436 -146.297,-113.712 -43.933,-18.667 -94.081,-27.109 -141.587,-27.873 -55.083,-0.885 -109.82,10.083 -160.29,32.175 -30.813,13.487 -59.823,32.829 -86.416,53.186 C 104.335,-935.353 55.615,-878.929 28.556,-811.744 1.132,-743.654 0,-672.137 0,-599.837 Z" /></g><g
           transform="translate(165.6836,1049.4233)"
           id="g24"><path
             id="path26"
             style="fill:#eee300;fill-opacity:1;fill-rule:nonzero;stroke:none"
             d="m 0,0 h 743.921 c 0.034,-2.636 0.068,-15.596 0.102,-24.267 0.089,-22.905 0.178,-44.94 0.268,-67.846 0.126,-32.53 0.253,-64.624 0.38,-97.154 0.147,-37.543 0.293,-74.868 0.439,-112.41 0.148,-37.944 0.296,-75.778 0.444,-113.722 0.131,-33.732 0.263,-67.41 0.394,-101.143 0.098,-24.909 0.195,-49.792 0.292,-74.702 0.129,-33.113 1.782,-65.507 -3.662,-98.225 -4.995,-30.021 -13.931,-59.321 -26.115,-87.078 -16.541,-37.683 -39.12,-72.399 -65.915,-103.211 -38.09,-43.8 -83.046,-85.476 -136.264,-108.677 -40.92,-17.84 -89.211,-22.664 -133.459,-23.393 -51.306,-0.847 -100.706,6.392 -147.715,27.505 -32.344,14.527 -62.616,35.597 -89.898,57.982 C 85.579,-879.053 38.053,-816.817 17.87,-744.248 1.925,-686.92 0,-630.479 0,-571.055 Z" /></g><g
           transform="translate(222.1779,911.4004)"
           id="g28"><path
             id="path30"
             style="fill:#24344b;fill-opacity:1;fill-rule:nonzero;stroke:none"
             d="m 0,0 266.301,-1.319 v -25.048 c 0,0 -67.454,4.395 -69.212,-92.282 -1.758,-96.677 -0.549,-409.559 -0.549,-409.559 0,0 -1.189,-179.292 124.07,-174.898 125.258,4.395 124.983,180.171 124.983,180.171 v 24.85 63.569 85.962 92.028 81.767 c 0,18.593 0.474,37.198 0.646,55.791 0.255,27.476 -4.161,54.445 -25.394,74.061 -14.698,13.579 -33.258,19.699 -54.351,21.177 v 21.093 h 268.938 v -26.366 c 0,0 -45.043,0.439 -55.15,-31.64 -10.107,-32.079 -8.02,-87.009 -8.02,-87.009 0,0 -1.153,-353.245 -1.153,-353.311 -0.042,-11.258 -0.065,-22.407 -1.054,-33.646 -2.308,-26.249 -7.431,-52.354 -15.987,-77.295 -10.672,-31.106 -26.915,-60.557 -49.898,-84.279 -11.908,-12.29 -25.479,-23.77 -40.67,-32.125 -16.832,-9.26 -34.631,-12.683 -53.512,-14.998 -29.414,-3.608 -59.174,-4.339 -88.777,-3.744 -11.161,0.224 -22.859,-0.671 -34.26,-0.256 -12.205,0.445 -24.386,1.36 -36.556,2.364 -22.293,1.839 -45.116,6.505 -65.502,16.015 -18.972,8.849 -34.804,22.837 -48.831,38.179 -29.541,32.31 -51.061,72.729 -60.179,115.617 -1.751,8.234 -3.035,16.568 -3.814,24.951 -7.032,75.583 -3.822,460.534 -3.822,460.534 0,0 2.942,61.084 -68.247,61.084 z" /></g><path
           id="path32"
           style="fill:#24344b;fill-opacity:1;fill-rule:nonzero;stroke:none"
           d="M 857.688,927.22 H 222.243 v 8.789 h 635.445 z" /><g
           transform="translate(260.5134,996.4919)"
           id="g34"><path
             id="path36"
             style="fill:#24344b;fill-opacity:1;fill-rule:nonzero;stroke:none"
             d="m 0,0 c -0.191,1.689 -0.621,3.238 -1.289,4.646 -0.67,1.407 -1.504,2.642 -2.508,3.707 -1.003,1.063 -2.138,1.891 -3.403,2.487 -1.266,0.594 -2.591,0.892 -3.976,0.892 -2.533,0 -4.682,-0.643 -6.449,-1.924 -1.767,-1.284 -3.199,-3.004 -4.297,-5.162 -1.1,-2.159 -1.9,-4.615 -2.401,-7.368 -0.501,-2.754 -0.752,-5.6 -0.752,-8.54 0,-2.816 0.251,-5.553 0.752,-8.212 0.501,-2.661 1.301,-5.054 2.401,-7.18 1.098,-2.128 2.53,-3.834 4.297,-5.115 1.767,-1.283 3.916,-1.924 6.449,-1.924 3.439,0 6.125,1.392 8.06,4.177 1.934,2.783 3.116,6.396 3.546,10.84 h 10.89 c -0.286,-4.193 -1.027,-7.978 -2.221,-11.357 -1.194,-3.378 -2.77,-6.257 -4.729,-8.634 -1.959,-2.379 -4.25,-4.209 -6.878,-5.49 -2.626,-1.283 -5.516,-1.924 -8.668,-1.924 -3.965,0 -7.499,0.907 -10.604,2.721 -3.105,1.814 -5.731,4.285 -7.881,7.415 -2.149,3.127 -3.796,6.818 -4.943,11.074 -1.146,4.254 -1.719,8.79 -1.719,13.609 0,4.942 0.573,9.572 1.719,13.89 1.147,4.317 2.794,8.071 4.943,11.262 2.15,3.191 4.776,5.693 7.881,7.508 3.105,1.814 6.639,2.722 10.604,2.722 2.817,0 5.481,-0.532 7.988,-1.595 C -0.681,21.46 1.564,19.911 3.547,17.879 5.528,15.845 7.164,13.327 8.455,10.324 9.744,7.32 10.556,3.879 10.89,0 Z" /></g><g
           transform="translate(279.4987,1019.0167)"
           id="g38"><path
             id="path40"
             style="fill:#24344b;fill-opacity:1;fill-rule:nonzero;stroke:none"
             d="M 0,0 H 11.248 V -54.622 H 36.181 V -67.011 H 0 Z" /></g><g
           transform="translate(365.3988,977.3463)"
           id="g42"><path
             id="path44"
             style="fill:#24344b;fill-opacity:1;fill-rule:nonzero;stroke:none"
             d="m 0,0 c 0,-9.073 -1.934,-15.83 -5.803,-20.272 -3.869,-4.444 -9.219,-6.664 -16.048,-6.664 -6.927,0 -12.287,2.206 -16.085,6.617 -3.796,4.411 -5.695,11.183 -5.695,20.319 v 41.67 h 11.248 V 0 c 0,-1.815 0.119,-3.599 0.358,-5.35 0.239,-1.752 0.741,-3.317 1.505,-4.692 0.763,-1.377 1.827,-2.473 3.188,-3.286 1.361,-0.813 3.188,-1.219 5.481,-1.219 4.011,0 6.782,1.173 8.311,3.519 1.527,2.346 2.292,6.021 2.292,11.028 V 41.67 H 0 Z" /></g><g
           transform="translate(386.3187,963.4556)"
           id="g46"><path
             id="path48"
             style="fill:#24344b;fill-opacity:1;fill-rule:nonzero;stroke:none"
             d="m 0,0 h 12.037 c 1.098,0 2.149,0.141 3.152,0.423 1.002,0.281 1.886,0.751 2.651,1.407 0.763,0.657 1.372,1.549 1.827,2.675 0.453,1.126 0.68,2.565 0.68,4.317 0,3.44 -0.741,5.897 -2.221,7.368 -1.481,1.469 -3.439,2.205 -5.875,2.205 L 0,18.395 Z m 0,28.438 h 11.392 c 2.006,0 3.654,0.624 4.944,1.876 1.289,1.251 1.933,3.285 1.933,6.101 0,1.563 -0.214,2.847 -0.644,3.848 -0.431,1 -1.003,1.783 -1.72,2.346 -0.716,0.563 -1.54,0.953 -2.471,1.173 -0.932,0.219 -1.899,0.329 -2.902,0.329 H 0 Z m -11.248,27.123 h 24.072 c 2.437,0 4.657,-0.282 6.663,-0.845 2.007,-0.563 3.726,-1.487 5.159,-2.768 1.433,-1.284 2.543,-2.989 3.331,-5.115 0.788,-2.128 1.183,-4.756 1.183,-7.884 0,-3.317 -0.599,-6.116 -1.792,-8.4 -1.195,-2.284 -2.913,-4.145 -5.158,-5.584 3.152,-1.189 5.504,-3.27 7.056,-6.241 1.552,-2.973 2.329,-6.555 2.329,-10.746 0,-3.379 -0.502,-6.305 -1.504,-8.776 -1.003,-2.472 -2.353,-4.49 -4.048,-6.053 -1.696,-1.564 -3.631,-2.721 -5.803,-3.473 -2.174,-0.75 -4.407,-1.126 -6.699,-1.126 h -24.789 z" /></g><g
           transform="translate(456.673,964.3944)"
           id="g50"><path
             id="path52"
             style="fill:#24344b;fill-opacity:1;fill-rule:nonzero;stroke:none"
             d="m 0,0 h 10.03 c 1.623,0 3.199,0.343 4.728,1.032 1.529,0.688 2.89,1.83 4.084,3.426 1.193,1.595 2.149,3.675 2.866,6.241 0.716,2.565 1.075,5.693 1.075,9.385 0,3.379 -0.251,6.429 -0.752,9.151 -0.502,2.722 -1.326,5.052 -2.472,6.992 -1.147,1.939 -2.664,3.425 -4.55,4.458 -1.887,1.033 -4.215,1.549 -6.985,1.549 l -8.024,0 z m -11.248,54.622 h 22.066 c 3.296,0 6.364,-0.689 9.206,-2.065 2.841,-1.376 5.302,-3.442 7.38,-6.194 2.077,-2.754 3.7,-6.194 4.871,-10.324 1.17,-4.129 1.756,-8.979 1.756,-14.547 0,-4.88 -0.478,-9.385 -1.434,-13.515 -0.955,-4.129 -2.399,-7.695 -4.333,-10.698 -1.935,-3.004 -4.347,-5.366 -7.237,-7.086 -2.889,-1.722 -6.293,-2.581 -10.209,-2.581 h -22.066 z" /></g><g
           transform="translate(498.5131,1019.0167)"
           id="g54"><path
             id="path56"
             style="fill:#24344b;fill-opacity:1;fill-rule:nonzero;stroke:none"
             d="M 0,0 H 38.257 V -12.389 H 11.248 v -14.359 h 24.788 v -11.45 H 11.248 V -54.622 H 38.831 V -67.011 H 0 Z" /></g><g
           transform="translate(556.1857,987.4823)"
           id="g58"><path
             id="path60"
             style="fill:#24344b;fill-opacity:1;fill-rule:nonzero;stroke:none"
             d="m 0,0 h 8.741 c 1.29,0 2.531,0.124 3.725,0.375 1.193,0.249 2.245,0.735 3.153,1.455 0.906,0.718 1.635,1.736 2.185,3.05 0.548,1.314 0.824,3.034 0.824,5.162 0,2.126 -0.276,3.848 -0.824,5.162 -0.55,1.314 -1.279,2.33 -2.185,3.05 -0.908,0.719 -1.96,1.204 -3.153,1.455 -1.194,0.249 -2.435,0.375 -3.725,0.375 l -8.741,0 z m -11.248,31.534 h 23.069 c 3.2,0 5.922,-0.61 8.168,-1.83 2.244,-1.22 4.071,-2.832 5.481,-4.833 1.408,-2.003 2.436,-4.303 3.08,-6.899 0.645,-2.596 0.967,-5.24 0.967,-7.93 0,-2.754 -0.322,-5.413 -0.967,-7.977 -0.644,-2.567 -1.672,-4.85 -3.08,-6.852 -1.41,-2.003 -3.237,-3.613 -5.481,-4.833 -2.246,-1.22 -4.968,-1.83 -8.168,-1.83 H 0 v -24.026 h -11.248 z" /></g><g
           transform="translate(601.7498,985.2296)"
           id="g62"><path
             id="path64"
             style="fill:#24344b;fill-opacity:1;fill-rule:nonzero;stroke:none"
             d="m 0,0 c 0,-2.815 0.251,-5.553 0.753,-8.212 0.501,-2.66 1.301,-5.053 2.399,-7.18 1.099,-2.127 2.533,-3.833 4.3,-5.115 1.766,-1.283 3.915,-1.924 6.447,-1.924 2.532,0 4.681,0.641 6.448,1.924 1.767,1.282 3.2,2.988 4.299,5.115 1.098,2.127 1.899,4.52 2.4,7.18 0.502,2.659 0.752,5.397 0.752,8.212 0,2.94 -0.25,5.787 -0.752,8.54 -0.501,2.753 -1.302,5.21 -2.4,7.368 -1.099,2.159 -2.532,3.879 -4.299,5.162 -1.767,1.282 -3.916,1.924 -6.448,1.924 -2.532,0 -4.681,-0.642 -6.447,-1.924 C 5.685,19.787 4.251,18.067 3.152,15.908 2.054,13.75 1.254,11.293 0.753,8.54 0.251,5.787 0,2.94 0,0 m -11.248,0 c 0,4.942 0.574,9.573 1.72,13.89 1.147,4.317 2.794,8.072 4.943,11.263 2.15,3.19 4.776,5.692 7.882,7.508 3.103,1.813 6.637,2.721 10.602,2.721 3.964,0 7.499,-0.908 10.604,-2.721 3.104,-1.816 5.732,-4.318 7.88,-7.508 2.149,-3.191 3.798,-6.946 4.944,-11.263 1.146,-4.317 1.719,-8.948 1.719,-13.89 0,-4.818 -0.573,-9.354 -1.719,-13.609 -1.146,-4.255 -2.795,-7.946 -4.944,-11.074 -2.148,-3.129 -4.776,-5.6 -7.88,-7.415 -3.105,-1.813 -6.64,-2.721 -10.604,-2.721 -3.965,0 -7.499,0.908 -10.602,2.721 -3.106,1.815 -5.732,4.286 -7.882,7.415 -2.149,3.128 -3.796,6.819 -4.943,11.074 -1.146,4.255 -1.72,8.791 -1.72,13.609" /></g><g
           transform="translate(659.7108,988.7023)"
           id="g66"><path
             id="path68"
             style="fill:#24344b;fill-opacity:1;fill-rule:nonzero;stroke:none"
             d="m 0,0 h 12.323 c 2.53,0 4.453,0.751 5.767,2.252 1.313,1.502 1.97,3.942 1.97,7.321 0,3.252 -0.657,5.615 -1.97,7.086 -1.314,1.469 -3.237,2.205 -5.767,2.205 L 0,18.864 Z m -11.248,30.314 h 27.583 c 2.293,0 4.358,-0.485 6.197,-1.455 1.838,-0.97 3.414,-2.299 4.729,-3.988 1.313,-1.69 2.315,-3.661 3.008,-5.913 0.692,-2.252 1.039,-4.631 1.039,-7.132 0,-3.942 -0.633,-7.354 -1.898,-10.23 -1.267,-2.879 -3.332,-5.069 -6.198,-6.57 v -0.188 c 1.385,-0.501 2.531,-1.267 3.439,-2.299 0.907,-1.033 1.648,-2.269 2.221,-3.708 0.573,-1.44 0.991,-2.988 1.254,-4.645 0.262,-1.659 0.441,-3.332 0.538,-5.021 0.046,-1.065 0.094,-2.316 0.143,-3.754 0.046,-1.44 0.131,-2.895 0.25,-4.364 0.119,-1.471 0.31,-2.895 0.574,-4.271 0.262,-1.377 0.655,-2.534 1.182,-3.472 H 21.565 c -0.335,1.063 -0.586,2.236 -0.753,3.519 -0.168,1.282 -0.311,2.628 -0.429,4.036 -0.12,1.408 -0.215,2.846 -0.287,4.317 -0.072,1.469 -0.179,2.862 -0.323,4.176 -0.382,3.504 -1.194,6.069 -2.436,7.696 -1.242,1.627 -3.272,2.44 -6.089,2.44 H 0 v -26.184 h -11.248 z" /></g><g
           transform="translate(710.2189,1006.6279)"
           id="g70"><path
             id="path72"
             style="fill:#24344b;fill-opacity:1;fill-rule:nonzero;stroke:none"
             d="M 0,0 H -15.332 V 12.389 H 26.58 V 0 H 11.248 V -54.622 H 0 Z" /></g><path
           id="path74"
           style="fill:#24344b;fill-opacity:1;fill-rule:nonzero;stroke:none"
           d="m 742.673,1019.017 h 11.248 v -67.011 h -11.248 z" /><g
           transform="translate(787.5935,952.0061)"
           id="g76"><path
             id="path78"
             style="fill:#24344b;fill-opacity:1;fill-rule:nonzero;stroke:none"
             d="m 0,0 h -12.68 l -16.622,67.011 h 11.606 L -6.305,19.896 h 0.144 L 5.374,67.011 h 11.605 z" /></g><g
           transform="translate(817.97,985.2296)"
           id="g80"><path
             id="path82"
             style="fill:#24344b;fill-opacity:1;fill-rule:nonzero;stroke:none"
             d="m 0,0 c 0,-2.815 0.251,-5.553 0.753,-8.212 0.501,-2.66 1.3,-5.053 2.399,-7.18 1.099,-2.127 2.532,-3.833 4.299,-5.115 1.767,-1.283 3.916,-1.924 6.448,-1.924 2.531,0 4.681,0.641 6.448,1.924 1.766,1.282 3.199,2.988 4.299,5.115 1.097,2.127 1.898,4.52 2.4,7.18 0.501,2.659 0.752,5.397 0.752,8.212 0,2.94 -0.251,5.787 -0.752,8.54 -0.502,2.753 -1.303,5.21 -2.4,7.368 -1.1,2.159 -2.533,3.879 -4.299,5.162 -1.767,1.282 -3.917,1.924 -6.448,1.924 -2.532,0 -4.681,-0.642 -6.448,-1.924 C 5.684,19.787 4.251,18.067 3.152,15.908 2.053,13.75 1.254,11.293 0.753,8.54 0.251,5.787 0,2.94 0,0 m -11.248,0 c 0,4.942 0.573,9.573 1.719,13.89 1.147,4.317 2.794,8.072 4.944,11.263 2.149,3.19 4.776,5.692 7.881,7.508 3.104,1.813 6.638,2.721 10.603,2.721 3.963,0 7.498,-0.908 10.603,-2.721 3.104,-1.816 5.732,-4.318 7.881,-7.508 2.149,-3.191 3.797,-6.946 4.944,-11.263 1.146,-4.317 1.718,-8.948 1.718,-13.89 0,-4.818 -0.572,-9.354 -1.718,-13.609 -1.147,-4.255 -2.795,-7.946 -4.944,-11.074 -2.149,-3.129 -4.777,-5.6 -7.881,-7.415 -3.105,-1.813 -6.64,-2.721 -10.603,-2.721 -3.965,0 -7.499,0.908 -10.603,2.721 -3.105,1.815 -5.732,4.286 -7.881,7.415 -2.15,3.128 -3.797,6.819 -4.944,11.074 -1.146,4.255 -1.719,8.791 -1.719,13.609" /></g><g
           transform="translate(228.7587,305.4514)"
           id="g84"><path
             id="path86"
             style="fill:#24344b;fill-opacity:1;fill-rule:nonzero;stroke:none"
             d="m 0,0 c -7.307,-2.306 -13.205,-2.64 -17.696,-1.004 -4.492,1.636 -7.543,4.895 -9.155,9.776 -1.635,4.949 -1.125,9.34 1.531,13.175 2.657,3.833 7.662,6.911 15.02,9.232 L 23.259,41.766 25.914,33.728 -7.645,23.141 c -1.462,-0.461 -2.87,-0.999 -4.223,-1.615 -1.356,-0.616 -2.497,-1.372 -3.425,-2.267 -0.929,-0.896 -1.559,-1.934 -1.893,-3.113 -0.333,-1.18 -0.229,-2.589 0.312,-4.226 0.947,-2.868 2.546,-4.549 4.796,-5.046 2.251,-0.496 5.39,-0.108 9.422,1.164 l 33.56,10.587 2.656,-8.039 z" /></g><g
           transform="translate(264.1001,311.6545)"
           id="g88"><path
             id="path90"
             style="fill:#24344b;fill-opacity:1;fill-rule:nonzero;stroke:none"
             d="m 0,0 3.594,-7.623 -27.69,-30.117 0.046,-0.097 34.554,15.555 3.386,-7.183 -51.507,-23.187 -3.616,7.672 27.64,30.035 -0.045,0.099 -34.483,-15.524 -3.386,7.183 z" /></g><g
           transform="translate(281.0883,277.3264)"
           id="g92"><path
             id="path94"
             style="fill:#24344b;fill-opacity:1;fill-rule:nonzero;stroke:none"
             d="m 0,0 4.234,-7.363 -49.44,-27.145 -4.235,7.364 z" /></g><g
           transform="translate(250.8513,219.3807)"
           id="g96"><path
             id="path98"
             style="fill:#24344b;fill-opacity:1;fill-rule:nonzero;stroke:none"
             d="m 0,0 -5.353,7.957 40.372,40.871 4.899,-7.283 -28.509,-28.55 0.06,-0.09 38.187,14.164 4.899,-7.283 z" /></g><g
           transform="translate(306.3251,238.2346)"
           id="g100"><path
             id="path102"
             style="fill:#24344b;fill-opacity:1;fill-rule:nonzero;stroke:none"
             d="m 0,0 18.384,-22.418 -8.181,-6.407 -12.979,15.828 -9.483,-7.426 11.912,-14.527 -7.561,-5.921 -11.913,14.526 -10.846,-8.494 13.255,-16.163 -8.182,-6.407 -18.66,22.755 z" /></g><g
           transform="translate(315.1119,189.2279)"
           id="g104"><path
             id="path106"
             style="fill:#24344b;fill-opacity:1;fill-rule:nonzero;stroke:none"
             d="m 0,0 6.623,-6.613 c 1.361,-1.358 2.848,-1.956 4.462,-1.792 1.615,0.164 3.443,1.222 5.487,3.176 1.967,1.882 3.043,3.602 3.227,5.157 0.182,1.555 -0.406,3.013 -1.766,4.371 L 11.41,10.912 Z M 12.289,23.572 27.114,8.769 c 1.233,-1.231 2.049,-2.62 2.451,-4.168 0.401,-1.548 0.445,-3.162 0.13,-4.844 -0.316,-1.682 -0.969,-3.361 -1.959,-5.035 -0.991,-1.675 -2.243,-3.237 -3.756,-4.684 -2.384,-2.28 -4.788,-3.913 -7.208,-4.899 -2.421,-0.985 -4.856,-1.143 -7.304,-0.473 l -0.114,-0.109 c 0.441,-1.033 0.594,-2.091 0.458,-3.176 -0.137,-1.084 -0.486,-2.196 -1.049,-3.336 -0.562,-1.141 -1.274,-2.26 -2.135,-3.36 -0.863,-1.1 -1.778,-2.164 -2.749,-3.193 -0.618,-0.64 -1.349,-1.39 -2.193,-2.248 -0.846,-0.858 -1.68,-1.745 -2.505,-2.659 -0.825,-0.915 -1.584,-1.841 -2.275,-2.778 -0.691,-0.937 -1.18,-1.818 -1.464,-2.643 l -6.046,6.037 c 0.463,0.795 1.038,1.608 1.724,2.439 0.685,0.832 1.423,1.687 2.21,2.565 0.787,0.879 1.606,1.762 2.457,2.651 0.85,0.889 1.635,1.752 2.353,2.589 1.913,2.232 3.028,4.151 3.345,5.759 0.316,1.607 -0.283,3.168 -1.797,4.68 l -6.045,6.036 -15.838,-15.146 -6.045,6.037 z" /></g><g
           transform="translate(334.1299,154.7322)"
           id="g108"><path
             id="path110"
             style="fill:#24344b;fill-opacity:1;fill-rule:nonzero;stroke:none"
             d="m 0,0 c -1.224,-1.428 -2.079,-2.787 -2.562,-4.078 -0.485,-1.291 -0.689,-2.492 -0.61,-3.602 0.077,-1.11 0.39,-2.142 0.937,-3.096 0.547,-0.953 1.27,-1.799 2.171,-2.536 0.591,-0.483 1.283,-0.933 2.078,-1.346 0.794,-0.414 1.656,-0.665 2.587,-0.752 0.931,-0.087 1.89,0.055 2.88,0.427 0.988,0.371 1.942,1.094 2.86,2.164 0.986,1.15 1.525,2.296 1.617,3.436 0.091,1.14 -0.073,2.303 -0.491,3.49 -0.42,1.186 -1.02,2.386 -1.799,3.599 C 8.886,-1.082 8.135,0.191 7.413,1.526 6.626,2.844 5.946,4.228 5.37,5.679 4.793,7.128 4.474,8.655 4.413,10.259 c -0.062,1.603 0.224,3.292 0.86,5.067 0.635,1.774 1.803,3.653 3.504,5.637 1.869,2.181 3.824,3.805 5.862,4.87 2.038,1.066 4.051,1.696 6.038,1.891 1.987,0.196 3.877,-0.001 5.67,-0.59 1.792,-0.591 3.364,-1.438 4.714,-2.544 1.576,-1.289 2.875,-2.775 3.9,-4.458 1.023,-1.682 1.622,-3.539 1.796,-5.57 C 36.93,12.53 36.608,10.381 35.79,8.114 34.972,5.848 33.509,3.484 31.401,1.025 l -6.415,5.251 c 1.031,1.316 1.743,2.523 2.134,3.62 0.39,1.098 0.521,2.104 0.396,3.017 -0.127,0.914 -0.458,1.758 -0.99,2.532 -0.535,0.774 -1.195,1.484 -1.982,2.128 -0.535,0.438 -1.138,0.796 -1.808,1.075 -0.671,0.279 -1.395,0.399 -2.17,0.359 -0.777,-0.04 -1.569,-0.251 -2.377,-0.636 -0.809,-0.385 -1.587,-1.014 -2.334,-1.886 -0.714,-0.833 -1.181,-1.6 -1.397,-2.299 -0.217,-0.7 -0.173,-1.529 0.131,-2.487 0.304,-0.957 0.844,-2.143 1.621,-3.554 0.776,-1.412 1.818,-3.227 3.126,-5.444 0.263,-0.418 0.597,-0.979 1.001,-1.681 0.404,-0.702 0.775,-1.511 1.113,-2.43 0.338,-0.918 0.583,-1.944 0.734,-3.081 0.151,-1.135 0.127,-2.366 -0.072,-3.687 -0.2,-1.322 -0.649,-2.726 -1.348,-4.212 -0.7,-1.487 -1.73,-3.023 -3.089,-4.609 -1.667,-1.944 -3.481,-3.53 -5.444,-4.758 -1.963,-1.228 -3.99,-2.016 -6.082,-2.362 -2.092,-0.346 -4.217,-0.228 -6.373,0.357 -2.156,0.586 -4.262,1.718 -6.316,3.399 -1.66,1.359 -3.015,2.975 -4.067,4.848 -1.051,1.873 -1.641,3.908 -1.769,6.105 -0.128,2.196 0.266,4.541 1.181,7.032 0.914,2.492 2.508,5.035 4.78,7.63 z" /></g><g
           transform="translate(380.5052,165.7563)"
           id="g112"><path
             id="path114"
             style="fill:#24344b;fill-opacity:1;fill-rule:nonzero;stroke:none"
             d="m 0,0 6.991,-4.967 -33.344,-44.824 -6.991,4.965 z" /></g><g
           transform="translate(375.5204,114.0806)"
           id="g116"><path
             id="path118"
             style="fill:#24344b;fill-opacity:1;fill-rule:nonzero;stroke:none"
             d="m 0,0 6.608,-3.878 c 1.069,-0.627 2.257,-0.994 3.565,-1.096 1.306,-0.104 2.7,0.181 4.182,0.85 1.482,0.669 3.017,1.774 4.607,3.317 1.59,1.541 3.189,3.62 4.798,6.238 1.471,2.395 2.635,4.655 3.491,6.778 0.855,2.124 1.328,4.094 1.418,5.913 0.089,1.818 -0.262,3.458 -1.054,4.92 -0.794,1.461 -2.103,2.727 -3.927,3.798 l -5.287,3.102 z m 16.389,43.074 14.537,-8.531 c 2.171,-1.274 3.892,-2.95 5.165,-5.024 1.272,-2.074 1.993,-4.489 2.162,-7.244 0.169,-2.755 -0.261,-5.822 -1.288,-9.203 -1.029,-3.38 -2.756,-7.044 -5.182,-10.992 -2.127,-3.46 -4.404,-6.468 -6.832,-9.027 -2.429,-2.559 -4.935,-4.528 -7.517,-5.91 -2.583,-1.381 -5.202,-2.123 -7.855,-2.226 -2.654,-0.103 -5.27,0.604 -7.85,2.117 l -14.536,8.532 z" /></g><g
           transform="translate(420.5966,103.7744)"
           id="g120"><path
             id="path122"
             style="fill:#24344b;fill-opacity:1;fill-rule:nonzero;stroke:none"
             d="m 0,0 9.497,-3.597 2.9,20.711 -0.103,0.039 z m 13.342,31.407 8.265,-3.131 -6.789,-56.862 -8.366,3.168 1.791,12.557 -13.706,5.192 -7.438,-10.419 -8.163,3.091 z" /></g><g
           transform="translate(454.4973,81.1263)"
           id="g124"><path
             id="path126"
             style="fill:#24344b;fill-opacity:1;fill-rule:nonzero;stroke:none"
             d="m 0,0 7.521,-1.647 c 1.217,-0.267 2.462,-0.248 3.737,0.056 1.272,0.305 2.505,1.002 3.696,2.094 1.19,1.092 2.292,2.612 3.304,4.566 1.011,1.952 1.859,4.417 2.543,7.397 0.625,2.726 1.001,5.229 1.129,7.508 0.128,2.279 -0.059,4.293 -0.559,6.048 -0.5,1.753 -1.363,3.201 -2.586,4.344 -1.224,1.144 -2.875,1.943 -4.951,2.398 l -6.017,1.317 z m 1.676,45.926 16.546,-3.624 c 2.471,-0.542 4.644,-1.601 6.521,-3.178 1.875,-1.578 3.338,-3.649 4.387,-6.211 1.048,-2.563 1.628,-5.607 1.742,-9.131 C 30.985,20.257 30.526,16.248 29.496,11.755 28.592,7.816 27.4,4.26 25.92,1.084 c -1.482,-3.176 -3.225,-5.816 -5.231,-7.922 -2.007,-2.106 -4.252,-3.616 -6.737,-4.53 -2.486,-0.914 -5.197,-1.049 -8.133,-0.406 l -16.546,3.625 z" /></g><g
           transform="translate(514.2529,72.2422)"
           id="g128"><path
             id="path130"
             style="fill:#24344b;fill-opacity:1;fill-rule:nonzero;stroke:none"
             d="m 0,0 7.702,-0.289 c 1.246,-0.047 2.468,0.192 3.664,0.717 1.196,0.525 2.278,1.43 3.247,2.713 0.968,1.285 1.769,2.975 2.403,5.076 0.634,2.099 1.01,4.673 1.13,7.724 0.109,2.793 0.016,5.32 -0.281,7.584 -0.297,2.264 -0.854,4.213 -1.671,5.849 -0.818,1.635 -1.935,2.908 -3.349,3.815 -1.416,0.908 -3.187,1.402 -5.314,1.481 L 1.37,34.901 Z m -6.866,45.462 16.945,-0.635 c 2.53,-0.095 4.864,-0.752 7.002,-1.971 2.137,-1.22 3.959,-2.997 5.465,-5.331 1.506,-2.335 2.641,-5.225 3.406,-8.672 0.765,-3.446 1.057,-7.47 0.876,-12.072 C 26.67,12.749 26.157,9.039 25.29,5.654 c -0.868,-3.385 -2.093,-6.29 -3.676,-8.716 -1.582,-2.426 -3.511,-4.31 -5.785,-5.648 -2.276,-1.34 -4.917,-1.951 -7.924,-1.839 l -16.944,0.635 z" /></g><g
           transform="translate(545.746,116.7093)"
           id="g132"><path
             id="path134"
             style="fill:#24344b;fill-opacity:1;fill-rule:nonzero;stroke:none"
             d="m 0,0 29.323,2.06 0.752,-10.218 -20.702,-1.455 0.872,-11.845 19,1.336 0.696,-9.445 -19,-1.335 0.997,-13.548 21.142,1.487 0.752,-10.219 -29.763,-2.093 z" /></g><g
           transform="translate(622.987,108.6376)"
           id="g136"><path
             id="path138"
             style="fill:#24344b;fill-opacity:1;fill-rule:nonzero;stroke:none"
             d="m 0,0 c -0.452,1.333 -1.058,2.513 -1.817,3.542 -0.759,1.028 -1.612,1.889 -2.559,2.587 -0.947,0.696 -1.95,1.18 -3.008,1.456 -1.058,0.274 -2.107,0.3 -3.146,0.075 -1.9,-0.411 -3.396,-1.277 -4.486,-2.599 -1.093,-1.323 -1.853,-2.944 -2.282,-4.865 -0.43,-1.922 -0.581,-4.034 -0.455,-6.339 0.128,-2.305 0.46,-4.644 0.997,-7.018 0.515,-2.273 1.204,-4.443 2.066,-6.509 0.862,-2.067 1.899,-3.869 3.113,-5.408 1.213,-1.54 2.6,-2.685 4.16,-3.433 1.56,-0.749 3.289,-0.919 5.19,-0.508 2.579,0.558 4.341,2.118 5.284,4.68 0.942,2.561 1.169,5.67 0.679,9.328 l 8.17,1.766 c 0.552,-3.432 0.688,-6.608 0.41,-9.53 -0.279,-2.922 -0.935,-5.502 -1.97,-7.739 -1.034,-2.239 -2.42,-4.088 -4.156,-5.548 -1.738,-1.461 -3.788,-2.449 -6.153,-2.96 -2.975,-0.644 -5.793,-0.484 -8.453,0.478 -2.662,0.961 -5.084,2.53 -7.268,4.709 -2.185,2.177 -4.096,4.89 -5.734,8.14 -1.637,3.249 -2.897,6.819 -3.777,10.71 -0.904,3.991 -1.32,7.822 -1.249,11.494 0.071,3.672 0.621,6.971 1.65,9.897 1.03,2.924 2.543,5.371 4.542,7.34 1.997,1.968 4.482,3.274 7.457,3.917 2.115,0.457 4.21,0.46 6.286,0.007 2.076,-0.452 4.043,-1.339 5.902,-2.658 C 1.251,13.691 2.94,11.923 4.456,9.707 5.972,7.491 7.21,4.844 8.17,1.767 Z" /></g><g
           transform="translate(646.5079,105.3853)"
           id="g140"><path
             id="path142"
             style="fill:#24344b;fill-opacity:1;fill-rule:nonzero;stroke:none"
             d="m 0,0 c 0.778,-2.201 1.718,-4.279 2.817,-6.234 1.099,-1.957 2.341,-3.631 3.728,-5.023 1.385,-1.394 2.898,-2.375 4.536,-2.944 1.637,-0.569 3.376,-0.543 5.214,0.078 1.839,0.621 3.223,1.649 4.152,3.086 0.929,1.434 1.497,3.12 1.708,5.053 0.21,1.931 0.129,3.998 -0.242,6.2 -0.371,2.2 -0.946,4.402 -1.724,6.603 -0.813,2.298 -1.782,4.462 -2.907,6.491 -1.126,2.028 -2.386,3.752 -3.781,5.17 -1.395,1.417 -2.911,2.41 -4.549,2.98 C 7.315,22.028 5.576,22.003 3.738,21.382 1.898,20.76 0.515,19.731 -0.413,18.297 -1.343,16.86 -1.908,15.164 -2.109,13.207 -2.31,11.25 -2.211,9.135 -1.815,6.86 -1.418,4.584 -0.813,2.298 0,0 M -8.169,-2.759 C -9.535,1.103 -10.4,4.864 -10.76,8.52 c -0.361,3.655 -0.203,6.993 0.476,10.015 0.679,3.021 1.895,5.621 3.648,7.801 1.753,2.18 4.069,3.756 6.949,4.729 2.879,0.972 5.696,1.13 8.453,0.473 2.756,-0.657 5.356,-1.968 7.799,-3.935 2.444,-1.967 4.679,-4.497 6.705,-7.59 2.026,-3.093 3.722,-6.572 5.089,-10.435 1.331,-3.766 2.169,-7.452 2.513,-11.058 0.344,-3.608 0.167,-6.897 -0.529,-9.869 -0.696,-2.973 -1.921,-5.549 -3.674,-7.729 -1.754,-2.179 -4.069,-3.756 -6.948,-4.728 -2.88,-0.972 -5.698,-1.13 -8.454,-0.474 -2.756,0.657 -5.347,1.944 -7.773,3.863 -2.426,1.917 -4.643,4.398 -6.653,7.443 -2.008,3.043 -3.678,6.448 -5.01,10.215" /></g><g
           transform="translate(668.2436,142.4366)"
           id="g144"><path
             id="path146"
             style="fill:#24344b;fill-opacity:1;fill-rule:nonzero;stroke:none"
             d="m 0,0 7.657,3.801 31.856,-25.889 0.098,0.049 -17.228,33.148 7.217,3.581 25.678,-49.411 -7.707,-3.824 -31.769,25.843 -0.099,-0.049 17.192,-33.078 -7.217,-3.581 z" /></g><g
           transform="translate(733.5459,159.5643)"
           id="g148"><path
             id="path150"
             style="fill:#24344b;fill-opacity:1;fill-rule:nonzero;stroke:none"
             d="m 0,0 c -0.973,1.033 -2.021,1.867 -3.146,2.5 -1.124,0.632 -2.263,1.076 -3.42,1.331 -1.156,0.255 -2.274,0.294 -3.354,0.121 -1.081,-0.176 -2.048,-0.573 -2.901,-1.195 -1.559,-1.138 -2.558,-2.528 -2.997,-4.171 -0.439,-1.644 -0.452,-3.428 -0.035,-5.351 0.415,-1.925 1.166,-3.912 2.25,-5.962 1.085,-2.051 2.371,-4.05 3.859,-5.999 1.425,-1.865 2.965,-3.568 4.619,-5.105 1.655,-1.538 3.358,-2.765 5.112,-3.681 1.754,-0.917 3.498,-1.404 5.236,-1.46 1.737,-0.057 3.385,0.483 4.945,1.621 2.118,1.544 3.069,3.672 2.85,6.387 -0.217,2.713 -1.317,5.639 -3.301,8.778 l 6.707,4.89 c 1.945,-2.908 3.404,-5.75 4.379,-8.525 0.974,-2.775 1.461,-5.392 1.458,-7.846 -0.003,-2.457 -0.489,-4.699 -1.458,-6.728 -0.97,-2.029 -2.424,-3.752 -4.366,-5.168 -2.442,-1.781 -5.077,-2.766 -7.908,-2.958 -2.83,-0.192 -5.698,0.267 -8.606,1.376 -2.907,1.108 -5.789,2.814 -8.649,5.121 -2.859,2.305 -5.507,5.053 -7.946,8.247 -2.501,3.276 -4.492,6.603 -5.97,9.979 -1.48,3.377 -2.364,6.605 -2.655,9.685 -0.291,3.08 0.06,5.918 1.054,8.516 0.993,2.596 2.711,4.784 5.153,6.565 1.735,1.265 3.645,2.109 5.728,2.53 2.083,0.42 4.248,0.402 6.498,-0.055 2.25,-0.458 4.532,-1.392 6.846,-2.804 C 2.297,9.227 4.538,7.311 6.707,4.89 Z" /></g><g
           transform="translate(730.978,181.622)"
           id="g152"><path
             id="path154"
             style="fill:#24344b;fill-opacity:1;fill-rule:nonzero;stroke:none"
             d="M 0,0 20.784,20.319 28.199,13.076 13.526,-1.269 22.12,-9.664 35.587,3.502 42.44,-3.193 28.974,-16.358 l 9.83,-9.602 14.984,14.649 7.416,-7.243 -21.095,-20.623 z" /></g><g
           transform="translate(780.4504,195.2281)"
           id="g156"><path
             id="path158"
             style="fill:#24344b;fill-opacity:1;fill-rule:nonzero;stroke:none"
             d="M 0,0 4.148,5.163 C 4.76,5.925 5.265,6.722 5.665,7.555 6.066,8.388 6.241,9.256 6.192,10.16 6.145,11.063 5.813,12.013 5.199,13.008 4.585,14.003 3.57,15.044 2.154,16.131 0.738,17.217 -0.538,17.933 -1.673,18.28 -2.809,18.626 -3.831,18.715 -4.74,18.547 -5.65,18.378 -6.471,18.004 -7.204,17.428 -7.937,16.85 -8.61,16.18 -9.222,15.419 l -4.147,-5.163 z m -26.329,9.459 10.947,13.626 c 1.518,1.89 3.216,3.186 5.093,3.89 1.877,0.703 3.818,0.959 5.818,0.77 2.002,-0.192 4.02,-0.759 6.054,-1.704 2.035,-0.945 3.948,-2.104 5.738,-3.478 1.834,-1.406 3.45,-2.954 4.852,-4.645 1.402,-1.691 2.434,-3.464 3.099,-5.317 0.665,-1.856 0.87,-3.758 0.617,-5.706 C 15.635,4.945 14.75,3.026 13.231,1.136 L 7.622,-5.847 23.616,-18.116 18.279,-24.76 Z" /></g><g
           transform="translate(805.1262,243.1386)"
           id="g160"><path
             id="path162"
             style="fill:#24344b;fill-opacity:1;fill-rule:nonzero;stroke:none"
             d="m 0,0 c -1.293,0.614 -2.581,1.014 -3.864,1.201 -1.284,0.186 -2.51,0.191 -3.682,0.014 -1.171,-0.176 -2.226,-0.54 -3.166,-1.089 -0.94,-0.548 -1.691,-1.265 -2.252,-2.149 -1.025,-1.616 -1.432,-3.268 -1.225,-4.954 0.206,-1.687 0.864,-3.351 1.973,-4.992 1.107,-1.642 2.55,-3.223 4.327,-4.741 1.779,-1.52 3.724,-2.921 5.839,-4.202 2.026,-1.226 4.096,-2.258 6.212,-3.097 2.116,-0.839 4.162,-1.371 6.136,-1.596 1.975,-0.226 3.782,-0.055 5.42,0.515 1.637,0.569 2.968,1.661 3.994,3.278 1.392,2.195 1.478,4.515 0.258,6.964 -1.219,2.447 -3.339,4.776 -6.361,6.986 l 4.408,6.951 c 2.899,-2.01 5.322,-4.132 7.269,-6.366 1.948,-2.233 3.38,-4.494 4.297,-6.779 0.918,-2.287 1.307,-4.547 1.165,-6.782 -0.141,-2.235 -0.849,-4.359 -2.125,-6.371 -1.605,-2.532 -3.689,-4.391 -6.25,-5.582 -2.562,-1.192 -5.403,-1.792 -8.524,-1.8 -3.12,-0.01 -6.442,0.547 -9.967,1.669 -3.524,1.121 -7.019,2.731 -10.485,4.831 -3.555,2.153 -6.654,4.536 -9.296,7.149 -2.641,2.612 -4.674,5.3 -6.1,8.062 -1.425,2.762 -2.162,5.528 -2.21,8.301 -0.049,2.771 0.729,5.423 2.335,7.953 1.14,1.799 2.601,3.267 4.38,4.404 1.781,1.137 3.804,1.895 6.068,2.275 2.266,0.378 4.739,0.326 7.422,-0.159 2.682,-0.485 5.486,-1.467 8.413,-2.943 z" /></g><g
           transform="translate(795.1931,264.0856)"
           id="g164"><path
             id="path166"
             style="fill:#24344b;fill-opacity:1;fill-rule:nonzero;stroke:none"
             d="m 0,0 4.015,7.48 50.22,-25.742 -4.016,-7.48 z" /></g><g
           transform="translate(831.2108,271.6771)"
           id="g168"><path
             id="path170"
             style="fill:#24344b;fill-opacity:1;fill-rule:nonzero;stroke:none"
             d="m 0,0 c 2.18,-0.94 4.377,-1.683 6.591,-2.226 2.215,-0.544 4.317,-0.794 6.303,-0.749 1.989,0.044 3.754,0.459 5.295,1.244 1.541,0.785 2.705,2.048 3.49,3.788 0.785,1.738 0.956,3.429 0.512,5.072 -0.444,1.642 -1.32,3.195 -2.626,4.661 -1.306,1.465 -2.909,2.814 -4.814,4.046 -1.902,1.233 -3.944,2.319 -6.124,3.26 -2.276,0.982 -4.558,1.76 -6.846,2.336 -2.286,0.575 -4.436,0.845 -6.448,0.812 -2.013,-0.035 -3.789,-0.444 -5.33,-1.229 -1.541,-0.786 -2.705,-2.049 -3.491,-3.787 -0.785,-1.74 -0.955,-3.431 -0.512,-5.072 0.445,-1.643 1.332,-3.202 2.663,-4.678 1.33,-1.475 2.983,-2.845 4.959,-4.109 C -4.402,2.105 -2.276,0.982 0,0 m -3.491,-7.727 c -3.826,1.65 -7.233,3.591 -10.22,5.821 -2.987,2.228 -5.381,4.615 -7.185,7.157 -1.803,2.542 -2.925,5.181 -3.367,7.921 -0.441,2.739 -0.047,5.47 1.184,8.193 1.231,2.724 3.03,4.848 5.398,6.376 2.368,1.525 5.121,2.495 8.258,2.906 3.138,0.41 6.555,0.288 10.253,-0.366 3.698,-0.654 7.462,-1.807 11.288,-3.458 3.731,-1.609 7.064,-3.518 10.001,-5.726 2.94,-2.209 5.286,-4.574 7.041,-7.094 C 30.915,11.48 32.013,8.85 32.454,6.112 32.895,3.373 32.5,0.642 31.271,-2.081 30.04,-4.805 28.24,-6.93 25.872,-8.456 c -2.367,-1.528 -5.095,-2.506 -8.185,-2.938 -3.089,-0.432 -6.458,-0.331 -10.109,0.303 -3.648,0.634 -7.338,1.754 -11.069,3.364 m -22.075,32.812 -2.202,-4.873 -8.183,9.176 3.491,7.727 z" /></g><g
           transform="translate(818.4835,313.4649)"
           id="g172"><path
             id="path174"
             style="fill:#24344b;fill-opacity:1;fill-rule:nonzero;stroke:none"
             d="m 0,0 2.779,7.942 41.306,3.14 0.036,0.102 L 8.123,23.213 10.741,30.696 64.401,12.765 61.604,4.773 20.39,1.658 20.355,1.556 56.278,-10.448 53.659,-17.931 Z" /></g><path
           id="path176"
           style="fill:#24344b;fill-opacity:1;fill-rule:nonzero;stroke:none"
           d="M 660.824,298.473 H 419.177 v 8.924 h 241.647 z" /><path
           id="path178"
           style="fill:#24344b;fill-opacity:1;fill-rule:nonzero;stroke:none"
           d="M 660.824,315.095 H 419.177 v 8.924 h 241.647 z" /><path
           id="path180"
           style="fill:#24344b;fill-opacity:1;fill-rule:nonzero;stroke:none"
           d="M 660.379,278.811 H 419.621 v 11.899 h 240.758 z" /><path
           id="path182"
           style="fill:#24344b;fill-opacity:1;fill-rule:nonzero;stroke:none"
           d="M 660.379,259.214 H 419.621 v 11.899 h 240.758 z" /><path
           id="path184"
           style="fill:#24344b;fill-opacity:1;fill-rule:nonzero;stroke:none"
           d="M 659.823,216.04 H 420.176 v 13.919 h 239.647 z" /><path
           id="path186"
           style="fill:#24344b;fill-opacity:1;fill-rule:nonzero;stroke:none"
           d="M 659.823,237.658 H 420.176 v 13.858 h 239.647 z" /><path
           id="path188"
           style="fill:#24344b;fill-opacity:1;fill-rule:nonzero;stroke:none"
           d="M 668.08,331.718 H 411.708 v 4.614 H 668.08 Z" /><g
           transform="translate(577.3777,775.611)"
           id="g190"><path
             id="path192"
             style="fill:#3473b3;fill-opacity:1;fill-rule:nonzero;stroke:none"
             d="M 0,0 C 1.372,0 1.372,2.128 0,2.128 -1.372,2.128 -1.372,0 0,0" /></g><path
           id="path194"
           style="fill:#24344b;fill-opacity:1;fill-rule:nonzero;stroke:none"
           d="m 511.7,432.34 h 64.298 V 785.664 H 511.7 Z m 68.553,-4.255 h -72.808 v 361.834 h 72.808 z" /><path
           id="path196"
           style="fill:#24344b;fill-opacity:1;fill-rule:nonzero;stroke:none"
           d="m 551.942,438.881 h -17.32 v 41.431 h 17.32 z" /><path
           id="path198"
           style="fill:#24344b;fill-opacity:1;fill-rule:nonzero;stroke:none"
           d="m 578.036,508.615 h -68.553 v 4.255 h 68.553 z" /><path
           id="path200"
           style="fill:#24344b;fill-opacity:1;fill-rule:nonzero;stroke:none"
           d="m 578.126,720.753 h -68.553 v 4.255 h 68.553 z" /><g
           transform="translate(543.6655,778.5022)"
           id="g202"><path
             id="path204"
             style="fill:#24344b;fill-opacity:1;fill-rule:nonzero;stroke:none"
             d="m 0,0 c -12.496,0 -22.663,-10.167 -22.663,-22.664 0,-12.497 10.167,-22.664 22.663,-22.664 12.498,0 22.665,10.167 22.665,22.664 C 22.665,-10.167 12.498,0 0,0 m 0,-49.583 c -14.843,0 -26.918,12.076 -26.918,26.919 0,14.843 12.075,26.919 26.918,26.919 14.844,0 26.92,-12.076 26.92,-26.919 0,-14.843 -12.076,-26.919 -26.92,-26.919" /></g><g
           transform="translate(543.9041,749.5792)"
           id="g206"><path
             id="path208"
             style="fill:#24344b;fill-opacity:1;fill-rule:nonzero;stroke:none"
             d="m 0,0 -9.547,8.414 2.814,3.192 6.256,-5.515 10.625,12.809 3.275,-2.716 z" /></g><g
           transform="translate(544.1844,851.5543)"
           id="g210"><path
             id="path212"
             style="fill:#24344b;fill-opacity:1;fill-rule:nonzero;stroke:none"
             d="m 0,0 -35.4,-61.743 71.171,0.214 z m -42.757,-66.02 42.731,74.53 43.18,-74.271 z" /></g><path
           id="path214"
           style="fill:#24344b;fill-opacity:1;fill-rule:nonzero;stroke:none"
           d="m 575.102,799.852 h -61.754 v 4.255 h 61.754 z" /><path
           id="path216"
           style="fill:#24344b;fill-opacity:1;fill-rule:nonzero;stroke:none"
           d="m 565.842,814.52 h -43.233 v 4.255 h 43.233 z" /><path
           id="path218"
           style="fill:#24344b;fill-opacity:1;fill-rule:nonzero;stroke:none"
           d="m 558.518,829.188 h -28.584 v 4.255 h 28.584 z" /><path
           id="path220"
           style="fill:#24344b;fill-opacity:1;fill-rule:nonzero;stroke:none"
           d="m 547.676,655.902 h -8.788 v 15.38 h 8.788 z" /><path
           id="path222"
           style="fill:#24344b;fill-opacity:1;fill-rule:nonzero;stroke:none"
           d="m 547.676,630.508 h -8.788 v 15.38 h 8.788 z" /><path
           id="path224"
           style="fill:#24344b;fill-opacity:1;fill-rule:nonzero;stroke:none"
           d="m 547.676,605.114 h -8.788 v 15.38 h 8.788 z" /><path
           id="path226"
           style="fill:#24344b;fill-opacity:1;fill-rule:nonzero;stroke:none"
           d="m 547.676,579.72 h -8.788 v 15.381 h 8.788 z" /><path
           id="path228"
           style="fill:#24344b;fill-opacity:1;fill-rule:nonzero;stroke:none"
           d="m 547.676,554.326 h -8.788 v 15.38 h 8.788 z" /><path
           id="path230"
           style="fill:#24344b;fill-opacity:1;fill-rule:nonzero;stroke:none"
           d="m 547.676,528.932 h -8.788 v 15.381 h 8.788 z" /><path
           id="path232"
           style="fill:#24344b;fill-opacity:1;fill-rule:nonzero;stroke:none"
           d="m 529,682.877 h -7.91 v 20.088 H 529 Z" /><path
           id="path234"
           style="fill:#24344b;fill-opacity:1;fill-rule:nonzero;stroke:none"
           d="m 547.237,682.877 h -7.91 v 19.745 h 7.91 z" /><g
           transform="translate(525.0452,683.0284)"
           id="g236"><path
             id="path238"
             style="fill:#24344b;fill-opacity:1;fill-rule:nonzero;stroke:none"
             d="m 0,0 v 0 c -2.184,0 -3.955,1.77 -3.955,3.955 v 21.972 c 0,2.184 1.771,3.955 3.955,3.955 2.184,0 3.955,-1.771 3.955,-3.955 V 3.955 C 3.955,1.77 2.184,0 0,0" /></g><g
           transform="translate(543.2819,683.0284)"
           id="g240"><path
             id="path242"
             style="fill:#24344b;fill-opacity:1;fill-rule:nonzero;stroke:none"
             d="m 0,0 v 0 c -2.184,0 -3.955,1.77 -3.955,3.955 v 21.972 c 0,2.184 1.771,3.955 3.955,3.955 2.184,0 3.955,-1.771 3.955,-3.955 V 3.955 C 3.955,1.77 2.184,0 0,0" /></g><path
           id="path244"
           style="fill:#24344b;fill-opacity:1;fill-rule:nonzero;stroke:none"
           d="m 565.474,682.877 h -7.91 v 19.994 h 7.91 z" /><g
           transform="translate(561.5189,683.0284)"
           id="g246"><path
             id="path248"
             style="fill:#24344b;fill-opacity:1;fill-rule:nonzero;stroke:none"
             d="m 0,0 v 0 c -2.184,0 -3.955,1.77 -3.955,3.955 v 21.972 c 0,2.184 1.771,3.955 3.955,3.955 2.184,0 3.955,-1.771 3.955,-3.955 V 3.955 C 3.955,1.77 2.184,0 0,0" /></g><g
           transform="translate(639.3163,336.6115)"
           id="g250"><path
             id="path252"
             style="fill:#eee304;fill-opacity:1;fill-rule:nonzero;stroke:none"
             d="m 0,0 h -195.331 l 36.253,100.192 h 122.276 z" /></g><g
           transform="translate(447.0177,338.7387)"
           id="g254"><path
             id="path256"
             style="fill:#24344b;fill-opacity:1;fill-rule:nonzero;stroke:none"
             d="M 0,0 H 189.251 L 154.012,95.937 H 34.714 Z M 195.347,-4.255 H -6.064 l 37.792,104.447 h 125.253 z" /></g><g
           transform="translate(621.1902,351.9918)"
           id="g258"><path
             id="path260"
             style="fill:#24344b;fill-opacity:1;fill-rule:nonzero;stroke:none"
             d="m 0,0 h -156.88 l 25.086,72.947 h 104.346 z" /></g></g></g></g></svg>